<svg xmlns="http://www.w3.org/2000/svg" xmlns:xlink="http://www.w3.org/1999/xlink" width="1420" zoomAndPan="magnify" viewBox="0 0 1065 112.499997" height="150" preserveAspectRatio="xMidYMid meet" version="1.0"><defs><g/><clipPath id="b46c57bb73"><path d="M 2.355469 0 L 1062.644531 0 L 1062.644531 112.003906 L 2.355469 112.003906 Z M 2.355469 0 " clip-rule="nonzero"/></clipPath><linearGradient x1="0" gradientTransform="matrix(0.746681, 0, 0, 0.746681, 2.35621, 0)" y1="0" x2="1419.999941" gradientUnits="userSpaceOnUse" y2="0" id="cccc4a9d66"><stop stop-opacity="1" stop-color="rgb(5.099487%, 0%, 44.699097%)" offset="0"/><stop stop-opacity="1" stop-color="rgb(5.233765%, 0.311279%, 45.045471%)" offset="0.00390625"/><stop stop-opacity="1" stop-color="rgb(5.369568%, 0.624084%, 45.391846%)" offset="0.0078125"/><stop stop-opacity="1" stop-color="rgb(5.503845%, 0.93689%, 45.736694%)" offset="0.0117188"/><stop stop-opacity="1" stop-color="rgb(5.639648%, 1.249695%, 46.083069%)" offset="0.015625"/><stop stop-opacity="1" stop-color="rgb(5.773926%, 1.560974%, 46.429443%)" offset="0.0195312"/><stop stop-opacity="1" stop-color="rgb(5.909729%, 1.873779%, 46.775818%)" offset="0.0234375"/><stop stop-opacity="1" stop-color="rgb(6.044006%, 2.186584%, 47.122192%)" offset="0.0273438"/><stop stop-opacity="1" stop-color="rgb(6.17981%, 2.49939%, 47.468567%)" offset="0.03125"/><stop stop-opacity="1" stop-color="rgb(6.315613%, 2.810669%, 47.813416%)" offset="0.0351562"/><stop stop-opacity="1" stop-color="rgb(6.451416%, 3.123474%, 48.15979%)" offset="0.0390625"/><stop stop-opacity="1" stop-color="rgb(6.585693%, 3.436279%, 48.506165%)" offset="0.0429688"/><stop stop-opacity="1" stop-color="rgb(6.721497%, 3.749084%, 48.852539%)" offset="0.046875"/><stop stop-opacity="1" stop-color="rgb(6.855774%, 4.06189%, 49.198914%)" offset="0.0507812"/><stop stop-opacity="1" stop-color="rgb(6.991577%, 4.374695%, 49.545288%)" offset="0.0546875"/><stop stop-opacity="1" stop-color="rgb(7.125854%, 4.685974%, 49.890137%)" offset="0.0585938"/><stop stop-opacity="1" stop-color="rgb(7.261658%, 4.998779%, 50.236511%)" offset="0.0625"/><stop stop-opacity="1" stop-color="rgb(7.395935%, 5.311584%, 50.582886%)" offset="0.0664062"/><stop stop-opacity="1" stop-color="rgb(7.531738%, 5.62439%, 50.92926%)" offset="0.0703125"/><stop stop-opacity="1" stop-color="rgb(7.666016%, 5.935669%, 51.274109%)" offset="0.0742188"/><stop stop-opacity="1" stop-color="rgb(7.801819%, 6.248474%, 51.620483%)" offset="0.078125"/><stop stop-opacity="1" stop-color="rgb(7.937622%, 6.561279%, 51.966858%)" offset="0.0820312"/><stop stop-opacity="1" stop-color="rgb(8.073425%, 6.874084%, 52.313232%)" offset="0.0859375"/><stop stop-opacity="1" stop-color="rgb(8.207703%, 7.18689%, 52.659607%)" offset="0.0898438"/><stop stop-opacity="1" stop-color="rgb(8.343506%, 7.499695%, 53.005981%)" offset="0.09375"/><stop stop-opacity="1" stop-color="rgb(8.477783%, 7.810974%, 53.35083%)" offset="0.0976562"/><stop stop-opacity="1" stop-color="rgb(8.613586%, 8.123779%, 53.697205%)" offset="0.101562"/><stop stop-opacity="1" stop-color="rgb(8.747864%, 8.436584%, 54.043579%)" offset="0.105469"/><stop stop-opacity="1" stop-color="rgb(8.883667%, 8.74939%, 54.389954%)" offset="0.109375"/><stop stop-opacity="1" stop-color="rgb(9.017944%, 9.060669%, 54.736328%)" offset="0.113281"/><stop stop-opacity="1" stop-color="rgb(9.153748%, 9.373474%, 55.082703%)" offset="0.117188"/><stop stop-opacity="1" stop-color="rgb(9.288025%, 9.686279%, 55.427551%)" offset="0.121094"/><stop stop-opacity="1" stop-color="rgb(9.423828%, 9.999084%, 55.773926%)" offset="0.125"/><stop stop-opacity="1" stop-color="rgb(9.558105%, 10.31189%, 56.1203%)" offset="0.128906"/><stop stop-opacity="1" stop-color="rgb(9.693909%, 10.624695%, 56.466675%)" offset="0.132812"/><stop stop-opacity="1" stop-color="rgb(9.829712%, 10.935974%, 56.811523%)" offset="0.136719"/><stop stop-opacity="1" stop-color="rgb(9.965515%, 11.248779%, 57.157898%)" offset="0.140625"/><stop stop-opacity="1" stop-color="rgb(10.099792%, 11.561584%, 57.504272%)" offset="0.144531"/><stop stop-opacity="1" stop-color="rgb(10.235596%, 11.87439%, 57.850647%)" offset="0.148438"/><stop stop-opacity="1" stop-color="rgb(10.369873%, 12.185669%, 58.197021%)" offset="0.152344"/><stop stop-opacity="1" stop-color="rgb(10.505676%, 12.498474%, 58.543396%)" offset="0.15625"/><stop stop-opacity="1" stop-color="rgb(10.639954%, 12.811279%, 58.888245%)" offset="0.160156"/><stop stop-opacity="1" stop-color="rgb(10.775757%, 13.124084%, 59.234619%)" offset="0.164062"/><stop stop-opacity="1" stop-color="rgb(10.910034%, 13.43689%, 59.580994%)" offset="0.167969"/><stop stop-opacity="1" stop-color="rgb(11.045837%, 13.749695%, 59.927368%)" offset="0.171875"/><stop stop-opacity="1" stop-color="rgb(11.180115%, 14.060974%, 60.273743%)" offset="0.175781"/><stop stop-opacity="1" stop-color="rgb(11.315918%, 14.373779%, 60.620117%)" offset="0.179688"/><stop stop-opacity="1" stop-color="rgb(11.450195%, 14.686584%, 60.964966%)" offset="0.183594"/><stop stop-opacity="1" stop-color="rgb(11.585999%, 14.99939%, 61.31134%)" offset="0.1875"/><stop stop-opacity="1" stop-color="rgb(11.721802%, 15.310669%, 61.657715%)" offset="0.191406"/><stop stop-opacity="1" stop-color="rgb(11.857605%, 15.623474%, 62.004089%)" offset="0.195312"/><stop stop-opacity="1" stop-color="rgb(11.991882%, 15.936279%, 62.350464%)" offset="0.199219"/><stop stop-opacity="1" stop-color="rgb(12.127686%, 16.249084%, 62.696838%)" offset="0.203125"/><stop stop-opacity="1" stop-color="rgb(12.261963%, 16.56189%, 63.041687%)" offset="0.207031"/><stop stop-opacity="1" stop-color="rgb(12.397766%, 16.874695%, 63.388062%)" offset="0.210938"/><stop stop-opacity="1" stop-color="rgb(12.532043%, 17.185974%, 63.734436%)" offset="0.214844"/><stop stop-opacity="1" stop-color="rgb(12.667847%, 17.498779%, 64.080811%)" offset="0.21875"/><stop stop-opacity="1" stop-color="rgb(12.802124%, 17.811584%, 64.425659%)" offset="0.222656"/><stop stop-opacity="1" stop-color="rgb(12.937927%, 18.12439%, 64.772034%)" offset="0.226562"/><stop stop-opacity="1" stop-color="rgb(13.072205%, 18.435669%, 65.118408%)" offset="0.230469"/><stop stop-opacity="1" stop-color="rgb(13.208008%, 18.748474%, 65.464783%)" offset="0.234375"/><stop stop-opacity="1" stop-color="rgb(13.343811%, 19.061279%, 65.811157%)" offset="0.238281"/><stop stop-opacity="1" stop-color="rgb(13.479614%, 19.374084%, 66.157532%)" offset="0.242188"/><stop stop-opacity="1" stop-color="rgb(13.613892%, 19.68689%, 66.50238%)" offset="0.246094"/><stop stop-opacity="1" stop-color="rgb(13.749695%, 19.999695%, 66.848755%)" offset="0.25"/><stop stop-opacity="1" stop-color="rgb(13.883972%, 20.310974%, 67.195129%)" offset="0.253906"/><stop stop-opacity="1" stop-color="rgb(14.019775%, 20.623779%, 67.541504%)" offset="0.257812"/><stop stop-opacity="1" stop-color="rgb(14.154053%, 20.936584%, 67.887878%)" offset="0.261719"/><stop stop-opacity="1" stop-color="rgb(14.289856%, 21.24939%, 68.234253%)" offset="0.265625"/><stop stop-opacity="1" stop-color="rgb(14.424133%, 21.560669%, 68.579102%)" offset="0.269531"/><stop stop-opacity="1" stop-color="rgb(14.559937%, 21.873474%, 68.925476%)" offset="0.273438"/><stop stop-opacity="1" stop-color="rgb(14.694214%, 22.186279%, 69.271851%)" offset="0.277344"/><stop stop-opacity="1" stop-color="rgb(14.830017%, 22.499084%, 69.618225%)" offset="0.28125"/><stop stop-opacity="1" stop-color="rgb(14.964294%, 22.81189%, 69.963074%)" offset="0.285156"/><stop stop-opacity="1" stop-color="rgb(15.100098%, 23.124695%, 70.309448%)" offset="0.289062"/><stop stop-opacity="1" stop-color="rgb(15.235901%, 23.435974%, 70.655823%)" offset="0.292969"/><stop stop-opacity="1" stop-color="rgb(15.371704%, 23.748779%, 71.002197%)" offset="0.296875"/><stop stop-opacity="1" stop-color="rgb(15.505981%, 24.061584%, 71.348572%)" offset="0.300781"/><stop stop-opacity="1" stop-color="rgb(15.641785%, 24.37439%, 71.694946%)" offset="0.304688"/><stop stop-opacity="1" stop-color="rgb(15.776062%, 24.685669%, 72.039795%)" offset="0.308594"/><stop stop-opacity="1" stop-color="rgb(15.911865%, 24.998474%, 72.386169%)" offset="0.3125"/><stop stop-opacity="1" stop-color="rgb(16.046143%, 25.311279%, 72.732544%)" offset="0.316406"/><stop stop-opacity="1" stop-color="rgb(16.181946%, 25.624084%, 73.078918%)" offset="0.320312"/><stop stop-opacity="1" stop-color="rgb(16.316223%, 25.93689%, 73.425293%)" offset="0.324219"/><stop stop-opacity="1" stop-color="rgb(16.452026%, 26.249695%, 73.771667%)" offset="0.328125"/><stop stop-opacity="1" stop-color="rgb(16.586304%, 26.560974%, 74.116516%)" offset="0.332031"/><stop stop-opacity="1" stop-color="rgb(16.722107%, 26.873779%, 74.462891%)" offset="0.335938"/><stop stop-opacity="1" stop-color="rgb(16.85791%, 27.186584%, 74.809265%)" offset="0.339844"/><stop stop-opacity="1" stop-color="rgb(16.993713%, 27.49939%, 75.15564%)" offset="0.34375"/><stop stop-opacity="1" stop-color="rgb(17.127991%, 27.810669%, 75.502014%)" offset="0.347656"/><stop stop-opacity="1" stop-color="rgb(17.263794%, 28.123474%, 75.848389%)" offset="0.351562"/><stop stop-opacity="1" stop-color="rgb(17.398071%, 28.436279%, 76.193237%)" offset="0.355469"/><stop stop-opacity="1" stop-color="rgb(17.533875%, 28.749084%, 76.539612%)" offset="0.359375"/><stop stop-opacity="1" stop-color="rgb(17.668152%, 29.06189%, 76.885986%)" offset="0.363281"/><stop stop-opacity="1" stop-color="rgb(17.803955%, 29.374695%, 77.232361%)" offset="0.367188"/><stop stop-opacity="1" stop-color="rgb(17.938232%, 29.685974%, 77.577209%)" offset="0.371094"/><stop stop-opacity="1" stop-color="rgb(18.074036%, 29.998779%, 77.923584%)" offset="0.375"/><stop stop-opacity="1" stop-color="rgb(18.208313%, 30.311584%, 78.269958%)" offset="0.378906"/><stop stop-opacity="1" stop-color="rgb(18.344116%, 30.62439%, 78.616333%)" offset="0.382812"/><stop stop-opacity="1" stop-color="rgb(18.478394%, 30.935669%, 78.962708%)" offset="0.386719"/><stop stop-opacity="1" stop-color="rgb(18.614197%, 31.248474%, 79.309082%)" offset="0.390625"/><stop stop-opacity="1" stop-color="rgb(18.75%, 31.561279%, 79.653931%)" offset="0.394531"/><stop stop-opacity="1" stop-color="rgb(18.885803%, 31.874084%, 80.000305%)" offset="0.398438"/><stop stop-opacity="1" stop-color="rgb(19.020081%, 32.18689%, 80.34668%)" offset="0.402344"/><stop stop-opacity="1" stop-color="rgb(19.155884%, 32.499695%, 80.693054%)" offset="0.40625"/><stop stop-opacity="1" stop-color="rgb(19.290161%, 32.810974%, 81.039429%)" offset="0.410156"/><stop stop-opacity="1" stop-color="rgb(19.425964%, 33.123779%, 81.385803%)" offset="0.414062"/><stop stop-opacity="1" stop-color="rgb(19.560242%, 33.436584%, 81.730652%)" offset="0.417969"/><stop stop-opacity="1" stop-color="rgb(19.696045%, 33.74939%, 82.077026%)" offset="0.421875"/><stop stop-opacity="1" stop-color="rgb(19.830322%, 34.060669%, 82.423401%)" offset="0.425781"/><stop stop-opacity="1" stop-color="rgb(19.966125%, 34.373474%, 82.769775%)" offset="0.429688"/><stop stop-opacity="1" stop-color="rgb(20.100403%, 34.686279%, 83.114624%)" offset="0.433594"/><stop stop-opacity="1" stop-color="rgb(20.236206%, 34.999084%, 83.460999%)" offset="0.4375"/><stop stop-opacity="1" stop-color="rgb(20.370483%, 35.31189%, 83.807373%)" offset="0.441406"/><stop stop-opacity="1" stop-color="rgb(20.506287%, 35.624695%, 84.153748%)" offset="0.445312"/><stop stop-opacity="1" stop-color="rgb(20.64209%, 35.935974%, 84.500122%)" offset="0.449219"/><stop stop-opacity="1" stop-color="rgb(20.777893%, 36.248779%, 84.846497%)" offset="0.453125"/><stop stop-opacity="1" stop-color="rgb(20.91217%, 36.561584%, 85.191345%)" offset="0.457031"/><stop stop-opacity="1" stop-color="rgb(21.047974%, 36.87439%, 85.53772%)" offset="0.460938"/><stop stop-opacity="1" stop-color="rgb(21.182251%, 37.185669%, 85.884094%)" offset="0.464844"/><stop stop-opacity="1" stop-color="rgb(21.318054%, 37.498474%, 86.230469%)" offset="0.46875"/><stop stop-opacity="1" stop-color="rgb(21.452332%, 37.811279%, 86.576843%)" offset="0.472656"/><stop stop-opacity="1" stop-color="rgb(21.588135%, 38.124084%, 86.923218%)" offset="0.476562"/><stop stop-opacity="1" stop-color="rgb(21.722412%, 38.43689%, 87.268066%)" offset="0.480469"/><stop stop-opacity="1" stop-color="rgb(21.858215%, 38.749695%, 87.614441%)" offset="0.484375"/><stop stop-opacity="1" stop-color="rgb(21.992493%, 39.060974%, 87.960815%)" offset="0.488281"/><stop stop-opacity="1" stop-color="rgb(22.128296%, 39.373779%, 88.30719%)" offset="0.492188"/><stop stop-opacity="1" stop-color="rgb(22.264099%, 39.686584%, 88.653564%)" offset="0.496094"/><stop stop-opacity="1" stop-color="rgb(22.399902%, 39.99939%, 88.999939%)" offset="0.5"/><stop stop-opacity="1" stop-color="rgb(22.579956%, 39.862061%, 88.999939%)" offset="0.507812"/><stop stop-opacity="1" stop-color="rgb(22.940063%, 39.585876%, 88.999939%)" offset="0.515625"/><stop stop-opacity="1" stop-color="rgb(23.301697%, 39.311218%, 88.999939%)" offset="0.523438"/><stop stop-opacity="1" stop-color="rgb(23.661804%, 39.03656%, 88.999939%)" offset="0.53125"/><stop stop-opacity="1" stop-color="rgb(24.023438%, 38.761902%, 88.999939%)" offset="0.539062"/><stop stop-opacity="1" stop-color="rgb(24.383545%, 38.487244%, 88.999939%)" offset="0.546875"/><stop stop-opacity="1" stop-color="rgb(24.745178%, 38.21106%, 88.999939%)" offset="0.554688"/><stop stop-opacity="1" stop-color="rgb(25.105286%, 37.936401%, 88.999939%)" offset="0.5625"/><stop stop-opacity="1" stop-color="rgb(25.466919%, 37.661743%, 88.999939%)" offset="0.570312"/><stop stop-opacity="1" stop-color="rgb(25.827026%, 37.387085%, 88.999939%)" offset="0.578125"/><stop stop-opacity="1" stop-color="rgb(26.18866%, 37.110901%, 88.999939%)" offset="0.585938"/><stop stop-opacity="1" stop-color="rgb(26.550293%, 36.836243%, 88.999939%)" offset="0.59375"/><stop stop-opacity="1" stop-color="rgb(26.9104%, 36.561584%, 88.999939%)" offset="0.601562"/><stop stop-opacity="1" stop-color="rgb(27.272034%, 36.286926%, 88.999939%)" offset="0.609375"/><stop stop-opacity="1" stop-color="rgb(27.632141%, 36.012268%, 88.999939%)" offset="0.617188"/><stop stop-opacity="1" stop-color="rgb(27.993774%, 35.736084%, 88.999939%)" offset="0.625"/><stop stop-opacity="1" stop-color="rgb(28.353882%, 35.461426%, 88.999939%)" offset="0.632812"/><stop stop-opacity="1" stop-color="rgb(28.715515%, 35.186768%, 88.999939%)" offset="0.640625"/><stop stop-opacity="1" stop-color="rgb(29.075623%, 34.912109%, 88.999939%)" offset="0.648438"/><stop stop-opacity="1" stop-color="rgb(29.437256%, 34.635925%, 88.999939%)" offset="0.65625"/><stop stop-opacity="1" stop-color="rgb(29.797363%, 34.361267%, 88.999939%)" offset="0.664062"/><stop stop-opacity="1" stop-color="rgb(30.158997%, 34.086609%, 88.999939%)" offset="0.671875"/><stop stop-opacity="1" stop-color="rgb(30.52063%, 33.811951%, 88.999939%)" offset="0.679688"/><stop stop-opacity="1" stop-color="rgb(30.880737%, 33.537292%, 88.999939%)" offset="0.6875"/><stop stop-opacity="1" stop-color="rgb(31.242371%, 33.261108%, 88.999939%)" offset="0.695312"/><stop stop-opacity="1" stop-color="rgb(31.602478%, 32.98645%, 88.999939%)" offset="0.703125"/><stop stop-opacity="1" stop-color="rgb(31.964111%, 32.711792%, 88.999939%)" offset="0.710938"/><stop stop-opacity="1" stop-color="rgb(32.324219%, 32.437134%, 88.999939%)" offset="0.71875"/><stop stop-opacity="1" stop-color="rgb(32.685852%, 32.16095%, 88.999939%)" offset="0.726562"/><stop stop-opacity="1" stop-color="rgb(33.045959%, 31.886292%, 88.999939%)" offset="0.734375"/><stop stop-opacity="1" stop-color="rgb(33.407593%, 31.611633%, 88.999939%)" offset="0.742188"/><stop stop-opacity="1" stop-color="rgb(33.7677%, 31.336975%, 88.999939%)" offset="0.75"/><stop stop-opacity="1" stop-color="rgb(34.129333%, 31.062317%, 88.999939%)" offset="0.757812"/><stop stop-opacity="1" stop-color="rgb(34.490967%, 30.786133%, 88.999939%)" offset="0.765625"/><stop stop-opacity="1" stop-color="rgb(34.851074%, 30.511475%, 88.999939%)" offset="0.773438"/><stop stop-opacity="1" stop-color="rgb(35.212708%, 30.236816%, 88.999939%)" offset="0.78125"/><stop stop-opacity="1" stop-color="rgb(35.572815%, 29.962158%, 88.999939%)" offset="0.789062"/><stop stop-opacity="1" stop-color="rgb(35.934448%, 29.685974%, 88.999939%)" offset="0.796875"/><stop stop-opacity="1" stop-color="rgb(36.294556%, 29.411316%, 88.999939%)" offset="0.804688"/><stop stop-opacity="1" stop-color="rgb(36.656189%, 29.136658%, 88.999939%)" offset="0.8125"/><stop stop-opacity="1" stop-color="rgb(37.016296%, 28.862%, 88.999939%)" offset="0.820312"/><stop stop-opacity="1" stop-color="rgb(37.37793%, 28.585815%, 88.999939%)" offset="0.828125"/><stop stop-opacity="1" stop-color="rgb(37.738037%, 28.311157%, 88.999939%)" offset="0.835938"/><stop stop-opacity="1" stop-color="rgb(38.09967%, 28.036499%, 88.999939%)" offset="0.84375"/><stop stop-opacity="1" stop-color="rgb(38.459778%, 27.761841%, 88.999939%)" offset="0.851562"/><stop stop-opacity="1" stop-color="rgb(38.821411%, 27.487183%, 88.999939%)" offset="0.859375"/><stop stop-opacity="1" stop-color="rgb(39.183044%, 27.210999%, 88.999939%)" offset="0.867188"/><stop stop-opacity="1" stop-color="rgb(39.543152%, 26.93634%, 88.999939%)" offset="0.875"/><stop stop-opacity="1" stop-color="rgb(39.904785%, 26.661682%, 88.999939%)" offset="0.882812"/><stop stop-opacity="1" stop-color="rgb(40.264893%, 26.387024%, 88.999939%)" offset="0.890625"/><stop stop-opacity="1" stop-color="rgb(40.626526%, 26.11084%, 88.999939%)" offset="0.898438"/><stop stop-opacity="1" stop-color="rgb(40.986633%, 25.836182%, 88.999939%)" offset="0.90625"/><stop stop-opacity="1" stop-color="rgb(41.348267%, 25.561523%, 88.999939%)" offset="0.914062"/><stop stop-opacity="1" stop-color="rgb(41.708374%, 25.286865%, 88.999939%)" offset="0.921875"/><stop stop-opacity="1" stop-color="rgb(42.070007%, 25.012207%, 88.999939%)" offset="0.929688"/><stop stop-opacity="1" stop-color="rgb(42.430115%, 24.736023%, 88.999939%)" offset="0.9375"/><stop stop-opacity="1" stop-color="rgb(42.791748%, 24.461365%, 88.999939%)" offset="0.945312"/><stop stop-opacity="1" stop-color="rgb(43.153381%, 24.186707%, 88.999939%)" offset="0.953125"/><stop stop-opacity="1" stop-color="rgb(43.513489%, 23.912048%, 88.999939%)" offset="0.960938"/><stop stop-opacity="1" stop-color="rgb(43.875122%, 23.635864%, 88.999939%)" offset="0.96875"/><stop stop-opacity="1" stop-color="rgb(44.235229%, 23.361206%, 88.999939%)" offset="0.976562"/><stop stop-opacity="1" stop-color="rgb(44.596863%, 23.086548%, 88.999939%)" offset="0.984375"/><stop stop-opacity="1" stop-color="rgb(44.95697%, 22.81189%, 88.999939%)" offset="0.992188"/><stop stop-opacity="1" stop-color="rgb(45.318604%, 22.537231%, 88.999939%)" offset="1"/></linearGradient><clipPath id="609862e863"><path d="M 27 40 L 60 40 L 60 101.878906 L 27 101.878906 Z M 27 40 " clip-rule="nonzero"/></clipPath><clipPath id="3a98f3a672"><path d="M 13.554688 81 L 32 81 L 32 101.878906 L 13.554688 101.878906 Z M 13.554688 81 " clip-rule="nonzero"/></clipPath><clipPath id="b3b7064215"><path d="M 64 10.039062 L 78 10.039062 L 78 17 L 64 17 Z M 64 10.039062 " clip-rule="nonzero"/></clipPath><clipPath id="a99bfaa16d"><path d="M 96 100 L 116 100 L 116 101.878906 L 96 101.878906 Z M 96 100 " clip-rule="nonzero"/></clipPath><clipPath id="cb1b36715e"><path d="M 49 54 L 155.425781 54 L 155.425781 101.878906 L 49 101.878906 Z M 49 54 " clip-rule="nonzero"/></clipPath></defs><g clip-path="url(#b46c57bb73)"><path fill="#ffffff" d="M 2.355469 0 L 1062.644531 0 L 1062.644531 112.003906 L 2.355469 112.003906 Z M 2.355469 0 " fill-opacity="1" fill-rule="nonzero"/><path fill="url(#cccc4a9d66)" d="M 2.355469 0 L 2.355469 112.003906 L 1062.644531 112.003906 L 1062.644531 0 Z M 2.355469 0 " fill-rule="nonzero"/></g><g fill="#ffffff" fill-opacity="1"><g transform="translate(348.717193, 63.094575)"><g><path d="M 1.515625 -13.109375 L 4.46875 -13.109375 L 4.46875 0 L 1.515625 0 Z M 1.515625 -13.109375 "/></g></g></g><g fill="#ffffff" fill-opacity="1"><g transform="translate(354.693401, 63.094575)"><g><path d="M 10.296875 0 C 9.453125 -1.5 8.539062 -2.976562 7.5625 -4.4375 C 6.582031 -5.90625 5.535156 -7.285156 4.421875 -8.578125 L 4.421875 0 L 1.515625 0 L 1.515625 -13.109375 L 3.90625 -13.109375 C 4.320312 -12.691406 4.78125 -12.175781 5.28125 -11.5625 C 5.789062 -10.957031 6.304688 -10.3125 6.828125 -9.625 C 7.359375 -8.945312 7.878906 -8.238281 8.390625 -7.5 C 8.910156 -6.757812 9.394531 -6.050781 9.84375 -5.375 L 9.84375 -13.109375 L 12.78125 -13.109375 L 12.78125 0 Z M 10.296875 0 "/></g></g></g><g fill="#ffffff" fill-opacity="1"><g transform="translate(368.990921, 63.094575)"><g><path d="M 7.484375 0.265625 C 5.359375 0.265625 3.738281 -0.328125 2.625 -1.515625 C 1.507812 -2.703125 0.953125 -4.382812 0.953125 -6.5625 C 0.953125 -7.644531 1.117188 -8.609375 1.453125 -9.453125 C 1.796875 -10.304688 2.265625 -11.023438 2.859375 -11.609375 C 3.453125 -12.203125 4.15625 -12.648438 4.96875 -12.953125 C 5.789062 -13.253906 6.679688 -13.40625 7.640625 -13.40625 C 8.191406 -13.40625 8.691406 -13.363281 9.140625 -13.28125 C 9.597656 -13.195312 10 -13.101562 10.34375 -13 C 10.6875 -12.894531 10.96875 -12.785156 11.1875 -12.671875 C 11.414062 -12.554688 11.582031 -12.46875 11.6875 -12.40625 L 10.828125 -10.015625 C 10.429688 -10.234375 9.960938 -10.414062 9.421875 -10.5625 C 8.890625 -10.71875 8.28125 -10.796875 7.59375 -10.796875 C 7.144531 -10.796875 6.703125 -10.71875 6.265625 -10.5625 C 5.828125 -10.414062 5.441406 -10.175781 5.109375 -9.84375 C 4.773438 -9.507812 4.507812 -9.078125 4.3125 -8.546875 C 4.113281 -8.015625 4.015625 -7.375 4.015625 -6.625 C 4.015625 -6.007812 4.078125 -5.441406 4.203125 -4.921875 C 4.335938 -4.398438 4.550781 -3.945312 4.84375 -3.5625 C 5.144531 -3.1875 5.535156 -2.890625 6.015625 -2.671875 C 6.492188 -2.453125 7.070312 -2.34375 7.75 -2.34375 C 8.175781 -2.34375 8.5625 -2.367188 8.90625 -2.421875 C 9.25 -2.472656 9.550781 -2.53125 9.8125 -2.59375 C 10.070312 -2.664062 10.300781 -2.742188 10.5 -2.828125 C 10.707031 -2.921875 10.894531 -3.003906 11.0625 -3.078125 L 11.875 -0.71875 C 11.457031 -0.46875 10.867188 -0.238281 10.109375 -0.03125 C 9.359375 0.164062 8.484375 0.265625 7.484375 0.265625 Z M 7.484375 0.265625 "/></g></g></g><g fill="#ffffff" fill-opacity="1"><g transform="translate(381.245936, 63.094575)"><g><path d="M 3.984375 -6.5625 C 3.984375 -5.914062 4.0625 -5.332031 4.21875 -4.8125 C 4.382812 -4.300781 4.613281 -3.859375 4.90625 -3.484375 C 5.195312 -3.117188 5.554688 -2.832031 5.984375 -2.625 C 6.421875 -2.425781 6.914062 -2.328125 7.46875 -2.328125 C 8.007812 -2.328125 8.492188 -2.425781 8.921875 -2.625 C 9.359375 -2.832031 9.722656 -3.117188 10.015625 -3.484375 C 10.316406 -3.859375 10.546875 -4.300781 10.703125 -4.8125 C 10.867188 -5.332031 10.953125 -5.914062 10.953125 -6.5625 C 10.953125 -7.207031 10.867188 -7.789062 10.703125 -8.3125 C 10.546875 -8.832031 10.316406 -9.273438 10.015625 -9.640625 C 9.722656 -10.015625 9.359375 -10.300781 8.921875 -10.5 C 8.492188 -10.707031 8.007812 -10.8125 7.46875 -10.8125 C 6.914062 -10.8125 6.421875 -10.707031 5.984375 -10.5 C 5.554688 -10.289062 5.195312 -10 4.90625 -9.625 C 4.613281 -9.257812 4.382812 -8.8125 4.21875 -8.28125 C 4.0625 -7.757812 3.984375 -7.1875 3.984375 -6.5625 Z M 13.984375 -6.5625 C 13.984375 -5.4375 13.816406 -4.445312 13.484375 -3.59375 C 13.148438 -2.75 12.691406 -2.039062 12.109375 -1.46875 C 11.535156 -0.894531 10.847656 -0.460938 10.046875 -0.171875 C 9.242188 0.117188 8.382812 0.265625 7.46875 0.265625 C 6.570312 0.265625 5.726562 0.117188 4.9375 -0.171875 C 4.144531 -0.460938 3.453125 -0.894531 2.859375 -1.46875 C 2.265625 -2.039062 1.796875 -2.75 1.453125 -3.59375 C 1.117188 -4.445312 0.953125 -5.4375 0.953125 -6.5625 C 0.953125 -7.6875 1.125 -8.671875 1.46875 -9.515625 C 1.820312 -10.367188 2.296875 -11.082031 2.890625 -11.65625 C 3.492188 -12.238281 4.1875 -12.675781 4.96875 -12.96875 C 5.757812 -13.257812 6.59375 -13.40625 7.46875 -13.40625 C 8.363281 -13.40625 9.207031 -13.257812 10 -12.96875 C 10.789062 -12.675781 11.484375 -12.238281 12.078125 -11.65625 C 12.671875 -11.082031 13.132812 -10.367188 13.46875 -9.515625 C 13.8125 -8.671875 13.984375 -7.6875 13.984375 -6.5625 Z M 13.984375 -6.5625 "/></g></g></g><g fill="#ffffff" fill-opacity="1"><g transform="translate(396.186468, 63.094575)"><g><path d="M 5.34375 -13.25 C 7.3125 -13.25 8.816406 -12.898438 9.859375 -12.203125 C 10.910156 -11.503906 11.4375 -10.414062 11.4375 -8.9375 C 11.4375 -8.019531 11.222656 -7.273438 10.796875 -6.703125 C 10.378906 -6.128906 9.773438 -5.675781 8.984375 -5.34375 C 9.242188 -5.019531 9.519531 -4.644531 9.8125 -4.21875 C 10.101562 -3.800781 10.390625 -3.363281 10.671875 -2.90625 C 10.953125 -2.445312 11.222656 -1.96875 11.484375 -1.46875 C 11.753906 -0.96875 12.003906 -0.476562 12.234375 0 L 8.921875 0 C 8.679688 -0.425781 8.4375 -0.859375 8.1875 -1.296875 C 7.945312 -1.742188 7.695312 -2.175781 7.4375 -2.59375 C 7.175781 -3.007812 6.921875 -3.398438 6.671875 -3.765625 C 6.421875 -4.140625 6.171875 -4.476562 5.921875 -4.78125 L 4.46875 -4.78125 L 4.46875 0 L 1.515625 0 L 1.515625 -12.90625 C 2.160156 -13.039062 2.820312 -13.128906 3.5 -13.171875 C 4.1875 -13.222656 4.800781 -13.25 5.34375 -13.25 Z M 5.515625 -10.734375 C 5.304688 -10.734375 5.113281 -10.726562 4.9375 -10.71875 C 4.769531 -10.707031 4.613281 -10.695312 4.46875 -10.6875 L 4.46875 -7.125 L 5.296875 -7.125 C 6.398438 -7.125 7.191406 -7.257812 7.671875 -7.53125 C 8.148438 -7.8125 8.390625 -8.289062 8.390625 -8.96875 C 8.390625 -9.601562 8.144531 -10.054688 7.65625 -10.328125 C 7.175781 -10.597656 6.460938 -10.734375 5.515625 -10.734375 Z M 5.515625 -10.734375 "/></g></g></g><g fill="#ffffff" fill-opacity="1"><g transform="translate(408.80081, 63.094575)"><g><path d="M 5.4375 -13.25 C 7.394531 -13.25 8.894531 -12.90625 9.9375 -12.21875 C 10.988281 -11.53125 11.515625 -10.40625 11.515625 -8.84375 C 11.515625 -7.269531 10.984375 -6.132812 9.921875 -5.4375 C 8.867188 -4.738281 7.359375 -4.390625 5.390625 -4.390625 L 4.46875 -4.390625 L 4.46875 0 L 1.515625 0 L 1.515625 -12.90625 C 2.160156 -13.039062 2.835938 -13.128906 3.546875 -13.171875 C 4.265625 -13.222656 4.894531 -13.25 5.4375 -13.25 Z M 5.640625 -10.734375 C 5.421875 -10.734375 5.207031 -10.726562 5 -10.71875 C 4.789062 -10.707031 4.613281 -10.695312 4.46875 -10.6875 L 4.46875 -6.90625 L 5.390625 -6.90625 C 6.410156 -6.90625 7.175781 -7.039062 7.6875 -7.3125 C 8.207031 -7.59375 8.46875 -8.109375 8.46875 -8.859375 C 8.46875 -9.234375 8.398438 -9.539062 8.265625 -9.78125 C 8.140625 -10.019531 7.953125 -10.207031 7.703125 -10.34375 C 7.453125 -10.488281 7.148438 -10.585938 6.796875 -10.640625 C 6.453125 -10.703125 6.066406 -10.734375 5.640625 -10.734375 Z M 5.640625 -10.734375 "/></g></g></g><g fill="#ffffff" fill-opacity="1"><g transform="translate(420.980183, 63.094575)"><g><path d="M 3.984375 -6.5625 C 3.984375 -5.914062 4.0625 -5.332031 4.21875 -4.8125 C 4.382812 -4.300781 4.613281 -3.859375 4.90625 -3.484375 C 5.195312 -3.117188 5.554688 -2.832031 5.984375 -2.625 C 6.421875 -2.425781 6.914062 -2.328125 7.46875 -2.328125 C 8.007812 -2.328125 8.492188 -2.425781 8.921875 -2.625 C 9.359375 -2.832031 9.722656 -3.117188 10.015625 -3.484375 C 10.316406 -3.859375 10.546875 -4.300781 10.703125 -4.8125 C 10.867188 -5.332031 10.953125 -5.914062 10.953125 -6.5625 C 10.953125 -7.207031 10.867188 -7.789062 10.703125 -8.3125 C 10.546875 -8.832031 10.316406 -9.273438 10.015625 -9.640625 C 9.722656 -10.015625 9.359375 -10.300781 8.921875 -10.5 C 8.492188 -10.707031 8.007812 -10.8125 7.46875 -10.8125 C 6.914062 -10.8125 6.421875 -10.707031 5.984375 -10.5 C 5.554688 -10.289062 5.195312 -10 4.90625 -9.625 C 4.613281 -9.257812 4.382812 -8.8125 4.21875 -8.28125 C 4.0625 -7.757812 3.984375 -7.1875 3.984375 -6.5625 Z M 13.984375 -6.5625 C 13.984375 -5.4375 13.816406 -4.445312 13.484375 -3.59375 C 13.148438 -2.75 12.691406 -2.039062 12.109375 -1.46875 C 11.535156 -0.894531 10.847656 -0.460938 10.046875 -0.171875 C 9.242188 0.117188 8.382812 0.265625 7.46875 0.265625 C 6.570312 0.265625 5.726562 0.117188 4.9375 -0.171875 C 4.144531 -0.460938 3.453125 -0.894531 2.859375 -1.46875 C 2.265625 -2.039062 1.796875 -2.75 1.453125 -3.59375 C 1.117188 -4.445312 0.953125 -5.4375 0.953125 -6.5625 C 0.953125 -7.6875 1.125 -8.671875 1.46875 -9.515625 C 1.820312 -10.367188 2.296875 -11.082031 2.890625 -11.65625 C 3.492188 -12.238281 4.1875 -12.675781 4.96875 -12.96875 C 5.757812 -13.257812 6.59375 -13.40625 7.46875 -13.40625 C 8.363281 -13.40625 9.207031 -13.257812 10 -12.96875 C 10.789062 -12.675781 11.484375 -12.238281 12.078125 -11.65625 C 12.671875 -11.082031 13.132812 -10.367188 13.46875 -9.515625 C 13.8125 -8.671875 13.984375 -7.6875 13.984375 -6.5625 Z M 13.984375 -6.5625 "/></g></g></g><g fill="#ffffff" fill-opacity="1"><g transform="translate(435.920715, 63.094575)"><g><path d="M 5.34375 -13.25 C 7.3125 -13.25 8.816406 -12.898438 9.859375 -12.203125 C 10.910156 -11.503906 11.4375 -10.414062 11.4375 -8.9375 C 11.4375 -8.019531 11.222656 -7.273438 10.796875 -6.703125 C 10.378906 -6.128906 9.773438 -5.675781 8.984375 -5.34375 C 9.242188 -5.019531 9.519531 -4.644531 9.8125 -4.21875 C 10.101562 -3.800781 10.390625 -3.363281 10.671875 -2.90625 C 10.953125 -2.445312 11.222656 -1.96875 11.484375 -1.46875 C 11.753906 -0.96875 12.003906 -0.476562 12.234375 0 L 8.921875 0 C 8.679688 -0.425781 8.4375 -0.859375 8.1875 -1.296875 C 7.945312 -1.742188 7.695312 -2.175781 7.4375 -2.59375 C 7.175781 -3.007812 6.921875 -3.398438 6.671875 -3.765625 C 6.421875 -4.140625 6.171875 -4.476562 5.921875 -4.78125 L 4.46875 -4.78125 L 4.46875 0 L 1.515625 0 L 1.515625 -12.90625 C 2.160156 -13.039062 2.820312 -13.128906 3.5 -13.171875 C 4.1875 -13.222656 4.800781 -13.25 5.34375 -13.25 Z M 5.515625 -10.734375 C 5.304688 -10.734375 5.113281 -10.726562 4.9375 -10.71875 C 4.769531 -10.707031 4.613281 -10.695312 4.46875 -10.6875 L 4.46875 -7.125 L 5.296875 -7.125 C 6.398438 -7.125 7.191406 -7.257812 7.671875 -7.53125 C 8.148438 -7.8125 8.390625 -8.289062 8.390625 -8.96875 C 8.390625 -9.601562 8.144531 -10.054688 7.65625 -10.328125 C 7.175781 -10.597656 6.460938 -10.734375 5.515625 -10.734375 Z M 5.515625 -10.734375 "/></g></g></g><g fill="#ffffff" fill-opacity="1"><g transform="translate(448.535057, 63.094575)"><g><path d="M 10.28125 0 C 10.144531 -0.457031 9.988281 -0.925781 9.8125 -1.40625 C 9.644531 -1.882812 9.484375 -2.363281 9.328125 -2.84375 L 4.21875 -2.84375 C 4.050781 -2.363281 3.878906 -1.882812 3.703125 -1.40625 C 3.535156 -0.925781 3.382812 -0.457031 3.25 0 L 0.1875 0 C 0.675781 -1.414062 1.140625 -2.71875 1.578125 -3.90625 C 2.023438 -5.101562 2.457031 -6.234375 2.875 -7.296875 C 3.300781 -8.359375 3.71875 -9.363281 4.125 -10.3125 C 4.539062 -11.257812 4.96875 -12.191406 5.40625 -13.109375 L 8.21875 -13.109375 C 8.644531 -12.191406 9.066406 -11.257812 9.484375 -10.3125 C 9.898438 -9.363281 10.316406 -8.359375 10.734375 -7.296875 C 11.160156 -6.234375 11.59375 -5.101562 12.03125 -3.90625 C 12.476562 -2.71875 12.945312 -1.414062 13.4375 0 Z M 6.75 -10.140625 C 6.6875 -9.941406 6.59375 -9.675781 6.46875 -9.34375 C 6.34375 -9.019531 6.195312 -8.644531 6.03125 -8.21875 C 5.863281 -7.789062 5.679688 -7.316406 5.484375 -6.796875 C 5.296875 -6.285156 5.097656 -5.75 4.890625 -5.1875 L 8.625 -5.1875 C 8.414062 -5.75 8.21875 -6.285156 8.03125 -6.796875 C 7.84375 -7.316406 7.660156 -7.789062 7.484375 -8.21875 C 7.316406 -8.644531 7.171875 -9.019531 7.046875 -9.34375 C 6.921875 -9.675781 6.820312 -9.941406 6.75 -10.140625 Z M 6.75 -10.140625 "/></g></g></g><g fill="#ffffff" fill-opacity="1"><g transform="translate(462.170651, 63.094575)"><g><path d="M 11.234375 -13.109375 L 11.234375 -10.59375 L 7.28125 -10.59375 L 7.28125 0 L 4.328125 0 L 4.328125 -10.59375 L 0.375 -10.59375 L 0.375 -13.109375 Z M 11.234375 -13.109375 "/></g></g></g><g fill="#ffffff" fill-opacity="1"><g transform="translate(473.782654, 63.094575)"><g><path d="M 1.515625 -13.109375 L 4.46875 -13.109375 L 4.46875 0 L 1.515625 0 Z M 1.515625 -13.109375 "/></g></g></g><g fill="#ffffff" fill-opacity="1"><g transform="translate(479.758862, 63.094575)"><g><path d="M 3.984375 -6.5625 C 3.984375 -5.914062 4.0625 -5.332031 4.21875 -4.8125 C 4.382812 -4.300781 4.613281 -3.859375 4.90625 -3.484375 C 5.195312 -3.117188 5.554688 -2.832031 5.984375 -2.625 C 6.421875 -2.425781 6.914062 -2.328125 7.46875 -2.328125 C 8.007812 -2.328125 8.492188 -2.425781 8.921875 -2.625 C 9.359375 -2.832031 9.722656 -3.117188 10.015625 -3.484375 C 10.316406 -3.859375 10.546875 -4.300781 10.703125 -4.8125 C 10.867188 -5.332031 10.953125 -5.914062 10.953125 -6.5625 C 10.953125 -7.207031 10.867188 -7.789062 10.703125 -8.3125 C 10.546875 -8.832031 10.316406 -9.273438 10.015625 -9.640625 C 9.722656 -10.015625 9.359375 -10.300781 8.921875 -10.5 C 8.492188 -10.707031 8.007812 -10.8125 7.46875 -10.8125 C 6.914062 -10.8125 6.421875 -10.707031 5.984375 -10.5 C 5.554688 -10.289062 5.195312 -10 4.90625 -9.625 C 4.613281 -9.257812 4.382812 -8.8125 4.21875 -8.28125 C 4.0625 -7.757812 3.984375 -7.1875 3.984375 -6.5625 Z M 13.984375 -6.5625 C 13.984375 -5.4375 13.816406 -4.445312 13.484375 -3.59375 C 13.148438 -2.75 12.691406 -2.039062 12.109375 -1.46875 C 11.535156 -0.894531 10.847656 -0.460938 10.046875 -0.171875 C 9.242188 0.117188 8.382812 0.265625 7.46875 0.265625 C 6.570312 0.265625 5.726562 0.117188 4.9375 -0.171875 C 4.144531 -0.460938 3.453125 -0.894531 2.859375 -1.46875 C 2.265625 -2.039062 1.796875 -2.75 1.453125 -3.59375 C 1.117188 -4.445312 0.953125 -5.4375 0.953125 -6.5625 C 0.953125 -7.6875 1.125 -8.671875 1.46875 -9.515625 C 1.820312 -10.367188 2.296875 -11.082031 2.890625 -11.65625 C 3.492188 -12.238281 4.1875 -12.675781 4.96875 -12.96875 C 5.757812 -13.257812 6.59375 -13.40625 7.46875 -13.40625 C 8.363281 -13.40625 9.207031 -13.257812 10 -12.96875 C 10.789062 -12.675781 11.484375 -12.238281 12.078125 -11.65625 C 12.671875 -11.082031 13.132812 -10.367188 13.46875 -9.515625 C 13.8125 -8.671875 13.984375 -7.6875 13.984375 -6.5625 Z M 13.984375 -6.5625 "/></g></g></g><g fill="#ffffff" fill-opacity="1"><g transform="translate(494.699393, 63.094575)"><g><path d="M 10.296875 0 C 9.453125 -1.5 8.539062 -2.976562 7.5625 -4.4375 C 6.582031 -5.90625 5.535156 -7.285156 4.421875 -8.578125 L 4.421875 0 L 1.515625 0 L 1.515625 -13.109375 L 3.90625 -13.109375 C 4.320312 -12.691406 4.78125 -12.175781 5.28125 -11.5625 C 5.789062 -10.957031 6.304688 -10.3125 6.828125 -9.625 C 7.359375 -8.945312 7.878906 -8.238281 8.390625 -7.5 C 8.910156 -6.757812 9.394531 -6.050781 9.84375 -5.375 L 9.84375 -13.109375 L 12.78125 -13.109375 L 12.78125 0 Z M 10.296875 0 "/></g></g></g><g fill="#ffffff" fill-opacity="1"><g transform="translate(508.996913, 63.094575)"><g/></g></g><g fill="#ffffff" fill-opacity="1"><g transform="translate(513.535814, 63.094575)"><g><path d="M 5.34375 -13.25 C 7.3125 -13.25 8.816406 -12.898438 9.859375 -12.203125 C 10.910156 -11.503906 11.4375 -10.414062 11.4375 -8.9375 C 11.4375 -8.019531 11.222656 -7.273438 10.796875 -6.703125 C 10.378906 -6.128906 9.773438 -5.675781 8.984375 -5.34375 C 9.242188 -5.019531 9.519531 -4.644531 9.8125 -4.21875 C 10.101562 -3.800781 10.390625 -3.363281 10.671875 -2.90625 C 10.953125 -2.445312 11.222656 -1.96875 11.484375 -1.46875 C 11.753906 -0.96875 12.003906 -0.476562 12.234375 0 L 8.921875 0 C 8.679688 -0.425781 8.4375 -0.859375 8.1875 -1.296875 C 7.945312 -1.742188 7.695312 -2.175781 7.4375 -2.59375 C 7.175781 -3.007812 6.921875 -3.398438 6.671875 -3.765625 C 6.421875 -4.140625 6.171875 -4.476562 5.921875 -4.78125 L 4.46875 -4.78125 L 4.46875 0 L 1.515625 0 L 1.515625 -12.90625 C 2.160156 -13.039062 2.820312 -13.128906 3.5 -13.171875 C 4.1875 -13.222656 4.800781 -13.25 5.34375 -13.25 Z M 5.515625 -10.734375 C 5.304688 -10.734375 5.113281 -10.726562 4.9375 -10.71875 C 4.769531 -10.707031 4.613281 -10.695312 4.46875 -10.6875 L 4.46875 -7.125 L 5.296875 -7.125 C 6.398438 -7.125 7.191406 -7.257812 7.671875 -7.53125 C 8.148438 -7.8125 8.390625 -8.289062 8.390625 -8.96875 C 8.390625 -9.601562 8.144531 -10.054688 7.65625 -10.328125 C 7.175781 -10.597656 6.460938 -10.734375 5.515625 -10.734375 Z M 5.515625 -10.734375 "/></g></g></g><g fill="#ffffff" fill-opacity="1"><g transform="translate(526.150156, 63.094575)"><g><path d="M 1.515625 0 L 1.515625 -13.109375 L 10.359375 -13.109375 L 10.359375 -10.625 L 4.46875 -10.625 L 4.46875 -8.046875 L 9.703125 -8.046875 L 9.703125 -5.640625 L 4.46875 -5.640625 L 4.46875 -2.484375 L 10.796875 -2.484375 L 10.796875 0 Z M 1.515625 0 "/></g></g></g><g fill="#ffffff" fill-opacity="1"><g transform="translate(537.610865, 63.094575)"><g><path d="M 7.90625 -10.828125 C 6.53125 -10.828125 5.535156 -10.445312 4.921875 -9.6875 C 4.316406 -8.925781 4.015625 -7.882812 4.015625 -6.5625 C 4.015625 -5.914062 4.085938 -5.332031 4.234375 -4.8125 C 4.390625 -4.289062 4.617188 -3.835938 4.921875 -3.453125 C 5.222656 -3.078125 5.597656 -2.785156 6.046875 -2.578125 C 6.503906 -2.367188 7.035156 -2.265625 7.640625 -2.265625 C 7.960938 -2.265625 8.238281 -2.269531 8.46875 -2.28125 C 8.707031 -2.300781 8.914062 -2.328125 9.09375 -2.359375 L 9.09375 -6.921875 L 12.046875 -6.921875 L 12.046875 -0.4375 C 11.691406 -0.300781 11.125 -0.15625 10.34375 0 C 9.5625 0.164062 8.597656 0.25 7.453125 0.25 C 6.460938 0.25 5.566406 0.0976562 4.765625 -0.203125 C 3.972656 -0.503906 3.289062 -0.945312 2.71875 -1.53125 C 2.15625 -2.113281 1.71875 -2.828125 1.40625 -3.671875 C 1.101562 -4.515625 0.953125 -5.476562 0.953125 -6.5625 C 0.953125 -7.65625 1.117188 -8.625 1.453125 -9.46875 C 1.796875 -10.3125 2.265625 -11.023438 2.859375 -11.609375 C 3.453125 -12.203125 4.144531 -12.648438 4.9375 -12.953125 C 5.738281 -13.253906 6.59375 -13.40625 7.5 -13.40625 C 8.125 -13.40625 8.679688 -13.363281 9.171875 -13.28125 C 9.671875 -13.195312 10.097656 -13.101562 10.453125 -13 C 10.816406 -12.894531 11.113281 -12.785156 11.34375 -12.671875 C 11.582031 -12.554688 11.753906 -12.46875 11.859375 -12.40625 L 11 -10.046875 C 10.601562 -10.253906 10.140625 -10.4375 9.609375 -10.59375 C 9.085938 -10.75 8.519531 -10.828125 7.90625 -10.828125 Z M 7.90625 -10.828125 "/></g></g></g><g fill="#ffffff" fill-opacity="1"><g transform="translate(550.887143, 63.094575)"><g><path d="M 1.515625 -13.109375 L 4.46875 -13.109375 L 4.46875 0 L 1.515625 0 Z M 1.515625 -13.109375 "/></g></g></g><g fill="#ffffff" fill-opacity="1"><g transform="translate(556.863351, 63.094575)"><g><path d="M 5.078125 -2.25 C 5.492188 -2.25 5.835938 -2.28125 6.109375 -2.34375 C 6.378906 -2.414062 6.597656 -2.507812 6.765625 -2.625 C 6.929688 -2.75 7.046875 -2.894531 7.109375 -3.0625 C 7.171875 -3.226562 7.203125 -3.410156 7.203125 -3.609375 C 7.203125 -4.035156 7 -4.390625 6.59375 -4.671875 C 6.195312 -4.960938 5.503906 -5.269531 4.515625 -5.59375 C 4.085938 -5.75 3.660156 -5.921875 3.234375 -6.109375 C 2.804688 -6.304688 2.421875 -6.550781 2.078125 -6.84375 C 1.734375 -7.144531 1.453125 -7.503906 1.234375 -7.921875 C 1.023438 -8.347656 0.921875 -8.863281 0.921875 -9.46875 C 0.921875 -10.070312 1.035156 -10.613281 1.265625 -11.09375 C 1.492188 -11.582031 1.816406 -12 2.234375 -12.34375 C 2.648438 -12.6875 3.148438 -12.945312 3.734375 -13.125 C 4.328125 -13.3125 5 -13.40625 5.75 -13.40625 C 6.632812 -13.40625 7.394531 -13.3125 8.03125 -13.125 C 8.675781 -12.9375 9.207031 -12.726562 9.625 -12.5 L 8.765625 -10.171875 C 8.398438 -10.359375 7.992188 -10.523438 7.546875 -10.671875 C 7.097656 -10.816406 6.5625 -10.890625 5.9375 -10.890625 C 5.226562 -10.890625 4.71875 -10.789062 4.40625 -10.59375 C 4.101562 -10.394531 3.953125 -10.097656 3.953125 -9.703125 C 3.953125 -9.460938 4.007812 -9.257812 4.125 -9.09375 C 4.238281 -8.925781 4.398438 -8.773438 4.609375 -8.640625 C 4.816406 -8.515625 5.054688 -8.394531 5.328125 -8.28125 C 5.597656 -8.175781 5.894531 -8.066406 6.21875 -7.953125 C 6.894531 -7.703125 7.484375 -7.453125 7.984375 -7.203125 C 8.492188 -6.960938 8.914062 -6.675781 9.25 -6.34375 C 9.582031 -6.019531 9.832031 -5.632812 10 -5.1875 C 10.164062 -4.75 10.25 -4.21875 10.25 -3.59375 C 10.25 -2.375 9.816406 -1.425781 8.953125 -0.75 C 8.097656 -0.0703125 6.804688 0.265625 5.078125 0.265625 C 4.503906 0.265625 3.984375 0.226562 3.515625 0.15625 C 3.046875 0.09375 2.628906 0.0078125 2.265625 -0.09375 C 1.910156 -0.195312 1.601562 -0.304688 1.34375 -0.421875 C 1.09375 -0.535156 0.878906 -0.640625 0.703125 -0.734375 L 1.53125 -3.078125 C 1.925781 -2.867188 2.410156 -2.675781 2.984375 -2.5 C 3.554688 -2.332031 4.253906 -2.25 5.078125 -2.25 Z M 5.078125 -2.25 "/></g></g></g><g fill="#ffffff" fill-opacity="1"><g transform="translate(567.870179, 63.094575)"><g><path d="M 11.234375 -13.109375 L 11.234375 -10.59375 L 7.28125 -10.59375 L 7.28125 0 L 4.328125 0 L 4.328125 -10.59375 L 0.375 -10.59375 L 0.375 -13.109375 Z M 11.234375 -13.109375 "/></g></g></g><g fill="#ffffff" fill-opacity="1"><g transform="translate(579.482182, 63.094575)"><g><path d="M 5.34375 -13.25 C 7.3125 -13.25 8.816406 -12.898438 9.859375 -12.203125 C 10.910156 -11.503906 11.4375 -10.414062 11.4375 -8.9375 C 11.4375 -8.019531 11.222656 -7.273438 10.796875 -6.703125 C 10.378906 -6.128906 9.773438 -5.675781 8.984375 -5.34375 C 9.242188 -5.019531 9.519531 -4.644531 9.8125 -4.21875 C 10.101562 -3.800781 10.390625 -3.363281 10.671875 -2.90625 C 10.953125 -2.445312 11.222656 -1.96875 11.484375 -1.46875 C 11.753906 -0.96875 12.003906 -0.476562 12.234375 0 L 8.921875 0 C 8.679688 -0.425781 8.4375 -0.859375 8.1875 -1.296875 C 7.945312 -1.742188 7.695312 -2.175781 7.4375 -2.59375 C 7.175781 -3.007812 6.921875 -3.398438 6.671875 -3.765625 C 6.421875 -4.140625 6.171875 -4.476562 5.921875 -4.78125 L 4.46875 -4.78125 L 4.46875 0 L 1.515625 0 L 1.515625 -12.90625 C 2.160156 -13.039062 2.820312 -13.128906 3.5 -13.171875 C 4.1875 -13.222656 4.800781 -13.25 5.34375 -13.25 Z M 5.515625 -10.734375 C 5.304688 -10.734375 5.113281 -10.726562 4.9375 -10.71875 C 4.769531 -10.707031 4.613281 -10.695312 4.46875 -10.6875 L 4.46875 -7.125 L 5.296875 -7.125 C 6.398438 -7.125 7.191406 -7.257812 7.671875 -7.53125 C 8.148438 -7.8125 8.390625 -8.289062 8.390625 -8.96875 C 8.390625 -9.601562 8.144531 -10.054688 7.65625 -10.328125 C 7.175781 -10.597656 6.460938 -10.734375 5.515625 -10.734375 Z M 5.515625 -10.734375 "/></g></g></g><g fill="#ffffff" fill-opacity="1"><g transform="translate(592.096535, 63.094575)"><g><path d="M 10.28125 0 C 10.144531 -0.457031 9.988281 -0.925781 9.8125 -1.40625 C 9.644531 -1.882812 9.484375 -2.363281 9.328125 -2.84375 L 4.21875 -2.84375 C 4.050781 -2.363281 3.878906 -1.882812 3.703125 -1.40625 C 3.535156 -0.925781 3.382812 -0.457031 3.25 0 L 0.1875 0 C 0.675781 -1.414062 1.140625 -2.71875 1.578125 -3.90625 C 2.023438 -5.101562 2.457031 -6.234375 2.875 -7.296875 C 3.300781 -8.359375 3.71875 -9.363281 4.125 -10.3125 C 4.539062 -11.257812 4.96875 -12.191406 5.40625 -13.109375 L 8.21875 -13.109375 C 8.644531 -12.191406 9.066406 -11.257812 9.484375 -10.3125 C 9.898438 -9.363281 10.316406 -8.359375 10.734375 -7.296875 C 11.160156 -6.234375 11.59375 -5.101562 12.03125 -3.90625 C 12.476562 -2.71875 12.945312 -1.414062 13.4375 0 Z M 6.75 -10.140625 C 6.6875 -9.941406 6.59375 -9.675781 6.46875 -9.34375 C 6.34375 -9.019531 6.195312 -8.644531 6.03125 -8.21875 C 5.863281 -7.789062 5.679688 -7.316406 5.484375 -6.796875 C 5.296875 -6.285156 5.097656 -5.75 4.890625 -5.1875 L 8.625 -5.1875 C 8.414062 -5.75 8.21875 -6.285156 8.03125 -6.796875 C 7.84375 -7.316406 7.660156 -7.789062 7.484375 -8.21875 C 7.316406 -8.644531 7.171875 -9.019531 7.046875 -9.34375 C 6.921875 -9.675781 6.820312 -9.941406 6.75 -10.140625 Z M 6.75 -10.140625 "/></g></g></g><g fill="#ffffff" fill-opacity="1"><g transform="translate(605.732129, 63.094575)"><g><path d="M 11.234375 -13.109375 L 11.234375 -10.59375 L 7.28125 -10.59375 L 7.28125 0 L 4.328125 0 L 4.328125 -10.59375 L 0.375 -10.59375 L 0.375 -13.109375 Z M 11.234375 -13.109375 "/></g></g></g><g fill="#ffffff" fill-opacity="1"><g transform="translate(617.344132, 63.094575)"><g><path d="M 1.515625 -13.109375 L 4.46875 -13.109375 L 4.46875 0 L 1.515625 0 Z M 1.515625 -13.109375 "/></g></g></g><g fill="#ffffff" fill-opacity="1"><g transform="translate(623.32034, 63.094575)"><g><path d="M 3.984375 -6.5625 C 3.984375 -5.914062 4.0625 -5.332031 4.21875 -4.8125 C 4.382812 -4.300781 4.613281 -3.859375 4.90625 -3.484375 C 5.195312 -3.117188 5.554688 -2.832031 5.984375 -2.625 C 6.421875 -2.425781 6.914062 -2.328125 7.46875 -2.328125 C 8.007812 -2.328125 8.492188 -2.425781 8.921875 -2.625 C 9.359375 -2.832031 9.722656 -3.117188 10.015625 -3.484375 C 10.316406 -3.859375 10.546875 -4.300781 10.703125 -4.8125 C 10.867188 -5.332031 10.953125 -5.914062 10.953125 -6.5625 C 10.953125 -7.207031 10.867188 -7.789062 10.703125 -8.3125 C 10.546875 -8.832031 10.316406 -9.273438 10.015625 -9.640625 C 9.722656 -10.015625 9.359375 -10.300781 8.921875 -10.5 C 8.492188 -10.707031 8.007812 -10.8125 7.46875 -10.8125 C 6.914062 -10.8125 6.421875 -10.707031 5.984375 -10.5 C 5.554688 -10.289062 5.195312 -10 4.90625 -9.625 C 4.613281 -9.257812 4.382812 -8.8125 4.21875 -8.28125 C 4.0625 -7.757812 3.984375 -7.1875 3.984375 -6.5625 Z M 13.984375 -6.5625 C 13.984375 -5.4375 13.816406 -4.445312 13.484375 -3.59375 C 13.148438 -2.75 12.691406 -2.039062 12.109375 -1.46875 C 11.535156 -0.894531 10.847656 -0.460938 10.046875 -0.171875 C 9.242188 0.117188 8.382812 0.265625 7.46875 0.265625 C 6.570312 0.265625 5.726562 0.117188 4.9375 -0.171875 C 4.144531 -0.460938 3.453125 -0.894531 2.859375 -1.46875 C 2.265625 -2.039062 1.796875 -2.75 1.453125 -3.59375 C 1.117188 -4.445312 0.953125 -5.4375 0.953125 -6.5625 C 0.953125 -7.6875 1.125 -8.671875 1.46875 -9.515625 C 1.820312 -10.367188 2.296875 -11.082031 2.890625 -11.65625 C 3.492188 -12.238281 4.1875 -12.675781 4.96875 -12.96875 C 5.757812 -13.257812 6.59375 -13.40625 7.46875 -13.40625 C 8.363281 -13.40625 9.207031 -13.257812 10 -12.96875 C 10.789062 -12.675781 11.484375 -12.238281 12.078125 -11.65625 C 12.671875 -11.082031 13.132812 -10.367188 13.46875 -9.515625 C 13.8125 -8.671875 13.984375 -7.6875 13.984375 -6.5625 Z M 13.984375 -6.5625 "/></g></g></g><g fill="#ffffff" fill-opacity="1"><g transform="translate(638.260872, 63.094575)"><g><path d="M 10.296875 0 C 9.453125 -1.5 8.539062 -2.976562 7.5625 -4.4375 C 6.582031 -5.90625 5.535156 -7.285156 4.421875 -8.578125 L 4.421875 0 L 1.515625 0 L 1.515625 -13.109375 L 3.90625 -13.109375 C 4.320312 -12.691406 4.78125 -12.175781 5.28125 -11.5625 C 5.789062 -10.957031 6.304688 -10.3125 6.828125 -9.625 C 7.359375 -8.945312 7.878906 -8.238281 8.390625 -7.5 C 8.910156 -6.757812 9.394531 -6.050781 9.84375 -5.375 L 9.84375 -13.109375 L 12.78125 -13.109375 L 12.78125 0 Z M 10.296875 0 "/></g></g></g><g fill="#ffffff" fill-opacity="1"><g transform="translate(652.558403, 63.094575)"><g/></g></g><g fill="#ffffff" fill-opacity="1"><g transform="translate(657.097304, 63.094575)"><g><path d="M 1.515625 0 L 1.515625 -13.109375 L 10.28125 -13.109375 L 10.28125 -10.625 L 4.46875 -10.625 L 4.46875 -7.890625 L 9.640625 -7.890625 L 9.640625 -5.40625 L 4.46875 -5.40625 L 4.46875 0 Z M 1.515625 0 "/></g></g></g><g fill="#ffffff" fill-opacity="1"><g transform="translate(667.952827, 63.094575)"><g><path d="M 3.984375 -6.5625 C 3.984375 -5.914062 4.0625 -5.332031 4.21875 -4.8125 C 4.382812 -4.300781 4.613281 -3.859375 4.90625 -3.484375 C 5.195312 -3.117188 5.554688 -2.832031 5.984375 -2.625 C 6.421875 -2.425781 6.914062 -2.328125 7.46875 -2.328125 C 8.007812 -2.328125 8.492188 -2.425781 8.921875 -2.625 C 9.359375 -2.832031 9.722656 -3.117188 10.015625 -3.484375 C 10.316406 -3.859375 10.546875 -4.300781 10.703125 -4.8125 C 10.867188 -5.332031 10.953125 -5.914062 10.953125 -6.5625 C 10.953125 -7.207031 10.867188 -7.789062 10.703125 -8.3125 C 10.546875 -8.832031 10.316406 -9.273438 10.015625 -9.640625 C 9.722656 -10.015625 9.359375 -10.300781 8.921875 -10.5 C 8.492188 -10.707031 8.007812 -10.8125 7.46875 -10.8125 C 6.914062 -10.8125 6.421875 -10.707031 5.984375 -10.5 C 5.554688 -10.289062 5.195312 -10 4.90625 -9.625 C 4.613281 -9.257812 4.382812 -8.8125 4.21875 -8.28125 C 4.0625 -7.757812 3.984375 -7.1875 3.984375 -6.5625 Z M 13.984375 -6.5625 C 13.984375 -5.4375 13.816406 -4.445312 13.484375 -3.59375 C 13.148438 -2.75 12.691406 -2.039062 12.109375 -1.46875 C 11.535156 -0.894531 10.847656 -0.460938 10.046875 -0.171875 C 9.242188 0.117188 8.382812 0.265625 7.46875 0.265625 C 6.570312 0.265625 5.726562 0.117188 4.9375 -0.171875 C 4.144531 -0.460938 3.453125 -0.894531 2.859375 -1.46875 C 2.265625 -2.039062 1.796875 -2.75 1.453125 -3.59375 C 1.117188 -4.445312 0.953125 -5.4375 0.953125 -6.5625 C 0.953125 -7.6875 1.125 -8.671875 1.46875 -9.515625 C 1.820312 -10.367188 2.296875 -11.082031 2.890625 -11.65625 C 3.492188 -12.238281 4.1875 -12.675781 4.96875 -12.96875 C 5.757812 -13.257812 6.59375 -13.40625 7.46875 -13.40625 C 8.363281 -13.40625 9.207031 -13.257812 10 -12.96875 C 10.789062 -12.675781 11.484375 -12.238281 12.078125 -11.65625 C 12.671875 -11.082031 13.132812 -10.367188 13.46875 -9.515625 C 13.8125 -8.671875 13.984375 -7.6875 13.984375 -6.5625 Z M 13.984375 -6.5625 "/></g></g></g><g fill="#ffffff" fill-opacity="1"><g transform="translate(682.893358, 63.094575)"><g><path d="M 5.34375 -13.25 C 7.3125 -13.25 8.816406 -12.898438 9.859375 -12.203125 C 10.910156 -11.503906 11.4375 -10.414062 11.4375 -8.9375 C 11.4375 -8.019531 11.222656 -7.273438 10.796875 -6.703125 C 10.378906 -6.128906 9.773438 -5.675781 8.984375 -5.34375 C 9.242188 -5.019531 9.519531 -4.644531 9.8125 -4.21875 C 10.101562 -3.800781 10.390625 -3.363281 10.671875 -2.90625 C 10.953125 -2.445312 11.222656 -1.96875 11.484375 -1.46875 C 11.753906 -0.96875 12.003906 -0.476562 12.234375 0 L 8.921875 0 C 8.679688 -0.425781 8.4375 -0.859375 8.1875 -1.296875 C 7.945312 -1.742188 7.695312 -2.175781 7.4375 -2.59375 C 7.175781 -3.007812 6.921875 -3.398438 6.671875 -3.765625 C 6.421875 -4.140625 6.171875 -4.476562 5.921875 -4.78125 L 4.46875 -4.78125 L 4.46875 0 L 1.515625 0 L 1.515625 -12.90625 C 2.160156 -13.039062 2.820312 -13.128906 3.5 -13.171875 C 4.1875 -13.222656 4.800781 -13.25 5.34375 -13.25 Z M 5.515625 -10.734375 C 5.304688 -10.734375 5.113281 -10.726562 4.9375 -10.71875 C 4.769531 -10.707031 4.613281 -10.695312 4.46875 -10.6875 L 4.46875 -7.125 L 5.296875 -7.125 C 6.398438 -7.125 7.191406 -7.257812 7.671875 -7.53125 C 8.148438 -7.8125 8.390625 -8.289062 8.390625 -8.96875 C 8.390625 -9.601562 8.144531 -10.054688 7.65625 -10.328125 C 7.175781 -10.597656 6.460938 -10.734375 5.515625 -10.734375 Z M 5.515625 -10.734375 "/></g></g></g><g fill="#ffffff" fill-opacity="1"><g transform="translate(695.507711, 63.094575)"><g><path d="M 4.984375 -13.109375 C 5.210938 -12.691406 5.472656 -12.175781 5.765625 -11.5625 C 6.066406 -10.945312 6.378906 -10.285156 6.703125 -9.578125 C 7.023438 -8.867188 7.34375 -8.140625 7.65625 -7.390625 C 7.96875 -6.648438 8.265625 -5.953125 8.546875 -5.296875 C 8.828125 -5.953125 9.125 -6.648438 9.4375 -7.390625 C 9.75 -8.140625 10.066406 -8.867188 10.390625 -9.578125 C 10.710938 -10.285156 11.019531 -10.945312 11.3125 -11.5625 C 11.613281 -12.175781 11.875 -12.691406 12.09375 -13.109375 L 14.78125 -13.109375 C 14.90625 -12.234375 15.019531 -11.253906 15.125 -10.171875 C 15.238281 -9.097656 15.335938 -7.976562 15.421875 -6.8125 C 15.503906 -5.644531 15.578125 -4.472656 15.640625 -3.296875 C 15.710938 -2.128906 15.773438 -1.03125 15.828125 0 L 12.953125 0 C 12.910156 -1.269531 12.859375 -2.65625 12.796875 -4.15625 C 12.734375 -5.65625 12.640625 -7.171875 12.515625 -8.703125 C 12.285156 -8.171875 12.03125 -7.582031 11.75 -6.9375 C 11.476562 -6.289062 11.207031 -5.644531 10.9375 -5 C 10.664062 -4.363281 10.40625 -3.75 10.15625 -3.15625 C 9.90625 -2.570312 9.691406 -2.070312 9.515625 -1.65625 L 7.453125 -1.65625 C 7.273438 -2.070312 7.054688 -2.570312 6.796875 -3.15625 C 6.546875 -3.75 6.285156 -4.363281 6.015625 -5 C 5.742188 -5.644531 5.46875 -6.289062 5.1875 -6.9375 C 4.914062 -7.582031 4.664062 -8.171875 4.4375 -8.703125 C 4.3125 -7.171875 4.21875 -5.65625 4.15625 -4.15625 C 4.09375 -2.65625 4.046875 -1.269531 4.015625 0 L 1.140625 0 C 1.179688 -1.03125 1.238281 -2.128906 1.3125 -3.296875 C 1.382812 -4.472656 1.457031 -5.644531 1.53125 -6.8125 C 1.613281 -7.976562 1.707031 -9.097656 1.8125 -10.171875 C 1.925781 -11.253906 2.046875 -12.234375 2.171875 -13.109375 Z M 4.984375 -13.109375 "/></g></g></g><g fill="#ffffff" fill-opacity="1"><g transform="translate(712.479353, 63.094575)"><g/></g></g><g clip-path="url(#609862e863)"><path fill="#18a1b7" d="M 27.753906 40.214844 L 59.179688 40.214844 L 59.179688 101.695312 L 27.753906 101.695312 Z M 27.753906 40.214844 " fill-opacity="1" fill-rule="nonzero"/></g><g clip-path="url(#3a98f3a672)"><path fill="#18a1b7" d="M 13.625 81.867188 L 31.917969 81.867188 L 31.917969 101.695312 L 13.625 101.695312 Z M 13.625 81.867188 " fill-opacity="1" fill-rule="nonzero"/></g><path fill="#18a1b7" d="M 75.90625 16.636719 L 65.898438 16.636719 L 62.90625 87.777344 L 78.898438 87.777344 Z M 75.90625 16.636719 " fill-opacity="1" fill-rule="nonzero"/><g clip-path="url(#b3b7064215)"><path fill="#48ccd3" d="M 64.535156 10.039062 L 77.269531 10.039062 L 77.269531 16.652344 L 64.535156 16.652344 Z M 64.535156 10.039062 " fill-opacity="1" fill-rule="nonzero"/></g><path fill="#48ccd3" d="M 90.449219 47.644531 L 90.449219 45.484375 L 126.425781 45.484375 L 126.425781 47.644531 Z M 90.449219 47.644531 " fill-opacity="1" fill-rule="nonzero"/><path fill="#48ccd3" d="M 90.449219 38.917969 L 90.449219 36.757812 L 126.429688 36.757812 L 126.429688 38.917969 Z M 90.449219 38.917969 " fill-opacity="1" fill-rule="nonzero"/><path fill="#48ccd3" d="M 90.457031 47.652344 L 90.457031 36.765625 L 92.707031 36.765625 L 92.707031 47.652344 Z M 90.457031 47.652344 " fill-opacity="1" fill-rule="nonzero"/><path fill="#48ccd3" d="M 98.03125 47.652344 L 98.03125 36.765625 L 100.28125 36.765625 L 100.28125 47.652344 Z M 98.03125 47.652344 " fill-opacity="1" fill-rule="nonzero"/><path fill="#48ccd3" d="M 107.117188 47.652344 L 107.117188 36.765625 L 109.367188 36.765625 L 109.367188 47.652344 Z M 107.117188 47.652344 " fill-opacity="1" fill-rule="nonzero"/><path fill="#48ccd3" d="M 116.203125 47.648438 L 116.203125 36.765625 L 118.453125 36.765625 L 118.453125 47.648438 Z M 116.203125 47.648438 " fill-opacity="1" fill-rule="nonzero"/><path fill="#48ccd3" d="M 90.898438 38.808594 L 92.011719 37.695312 L 100.042969 45.699219 L 98.925781 46.8125 Z M 90.898438 38.808594 " fill-opacity="1" fill-rule="nonzero"/><path fill="#48ccd3" d="M 98.859375 38.8125 L 99.976562 37.699219 L 108.003906 45.703125 L 106.890625 46.816406 Z M 98.859375 38.8125 " fill-opacity="1" fill-rule="nonzero"/><path fill="#48ccd3" d="M 107.898438 38.816406 L 109.015625 37.703125 L 117.042969 45.707031 L 115.925781 46.820312 Z M 107.898438 38.816406 " fill-opacity="1" fill-rule="nonzero"/><path fill="#48ccd3" d="M 115.875 38.808594 L 116.988281 37.695312 L 125.019531 45.699219 L 123.902344 46.8125 Z M 115.875 38.808594 " fill-opacity="1" fill-rule="nonzero"/><path fill="#48ccd3" d="M 114.675781 58.941406 L 98.265625 72.640625 L 98.265625 75.035156 L 116.722656 59.859375 Z M 114.675781 58.941406 " fill-opacity="1" fill-rule="nonzero"/><g clip-path="url(#a99bfaa16d)"><path fill="#48ccd3" d="M 96.636719 100.070312 L 115.597656 100.070312 L 115.597656 101.878906 L 96.636719 101.878906 Z M 96.636719 100.070312 " fill-opacity="1" fill-rule="nonzero"/></g><path fill="#48ccd3" d="M 96.636719 83.339844 L 115.597656 83.339844 L 115.597656 85.148438 L 96.636719 85.148438 Z M 96.636719 83.339844 " fill-opacity="1" fill-rule="nonzero"/><path fill="#48ccd3" d="M 98.75 72.824219 L 115.597656 72.824219 L 115.597656 74.632812 L 98.75 74.632812 Z M 98.75 72.824219 " fill-opacity="1" fill-rule="nonzero"/><path fill="#48ccd3" d="M 116.15625 74.25 L 95.382812 86.738281 L 94.445312 85.1875 L 115.21875 72.703125 Z M 116.15625 74.25 " fill-opacity="1" fill-rule="nonzero"/><path fill="#48ccd3" d="M 116.933594 84.886719 L 96.164062 97.371094 L 95.226562 95.824219 L 115.996094 83.335938 Z M 116.933594 84.886719 " fill-opacity="1" fill-rule="nonzero"/><path fill="#48ccd3" d="M 130.078125 28.945312 L 124.398438 28.945312 L 122.703125 55.238281 L 131.773438 55.238281 Z M 130.078125 28.945312 " fill-opacity="1" fill-rule="nonzero"/><path fill="#48ccd3" d="M 94.453125 46.5625 L 97.84375 46.5625 L 97.84375 81.53125 L 94.453125 81.53125 Z M 94.453125 46.5625 " fill-opacity="1" fill-rule="nonzero"/><path fill="#fff80d" d="M 46.816406 46.277344 L 51.722656 46.277344 L 51.722656 54.902344 L 46.816406 54.902344 Z M 46.816406 46.277344 " fill-opacity="1" fill-rule="nonzero"/><path fill="#fff80d" d="M 46.816406 60.597656 L 51.722656 60.597656 L 51.722656 69.222656 L 46.816406 69.222656 Z M 46.816406 60.597656 " fill-opacity="1" fill-rule="nonzero"/><path fill="#fff80d" d="M 46.816406 75.671875 L 51.722656 75.671875 L 51.722656 84.292969 L 46.816406 84.292969 Z M 46.816406 75.671875 " fill-opacity="1" fill-rule="nonzero"/><g clip-path="url(#cb1b36715e)"><path fill="#13828e" d="M 137.382812 54.902344 L 119.496094 54.902344 L 114.675781 58.941406 L 114.675781 94.292969 L 98.265625 94.292969 L 98.265625 72.640625 L 82.339844 85.9375 L 49.824219 87.425781 L 49.824219 101.878906 L 98.265625 101.878906 L 98.265625 101.777344 L 114.675781 101.777344 L 114.675781 101.878906 L 155.355469 101.878906 L 155.355469 80.074219 Z M 137.382812 54.902344 " fill-opacity="1" fill-rule="nonzero"/></g></svg>