<svg xmlns="http://www.w3.org/2000/svg" xmlns:xlink="http://www.w3.org/1999/xlink" width="1024" zoomAndPan="magnify" viewBox="0 0 768 112.499997" height="150" preserveAspectRatio="xMidYMid meet" version="1.0"><defs><filter x="0%" y="0%" width="100%" height="100%" id="fb72a97fc4"><feColorMatrix values="0 0 0 0 1 0 0 0 0 1 0 0 0 0 1 0 0 0 1 0" color-interpolation-filters="sRGB"/></filter><g/><clipPath id="bb2efd18a2"><path d="M 1.699219 0 L 766.300781 0 L 766.300781 112.003906 L 1.699219 112.003906 Z M 1.699219 0 " clip-rule="nonzero"/></clipPath><linearGradient x1="0" gradientTransform="matrix(0.746681, 0, 0, 0.746681, 1.699126, 0)" y1="0" x2="1023.999957" gradientUnits="userSpaceOnUse" y2="0" id="e4efd53826"><stop stop-opacity="1" stop-color="rgb(5.099487%, 0%, 44.699097%)" offset="0"/><stop stop-opacity="1" stop-color="rgb(5.166626%, 0.15564%, 44.871521%)" offset="0.0078125"/><stop stop-opacity="1" stop-color="rgb(5.300903%, 0.466919%, 45.217896%)" offset="0.015625"/><stop stop-opacity="1" stop-color="rgb(5.436707%, 0.779724%, 45.56427%)" offset="0.0234375"/><stop stop-opacity="1" stop-color="rgb(5.57251%, 1.092529%, 45.910645%)" offset="0.03125"/><stop stop-opacity="1" stop-color="rgb(5.706787%, 1.405334%, 46.255493%)" offset="0.0390625"/><stop stop-opacity="1" stop-color="rgb(5.84259%, 1.716614%, 46.601868%)" offset="0.046875"/><stop stop-opacity="1" stop-color="rgb(5.976868%, 2.029419%, 46.948242%)" offset="0.0546875"/><stop stop-opacity="1" stop-color="rgb(6.112671%, 2.342224%, 47.294617%)" offset="0.0625"/><stop stop-opacity="1" stop-color="rgb(6.246948%, 2.655029%, 47.640991%)" offset="0.0703125"/><stop stop-opacity="1" stop-color="rgb(6.382751%, 2.967834%, 47.98584%)" offset="0.078125"/><stop stop-opacity="1" stop-color="rgb(6.518555%, 3.279114%, 48.332214%)" offset="0.0859375"/><stop stop-opacity="1" stop-color="rgb(6.652832%, 3.591919%, 48.678589%)" offset="0.09375"/><stop stop-opacity="1" stop-color="rgb(6.788635%, 3.904724%, 49.024963%)" offset="0.101562"/><stop stop-opacity="1" stop-color="rgb(6.922913%, 4.217529%, 49.371338%)" offset="0.109375"/><stop stop-opacity="1" stop-color="rgb(7.058716%, 4.530334%, 49.717712%)" offset="0.117188"/><stop stop-opacity="1" stop-color="rgb(7.192993%, 4.841614%, 50.062561%)" offset="0.125"/><stop stop-opacity="1" stop-color="rgb(7.328796%, 5.154419%, 50.408936%)" offset="0.132812"/><stop stop-opacity="1" stop-color="rgb(7.4646%, 5.467224%, 50.75531%)" offset="0.140625"/><stop stop-opacity="1" stop-color="rgb(7.598877%, 5.780029%, 51.101685%)" offset="0.148438"/><stop stop-opacity="1" stop-color="rgb(7.73468%, 6.092834%, 51.448059%)" offset="0.15625"/><stop stop-opacity="1" stop-color="rgb(7.868958%, 6.404114%, 51.792908%)" offset="0.164062"/><stop stop-opacity="1" stop-color="rgb(8.004761%, 6.716919%, 52.139282%)" offset="0.171875"/><stop stop-opacity="1" stop-color="rgb(8.140564%, 7.029724%, 52.485657%)" offset="0.179688"/><stop stop-opacity="1" stop-color="rgb(8.274841%, 7.342529%, 52.832031%)" offset="0.1875"/><stop stop-opacity="1" stop-color="rgb(8.410645%, 7.655334%, 53.178406%)" offset="0.195312"/><stop stop-opacity="1" stop-color="rgb(8.544922%, 7.966614%, 53.523254%)" offset="0.203125"/><stop stop-opacity="1" stop-color="rgb(8.680725%, 8.279419%, 53.869629%)" offset="0.210938"/><stop stop-opacity="1" stop-color="rgb(8.815002%, 8.592224%, 54.216003%)" offset="0.21875"/><stop stop-opacity="1" stop-color="rgb(8.950806%, 8.905029%, 54.562378%)" offset="0.226562"/><stop stop-opacity="1" stop-color="rgb(9.086609%, 9.217834%, 54.908752%)" offset="0.234375"/><stop stop-opacity="1" stop-color="rgb(9.220886%, 9.529114%, 55.255127%)" offset="0.242188"/><stop stop-opacity="1" stop-color="rgb(9.356689%, 9.841919%, 55.599976%)" offset="0.25"/><stop stop-opacity="1" stop-color="rgb(9.490967%, 10.154724%, 55.94635%)" offset="0.257812"/><stop stop-opacity="1" stop-color="rgb(9.62677%, 10.467529%, 56.292725%)" offset="0.265625"/><stop stop-opacity="1" stop-color="rgb(9.761047%, 10.780334%, 56.639099%)" offset="0.273438"/><stop stop-opacity="1" stop-color="rgb(9.896851%, 11.091614%, 56.985474%)" offset="0.28125"/><stop stop-opacity="1" stop-color="rgb(10.032654%, 11.404419%, 57.330322%)" offset="0.289062"/><stop stop-opacity="1" stop-color="rgb(10.166931%, 11.717224%, 57.676697%)" offset="0.296875"/><stop stop-opacity="1" stop-color="rgb(10.302734%, 12.030029%, 58.023071%)" offset="0.304688"/><stop stop-opacity="1" stop-color="rgb(10.437012%, 12.342834%, 58.369446%)" offset="0.3125"/><stop stop-opacity="1" stop-color="rgb(10.572815%, 12.654114%, 58.71582%)" offset="0.320312"/><stop stop-opacity="1" stop-color="rgb(10.707092%, 12.966919%, 59.062195%)" offset="0.328125"/><stop stop-opacity="1" stop-color="rgb(10.842896%, 13.279724%, 59.407043%)" offset="0.335938"/><stop stop-opacity="1" stop-color="rgb(10.978699%, 13.592529%, 59.753418%)" offset="0.34375"/><stop stop-opacity="1" stop-color="rgb(11.112976%, 13.905334%, 60.099792%)" offset="0.351562"/><stop stop-opacity="1" stop-color="rgb(11.248779%, 14.216614%, 60.446167%)" offset="0.359375"/><stop stop-opacity="1" stop-color="rgb(11.383057%, 14.529419%, 60.792542%)" offset="0.367188"/><stop stop-opacity="1" stop-color="rgb(11.51886%, 14.842224%, 61.13739%)" offset="0.375"/><stop stop-opacity="1" stop-color="rgb(11.653137%, 15.155029%, 61.483765%)" offset="0.382812"/><stop stop-opacity="1" stop-color="rgb(11.78894%, 15.467834%, 61.830139%)" offset="0.390625"/><stop stop-opacity="1" stop-color="rgb(11.924744%, 15.779114%, 62.176514%)" offset="0.398438"/><stop stop-opacity="1" stop-color="rgb(12.059021%, 16.091919%, 62.522888%)" offset="0.40625"/><stop stop-opacity="1" stop-color="rgb(12.194824%, 16.404724%, 62.869263%)" offset="0.414062"/><stop stop-opacity="1" stop-color="rgb(12.329102%, 16.717529%, 63.214111%)" offset="0.421875"/><stop stop-opacity="1" stop-color="rgb(12.464905%, 17.030334%, 63.560486%)" offset="0.429688"/><stop stop-opacity="1" stop-color="rgb(12.600708%, 17.341614%, 63.90686%)" offset="0.4375"/><stop stop-opacity="1" stop-color="rgb(12.734985%, 17.654419%, 64.253235%)" offset="0.445312"/><stop stop-opacity="1" stop-color="rgb(12.870789%, 17.967224%, 64.599609%)" offset="0.453125"/><stop stop-opacity="1" stop-color="rgb(13.005066%, 18.280029%, 64.944458%)" offset="0.460938"/><stop stop-opacity="1" stop-color="rgb(13.140869%, 18.592834%, 65.290833%)" offset="0.46875"/><stop stop-opacity="1" stop-color="rgb(13.275146%, 18.904114%, 65.637207%)" offset="0.476562"/><stop stop-opacity="1" stop-color="rgb(13.41095%, 19.216919%, 65.983582%)" offset="0.484375"/><stop stop-opacity="1" stop-color="rgb(13.546753%, 19.529724%, 66.329956%)" offset="0.492188"/><stop stop-opacity="1" stop-color="rgb(13.68103%, 19.842529%, 66.674805%)" offset="0.5"/><stop stop-opacity="1" stop-color="rgb(13.816833%, 20.155334%, 67.021179%)" offset="0.507812"/><stop stop-opacity="1" stop-color="rgb(13.951111%, 20.466614%, 67.367554%)" offset="0.515625"/><stop stop-opacity="1" stop-color="rgb(14.086914%, 20.779419%, 67.713928%)" offset="0.523438"/><stop stop-opacity="1" stop-color="rgb(14.221191%, 21.092224%, 68.060303%)" offset="0.53125"/><stop stop-opacity="1" stop-color="rgb(14.356995%, 21.405029%, 68.406677%)" offset="0.539062"/><stop stop-opacity="1" stop-color="rgb(14.492798%, 21.717834%, 68.751526%)" offset="0.546875"/><stop stop-opacity="1" stop-color="rgb(14.627075%, 22.029114%, 69.0979%)" offset="0.554688"/><stop stop-opacity="1" stop-color="rgb(14.762878%, 22.341919%, 69.444275%)" offset="0.5625"/><stop stop-opacity="1" stop-color="rgb(14.897156%, 22.654724%, 69.790649%)" offset="0.570312"/><stop stop-opacity="1" stop-color="rgb(15.032959%, 22.967529%, 70.137024%)" offset="0.578125"/><stop stop-opacity="1" stop-color="rgb(15.167236%, 23.280334%, 70.481873%)" offset="0.585938"/><stop stop-opacity="1" stop-color="rgb(15.30304%, 23.591614%, 70.828247%)" offset="0.59375"/><stop stop-opacity="1" stop-color="rgb(15.438843%, 23.904419%, 71.174622%)" offset="0.601562"/><stop stop-opacity="1" stop-color="rgb(15.57312%, 24.217224%, 71.520996%)" offset="0.609375"/><stop stop-opacity="1" stop-color="rgb(15.708923%, 24.530029%, 71.867371%)" offset="0.617188"/><stop stop-opacity="1" stop-color="rgb(15.843201%, 24.842834%, 72.213745%)" offset="0.625"/><stop stop-opacity="1" stop-color="rgb(15.979004%, 25.154114%, 72.558594%)" offset="0.632812"/><stop stop-opacity="1" stop-color="rgb(16.113281%, 25.466919%, 72.904968%)" offset="0.640625"/><stop stop-opacity="1" stop-color="rgb(16.249084%, 25.779724%, 73.251343%)" offset="0.648438"/><stop stop-opacity="1" stop-color="rgb(16.384888%, 26.092529%, 73.597717%)" offset="0.65625"/><stop stop-opacity="1" stop-color="rgb(16.519165%, 26.405334%, 73.944092%)" offset="0.664062"/><stop stop-opacity="1" stop-color="rgb(16.654968%, 26.716614%, 74.28894%)" offset="0.671875"/><stop stop-opacity="1" stop-color="rgb(16.789246%, 27.029419%, 74.635315%)" offset="0.679688"/><stop stop-opacity="1" stop-color="rgb(16.925049%, 27.342224%, 74.981689%)" offset="0.6875"/><stop stop-opacity="1" stop-color="rgb(17.060852%, 27.655029%, 75.328064%)" offset="0.695312"/><stop stop-opacity="1" stop-color="rgb(17.195129%, 27.967834%, 75.674438%)" offset="0.703125"/><stop stop-opacity="1" stop-color="rgb(17.330933%, 28.279114%, 76.020813%)" offset="0.710938"/><stop stop-opacity="1" stop-color="rgb(17.46521%, 28.591919%, 76.365662%)" offset="0.71875"/><stop stop-opacity="1" stop-color="rgb(17.601013%, 28.904724%, 76.712036%)" offset="0.726562"/><stop stop-opacity="1" stop-color="rgb(17.735291%, 29.217529%, 77.058411%)" offset="0.734375"/><stop stop-opacity="1" stop-color="rgb(17.871094%, 29.530334%, 77.404785%)" offset="0.742188"/><stop stop-opacity="1" stop-color="rgb(18.006897%, 29.841614%, 77.75116%)" offset="0.75"/><stop stop-opacity="1" stop-color="rgb(18.141174%, 30.154419%, 78.096008%)" offset="0.757812"/><stop stop-opacity="1" stop-color="rgb(18.276978%, 30.467224%, 78.442383%)" offset="0.765625"/><stop stop-opacity="1" stop-color="rgb(18.411255%, 30.780029%, 78.788757%)" offset="0.773438"/><stop stop-opacity="1" stop-color="rgb(18.547058%, 31.092834%, 79.135132%)" offset="0.78125"/><stop stop-opacity="1" stop-color="rgb(18.681335%, 31.404114%, 79.481506%)" offset="0.789062"/><stop stop-opacity="1" stop-color="rgb(18.817139%, 31.716919%, 79.827881%)" offset="0.796875"/><stop stop-opacity="1" stop-color="rgb(18.952942%, 32.029724%, 80.172729%)" offset="0.804688"/><stop stop-opacity="1" stop-color="rgb(19.087219%, 32.342529%, 80.519104%)" offset="0.8125"/><stop stop-opacity="1" stop-color="rgb(19.223022%, 32.655334%, 80.865479%)" offset="0.820312"/><stop stop-opacity="1" stop-color="rgb(19.3573%, 32.966614%, 81.211853%)" offset="0.828125"/><stop stop-opacity="1" stop-color="rgb(19.493103%, 33.279419%, 81.558228%)" offset="0.835938"/><stop stop-opacity="1" stop-color="rgb(19.62738%, 33.592224%, 81.903076%)" offset="0.84375"/><stop stop-opacity="1" stop-color="rgb(19.763184%, 33.905029%, 82.249451%)" offset="0.851562"/><stop stop-opacity="1" stop-color="rgb(19.898987%, 34.217834%, 82.595825%)" offset="0.859375"/><stop stop-opacity="1" stop-color="rgb(20.033264%, 34.529114%, 82.9422%)" offset="0.867188"/><stop stop-opacity="1" stop-color="rgb(20.169067%, 34.841919%, 83.288574%)" offset="0.875"/><stop stop-opacity="1" stop-color="rgb(20.303345%, 35.154724%, 83.633423%)" offset="0.882812"/><stop stop-opacity="1" stop-color="rgb(20.439148%, 35.467529%, 83.979797%)" offset="0.890625"/><stop stop-opacity="1" stop-color="rgb(20.573425%, 35.780334%, 84.326172%)" offset="0.898438"/><stop stop-opacity="1" stop-color="rgb(20.709229%, 36.091614%, 84.672546%)" offset="0.90625"/><stop stop-opacity="1" stop-color="rgb(20.845032%, 36.404419%, 85.018921%)" offset="0.914062"/><stop stop-opacity="1" stop-color="rgb(20.979309%, 36.717224%, 85.365295%)" offset="0.921875"/><stop stop-opacity="1" stop-color="rgb(21.115112%, 37.030029%, 85.710144%)" offset="0.929688"/><stop stop-opacity="1" stop-color="rgb(21.24939%, 37.342834%, 86.056519%)" offset="0.9375"/><stop stop-opacity="1" stop-color="rgb(21.385193%, 37.654114%, 86.402893%)" offset="0.945312"/><stop stop-opacity="1" stop-color="rgb(21.520996%, 37.966919%, 86.749268%)" offset="0.953125"/><stop stop-opacity="1" stop-color="rgb(21.655273%, 38.279724%, 87.095642%)" offset="0.960938"/><stop stop-opacity="1" stop-color="rgb(21.791077%, 38.592529%, 87.440491%)" offset="0.96875"/><stop stop-opacity="1" stop-color="rgb(21.925354%, 38.905334%, 87.786865%)" offset="0.976562"/><stop stop-opacity="1" stop-color="rgb(22.061157%, 39.216614%, 88.13324%)" offset="0.984375"/><stop stop-opacity="1" stop-color="rgb(22.195435%, 39.529419%, 88.479614%)" offset="0.992188"/><stop stop-opacity="1" stop-color="rgb(22.331238%, 39.842224%, 88.825989%)" offset="1"/></linearGradient><clipPath id="573da9ec8b"><path d="M 56 16 L 119.535156 16 L 119.535156 103.820312 L 56 103.820312 Z M 56 16 " clip-rule="nonzero"/></clipPath><clipPath id="df63b7e281"><path d="M 55 15 L 119.535156 15 L 119.535156 103.820312 L 55 103.820312 Z M 55 15 " clip-rule="nonzero"/></clipPath><clipPath id="9c5b201203"><path d="M 70 8.246094 L 104 8.246094 L 104 21 L 70 21 Z M 70 8.246094 " clip-rule="nonzero"/></clipPath><mask id="3441492532"><g filter="url(#fb72a97fc4)"><rect x="-76.8" width="921.6" fill="#000000" y="-11.25" height="134.999996" fill-opacity="0.7"/></g></mask><clipPath id="a1099a197d"><path d="M 3 0.609375 L 11.496094 0.609375 L 11.496094 7 L 3 7 Z M 3 0.609375 " clip-rule="nonzero"/></clipPath><clipPath id="049331a836"><path d="M 0.503906 8 L 4 8 L 4 13.511719 L 0.503906 13.511719 Z M 0.503906 8 " clip-rule="nonzero"/></clipPath><clipPath id="ed655bdabc"><rect x="0" width="12" y="0" height="14"/></clipPath></defs><g clip-path="url(#bb2efd18a2)"><path fill="#ffffff" d="M 1.699219 0 L 766.300781 0 L 766.300781 112.003906 L 1.699219 112.003906 Z M 1.699219 0 " fill-opacity="1" fill-rule="nonzero"/><path fill="url(#e4efd53826)" d="M 1.699219 0 L 1.699219 112.003906 L 766.300781 112.003906 L 766.300781 0 Z M 1.699219 0 " fill-rule="nonzero"/></g><g clip-path="url(#573da9ec8b)"><path fill="#842e0c" d="M 56.066406 16.339844 L 119.148438 16.339844 L 119.148438 103.175781 L 56.066406 103.175781 Z M 56.066406 16.339844 " fill-opacity="1" fill-rule="nonzero"/><path fill="#131313" d="M 56.066406 16.339844 L 119.148438 16.339844 L 119.148438 103.175781 L 56.066406 103.175781 Z M 56.066406 16.339844 " fill-opacity="0.4" fill-rule="nonzero"/></g><g clip-path="url(#df63b7e281)"><path fill="#131313" d="M 119.496094 103.832031 L 55.097656 103.832031 L 55.097656 15.679688 L 119.496094 15.679688 Z M 56.421875 102.515625 L 118.175781 102.515625 L 118.175781 16.996094 L 56.421875 16.996094 Z M 56.421875 102.515625 " fill-opacity="1" fill-rule="nonzero"/><path fill="#131313" d="M 119.496094 103.832031 L 55.097656 103.832031 L 55.097656 15.679688 L 119.496094 15.679688 Z M 56.421875 102.515625 L 118.175781 102.515625 L 118.175781 16.996094 L 56.421875 16.996094 Z M 56.421875 102.515625 " fill-opacity="0.4" fill-rule="nonzero"/></g><path fill="#f4e1d3" d="M 59.3125 19.28125 L 115.28125 19.28125 L 115.28125 100.546875 L 59.3125 100.546875 Z M 59.3125 19.28125 " fill-opacity="1" fill-rule="nonzero"/><path fill="#842e0c" d="M 95.546875 15.066406 C 94.917969 11.894531 91.605469 9.480469 87.617188 9.480469 C 83.625 9.480469 80.3125 11.894531 79.683594 15.066406 L 71.492188 15.066406 L 71.492188 20.105469 L 103.109375 20.105469 L 103.109375 15.066406 Z M 95.546875 15.066406 " fill-opacity="1" fill-rule="nonzero"/><path fill="#131313" d="M 95.542969 15.066406 C 94.902344 11.894531 91.597656 9.480469 87.617188 9.480469 C 83.632812 9.480469 80.328125 11.894531 79.691406 15.066406 L 71.492188 15.066406 L 71.492188 20.105469 L 103.109375 20.105469 L 103.109375 15.066406 Z M 95.542969 15.066406 " fill-opacity="0.6" fill-rule="nonzero"/><g clip-path="url(#9c5b201203)"><path fill="#131313" d="M 103.757812 20.761719 L 70.835938 20.761719 L 70.835938 14.40625 L 79.167969 14.40625 C 79.664062 12.792969 80.609375 11.507812 82 10.550781 C 82.828125 9.988281 83.71875 9.558594 84.675781 9.265625 C 85.632812 8.96875 86.609375 8.824219 87.609375 8.824219 C 88.609375 8.824219 89.589844 8.96875 90.542969 9.265625 C 91.5 9.558594 92.390625 9.988281 93.21875 10.550781 C 94.613281 11.507812 95.558594 12.792969 96.054688 14.40625 L 103.75 14.40625 Z M 72.144531 19.457031 L 102.441406 19.457031 L 102.441406 15.722656 L 95.015625 15.722656 L 94.898438 15.191406 C 94.316406 12.261719 91.257812 10.136719 87.617188 10.136719 C 83.972656 10.136719 80.910156 12.265625 80.332031 15.191406 L 80.226562 15.71875 L 72.160156 15.71875 Z M 72.144531 19.457031 " fill-opacity="1" fill-rule="nonzero"/></g><path fill="#131313" d="M 66.203125 33.214844 L 108.394531 33.214844 L 108.394531 34.777344 L 66.203125 34.777344 Z M 66.203125 33.214844 " fill-opacity="1" fill-rule="nonzero"/><path fill="#131313" d="M 66.203125 37.75 L 108.394531 37.75 L 108.394531 39.3125 L 66.203125 39.3125 Z M 66.203125 37.75 " fill-opacity="1" fill-rule="nonzero"/><path fill="#131313" d="M 66.203125 43.410156 L 108.394531 43.410156 L 108.394531 44.972656 L 66.203125 44.972656 Z M 66.203125 43.410156 " fill-opacity="1" fill-rule="nonzero"/><path fill="#131313" d="M 66.203125 47.941406 L 108.394531 47.941406 L 108.394531 49.507812 L 66.203125 49.507812 Z M 66.203125 47.941406 " fill-opacity="1" fill-rule="nonzero"/><path fill="#131313" d="M 72.863281 58.621094 L 101.730469 58.621094 L 101.730469 60.183594 L 72.863281 60.183594 Z M 72.863281 58.621094 " fill-opacity="1" fill-rule="nonzero"/><path fill="#131313" d="M 72.863281 63.148438 L 101.730469 63.148438 L 101.730469 64.710938 L 72.863281 64.710938 Z M 72.863281 63.148438 " fill-opacity="1" fill-rule="nonzero"/><path fill="#131313" d="M 71.082031 70.566406 L 103.511719 70.566406 L 103.511719 74.582031 L 71.082031 74.582031 Z M 71.082031 70.566406 " fill-opacity="1" fill-rule="nonzero"/><path fill="#ec9b16" d="M 110.21875 89.101562 C 110.21875 89.417969 110.1875 89.734375 110.125 90.046875 C 110.0625 90.355469 109.972656 90.660156 109.847656 90.953125 C 109.726562 91.246094 109.578125 91.527344 109.402344 91.789062 C 109.222656 92.054688 109.023438 92.296875 108.796875 92.523438 C 108.574219 92.746094 108.328125 92.949219 108.0625 93.125 C 107.800781 93.300781 107.519531 93.449219 107.226562 93.574219 C 106.933594 93.695312 106.628906 93.785156 106.316406 93.847656 C 106.003906 93.910156 105.6875 93.941406 105.371094 93.941406 C 105.246094 93.941406 105.121094 93.941406 104.996094 93.925781 C 104.683594 93.902344 104.375 93.847656 104.074219 93.761719 C 103.773438 93.679688 103.484375 93.566406 103.203125 93.425781 C 102.921875 93.285156 102.660156 93.121094 102.414062 92.929688 C 102.164062 92.738281 101.9375 92.527344 101.730469 92.289062 C 101.527344 92.054688 101.34375 91.804688 101.1875 91.53125 C 101.027344 91.261719 100.898438 90.980469 100.796875 90.683594 C 100.695312 90.390625 100.621094 90.085938 100.578125 89.777344 C 100.535156 89.46875 100.519531 89.15625 100.535156 88.84375 C 100.554688 88.535156 100.601562 88.226562 100.675781 87.921875 C 100.753906 87.621094 100.855469 87.328125 100.988281 87.042969 C 101.121094 86.761719 101.28125 86.492188 101.464844 86.242188 C 101.652344 85.988281 101.859375 85.757812 102.089844 85.546875 C 102.320312 85.332031 102.566406 85.144531 102.832031 84.980469 C 103.101562 84.816406 103.378906 84.679688 103.671875 84.570312 C 103.964844 84.460938 104.265625 84.378906 104.574219 84.328125 C 104.882812 84.273438 105.195312 84.253906 105.507812 84.261719 C 105.820312 84.269531 106.128906 84.308594 106.433594 84.375 C 106.742188 84.445312 107.035156 84.539062 107.324219 84.667969 C 107.609375 84.792969 107.882812 84.941406 108.140625 85.121094 C 108.398438 85.296875 108.636719 85.5 108.851562 85.722656 C 109.070312 85.949219 109.265625 86.191406 109.4375 86.453125 C 109.609375 86.714844 109.753906 86.988281 109.871094 87.277344 C 109.988281 87.566406 110.078125 87.867188 110.136719 88.171875 C 110.199219 88.480469 110.230469 88.789062 110.230469 89.101562 Z M 110.21875 89.101562 " fill-opacity="1" fill-rule="nonzero"/><path fill="#131313" d="M 110.21875 89.101562 C 110.21875 89.417969 110.1875 89.734375 110.125 90.046875 C 110.0625 90.355469 109.972656 90.660156 109.847656 90.953125 C 109.726562 91.246094 109.578125 91.527344 109.402344 91.789062 C 109.222656 92.054688 109.023438 92.296875 108.796875 92.523438 C 108.574219 92.746094 108.328125 92.949219 108.0625 93.125 C 107.800781 93.300781 107.519531 93.449219 107.226562 93.574219 C 106.933594 93.695312 106.628906 93.785156 106.316406 93.847656 C 106.003906 93.910156 105.6875 93.941406 105.371094 93.941406 C 105.246094 93.941406 105.121094 93.941406 104.996094 93.925781 C 105.925781 92.890625 106.621094 91.714844 107.089844 90.40625 C 107.738281 88.554688 107.867188 86.667969 107.480469 84.746094 C 107.890625 84.945312 108.265625 85.195312 108.605469 85.496094 C 108.941406 85.800781 109.234375 86.144531 109.476562 86.53125 C 109.71875 86.914062 109.902344 87.328125 110.027344 87.761719 C 110.15625 88.199219 110.21875 88.644531 110.21875 89.101562 Z M 110.21875 89.101562 " fill-opacity="0.1" fill-rule="nonzero"/><path fill="#131313" d="M 115.292969 19.28125 L 115.292969 100.546875 L 88.824219 100.546875 C 97.574219 84.023438 106.570312 60.617188 107.441406 32.121094 C 107.578125 27.671875 107.503906 23.382812 107.269531 19.277344 Z M 115.292969 19.28125 " fill-opacity="0.06" fill-rule="nonzero"/><path fill="#ffffff" d="M 84.582031 12.4375 C 84.414062 12.433594 84.300781 12.347656 84.246094 12.1875 C 84.195312 12.027344 84.234375 11.890625 84.363281 11.785156 C 84.832031 11.394531 85.355469 11.113281 85.941406 10.941406 C 86.71875 10.714844 87.5 10.707031 88.285156 10.90625 C 88.382812 10.933594 88.460938 10.988281 88.511719 11.078125 C 88.5625 11.164062 88.578125 11.257812 88.550781 11.359375 C 88.523438 11.457031 88.46875 11.53125 88.378906 11.582031 C 88.292969 11.636719 88.199219 11.648438 88.097656 11.621094 C 87.445312 11.453125 86.796875 11.464844 86.148438 11.652344 C 85.664062 11.792969 85.226562 12.027344 84.839844 12.351562 C 84.765625 12.414062 84.679688 12.441406 84.582031 12.4375 Z M 84.582031 12.4375 " fill-opacity="0.7" fill-rule="nonzero"/><path fill="#ffffff" d="M 81.613281 15.640625 C 81.582031 15.640625 81.554688 15.636719 81.523438 15.628906 C 81.425781 15.601562 81.351562 15.546875 81.300781 15.460938 C 81.25 15.378906 81.234375 15.285156 81.257812 15.191406 C 81.332031 14.898438 81.4375 14.621094 81.578125 14.359375 C 81.886719 13.785156 82.308594 13.316406 82.851562 12.953125 C 82.9375 12.886719 83.035156 12.863281 83.140625 12.878906 C 83.246094 12.898438 83.328125 12.949219 83.386719 13.039062 C 83.449219 13.128906 83.464844 13.222656 83.441406 13.328125 C 83.417969 13.433594 83.359375 13.511719 83.269531 13.566406 C 82.828125 13.859375 82.480469 14.238281 82.230469 14.703125 C 82.117188 14.917969 82.03125 15.140625 81.972656 15.371094 C 81.921875 15.550781 81.800781 15.640625 81.613281 15.640625 Z M 81.613281 15.640625 " fill-opacity="0.7" fill-rule="nonzero"/><path fill="#842e0c" d="M 61.703125 40.527344 L 72.109375 44.796875 L 53.015625 91.15625 C 52.875 91.5 52.703125 91.824219 52.496094 92.128906 C 52.292969 92.4375 52.058594 92.722656 51.800781 92.980469 C 51.539062 93.242188 51.253906 93.476562 50.949219 93.683594 C 50.640625 93.886719 50.320312 94.0625 49.976562 94.203125 C 49.636719 94.347656 49.285156 94.453125 48.921875 94.527344 C 48.5625 94.597656 48.195312 94.636719 47.824219 94.636719 C 47.457031 94.636719 47.089844 94.601562 46.726562 94.53125 C 46.367188 94.460938 46.015625 94.355469 45.671875 94.214844 C 45.332031 94.074219 45.007812 93.902344 44.699219 93.699219 C 44.390625 93.496094 44.105469 93.261719 43.84375 93.003906 C 43.582031 92.742188 43.347656 92.460938 43.140625 92.152344 C 42.9375 91.847656 42.761719 91.523438 42.621094 91.183594 C 42.476562 90.84375 42.371094 90.492188 42.296875 90.132812 C 42.222656 89.769531 42.1875 89.40625 42.1875 89.035156 C 42.183594 88.667969 42.21875 88.300781 42.292969 87.941406 C 42.363281 87.578125 42.46875 87.226562 42.609375 86.886719 Z M 61.703125 40.527344 " fill-opacity="1" fill-rule="nonzero"/><path fill="#131313" d="M 72.117188 44.792969 L 53.019531 91.152344 C 52.882812 91.503906 52.714844 91.835938 52.515625 92.148438 C 52.3125 92.464844 52.082031 92.757812 51.824219 93.027344 C 51.5625 93.296875 51.28125 93.535156 50.972656 93.75 C 50.664062 93.960938 50.335938 94.140625 49.992188 94.289062 C 49.648438 94.4375 49.292969 94.550781 48.929688 94.625 C 48.5625 94.703125 48.191406 94.742188 47.816406 94.746094 C 47.441406 94.75 47.070312 94.714844 46.703125 94.644531 C 46.335938 94.574219 45.980469 94.46875 45.632812 94.324219 C 45.285156 94.183594 44.957031 94.007812 44.648438 93.800781 C 44.335938 93.59375 44.046875 93.355469 43.785156 93.09375 C 43.519531 92.828125 43.285156 92.539062 43.078125 92.226562 C 42.871094 91.914062 42.699219 91.585938 42.558594 91.238281 C 42.417969 90.894531 42.3125 90.535156 42.242188 90.167969 C 42.171875 89.800781 42.140625 89.433594 42.144531 89.058594 C 42.148438 88.683594 42.191406 88.316406 42.269531 87.949219 C 42.351562 87.582031 42.464844 87.230469 42.613281 86.886719 L 61.707031 40.527344 Z M 72.117188 44.792969 " fill-opacity="0.3" fill-rule="nonzero"/><path fill="#131313" d="M 47.816406 95.304688 C 47.558594 95.304688 47.300781 95.289062 47.046875 95.257812 C 46.792969 95.226562 46.539062 95.179688 46.289062 95.117188 C 46.039062 95.054688 45.792969 94.976562 45.554688 94.886719 C 45.3125 94.792969 45.078125 94.6875 44.851562 94.566406 C 44.625 94.445312 44.40625 94.308594 44.195312 94.164062 C 43.984375 94.015625 43.785156 93.855469 43.59375 93.683594 C 43.402344 93.507812 43.222656 93.324219 43.054688 93.132812 C 42.886719 92.9375 42.730469 92.734375 42.589844 92.519531 C 42.445312 92.304688 42.316406 92.085938 42.199219 91.855469 C 42.082031 91.625 41.980469 91.390625 41.894531 91.148438 C 41.808594 90.90625 41.734375 90.660156 41.679688 90.410156 C 41.621094 90.160156 41.582031 89.90625 41.554688 89.648438 C 41.527344 89.394531 41.519531 89.136719 41.523438 88.882812 C 41.53125 88.625 41.550781 88.367188 41.589844 88.113281 C 41.625 87.859375 41.679688 87.609375 41.746094 87.359375 C 41.816406 87.113281 41.898438 86.871094 41.996094 86.632812 L 61.339844 39.65625 L 72.992188 44.433594 L 53.636719 91.410156 C 53.398438 91.984375 53.082031 92.515625 52.6875 92.996094 C 52.292969 93.480469 51.835938 93.894531 51.320312 94.238281 C 50.800781 94.585938 50.242188 94.851562 49.648438 95.03125 C 49.050781 95.214844 48.441406 95.304688 47.816406 95.304688 Z M 62.070312 41.394531 L 43.230469 87.140625 C 43.101562 87.441406 43.003906 87.753906 42.933594 88.074219 C 42.867188 88.394531 42.832031 88.71875 42.832031 89.046875 C 42.828125 89.375 42.855469 89.699219 42.917969 90.023438 C 42.980469 90.34375 43.074219 90.65625 43.199219 90.960938 C 43.324219 91.265625 43.476562 91.554688 43.65625 91.828125 C 43.839844 92.101562 44.046875 92.351562 44.277344 92.585938 C 44.511719 92.816406 44.765625 93.023438 45.039062 93.207031 C 45.3125 93.386719 45.597656 93.542969 45.902344 93.667969 C 46.207031 93.792969 46.519531 93.882812 46.84375 93.949219 C 47.164062 94.011719 47.492188 94.039062 47.820312 94.039062 C 48.148438 94.035156 48.472656 94 48.796875 93.933594 C 49.117188 93.867188 49.429688 93.769531 49.730469 93.640625 C 50.035156 93.511719 50.320312 93.355469 50.589844 93.171875 C 50.863281 92.984375 51.113281 92.773438 51.34375 92.539062 C 51.570312 92.304688 51.773438 92.050781 51.953125 91.773438 C 52.132812 91.5 52.28125 91.207031 52.402344 90.902344 L 71.246094 45.160156 Z M 62.070312 41.394531 " fill-opacity="1" fill-rule="nonzero"/><path fill="#131313" d="M 71.191406 47.03125 L 53.019531 91.152344 C 52.929688 91.367188 52.832031 91.570312 52.71875 91.769531 C 52.605469 91.972656 52.480469 92.164062 52.34375 92.347656 C 52.207031 92.53125 52.0625 92.707031 51.902344 92.875 C 51.746094 93.042969 51.578125 93.199219 51.402344 93.34375 C 51.226562 93.488281 51.039062 93.625 50.847656 93.746094 C 50.652344 93.871094 50.453125 93.984375 50.246094 94.082031 C 50.039062 94.179688 49.824219 94.265625 49.609375 94.339844 C 49.390625 94.414062 49.167969 94.472656 48.945312 94.519531 C 48.71875 94.5625 48.492188 94.597656 48.261719 94.613281 C 48.035156 94.632812 47.804688 94.636719 47.574219 94.628906 C 47.34375 94.617188 47.117188 94.59375 46.890625 94.554688 C 46.664062 94.519531 46.441406 94.46875 46.21875 94.402344 C 46 94.335938 45.785156 94.257812 45.574219 94.167969 C 45.363281 94.078125 45.160156 93.972656 44.960938 93.855469 C 44.761719 93.742188 44.574219 93.613281 44.390625 93.472656 C 44.207031 93.332031 44.035156 93.183594 43.871094 93.023438 C 50.226562 82.707031 55.996094 72.070312 61.175781 61.117188 C 64.027344 55.082031 66.597656 49.207031 68.890625 43.484375 C 69.726562 44.621094 70.492188 45.804688 71.191406 47.03125 Z M 71.191406 47.03125 " fill-opacity="0.1" fill-rule="nonzero"/><path fill="#842e0c" d="M 82.539062 54.386719 L 78.234375 52.664062 L 65.035156 47.386719 L 51.683594 42.042969 L 47.378906 40.324219 L 49.21875 35.742188 L 55.054688 21.210938 L 55.308594 21.316406 L 59.355469 22.933594 L 79.273438 30.902344 L 85.90625 33.554688 L 90.210938 35.277344 Z M 82.539062 54.386719 " fill-opacity="1" fill-rule="nonzero"/><path fill="#ec9b16" d="M 78.234375 52.664062 L 65.035156 47.386719 L 51.683594 42.042969 L 59.355469 22.933594 L 79.273438 30.902344 L 85.90625 33.554688 Z M 78.234375 52.664062 " fill-opacity="1" fill-rule="nonzero"/><g mask="url(#3441492532)"><g transform="matrix(1, 0, 0, 1, 54, 24)"><g clip-path="url(#ed655bdabc)"><g clip-path="url(#a1099a197d)"><path fill="#ffffff" d="M 3.832031 6.605469 C 3.707031 6.558594 3.613281 6.476562 3.558594 6.351562 C 3.5 6.230469 3.496094 6.109375 3.539062 5.980469 C 3.796875 5.308594 4.160156 4.402344 4.511719 3.527344 C 4.863281 2.648438 5.21875 1.75 5.476562 1.082031 C 5.527344 0.957031 5.613281 0.867188 5.738281 0.820312 C 5.867188 0.769531 5.996094 0.769531 6.125 0.820312 L 10.839844 2.707031 C 10.964844 2.753906 11.050781 2.839844 11.105469 2.960938 C 11.15625 3.082031 11.160156 3.203125 11.109375 3.328125 C 11.0625 3.449219 10.976562 3.539062 10.855469 3.589844 C 10.734375 3.644531 10.609375 3.644531 10.488281 3.597656 L 6.246094 1.898438 C 6.007812 2.5 5.726562 3.203125 5.449219 3.90625 C 5.101562 4.777344 4.738281 5.679688 4.484375 6.347656 C 4.429688 6.472656 4.34375 6.558594 4.214844 6.613281 C 4.089844 6.664062 3.964844 6.664062 3.839844 6.609375 Z M 3.832031 6.605469 " fill-opacity="1" fill-rule="nonzero"/></g><g clip-path="url(#049331a836)"><path fill="#ffffff" d="M 1.199219 13.28125 C 1.074219 13.234375 0.980469 13.148438 0.925781 13.027344 C 0.867188 12.90625 0.863281 12.78125 0.910156 12.652344 L 2.535156 8.601562 C 2.589844 8.480469 2.679688 8.398438 2.804688 8.347656 C 2.929688 8.300781 3.054688 8.300781 3.179688 8.351562 C 3.300781 8.398438 3.394531 8.484375 3.449219 8.605469 C 3.503906 8.726562 3.511719 8.851562 3.472656 8.976562 L 1.847656 13.023438 C 1.792969 13.148438 1.703125 13.234375 1.578125 13.285156 C 1.449219 13.335938 1.324219 13.335938 1.199219 13.28125 Z M 1.199219 13.28125 " fill-opacity="1" fill-rule="nonzero"/></g></g></g></g><path fill="#131313" d="M 82.914062 55.253906 L 46.511719 40.691406 L 54.675781 20.34375 L 55.546875 20.695312 L 91.089844 34.90625 Z M 48.242188 39.949219 L 82.167969 53.519531 L 89.34375 35.648438 L 55.421875 22.078125 Z M 48.242188 39.949219 " fill-opacity="1" fill-rule="nonzero"/><path fill="#842e0c" d="M 52.652344 20.085938 L 44.777344 38.742188 C 44.707031 38.910156 44.671875 39.089844 44.667969 39.273438 C 44.667969 39.457031 44.699219 39.636719 44.761719 39.808594 C 44.828125 39.980469 44.921875 40.136719 45.046875 40.273438 C 45.171875 40.410156 45.316406 40.519531 45.484375 40.601562 C 45.648438 40.683594 45.824219 40.730469 46.007812 40.746094 C 46.191406 40.761719 46.375 40.742188 46.550781 40.691406 C 46.726562 40.636719 46.890625 40.554688 47.035156 40.441406 C 47.179688 40.328125 47.300781 40.191406 47.394531 40.03125 C 47.421875 39.980469 47.445312 39.929688 47.472656 39.875 L 55.347656 21.222656 C 55.367188 21.167969 55.386719 21.113281 55.40625 21.058594 C 55.496094 20.734375 55.480469 20.417969 55.355469 20.105469 C 55.242188 19.832031 55.0625 19.609375 54.820312 19.445312 C 54.574219 19.28125 54.304688 19.195312 54.007812 19.195312 C 53.710938 19.191406 53.441406 19.273438 53.191406 19.433594 C 52.945312 19.597656 52.765625 19.816406 52.648438 20.085938 Z M 52.652344 20.085938 " fill-opacity="1" fill-rule="nonzero"/><path fill="#131313" d="M 46.125 41.433594 C 45.949219 41.433594 45.773438 41.414062 45.605469 41.371094 C 45.433594 41.328125 45.273438 41.265625 45.117188 41.183594 C 44.960938 41.097656 44.820312 41 44.6875 40.878906 C 44.558594 40.761719 44.445312 40.628906 44.347656 40.484375 C 44.25 40.335938 44.175781 40.183594 44.117188 40.015625 C 44.058594 39.851562 44.019531 39.679688 44.003906 39.507812 C 43.988281 39.332031 43.992188 39.15625 44.019531 38.984375 C 44.046875 38.8125 44.09375 38.644531 44.160156 38.480469 L 52.039062 19.832031 C 52.140625 19.578125 52.289062 19.355469 52.480469 19.160156 C 52.667969 18.964844 52.890625 18.8125 53.136719 18.703125 C 53.386719 18.59375 53.648438 18.53125 53.917969 18.519531 C 54.191406 18.511719 54.457031 18.550781 54.714844 18.640625 C 54.96875 18.730469 55.203125 18.867188 55.40625 19.042969 C 55.613281 19.222656 55.777344 19.433594 55.902344 19.675781 C 56.023438 19.917969 56.101562 20.175781 56.125 20.445312 C 56.152344 20.714844 56.125 20.980469 56.050781 21.242188 C 56.027344 21.324219 55.996094 21.402344 55.964844 21.480469 L 48.089844 40.132812 C 48.054688 40.207031 48.019531 40.28125 47.976562 40.351562 C 47.789062 40.683594 47.527344 40.949219 47.199219 41.144531 C 46.867188 41.335938 46.507812 41.433594 46.125 41.433594 Z M 53.265625 20.347656 L 45.390625 39 C 45.292969 39.199219 45.28125 39.398438 45.355469 39.609375 C 45.425781 39.816406 45.558594 39.96875 45.757812 40.066406 C 45.957031 40.160156 46.160156 40.175781 46.367188 40.105469 C 46.578125 40.03125 46.730469 39.898438 46.824219 39.699219 C 46.84375 39.671875 46.855469 39.644531 46.871094 39.617188 L 54.746094 20.964844 C 54.746094 20.933594 54.765625 20.902344 54.777344 20.871094 C 54.832031 20.679688 54.816406 20.492188 54.730469 20.3125 C 54.640625 20.128906 54.503906 20 54.320312 19.921875 C 54.117188 19.839844 53.914062 19.839844 53.710938 19.921875 C 53.507812 20.003906 53.363281 20.144531 53.277344 20.347656 Z M 53.265625 20.347656 " fill-opacity="1" fill-rule="nonzero"/><path fill="#842e0c" d="M 49.117188 17.703125 L 40.613281 37.84375 C 40.496094 38.089844 40.4375 38.351562 40.429688 38.621094 C 40.417969 38.894531 40.464844 39.15625 40.5625 39.410156 C 40.660156 39.664062 40.804688 39.890625 40.996094 40.085938 C 41.1875 40.28125 41.40625 40.429688 41.65625 40.535156 C 41.910156 40.640625 42.171875 40.695312 42.441406 40.695312 C 42.714844 40.691406 42.976562 40.640625 43.226562 40.53125 C 43.480469 40.425781 43.699219 40.273438 43.886719 40.078125 C 44.078125 39.882812 44.222656 39.660156 44.320312 39.40625 L 52.820312 19.261719 C 52.914062 19.019531 52.960938 18.765625 52.957031 18.507812 C 52.949219 18.246094 52.898438 17.996094 52.796875 17.753906 C 52.691406 17.515625 52.550781 17.304688 52.363281 17.117188 C 52.179688 16.933594 51.964844 16.792969 51.726562 16.691406 C 51.484375 16.589844 51.234375 16.539062 50.972656 16.535156 C 50.710938 16.53125 50.460938 16.574219 50.214844 16.667969 C 49.972656 16.761719 49.753906 16.898438 49.566406 17.078125 C 49.375 17.257812 49.226562 17.464844 49.117188 17.703125 Z M 49.117188 17.703125 " fill-opacity="1" fill-rule="nonzero"/><path fill="#131313" d="M 42.464844 41.078125 C 42.132812 41.078125 41.816406 41.011719 41.511719 40.882812 C 41.210938 40.757812 40.949219 40.578125 40.71875 40.347656 C 40.488281 40.117188 40.316406 39.847656 40.191406 39.546875 C 40.070312 39.246094 40.007812 38.933594 40.011719 38.605469 C 40.011719 38.28125 40.078125 37.96875 40.203125 37.667969 L 48.707031 17.527344 C 48.835938 17.226562 49.015625 16.964844 49.246094 16.734375 C 49.476562 16.507812 49.746094 16.332031 50.046875 16.207031 C 50.347656 16.085938 50.660156 16.023438 50.988281 16.027344 C 51.3125 16.03125 51.625 16.09375 51.925781 16.21875 C 52.226562 16.347656 52.492188 16.527344 52.722656 16.757812 C 52.949219 16.988281 53.125 17.253906 53.25 17.554688 C 53.371094 17.859375 53.433594 18.171875 53.429688 18.496094 C 53.425781 18.820312 53.363281 19.132812 53.238281 19.433594 L 44.726562 39.566406 C 44.535156 40.023438 44.234375 40.386719 43.824219 40.664062 C 43.414062 40.9375 42.960938 41.074219 42.464844 41.078125 Z M 50.96875 16.917969 C 50.652344 16.917969 50.367188 17.007812 50.101562 17.179688 C 49.839844 17.355469 49.648438 17.585938 49.527344 17.875 L 41.023438 38.019531 C 40.941406 38.210938 40.898438 38.410156 40.898438 38.617188 C 40.898438 38.824219 40.933594 39.023438 41.011719 39.214844 C 41.089844 39.40625 41.203125 39.578125 41.351562 39.726562 C 41.496094 39.871094 41.664062 39.988281 41.855469 40.066406 C 42.046875 40.148438 42.246094 40.1875 42.457031 40.191406 C 42.664062 40.191406 42.863281 40.152344 43.054688 40.074219 C 43.25 39.996094 43.417969 39.882812 43.566406 39.738281 C 43.714844 39.59375 43.828125 39.421875 43.910156 39.234375 L 52.414062 19.089844 C 52.578125 18.691406 52.578125 18.292969 52.414062 17.894531 C 52.292969 17.601562 52.101562 17.367188 51.839844 17.1875 C 51.578125 17.007812 51.285156 16.917969 50.96875 16.914062 Z M 50.96875 16.917969 " fill-opacity="1" fill-rule="nonzero"/><path fill="#842e0c" d="M 85.402344 55.410156 C 85.328125 55.589844 85.226562 55.75 85.089844 55.890625 C 84.953125 56.027344 84.796875 56.132812 84.617188 56.210938 C 84.441406 56.285156 84.253906 56.324219 84.058594 56.328125 C 83.867188 56.332031 83.679688 56.296875 83.5 56.222656 C 83.320312 56.152344 83.160156 56.046875 83.019531 55.910156 C 82.882812 55.777344 82.773438 55.621094 82.699219 55.441406 C 82.621094 55.261719 82.582031 55.078125 82.582031 54.882812 C 82.578125 54.691406 82.613281 54.503906 82.683594 54.324219 L 90.230469 35.535156 C 90.25 35.480469 90.277344 35.425781 90.304688 35.375 C 90.394531 35.214844 90.511719 35.074219 90.652344 34.953125 C 90.796875 34.835938 90.957031 34.75 91.136719 34.691406 C 91.3125 34.636719 91.492188 34.613281 91.679688 34.625 C 91.863281 34.636719 92.042969 34.683594 92.210938 34.761719 C 92.378906 34.839844 92.523438 34.949219 92.652344 35.082031 C 92.78125 35.21875 92.878906 35.375 92.945312 35.546875 C 93.015625 35.71875 93.046875 35.898438 93.046875 36.082031 C 93.046875 36.269531 93.011719 36.449219 92.945312 36.621094 Z M 85.402344 55.410156 " fill-opacity="1" fill-rule="nonzero"/><path fill="#131313" d="M 84.042969 56.996094 C 83.878906 56.996094 83.71875 56.976562 83.558594 56.941406 C 83.398438 56.902344 83.246094 56.847656 83.101562 56.773438 C 82.953125 56.703125 82.816406 56.613281 82.691406 56.511719 C 82.566406 56.40625 82.453125 56.292969 82.351562 56.160156 C 82.253906 56.03125 82.167969 55.894531 82.101562 55.746094 C 82.035156 55.597656 81.984375 55.441406 81.953125 55.28125 C 81.921875 55.121094 81.910156 54.960938 81.914062 54.796875 C 81.917969 54.632812 81.941406 54.472656 81.984375 54.316406 C 82.007812 54.238281 82.035156 54.15625 82.066406 54.074219 L 89.609375 35.289062 C 89.640625 35.210938 89.675781 35.132812 89.71875 35.058594 C 89.847656 34.820312 90.015625 34.613281 90.226562 34.4375 C 90.433594 34.261719 90.667969 34.132812 90.925781 34.046875 C 91.1875 33.960938 91.453125 33.929688 91.722656 33.945312 C 91.996094 33.960938 92.253906 34.027344 92.503906 34.144531 C 92.75 34.257812 92.964844 34.417969 93.152344 34.617188 C 93.335938 34.816406 93.480469 35.042969 93.578125 35.296875 C 93.675781 35.550781 93.726562 35.8125 93.722656 36.085938 C 93.722656 36.355469 93.667969 36.617188 93.566406 36.871094 L 86.023438 55.660156 C 85.859375 56.0625 85.597656 56.386719 85.238281 56.628906 C 84.875 56.875 84.476562 56.996094 84.042969 56.996094 Z M 91.589844 35.285156 C 91.273438 35.285156 91.042969 35.421875 90.890625 35.699219 C 90.875 35.726562 90.859375 35.753906 90.847656 35.785156 L 83.308594 54.574219 C 83.292969 54.601562 83.285156 54.628906 83.277344 54.660156 C 83.222656 54.863281 83.246094 55.058594 83.34375 55.242188 C 83.445312 55.425781 83.59375 55.550781 83.792969 55.617188 C 83.992188 55.683594 84.1875 55.675781 84.378906 55.585938 C 84.570312 55.5 84.703125 55.359375 84.78125 55.164062 L 92.324219 36.375 C 92.40625 36.171875 92.40625 35.96875 92.320312 35.769531 C 92.234375 35.566406 92.09375 35.425781 91.890625 35.34375 C 91.792969 35.304688 91.691406 35.285156 91.589844 35.285156 Z M 91.589844 35.285156 " fill-opacity="1" fill-rule="nonzero"/><path fill="#842e0c" d="M 88.996094 57.699219 C 88.894531 57.941406 88.746094 58.15625 88.5625 58.339844 C 88.375 58.523438 88.160156 58.667969 87.914062 58.769531 C 87.671875 58.871094 87.417969 58.921875 87.15625 58.921875 C 86.890625 58.925781 86.636719 58.875 86.394531 58.777344 C 86.148438 58.679688 85.933594 58.539062 85.742188 58.355469 C 85.554688 58.175781 85.40625 57.960938 85.300781 57.722656 C 85.195312 57.480469 85.136719 57.230469 85.132812 56.964844 C 85.125 56.703125 85.167969 56.449219 85.261719 56.203125 L 93.40625 35.914062 C 93.511719 35.675781 93.65625 35.464844 93.84375 35.28125 C 94.03125 35.097656 94.246094 34.957031 94.488281 34.855469 C 94.730469 34.757812 94.980469 34.707031 95.242188 34.707031 C 95.503906 34.703125 95.757812 34.753906 96 34.851562 C 96.246094 34.945312 96.460938 35.085938 96.648438 35.269531 C 96.835938 35.449219 96.984375 35.660156 97.089844 35.898438 C 97.199219 36.136719 97.253906 36.386719 97.265625 36.648438 C 97.273438 36.910156 97.230469 37.164062 97.140625 37.410156 Z M 88.996094 57.699219 " fill-opacity="1" fill-rule="nonzero"/><path fill="#131313" d="M 87.125 59.40625 C 86.808594 59.40625 86.507812 59.347656 86.214844 59.230469 C 85.914062 59.109375 85.644531 58.933594 85.414062 58.707031 C 85.179688 58.480469 85 58.214844 84.871094 57.917969 C 84.742188 57.617188 84.675781 57.304688 84.671875 56.980469 C 84.667969 56.65625 84.726562 56.34375 84.847656 56.039062 L 92.992188 35.75 C 93.117188 35.453125 93.292969 35.191406 93.523438 34.964844 C 93.75 34.738281 94.011719 34.5625 94.308594 34.441406 C 94.609375 34.316406 94.917969 34.253906 95.238281 34.25 C 95.5625 34.25 95.871094 34.308594 96.167969 34.425781 C 96.46875 34.546875 96.734375 34.71875 96.964844 34.941406 C 97.195312 35.164062 97.375 35.425781 97.507812 35.71875 C 97.636719 36.011719 97.703125 36.320312 97.710938 36.640625 C 97.722656 36.960938 97.667969 37.273438 97.554688 37.574219 L 89.410156 57.863281 C 89.222656 58.328125 88.921875 58.703125 88.503906 58.984375 C 88.085938 59.265625 87.628906 59.40625 87.125 59.40625 Z M 95.273438 35.097656 C 94.953125 35.097656 94.660156 35.191406 94.394531 35.367188 C 94.132812 35.546875 93.9375 35.785156 93.820312 36.082031 L 85.675781 56.367188 C 85.589844 56.5625 85.546875 56.765625 85.542969 56.976562 C 85.539062 57.191406 85.578125 57.394531 85.660156 57.589844 C 85.738281 57.785156 85.855469 57.957031 86.007812 58.109375 C 86.15625 58.257812 86.332031 58.371094 86.527344 58.449219 C 86.722656 58.527344 86.929688 58.566406 87.140625 58.5625 C 87.351562 58.558594 87.554688 58.511719 87.75 58.425781 C 87.945312 58.339844 88.113281 58.21875 88.257812 58.0625 C 88.402344 57.910156 88.511719 57.734375 88.582031 57.535156 L 96.726562 37.242188 C 96.773438 37.125 96.808594 37 96.824219 36.875 C 96.84375 36.75 96.84375 36.621094 96.832031 36.496094 C 96.816406 36.367188 96.789062 36.242188 96.742188 36.125 C 96.699219 36.003906 96.640625 35.890625 96.570312 35.785156 C 96.5 35.679688 96.414062 35.582031 96.320312 35.5 C 96.226562 35.414062 96.121094 35.339844 96.007812 35.28125 C 95.894531 35.21875 95.777344 35.175781 95.652344 35.144531 C 95.527344 35.113281 95.402344 35.097656 95.273438 35.097656 Z M 95.273438 35.097656 " fill-opacity="1" fill-rule="nonzero"/><path fill="#131313" d="M 90.214844 35.277344 L 82.542969 54.386719 L 78.238281 52.664062 L 65.039062 47.386719 C 69.917969 43.730469 74.011719 39.34375 77.320312 34.226562 C 78.097656 33.015625 78.730469 31.90625 79.28125 30.902344 L 85.914062 33.554688 Z M 90.214844 35.277344 " fill-opacity="0.1" fill-rule="nonzero"/><path fill="#131313" d="M 92.945312 36.621094 L 85.402344 55.410156 C 85.328125 55.589844 85.226562 55.75 85.089844 55.890625 C 84.953125 56.027344 84.796875 56.132812 84.617188 56.210938 C 84.441406 56.285156 84.253906 56.324219 84.058594 56.328125 C 83.867188 56.332031 83.679688 56.296875 83.5 56.222656 C 83.320312 56.152344 83.160156 56.046875 83.019531 55.910156 C 82.882812 55.777344 82.773438 55.621094 82.699219 55.441406 C 82.621094 55.261719 82.582031 55.078125 82.582031 54.882812 C 82.578125 54.691406 82.613281 54.503906 82.683594 54.324219 L 90.230469 35.535156 C 90.25 35.480469 90.277344 35.425781 90.304688 35.375 C 90.394531 35.214844 90.511719 35.074219 90.652344 34.953125 C 90.796875 34.835938 90.957031 34.75 91.136719 34.691406 C 91.3125 34.636719 91.492188 34.613281 91.679688 34.625 C 91.863281 34.636719 92.042969 34.683594 92.210938 34.761719 C 92.378906 34.839844 92.523438 34.949219 92.652344 35.082031 C 92.78125 35.21875 92.878906 35.375 92.945312 35.546875 C 93.015625 35.71875 93.046875 35.898438 93.046875 36.082031 C 93.046875 36.269531 93.011719 36.449219 92.945312 36.621094 Z M 92.945312 36.621094 " fill-opacity="0.1" fill-rule="nonzero"/><path fill="#131313" d="M 88.996094 57.699219 C 88.894531 57.941406 88.746094 58.15625 88.5625 58.339844 C 88.375 58.523438 88.160156 58.667969 87.914062 58.769531 C 87.671875 58.871094 87.417969 58.921875 87.15625 58.921875 C 86.890625 58.925781 86.636719 58.875 86.394531 58.777344 C 86.148438 58.679688 85.933594 58.539062 85.742188 58.355469 C 85.554688 58.175781 85.40625 57.960938 85.300781 57.722656 C 85.195312 57.480469 85.136719 57.230469 85.132812 56.964844 C 85.125 56.703125 85.167969 56.449219 85.261719 56.203125 L 93.40625 35.914062 C 93.511719 35.675781 93.65625 35.464844 93.84375 35.28125 C 94.03125 35.097656 94.246094 34.957031 94.488281 34.855469 C 94.730469 34.757812 94.980469 34.707031 95.242188 34.707031 C 95.503906 34.703125 95.757812 34.753906 96 34.851562 C 96.246094 34.945312 96.460938 35.085938 96.648438 35.269531 C 96.835938 35.449219 96.984375 35.660156 97.089844 35.898438 C 97.199219 36.136719 97.253906 36.386719 97.265625 36.648438 C 97.273438 36.910156 97.230469 37.164062 97.140625 37.410156 Z M 88.996094 57.699219 " fill-opacity="0.1" fill-rule="nonzero"/><g fill="#ffffff" fill-opacity="1"><g transform="translate(230.148623, 66.5044)"><g><path d="M 4.421875 -13.5 L 4.421875 -2.234375 L 10.484375 -2.234375 L 10.484375 0 L 1.75 0 L 1.75 -13.5 Z M 4.421875 -13.5 "/></g></g></g><g fill="#ffffff" fill-opacity="1"><g transform="translate(241.082146, 66.5044)"><g><path d="M 4.421875 -5.921875 L 4.421875 -2.234375 L 10.859375 -2.234375 L 10.859375 0 L 1.75 0 L 1.75 -13.5 L 10.71875 -13.5 L 10.71875 -11.265625 L 4.421875 -11.265625 L 4.421875 -8.109375 L 9.921875 -8.109375 L 9.921875 -5.921875 Z M 4.421875 -5.921875 "/></g></g></g><g fill="#ffffff" fill-opacity="1"><g transform="translate(252.689785, 66.5044)"><g><path d="M 6.546875 0.1875 C 5.421875 0.1875 4.445312 -0.0664062 3.625 -0.578125 C 2.8125 -1.085938 2.179688 -1.859375 1.734375 -2.890625 C 1.285156 -3.929688 1.0625 -5.21875 1.0625 -6.75 C 1.0625 -8.289062 1.328125 -9.578125 1.859375 -10.609375 C 2.398438 -11.648438 3.144531 -12.421875 4.09375 -12.921875 C 5.039062 -13.429688 6.144531 -13.6875 7.40625 -13.6875 C 8.695312 -13.6875 9.796875 -13.445312 10.703125 -12.96875 C 11.617188 -12.488281 12.257812 -11.773438 12.625 -10.828125 L 10.6875 -9.640625 L 10.453125 -9.65625 C 10.171875 -10.257812 9.78125 -10.695312 9.28125 -10.96875 C 8.78125 -11.25 8.15625 -11.390625 7.40625 -11.390625 C 6.238281 -11.390625 5.347656 -11.019531 4.734375 -10.28125 C 4.117188 -9.550781 3.8125 -8.375 3.8125 -6.75 C 3.8125 -5.113281 4.097656 -3.925781 4.671875 -3.1875 C 5.242188 -2.457031 6.097656 -2.09375 7.234375 -2.09375 C 8.203125 -2.09375 8.914062 -2.304688 9.375 -2.734375 C 9.84375 -3.171875 10.078125 -3.828125 10.078125 -4.703125 L 10.078125 -5.28125 L 6.875 -5.28125 L 6.875 -7.453125 L 12.71875 -7.453125 L 12.71875 0 L 10.171875 0 L 10.171875 -1.8125 L 9.984375 -1.84375 C 9.703125 -1.195312 9.28125 -0.695312 8.71875 -0.34375 C 8.15625 0.0078125 7.429688 0.1875 6.546875 0.1875 Z M 6.546875 0.1875 "/></g></g></g><g fill="#ffffff" fill-opacity="1"><g transform="translate(266.772241, 66.5044)"><g><path d="M 12.953125 0 L 10.140625 0 L 9.125 -3.109375 L 3.953125 -3.109375 L 2.9375 0 L 0.203125 0 L 4.859375 -13.5 L 8.296875 -13.5 Z M 6.421875 -10.6875 L 4.6875 -5.359375 L 8.390625 -5.359375 L 6.640625 -10.6875 Z M 6.421875 -10.6875 "/></g></g></g><g fill="#ffffff" fill-opacity="1"><g transform="translate(279.931259, 66.5044)"><g><path d="M 4.421875 -13.5 L 4.421875 -2.234375 L 10.484375 -2.234375 L 10.484375 0 L 1.75 0 L 1.75 -13.5 Z M 4.421875 -13.5 "/></g></g></g><g fill="#ffffff" fill-opacity="1"><g transform="translate(290.864781, 66.5044)"><g/></g></g><g fill="#ffffff" fill-opacity="1"><g transform="translate(295.324999, 66.5044)"><g><path d="M 5.984375 0.1875 C 5.046875 0.1875 4.210938 0.0703125 3.484375 -0.15625 C 2.753906 -0.382812 2.144531 -0.6875 1.65625 -1.0625 C 1.175781 -1.4375 0.804688 -1.847656 0.546875 -2.296875 L 2.015625 -4.09375 L 2.25 -4.09375 C 2.65625 -3.488281 3.171875 -3.003906 3.796875 -2.640625 C 4.421875 -2.285156 5.148438 -2.109375 5.984375 -2.109375 C 6.691406 -2.109375 7.226562 -2.257812 7.59375 -2.5625 C 7.957031 -2.863281 8.140625 -3.28125 8.140625 -3.8125 C 8.140625 -4.132812 8.082031 -4.398438 7.96875 -4.609375 C 7.851562 -4.828125 7.660156 -5.015625 7.390625 -5.171875 C 7.117188 -5.328125 6.75 -5.457031 6.28125 -5.5625 L 4.546875 -5.96875 C 3.335938 -6.238281 2.4375 -6.695312 1.84375 -7.34375 C 1.25 -7.988281 0.953125 -8.820312 0.953125 -9.84375 C 0.953125 -10.613281 1.140625 -11.285156 1.515625 -11.859375 C 1.898438 -12.441406 2.457031 -12.890625 3.1875 -13.203125 C 3.914062 -13.523438 4.789062 -13.6875 5.8125 -13.6875 C 6.84375 -13.6875 7.726562 -13.550781 8.46875 -13.28125 C 9.21875 -13.007812 9.847656 -12.585938 10.359375 -12.015625 L 9.03125 -10.203125 L 8.8125 -10.203125 C 8.425781 -10.609375 7.984375 -10.910156 7.484375 -11.109375 C 6.992188 -11.304688 6.4375 -11.40625 5.8125 -11.40625 C 5.070312 -11.40625 4.507812 -11.273438 4.125 -11.015625 C 3.75 -10.765625 3.5625 -10.410156 3.5625 -9.953125 C 3.5625 -9.523438 3.691406 -9.1875 3.953125 -8.9375 C 4.222656 -8.6875 4.691406 -8.488281 5.359375 -8.34375 L 7.125 -7.96875 C 8.4375 -7.695312 9.382812 -7.226562 9.96875 -6.5625 C 10.5625 -5.90625 10.859375 -5.046875 10.859375 -3.984375 C 10.859375 -3.140625 10.675781 -2.40625 10.3125 -1.78125 C 9.957031 -1.15625 9.410156 -0.671875 8.671875 -0.328125 C 7.941406 0.015625 7.046875 0.1875 5.984375 0.1875 Z M 5.984375 0.1875 "/></g></g></g><g fill="#ffffff" fill-opacity="1"><g transform="translate(306.923398, 66.5044)"><g><path d="M 4.421875 -5.921875 L 4.421875 -2.234375 L 10.859375 -2.234375 L 10.859375 0 L 1.75 0 L 1.75 -13.5 L 10.71875 -13.5 L 10.71875 -11.265625 L 4.421875 -11.265625 L 4.421875 -8.109375 L 9.921875 -8.109375 L 9.921875 -5.921875 Z M 4.421875 -5.921875 "/></g></g></g><g fill="#ffffff" fill-opacity="1"><g transform="translate(318.531037, 66.5044)"><g><path d="M 1.75 0 L 1.75 -13.5 L 7.171875 -13.5 C 8.566406 -13.5 9.617188 -13.175781 10.328125 -12.53125 C 11.046875 -11.882812 11.40625 -11 11.40625 -9.875 C 11.40625 -9.050781 11.195312 -8.378906 10.78125 -7.859375 C 10.363281 -7.335938 9.742188 -6.9375 8.921875 -6.65625 L 8.921875 -6.46875 C 9.335938 -6.28125 9.675781 -6.003906 9.9375 -5.640625 C 10.207031 -5.273438 10.457031 -4.738281 10.6875 -4.03125 L 12.03125 0 L 9.296875 0 L 7.96875 -4.03125 C 7.832031 -4.4375 7.679688 -4.75 7.515625 -4.96875 C 7.347656 -5.195312 7.132812 -5.363281 6.875 -5.46875 C 6.613281 -5.570312 6.273438 -5.625 5.859375 -5.625 L 4.421875 -5.625 L 4.421875 0 Z M 6.84375 -7.734375 C 8.132812 -7.734375 8.78125 -8.335938 8.78125 -9.546875 C 8.78125 -10.765625 8.132812 -11.375 6.84375 -11.375 L 4.421875 -11.375 L 4.421875 -7.734375 Z M 6.84375 -7.734375 "/></g></g></g><g fill="#ffffff" fill-opacity="1"><g transform="translate(331.154459, 66.5044)"><g><path d="M 8.015625 0 L 4.796875 0 L 0.234375 -13.5 L 3.078125 -13.5 L 6.34375 -3.4375 L 6.578125 -3.4375 L 9.8125 -13.5 L 12.578125 -13.5 Z M 8.015625 0 "/></g></g></g><g fill="#ffffff" fill-opacity="1"><g transform="translate(343.971798, 66.5044)"><g><path d="M 4.421875 0 L 1.75 0 L 1.75 -13.5 L 4.421875 -13.5 Z M 4.421875 0 "/></g></g></g><g fill="#ffffff" fill-opacity="1"><g transform="translate(350.158842, 66.5044)"><g><path d="M 7.375 0.1875 C 6.132812 0.1875 5.039062 -0.0664062 4.09375 -0.578125 C 3.144531 -1.097656 2.398438 -1.875 1.859375 -2.90625 C 1.328125 -3.945312 1.0625 -5.226562 1.0625 -6.75 C 1.0625 -8.269531 1.328125 -9.546875 1.859375 -10.578125 C 2.398438 -11.617188 3.144531 -12.394531 4.09375 -12.90625 C 5.039062 -13.425781 6.132812 -13.6875 7.375 -13.6875 C 8.675781 -13.6875 9.78125 -13.429688 10.6875 -12.921875 C 11.59375 -12.421875 12.238281 -11.648438 12.625 -10.609375 L 10.6875 -9.421875 L 10.453125 -9.421875 C 10.160156 -10.128906 9.765625 -10.632812 9.265625 -10.9375 C 8.773438 -11.238281 8.144531 -11.390625 7.375 -11.390625 C 6.257812 -11.390625 5.382812 -11.019531 4.75 -10.28125 C 4.125 -9.539062 3.8125 -8.363281 3.8125 -6.75 C 3.8125 -5.144531 4.125 -3.96875 4.75 -3.21875 C 5.382812 -2.476562 6.257812 -2.109375 7.375 -2.109375 C 9.125 -2.109375 10.195312 -2.960938 10.59375 -4.671875 L 10.828125 -4.671875 L 12.796875 -3.640625 C 12.421875 -2.359375 11.785156 -1.398438 10.890625 -0.765625 C 10.003906 -0.128906 8.832031 0.1875 7.375 0.1875 Z M 7.375 0.1875 "/></g></g></g><g fill="#ffffff" fill-opacity="1"><g transform="translate(363.400963, 66.5044)"><g><path d="M 4.421875 -5.921875 L 4.421875 -2.234375 L 10.859375 -2.234375 L 10.859375 0 L 1.75 0 L 1.75 -13.5 L 10.71875 -13.5 L 10.71875 -11.265625 L 4.421875 -11.265625 L 4.421875 -8.109375 L 9.921875 -8.109375 L 9.921875 -5.921875 Z M 4.421875 -5.921875 "/></g></g></g><g fill="#ffffff" fill-opacity="1"><g transform="translate(375.008602, 66.5044)"><g><path d="M 5.984375 0.1875 C 5.046875 0.1875 4.210938 0.0703125 3.484375 -0.15625 C 2.753906 -0.382812 2.144531 -0.6875 1.65625 -1.0625 C 1.175781 -1.4375 0.804688 -1.847656 0.546875 -2.296875 L 2.015625 -4.09375 L 2.25 -4.09375 C 2.65625 -3.488281 3.171875 -3.003906 3.796875 -2.640625 C 4.421875 -2.285156 5.148438 -2.109375 5.984375 -2.109375 C 6.691406 -2.109375 7.226562 -2.257812 7.59375 -2.5625 C 7.957031 -2.863281 8.140625 -3.28125 8.140625 -3.8125 C 8.140625 -4.132812 8.082031 -4.398438 7.96875 -4.609375 C 7.851562 -4.828125 7.660156 -5.015625 7.390625 -5.171875 C 7.117188 -5.328125 6.75 -5.457031 6.28125 -5.5625 L 4.546875 -5.96875 C 3.335938 -6.238281 2.4375 -6.695312 1.84375 -7.34375 C 1.25 -7.988281 0.953125 -8.820312 0.953125 -9.84375 C 0.953125 -10.613281 1.140625 -11.285156 1.515625 -11.859375 C 1.898438 -12.441406 2.457031 -12.890625 3.1875 -13.203125 C 3.914062 -13.523438 4.789062 -13.6875 5.8125 -13.6875 C 6.84375 -13.6875 7.726562 -13.550781 8.46875 -13.28125 C 9.21875 -13.007812 9.847656 -12.585938 10.359375 -12.015625 L 9.03125 -10.203125 L 8.8125 -10.203125 C 8.425781 -10.609375 7.984375 -10.910156 7.484375 -11.109375 C 6.992188 -11.304688 6.4375 -11.40625 5.8125 -11.40625 C 5.070312 -11.40625 4.507812 -11.273438 4.125 -11.015625 C 3.75 -10.765625 3.5625 -10.410156 3.5625 -9.953125 C 3.5625 -9.523438 3.691406 -9.1875 3.953125 -8.9375 C 4.222656 -8.6875 4.691406 -8.488281 5.359375 -8.34375 L 7.125 -7.96875 C 8.4375 -7.695312 9.382812 -7.226562 9.96875 -6.5625 C 10.5625 -5.90625 10.859375 -5.046875 10.859375 -3.984375 C 10.859375 -3.140625 10.675781 -2.40625 10.3125 -1.78125 C 9.957031 -1.15625 9.410156 -0.671875 8.671875 -0.328125 C 7.941406 0.015625 7.046875 0.1875 5.984375 0.1875 Z M 5.984375 0.1875 "/></g></g></g><g fill="#ffffff" fill-opacity="1"><g transform="translate(386.607, 66.5044)"><g/></g></g><g fill="#ffffff" fill-opacity="1"><g transform="translate(391.067218, 66.5044)"><g><path d="M 5.515625 0.1875 C 4.535156 0.1875 3.679688 0.0234375 2.953125 -0.296875 C 2.222656 -0.628906 1.660156 -1.101562 1.265625 -1.71875 C 0.867188 -2.34375 0.671875 -3.066406 0.671875 -3.890625 C 0.671875 -4.773438 0.890625 -5.507812 1.328125 -6.09375 C 1.773438 -6.6875 2.441406 -7.171875 3.328125 -7.546875 L 3.34375 -7.75 C 2.9375 -8.25 2.644531 -8.707031 2.46875 -9.125 C 2.289062 -9.539062 2.203125 -10.003906 2.203125 -10.515625 C 2.203125 -11.140625 2.347656 -11.691406 2.640625 -12.171875 C 2.941406 -12.648438 3.375 -13.019531 3.9375 -13.28125 C 4.5 -13.550781 5.164062 -13.6875 5.9375 -13.6875 C 6.675781 -13.6875 7.304688 -13.5625 7.828125 -13.3125 C 8.359375 -13.070312 8.765625 -12.734375 9.046875 -12.296875 C 9.328125 -11.859375 9.46875 -11.351562 9.46875 -10.78125 C 9.46875 -10.007812 9.238281 -9.34375 8.78125 -8.78125 C 8.320312 -8.21875 7.609375 -7.75 6.640625 -7.375 L 6.625 -7.1875 L 9.109375 -3.890625 C 9.253906 -4.203125 9.359375 -4.566406 9.421875 -4.984375 C 9.484375 -5.398438 9.515625 -5.867188 9.515625 -6.390625 L 9.5 -6.875 L 11.65625 -6.875 C 11.65625 -4.976562 11.285156 -3.441406 10.546875 -2.265625 C 10.691406 -2.148438 10.820312 -2.066406 10.9375 -2.015625 C 11.050781 -1.960938 11.175781 -1.9375 11.3125 -1.9375 C 11.445312 -1.9375 11.550781 -1.941406 11.625 -1.953125 C 11.707031 -1.960938 11.800781 -1.984375 11.90625 -2.015625 L 12.03125 -1.984375 L 12.359375 -0.125 C 12.242188 -0.0507812 12.078125 0.00390625 11.859375 0.046875 C 11.648438 0.0976562 11.410156 0.125 11.140625 0.125 C 10.691406 0.125 10.296875 0.0507812 9.953125 -0.09375 C 9.609375 -0.25 9.285156 -0.476562 8.984375 -0.78125 L 8.78125 -0.78125 C 8.019531 -0.132812 6.929688 0.1875 5.515625 0.1875 Z M 5.515625 -8.65625 C 6.085938 -8.9375 6.5 -9.222656 6.75 -9.515625 C 7.007812 -9.804688 7.140625 -10.171875 7.140625 -10.609375 C 7.140625 -10.984375 7.03125 -11.273438 6.8125 -11.484375 C 6.59375 -11.691406 6.296875 -11.796875 5.921875 -11.796875 C 5.535156 -11.796875 5.226562 -11.6875 5 -11.46875 C 4.769531 -11.25 4.65625 -10.941406 4.65625 -10.546875 C 4.65625 -10.253906 4.710938 -9.976562 4.828125 -9.71875 C 4.953125 -9.457031 5.179688 -9.101562 5.515625 -8.65625 Z M 5.84375 -2 C 6.4375 -2 6.941406 -2.113281 7.359375 -2.34375 L 4.359375 -6.171875 C 4.003906 -5.929688 3.738281 -5.648438 3.5625 -5.328125 C 3.394531 -5.015625 3.3125 -4.644531 3.3125 -4.21875 C 3.3125 -3.769531 3.414062 -3.378906 3.625 -3.046875 C 3.832031 -2.710938 4.125 -2.453125 4.5 -2.265625 C 4.882812 -2.085938 5.332031 -2 5.84375 -2 Z M 5.84375 -2 "/></g></g></g><g fill="#ffffff" fill-opacity="1"><g transform="translate(403.6814, 66.5044)"><g/></g></g><g fill="#ffffff" fill-opacity="1"><g transform="translate(408.141618, 66.5044)"><g><path d="M 12.953125 0 L 10.140625 0 L 9.125 -3.109375 L 3.953125 -3.109375 L 2.9375 0 L 0.203125 0 L 4.859375 -13.5 L 8.296875 -13.5 Z M 6.421875 -10.6875 L 4.6875 -5.359375 L 8.390625 -5.359375 L 6.640625 -10.6875 Z M 6.421875 -10.6875 "/></g></g></g><g fill="#ffffff" fill-opacity="1"><g transform="translate(421.300647, 66.5044)"><g><path d="M 6.546875 0.1875 C 5.421875 0.1875 4.445312 -0.0664062 3.625 -0.578125 C 2.8125 -1.085938 2.179688 -1.859375 1.734375 -2.890625 C 1.285156 -3.929688 1.0625 -5.21875 1.0625 -6.75 C 1.0625 -8.289062 1.328125 -9.578125 1.859375 -10.609375 C 2.398438 -11.648438 3.144531 -12.421875 4.09375 -12.921875 C 5.039062 -13.429688 6.144531 -13.6875 7.40625 -13.6875 C 8.695312 -13.6875 9.796875 -13.445312 10.703125 -12.96875 C 11.617188 -12.488281 12.257812 -11.773438 12.625 -10.828125 L 10.6875 -9.640625 L 10.453125 -9.65625 C 10.171875 -10.257812 9.78125 -10.695312 9.28125 -10.96875 C 8.78125 -11.25 8.15625 -11.390625 7.40625 -11.390625 C 6.238281 -11.390625 5.347656 -11.019531 4.734375 -10.28125 C 4.117188 -9.550781 3.8125 -8.375 3.8125 -6.75 C 3.8125 -5.113281 4.097656 -3.925781 4.671875 -3.1875 C 5.242188 -2.457031 6.097656 -2.09375 7.234375 -2.09375 C 8.203125 -2.09375 8.914062 -2.304688 9.375 -2.734375 C 9.84375 -3.171875 10.078125 -3.828125 10.078125 -4.703125 L 10.078125 -5.28125 L 6.875 -5.28125 L 6.875 -7.453125 L 12.71875 -7.453125 L 12.71875 0 L 10.171875 0 L 10.171875 -1.8125 L 9.984375 -1.84375 C 9.703125 -1.195312 9.28125 -0.695312 8.71875 -0.34375 C 8.15625 0.0078125 7.429688 0.1875 6.546875 0.1875 Z M 6.546875 0.1875 "/></g></g></g><g fill="#ffffff" fill-opacity="1"><g transform="translate(435.383092, 66.5044)"><g><path d="M 1.75 0 L 1.75 -13.5 L 7.171875 -13.5 C 8.566406 -13.5 9.617188 -13.175781 10.328125 -12.53125 C 11.046875 -11.882812 11.40625 -11 11.40625 -9.875 C 11.40625 -9.050781 11.195312 -8.378906 10.78125 -7.859375 C 10.363281 -7.335938 9.742188 -6.9375 8.921875 -6.65625 L 8.921875 -6.46875 C 9.335938 -6.28125 9.675781 -6.003906 9.9375 -5.640625 C 10.207031 -5.273438 10.457031 -4.738281 10.6875 -4.03125 L 12.03125 0 L 9.296875 0 L 7.96875 -4.03125 C 7.832031 -4.4375 7.679688 -4.75 7.515625 -4.96875 C 7.347656 -5.195312 7.132812 -5.363281 6.875 -5.46875 C 6.613281 -5.570312 6.273438 -5.625 5.859375 -5.625 L 4.421875 -5.625 L 4.421875 0 Z M 6.84375 -7.734375 C 8.132812 -7.734375 8.78125 -8.335938 8.78125 -9.546875 C 8.78125 -10.765625 8.132812 -11.375 6.84375 -11.375 L 4.421875 -11.375 L 4.421875 -7.734375 Z M 6.84375 -7.734375 "/></g></g></g><g fill="#ffffff" fill-opacity="1"><g transform="translate(448.006514, 66.5044)"><g><path d="M 4.421875 -5.921875 L 4.421875 -2.234375 L 10.859375 -2.234375 L 10.859375 0 L 1.75 0 L 1.75 -13.5 L 10.71875 -13.5 L 10.71875 -11.265625 L 4.421875 -11.265625 L 4.421875 -8.109375 L 9.921875 -8.109375 L 9.921875 -5.921875 Z M 4.421875 -5.921875 "/></g></g></g><g fill="#ffffff" fill-opacity="1"><g transform="translate(459.614141, 66.5044)"><g><path d="M 4.421875 -5.921875 L 4.421875 -2.234375 L 10.859375 -2.234375 L 10.859375 0 L 1.75 0 L 1.75 -13.5 L 10.71875 -13.5 L 10.71875 -11.265625 L 4.421875 -11.265625 L 4.421875 -8.109375 L 9.921875 -8.109375 L 9.921875 -5.921875 Z M 4.421875 -5.921875 "/></g></g></g><g fill="#ffffff" fill-opacity="1"><g transform="translate(471.221791, 66.5044)"><g><path d="M 4.203125 0 L 1.75 0 L 1.75 -13.5 L 5.25 -13.5 L 8.65625 -3.578125 L 8.859375 -3.578125 L 12.25 -13.5 L 15.65625 -13.5 L 15.65625 0 L 13.125 0 L 13.125 -8.921875 L 12.890625 -8.953125 L 9.78125 0 L 7.546875 0 L 4.4375 -8.953125 L 4.203125 -8.921875 Z M 4.203125 0 "/></g></g></g><g fill="#ffffff" fill-opacity="1"><g transform="translate(488.647099, 66.5044)"><g><path d="M 4.421875 -5.921875 L 4.421875 -2.234375 L 10.859375 -2.234375 L 10.859375 0 L 1.75 0 L 1.75 -13.5 L 10.71875 -13.5 L 10.71875 -11.265625 L 4.421875 -11.265625 L 4.421875 -8.109375 L 9.921875 -8.109375 L 9.921875 -5.921875 Z M 4.421875 -5.921875 "/></g></g></g><g fill="#ffffff" fill-opacity="1"><g transform="translate(500.254727, 66.5044)"><g><path d="M 4.34375 0 L 1.75 0 L 1.75 -13.5 L 4.8125 -13.5 L 10.234375 -4.796875 L 10.46875 -4.84375 L 10.46875 -13.5 L 13.03125 -13.5 L 13.03125 0 L 10.296875 0 L 4.5625 -9.28125 L 4.34375 -9.25 Z M 4.34375 0 "/></g></g></g><g fill="#ffffff" fill-opacity="1"><g transform="translate(515.057466, 66.5044)"><g><path d="M 10.8125 -13.5 L 10.8125 -11.25 L 6.921875 -11.25 L 6.921875 0 L 4.265625 0 L 4.265625 -11.25 L 0.375 -11.25 L 0.375 -13.5 Z M 10.8125 -13.5 "/></g></g></g><g fill="#ffffff" fill-opacity="1"><g transform="translate(526.249551, 66.5044)"><g><path d="M 5.984375 0.1875 C 5.046875 0.1875 4.210938 0.0703125 3.484375 -0.15625 C 2.753906 -0.382812 2.144531 -0.6875 1.65625 -1.0625 C 1.175781 -1.4375 0.804688 -1.847656 0.546875 -2.296875 L 2.015625 -4.09375 L 2.25 -4.09375 C 2.65625 -3.488281 3.171875 -3.003906 3.796875 -2.640625 C 4.421875 -2.285156 5.148438 -2.109375 5.984375 -2.109375 C 6.691406 -2.109375 7.226562 -2.257812 7.59375 -2.5625 C 7.957031 -2.863281 8.140625 -3.28125 8.140625 -3.8125 C 8.140625 -4.132812 8.082031 -4.398438 7.96875 -4.609375 C 7.851562 -4.828125 7.660156 -5.015625 7.390625 -5.171875 C 7.117188 -5.328125 6.75 -5.457031 6.28125 -5.5625 L 4.546875 -5.96875 C 3.335938 -6.238281 2.4375 -6.695312 1.84375 -7.34375 C 1.25 -7.988281 0.953125 -8.820312 0.953125 -9.84375 C 0.953125 -10.613281 1.140625 -11.285156 1.515625 -11.859375 C 1.898438 -12.441406 2.457031 -12.890625 3.1875 -13.203125 C 3.914062 -13.523438 4.789062 -13.6875 5.8125 -13.6875 C 6.84375 -13.6875 7.726562 -13.550781 8.46875 -13.28125 C 9.21875 -13.007812 9.847656 -12.585938 10.359375 -12.015625 L 9.03125 -10.203125 L 8.8125 -10.203125 C 8.425781 -10.609375 7.984375 -10.910156 7.484375 -11.109375 C 6.992188 -11.304688 6.4375 -11.40625 5.8125 -11.40625 C 5.070312 -11.40625 4.507812 -11.273438 4.125 -11.015625 C 3.75 -10.765625 3.5625 -10.410156 3.5625 -9.953125 C 3.5625 -9.523438 3.691406 -9.1875 3.953125 -8.9375 C 4.222656 -8.6875 4.691406 -8.488281 5.359375 -8.34375 L 7.125 -7.96875 C 8.4375 -7.695312 9.382812 -7.226562 9.96875 -6.5625 C 10.5625 -5.90625 10.859375 -5.046875 10.859375 -3.984375 C 10.859375 -3.140625 10.675781 -2.40625 10.3125 -1.78125 C 9.957031 -1.15625 9.410156 -0.671875 8.671875 -0.328125 C 7.941406 0.015625 7.046875 0.1875 5.984375 0.1875 Z M 5.984375 0.1875 "/></g></g></g></svg>