<svg xmlns="http://www.w3.org/2000/svg" xmlns:xlink="http://www.w3.org/1999/xlink" width="1024" zoomAndPan="magnify" viewBox="0 0 768 112.499997" height="150" preserveAspectRatio="xMidYMid meet" version="1.0"><defs><g/><clipPath id="74cd47ba41"><path d="M 1.699219 0 L 766.300781 0 L 766.300781 112.003906 L 1.699219 112.003906 Z M 1.699219 0 " clip-rule="nonzero"/></clipPath><linearGradient x1="0" gradientTransform="matrix(0.746681, 0, 0, 0.746681, 1.699126, 0)" y1="0" x2="1023.999957" gradientUnits="userSpaceOnUse" y2="0" id="a3b0bca5d4"><stop stop-opacity="1" stop-color="rgb(5.099487%, 0%, 44.699097%)" offset="0"/><stop stop-opacity="1" stop-color="rgb(5.166626%, 0.15564%, 44.871521%)" offset="0.0078125"/><stop stop-opacity="1" stop-color="rgb(5.300903%, 0.466919%, 45.217896%)" offset="0.015625"/><stop stop-opacity="1" stop-color="rgb(5.436707%, 0.779724%, 45.56427%)" offset="0.0234375"/><stop stop-opacity="1" stop-color="rgb(5.57251%, 1.092529%, 45.910645%)" offset="0.03125"/><stop stop-opacity="1" stop-color="rgb(5.706787%, 1.405334%, 46.255493%)" offset="0.0390625"/><stop stop-opacity="1" stop-color="rgb(5.84259%, 1.716614%, 46.601868%)" offset="0.046875"/><stop stop-opacity="1" stop-color="rgb(5.976868%, 2.029419%, 46.948242%)" offset="0.0546875"/><stop stop-opacity="1" stop-color="rgb(6.112671%, 2.342224%, 47.294617%)" offset="0.0625"/><stop stop-opacity="1" stop-color="rgb(6.246948%, 2.655029%, 47.640991%)" offset="0.0703125"/><stop stop-opacity="1" stop-color="rgb(6.382751%, 2.967834%, 47.98584%)" offset="0.078125"/><stop stop-opacity="1" stop-color="rgb(6.518555%, 3.279114%, 48.332214%)" offset="0.0859375"/><stop stop-opacity="1" stop-color="rgb(6.652832%, 3.591919%, 48.678589%)" offset="0.09375"/><stop stop-opacity="1" stop-color="rgb(6.788635%, 3.904724%, 49.024963%)" offset="0.101562"/><stop stop-opacity="1" stop-color="rgb(6.922913%, 4.217529%, 49.371338%)" offset="0.109375"/><stop stop-opacity="1" stop-color="rgb(7.058716%, 4.530334%, 49.717712%)" offset="0.117188"/><stop stop-opacity="1" stop-color="rgb(7.192993%, 4.841614%, 50.062561%)" offset="0.125"/><stop stop-opacity="1" stop-color="rgb(7.328796%, 5.154419%, 50.408936%)" offset="0.132812"/><stop stop-opacity="1" stop-color="rgb(7.4646%, 5.467224%, 50.75531%)" offset="0.140625"/><stop stop-opacity="1" stop-color="rgb(7.598877%, 5.780029%, 51.101685%)" offset="0.148438"/><stop stop-opacity="1" stop-color="rgb(7.73468%, 6.092834%, 51.448059%)" offset="0.15625"/><stop stop-opacity="1" stop-color="rgb(7.868958%, 6.404114%, 51.792908%)" offset="0.164062"/><stop stop-opacity="1" stop-color="rgb(8.004761%, 6.716919%, 52.139282%)" offset="0.171875"/><stop stop-opacity="1" stop-color="rgb(8.140564%, 7.029724%, 52.485657%)" offset="0.179688"/><stop stop-opacity="1" stop-color="rgb(8.274841%, 7.342529%, 52.832031%)" offset="0.1875"/><stop stop-opacity="1" stop-color="rgb(8.410645%, 7.655334%, 53.178406%)" offset="0.195312"/><stop stop-opacity="1" stop-color="rgb(8.544922%, 7.966614%, 53.523254%)" offset="0.203125"/><stop stop-opacity="1" stop-color="rgb(8.680725%, 8.279419%, 53.869629%)" offset="0.210938"/><stop stop-opacity="1" stop-color="rgb(8.815002%, 8.592224%, 54.216003%)" offset="0.21875"/><stop stop-opacity="1" stop-color="rgb(8.950806%, 8.905029%, 54.562378%)" offset="0.226562"/><stop stop-opacity="1" stop-color="rgb(9.086609%, 9.217834%, 54.908752%)" offset="0.234375"/><stop stop-opacity="1" stop-color="rgb(9.220886%, 9.529114%, 55.255127%)" offset="0.242188"/><stop stop-opacity="1" stop-color="rgb(9.356689%, 9.841919%, 55.599976%)" offset="0.25"/><stop stop-opacity="1" stop-color="rgb(9.490967%, 10.154724%, 55.94635%)" offset="0.257812"/><stop stop-opacity="1" stop-color="rgb(9.62677%, 10.467529%, 56.292725%)" offset="0.265625"/><stop stop-opacity="1" stop-color="rgb(9.761047%, 10.780334%, 56.639099%)" offset="0.273438"/><stop stop-opacity="1" stop-color="rgb(9.896851%, 11.091614%, 56.985474%)" offset="0.28125"/><stop stop-opacity="1" stop-color="rgb(10.032654%, 11.404419%, 57.330322%)" offset="0.289062"/><stop stop-opacity="1" stop-color="rgb(10.166931%, 11.717224%, 57.676697%)" offset="0.296875"/><stop stop-opacity="1" stop-color="rgb(10.302734%, 12.030029%, 58.023071%)" offset="0.304688"/><stop stop-opacity="1" stop-color="rgb(10.437012%, 12.342834%, 58.369446%)" offset="0.3125"/><stop stop-opacity="1" stop-color="rgb(10.572815%, 12.654114%, 58.71582%)" offset="0.320312"/><stop stop-opacity="1" stop-color="rgb(10.707092%, 12.966919%, 59.062195%)" offset="0.328125"/><stop stop-opacity="1" stop-color="rgb(10.842896%, 13.279724%, 59.407043%)" offset="0.335938"/><stop stop-opacity="1" stop-color="rgb(10.978699%, 13.592529%, 59.753418%)" offset="0.34375"/><stop stop-opacity="1" stop-color="rgb(11.112976%, 13.905334%, 60.099792%)" offset="0.351562"/><stop stop-opacity="1" stop-color="rgb(11.248779%, 14.216614%, 60.446167%)" offset="0.359375"/><stop stop-opacity="1" stop-color="rgb(11.383057%, 14.529419%, 60.792542%)" offset="0.367188"/><stop stop-opacity="1" stop-color="rgb(11.51886%, 14.842224%, 61.13739%)" offset="0.375"/><stop stop-opacity="1" stop-color="rgb(11.653137%, 15.155029%, 61.483765%)" offset="0.382812"/><stop stop-opacity="1" stop-color="rgb(11.78894%, 15.467834%, 61.830139%)" offset="0.390625"/><stop stop-opacity="1" stop-color="rgb(11.924744%, 15.779114%, 62.176514%)" offset="0.398438"/><stop stop-opacity="1" stop-color="rgb(12.059021%, 16.091919%, 62.522888%)" offset="0.40625"/><stop stop-opacity="1" stop-color="rgb(12.194824%, 16.404724%, 62.869263%)" offset="0.414062"/><stop stop-opacity="1" stop-color="rgb(12.329102%, 16.717529%, 63.214111%)" offset="0.421875"/><stop stop-opacity="1" stop-color="rgb(12.464905%, 17.030334%, 63.560486%)" offset="0.429688"/><stop stop-opacity="1" stop-color="rgb(12.600708%, 17.341614%, 63.90686%)" offset="0.4375"/><stop stop-opacity="1" stop-color="rgb(12.734985%, 17.654419%, 64.253235%)" offset="0.445312"/><stop stop-opacity="1" stop-color="rgb(12.870789%, 17.967224%, 64.599609%)" offset="0.453125"/><stop stop-opacity="1" stop-color="rgb(13.005066%, 18.280029%, 64.944458%)" offset="0.460938"/><stop stop-opacity="1" stop-color="rgb(13.140869%, 18.592834%, 65.290833%)" offset="0.46875"/><stop stop-opacity="1" stop-color="rgb(13.275146%, 18.904114%, 65.637207%)" offset="0.476562"/><stop stop-opacity="1" stop-color="rgb(13.41095%, 19.216919%, 65.983582%)" offset="0.484375"/><stop stop-opacity="1" stop-color="rgb(13.546753%, 19.529724%, 66.329956%)" offset="0.492188"/><stop stop-opacity="1" stop-color="rgb(13.68103%, 19.842529%, 66.674805%)" offset="0.5"/><stop stop-opacity="1" stop-color="rgb(13.816833%, 20.155334%, 67.021179%)" offset="0.507812"/><stop stop-opacity="1" stop-color="rgb(13.951111%, 20.466614%, 67.367554%)" offset="0.515625"/><stop stop-opacity="1" stop-color="rgb(14.086914%, 20.779419%, 67.713928%)" offset="0.523438"/><stop stop-opacity="1" stop-color="rgb(14.221191%, 21.092224%, 68.060303%)" offset="0.53125"/><stop stop-opacity="1" stop-color="rgb(14.356995%, 21.405029%, 68.406677%)" offset="0.539062"/><stop stop-opacity="1" stop-color="rgb(14.492798%, 21.717834%, 68.751526%)" offset="0.546875"/><stop stop-opacity="1" stop-color="rgb(14.627075%, 22.029114%, 69.0979%)" offset="0.554688"/><stop stop-opacity="1" stop-color="rgb(14.762878%, 22.341919%, 69.444275%)" offset="0.5625"/><stop stop-opacity="1" stop-color="rgb(14.897156%, 22.654724%, 69.790649%)" offset="0.570312"/><stop stop-opacity="1" stop-color="rgb(15.032959%, 22.967529%, 70.137024%)" offset="0.578125"/><stop stop-opacity="1" stop-color="rgb(15.167236%, 23.280334%, 70.481873%)" offset="0.585938"/><stop stop-opacity="1" stop-color="rgb(15.30304%, 23.591614%, 70.828247%)" offset="0.59375"/><stop stop-opacity="1" stop-color="rgb(15.438843%, 23.904419%, 71.174622%)" offset="0.601562"/><stop stop-opacity="1" stop-color="rgb(15.57312%, 24.217224%, 71.520996%)" offset="0.609375"/><stop stop-opacity="1" stop-color="rgb(15.708923%, 24.530029%, 71.867371%)" offset="0.617188"/><stop stop-opacity="1" stop-color="rgb(15.843201%, 24.842834%, 72.213745%)" offset="0.625"/><stop stop-opacity="1" stop-color="rgb(15.979004%, 25.154114%, 72.558594%)" offset="0.632812"/><stop stop-opacity="1" stop-color="rgb(16.113281%, 25.466919%, 72.904968%)" offset="0.640625"/><stop stop-opacity="1" stop-color="rgb(16.249084%, 25.779724%, 73.251343%)" offset="0.648438"/><stop stop-opacity="1" stop-color="rgb(16.384888%, 26.092529%, 73.597717%)" offset="0.65625"/><stop stop-opacity="1" stop-color="rgb(16.519165%, 26.405334%, 73.944092%)" offset="0.664062"/><stop stop-opacity="1" stop-color="rgb(16.654968%, 26.716614%, 74.28894%)" offset="0.671875"/><stop stop-opacity="1" stop-color="rgb(16.789246%, 27.029419%, 74.635315%)" offset="0.679688"/><stop stop-opacity="1" stop-color="rgb(16.925049%, 27.342224%, 74.981689%)" offset="0.6875"/><stop stop-opacity="1" stop-color="rgb(17.060852%, 27.655029%, 75.328064%)" offset="0.695312"/><stop stop-opacity="1" stop-color="rgb(17.195129%, 27.967834%, 75.674438%)" offset="0.703125"/><stop stop-opacity="1" stop-color="rgb(17.330933%, 28.279114%, 76.020813%)" offset="0.710938"/><stop stop-opacity="1" stop-color="rgb(17.46521%, 28.591919%, 76.365662%)" offset="0.71875"/><stop stop-opacity="1" stop-color="rgb(17.601013%, 28.904724%, 76.712036%)" offset="0.726562"/><stop stop-opacity="1" stop-color="rgb(17.735291%, 29.217529%, 77.058411%)" offset="0.734375"/><stop stop-opacity="1" stop-color="rgb(17.871094%, 29.530334%, 77.404785%)" offset="0.742188"/><stop stop-opacity="1" stop-color="rgb(18.006897%, 29.841614%, 77.75116%)" offset="0.75"/><stop stop-opacity="1" stop-color="rgb(18.141174%, 30.154419%, 78.096008%)" offset="0.757812"/><stop stop-opacity="1" stop-color="rgb(18.276978%, 30.467224%, 78.442383%)" offset="0.765625"/><stop stop-opacity="1" stop-color="rgb(18.411255%, 30.780029%, 78.788757%)" offset="0.773438"/><stop stop-opacity="1" stop-color="rgb(18.547058%, 31.092834%, 79.135132%)" offset="0.78125"/><stop stop-opacity="1" stop-color="rgb(18.681335%, 31.404114%, 79.481506%)" offset="0.789062"/><stop stop-opacity="1" stop-color="rgb(18.817139%, 31.716919%, 79.827881%)" offset="0.796875"/><stop stop-opacity="1" stop-color="rgb(18.952942%, 32.029724%, 80.172729%)" offset="0.804688"/><stop stop-opacity="1" stop-color="rgb(19.087219%, 32.342529%, 80.519104%)" offset="0.8125"/><stop stop-opacity="1" stop-color="rgb(19.223022%, 32.655334%, 80.865479%)" offset="0.820312"/><stop stop-opacity="1" stop-color="rgb(19.3573%, 32.966614%, 81.211853%)" offset="0.828125"/><stop stop-opacity="1" stop-color="rgb(19.493103%, 33.279419%, 81.558228%)" offset="0.835938"/><stop stop-opacity="1" stop-color="rgb(19.62738%, 33.592224%, 81.903076%)" offset="0.84375"/><stop stop-opacity="1" stop-color="rgb(19.763184%, 33.905029%, 82.249451%)" offset="0.851562"/><stop stop-opacity="1" stop-color="rgb(19.898987%, 34.217834%, 82.595825%)" offset="0.859375"/><stop stop-opacity="1" stop-color="rgb(20.033264%, 34.529114%, 82.9422%)" offset="0.867188"/><stop stop-opacity="1" stop-color="rgb(20.169067%, 34.841919%, 83.288574%)" offset="0.875"/><stop stop-opacity="1" stop-color="rgb(20.303345%, 35.154724%, 83.633423%)" offset="0.882812"/><stop stop-opacity="1" stop-color="rgb(20.439148%, 35.467529%, 83.979797%)" offset="0.890625"/><stop stop-opacity="1" stop-color="rgb(20.573425%, 35.780334%, 84.326172%)" offset="0.898438"/><stop stop-opacity="1" stop-color="rgb(20.709229%, 36.091614%, 84.672546%)" offset="0.90625"/><stop stop-opacity="1" stop-color="rgb(20.845032%, 36.404419%, 85.018921%)" offset="0.914062"/><stop stop-opacity="1" stop-color="rgb(20.979309%, 36.717224%, 85.365295%)" offset="0.921875"/><stop stop-opacity="1" stop-color="rgb(21.115112%, 37.030029%, 85.710144%)" offset="0.929688"/><stop stop-opacity="1" stop-color="rgb(21.24939%, 37.342834%, 86.056519%)" offset="0.9375"/><stop stop-opacity="1" stop-color="rgb(21.385193%, 37.654114%, 86.402893%)" offset="0.945312"/><stop stop-opacity="1" stop-color="rgb(21.520996%, 37.966919%, 86.749268%)" offset="0.953125"/><stop stop-opacity="1" stop-color="rgb(21.655273%, 38.279724%, 87.095642%)" offset="0.960938"/><stop stop-opacity="1" stop-color="rgb(21.791077%, 38.592529%, 87.440491%)" offset="0.96875"/><stop stop-opacity="1" stop-color="rgb(21.925354%, 38.905334%, 87.786865%)" offset="0.976562"/><stop stop-opacity="1" stop-color="rgb(22.061157%, 39.216614%, 88.13324%)" offset="0.984375"/><stop stop-opacity="1" stop-color="rgb(22.195435%, 39.529419%, 88.479614%)" offset="0.992188"/><stop stop-opacity="1" stop-color="rgb(22.331238%, 39.842224%, 88.825989%)" offset="1"/></linearGradient><clipPath id="760ccd0c6c"><path d="M 61 15.355469 L 149.617188 15.355469 L 149.617188 100.476562 L 61 100.476562 Z M 61 15.355469 " clip-rule="nonzero"/></clipPath><clipPath id="d80aa70897"><path d="M 48.816406 15.355469 L 149.617188 15.355469 L 149.617188 100.476562 L 48.816406 100.476562 Z M 48.816406 15.355469 " clip-rule="nonzero"/></clipPath><clipPath id="c1e407c144"><path d="M 114.542969 67.203125 L 159.34375 67.203125 L 159.34375 112.003906 L 114.542969 112.003906 Z M 114.542969 67.203125 " clip-rule="nonzero"/></clipPath></defs><g clip-path="url(#74cd47ba41)"><path fill="#ffffff" d="M 1.699219 0 L 766.300781 0 L 766.300781 112.003906 L 1.699219 112.003906 Z M 1.699219 0 " fill-opacity="1" fill-rule="nonzero"/><path fill="url(#a3b0bca5d4)" d="M 1.699219 0 L 1.699219 112.003906 L 766.300781 112.003906 L 766.300781 0 Z M 1.699219 0 " fill-rule="nonzero"/></g><g clip-path="url(#760ccd0c6c)"><path fill="#fff3e1" d="M 149.230469 18.550781 L 136.625 96.625 C 136.296875 98.664062 134.535156 100.164062 132.464844 100.164062 L 71.34375 100.164062 L 131.871094 100.164062 C 129.566406 100.164062 127.695312 98.296875 127.695312 95.992188 L 127.695312 91.816406 L 72.695312 91.816406 L 74.691406 79.457031 L 80.765625 76.5 C 87.820312 73.066406 92.300781 65.914062 92.300781 58.070312 L 92.300781 44.507812 C 87.835938 44.507812 83.839844 42.5 81.167969 39.339844 L 84.652344 17.757812 C 84.847656 16.550781 85.886719 15.664062 87.113281 15.664062 L 146.773438 15.664062 C 148.308594 15.667969 149.476562 17.039062 149.230469 18.550781 Z M 82.28125 66.859375 L 61.898438 66.859375 L 61.898438 48.300781 L 82.28125 48.300781 Z M 82.28125 66.859375 " fill-opacity="1" fill-rule="nonzero"/><path fill="#ffa300" d="M 131.875 100.164062 L 66.171875 100.164062 C 63.863281 100.164062 61.992188 98.296875 61.992188 95.992188 L 61.992188 91.816406 L 127.699219 91.816406 L 127.699219 95.992188 C 127.699219 98.296875 129.566406 100.164062 131.875 100.164062 Z M 146.773438 15.667969 L 87.113281 15.667969 C 85.886719 15.667969 84.847656 16.554688 84.652344 17.761719 L 83.539062 24.660156 L 112.453125 24.660156 C 113.5625 24.660156 114.464844 23.757812 114.464844 22.652344 C 114.464844 21.542969 115.363281 20.644531 116.472656 20.644531 L 148.894531 20.644531 L 149.234375 18.550781 C 149.476562 17.039062 148.308594 15.667969 146.773438 15.667969 Z M 146.773438 15.667969 " fill-opacity="1" fill-rule="nonzero"/></g><path fill="#55d876" d="M 137.292969 33.855469 L 135.519531 42.882812 C 135.265625 44.164062 134.019531 45.203125 132.738281 45.203125 L 116.550781 45.203125 C 115.265625 45.203125 114.429688 44.164062 114.683594 42.882812 L 116.457031 33.855469 C 116.710938 32.570312 117.957031 31.535156 119.238281 31.535156 L 135.425781 31.535156 C 136.710938 31.535156 137.546875 32.570312 137.292969 33.855469 Z M 137.292969 33.855469 " fill-opacity="1" fill-rule="nonzero"/><path fill="#f93262" d="M 78.886719 35.648438 L 62.570312 35.648438 C 60.34375 40.859375 55.171875 44.507812 49.148438 44.507812 L 49.148438 58.074219 C 49.148438 65.917969 53.628906 73.070312 60.683594 76.503906 L 70.726562 81.382812 L 80.765625 76.503906 C 87.820312 73.070312 92.300781 65.917969 92.300781 58.074219 L 92.300781 44.507812 C 86.277344 44.507812 81.109375 40.859375 78.886719 35.648438 Z M 78.214844 54.753906 C 76.253906 56.714844 74.289062 58.679688 72.328125 60.640625 C 71.253906 61.714844 68.910156 64.058594 67.507812 65.460938 L 66.527344 64.457031 C 66.5 64.414062 66.464844 64.371094 66.429688 64.335938 C 66.332031 64.246094 66.234375 64.152344 66.136719 64.058594 C 66.046875 63.976562 65.957031 63.886719 65.867188 63.804688 C 64.542969 62.539062 63.21875 61.277344 61.898438 60.015625 L 64.097656 57.816406 C 64.285156 57.996094 64.46875 58.171875 64.65625 58.351562 C 65.605469 59.253906 66.554688 60.160156 67.503906 61.066406 C 67.589844 60.976562 67.679688 60.890625 67.769531 60.800781 C 69.730469 58.839844 71.695312 56.878906 73.65625 54.914062 C 74.890625 53.683594 76.121094 52.449219 77.355469 51.21875 L 79.554688 53.417969 C 79.105469 53.863281 78.660156 54.308594 78.214844 54.753906 Z M 78.214844 54.753906 " fill-opacity="1" fill-rule="nonzero"/><g clip-path="url(#d80aa70897)"><path fill="#000000" d="M 87.519531 58.175781 L 87.519531 47.503906 L 87.207031 47.503906 C 82.863281 47.503906 78.949219 44.921875 77.246094 40.925781 L 77.164062 40.738281 L 64.289062 40.738281 L 64.207031 40.925781 C 62.503906 44.921875 58.589844 47.503906 54.242188 47.503906 L 53.929688 47.503906 L 53.929688 58.175781 C 53.929688 64.242188 57.457031 69.878906 62.917969 72.535156 L 70.726562 76.332031 L 78.53125 72.535156 C 83.992188 69.875 87.519531 64.242188 87.519531 58.175781 Z M 70.726562 75.640625 L 63.191406 71.976562 C 57.945312 69.421875 54.550781 64.007812 54.550781 58.175781 L 54.550781 48.121094 C 58.957031 48.003906 62.894531 45.382812 64.695312 41.359375 L 76.753906 41.359375 C 78.558594 45.382812 82.492188 48.003906 86.894531 48.121094 L 86.894531 58.175781 C 86.894531 64.007812 83.503906 69.421875 78.257812 71.976562 Z M 114.378906 42.820312 C 114.238281 43.542969 114.390625 44.222656 114.8125 44.734375 C 115.226562 45.238281 115.84375 45.511719 116.550781 45.511719 L 132.738281 45.511719 C 134.164062 45.511719 135.546875 44.359375 135.824219 42.941406 L 137.601562 33.910156 C 137.742188 33.191406 137.589844 32.511719 137.164062 31.996094 C 136.753906 31.496094 136.132812 31.222656 135.425781 31.222656 L 119.238281 31.222656 C 117.816406 31.222656 116.433594 32.375 116.152344 33.792969 Z M 119.238281 31.84375 L 135.425781 31.84375 C 135.945312 31.84375 136.390625 32.039062 136.683594 32.394531 C 136.988281 32.761719 137.09375 33.257812 136.988281 33.796875 L 135.214844 42.824219 C 134.988281 43.964844 133.878906 44.894531 132.738281 44.894531 L 116.550781 44.894531 C 116.03125 44.894531 115.585938 44.699219 115.292969 44.34375 C 114.992188 43.976562 114.882812 43.480469 114.988281 42.941406 L 116.761719 33.914062 C 116.988281 32.773438 118.097656 31.84375 119.238281 31.84375 Z M 99.621094 52.007812 L 132.605469 52.007812 L 132.605469 52.628906 L 99.621094 52.628906 Z M 99.621094 59.125 L 131.433594 59.125 L 131.433594 59.746094 L 99.621094 59.746094 Z M 99.621094 66.238281 L 130.257812 66.238281 L 130.257812 66.859375 L 99.621094 66.859375 Z M 94.859375 73.355469 L 129.082031 73.355469 L 129.082031 73.976562 L 94.859375 73.976562 Z M 85.855469 80.472656 L 127.910156 80.472656 L 127.910156 81.09375 L 85.855469 81.09375 Z M 113.65625 97.582031 L 74.203125 97.582031 L 74.203125 96.960938 L 113.65625 96.960938 Z M 71.554688 97.582031 L 68.421875 97.582031 L 68.421875 96.960938 L 71.554688 96.960938 Z M 149.589844 17.890625 L 149.496094 17.507812 C 149.496094 17.503906 149.496094 17.5 149.492188 17.496094 C 149.476562 17.429688 149.457031 17.363281 149.4375 17.296875 C 149.429688 17.277344 149.425781 17.261719 149.417969 17.242188 C 149.398438 17.179688 149.375 17.121094 149.351562 17.058594 C 149.339844 17.035156 149.328125 17.015625 149.320312 16.992188 C 149.285156 16.914062 149.246094 16.839844 149.199219 16.761719 C 149.171875 16.710938 149.140625 16.660156 149.113281 16.613281 C 149.09375 16.585938 149.074219 16.558594 149.054688 16.53125 C 149.019531 16.476562 148.976562 16.425781 148.933594 16.375 C 148.925781 16.363281 148.917969 16.347656 148.90625 16.335938 C 148.902344 16.328125 148.894531 16.320312 148.886719 16.3125 C 148.761719 16.171875 148.625 16.039062 148.476562 15.925781 C 148.464844 15.921875 148.457031 15.914062 148.449219 15.90625 C 148.378906 15.855469 148.3125 15.808594 148.238281 15.765625 C 148.226562 15.757812 148.210938 15.75 148.199219 15.738281 C 148.117188 15.691406 148.039062 15.648438 147.953125 15.609375 C 147.953125 15.609375 147.953125 15.609375 147.949219 15.609375 C 147.859375 15.566406 147.769531 15.53125 147.675781 15.5 C 147.667969 15.496094 147.660156 15.496094 147.652344 15.492188 C 147.574219 15.464844 147.492188 15.445312 147.414062 15.425781 C 147.390625 15.421875 147.367188 15.417969 147.34375 15.414062 C 147.273438 15.398438 147.203125 15.386719 147.128906 15.378906 C 147.105469 15.375 147.082031 15.371094 147.054688 15.367188 C 146.960938 15.363281 146.867188 15.355469 146.773438 15.355469 L 87.113281 15.355469 C 87.027344 15.355469 86.945312 15.359375 86.863281 15.367188 C 86.828125 15.371094 86.796875 15.375 86.765625 15.378906 C 86.71875 15.386719 86.671875 15.390625 86.621094 15.398438 C 86.582031 15.40625 86.542969 15.414062 86.503906 15.425781 C 86.464844 15.433594 86.425781 15.441406 86.386719 15.449219 C 86.34375 15.460938 86.300781 15.476562 86.253906 15.488281 C 86.222656 15.5 86.191406 15.507812 86.160156 15.519531 C 86.113281 15.535156 86.070312 15.554688 86.023438 15.574219 C 85.996094 15.585938 85.96875 15.597656 85.941406 15.609375 C 85.894531 15.628906 85.847656 15.652344 85.804688 15.675781 C 85.78125 15.6875 85.757812 15.699219 85.734375 15.710938 C 85.6875 15.738281 85.640625 15.765625 85.597656 15.796875 C 85.578125 15.808594 85.554688 15.820312 85.539062 15.832031 C 85.488281 15.863281 85.445312 15.898438 85.402344 15.933594 C 85.382812 15.945312 85.367188 15.957031 85.351562 15.96875 C 85.308594 16.007812 85.265625 16.042969 85.21875 16.082031 C 85.207031 16.097656 85.195312 16.109375 85.179688 16.121094 C 85.136719 16.164062 85.09375 16.207031 85.050781 16.25 C 85.042969 16.261719 85.03125 16.273438 85.019531 16.285156 C 84.980469 16.332031 84.9375 16.382812 84.898438 16.433594 C 84.890625 16.441406 84.882812 16.449219 84.875 16.460938 C 84.835938 16.515625 84.796875 16.570312 84.761719 16.625 C 84.757812 16.632812 84.75 16.640625 84.746094 16.648438 C 84.707031 16.707031 84.671875 16.765625 84.640625 16.828125 C 84.636719 16.835938 84.632812 16.839844 84.632812 16.847656 C 84.597656 16.914062 84.566406 16.980469 84.535156 17.046875 C 84.535156 17.050781 84.535156 17.050781 84.535156 17.054688 C 84.503906 17.125 84.476562 17.199219 84.449219 17.273438 C 84.425781 17.351562 84.402344 17.425781 84.382812 17.507812 L 84.292969 17.886719 L 84.3125 17.886719 L 80.964844 38.605469 C 80.25 37.667969 79.644531 36.640625 79.167969 35.523438 L 79.085938 35.335938 L 62.363281 35.335938 L 62.28125 35.523438 C 60.035156 40.789062 54.878906 44.191406 49.148438 44.191406 L 48.839844 44.191406 L 48.839844 58.066406 C 48.839844 61.972656 49.933594 65.789062 52.007812 69.101562 C 54.078125 72.410156 57.03125 75.066406 60.546875 76.777344 L 70.726562 81.722656 L 74.289062 79.992188 L 72.429688 91.503906 L 61.679688 91.503906 L 61.679688 95.988281 C 61.679688 98.457031 63.695312 100.46875 66.171875 100.46875 L 132.46875 100.46875 C 134.703125 100.46875 136.582031 98.871094 136.933594 96.671875 L 149.160156 20.949219 L 149.539062 18.597656 C 149.558594 18.496094 149.566406 18.394531 149.574219 18.292969 C 149.582031 18.15625 149.574219 18.019531 149.5625 17.886719 L 149.589844 17.886719 Z M 148.628906 20.332031 L 116.472656 20.332031 C 115.195312 20.332031 114.152344 21.371094 114.152344 22.652344 C 114.152344 23.585938 113.390625 24.347656 112.453125 24.347656 L 83.902344 24.347656 L 84.945312 17.890625 L 148.933594 17.890625 C 148.949219 18.015625 148.957031 18.140625 148.953125 18.265625 C 148.949219 18.34375 148.9375 18.421875 148.925781 18.5 Z M 70.726562 81.039062 L 60.820312 76.222656 C 53.921875 72.863281 49.460938 65.738281 49.460938 58.070312 L 49.460938 44.816406 C 55.246094 44.695312 60.429688 41.253906 62.773438 35.960938 L 78.679688 35.960938 C 80.476562 40.015625 83.9375 42.980469 88.054688 44.203125 C 88.078125 44.207031 88.097656 44.214844 88.117188 44.21875 C 88.589844 44.355469 89.066406 44.472656 89.554688 44.5625 C 89.59375 44.570312 89.636719 44.578125 89.679688 44.585938 C 89.917969 44.625 90.160156 44.664062 90.398438 44.695312 C 90.402344 44.695312 90.402344 44.695312 90.40625 44.695312 C 90.636719 44.726562 90.867188 44.75 91.101562 44.765625 C 91.160156 44.769531 91.21875 44.777344 91.277344 44.78125 C 91.507812 44.796875 91.742188 44.808594 91.976562 44.8125 C 91.980469 44.8125 91.984375 44.8125 91.988281 44.8125 L 91.988281 58.070312 C 91.988281 63.820312 89.480469 69.265625 85.3125 73.042969 C 83.925781 74.304688 82.351562 75.378906 80.625 76.21875 L 74.40625 79.246094 Z M 62.304688 95.992188 L 62.304688 92.128906 L 127.386719 92.128906 L 127.386719 95.992188 C 127.386719 96.324219 127.425781 96.648438 127.496094 96.957031 L 118.734375 96.957031 L 118.734375 97.582031 L 127.683594 97.582031 C 128.046875 98.535156 128.726562 99.335938 129.597656 99.851562 L 66.171875 99.851562 C 64.035156 99.851562 62.304688 98.121094 62.304688 95.992188 Z M 136.320312 96.574219 C 136.011719 98.476562 134.390625 99.851562 132.464844 99.851562 L 131.875 99.851562 C 129.742188 99.851562 128.007812 98.121094 128.007812 95.992188 L 128.007812 91.507812 L 73.0625 91.507812 L 74.972656 79.664062 L 80.902344 76.78125 C 84.417969 75.070312 87.371094 72.414062 89.441406 69.105469 C 91.515625 65.792969 92.613281 61.976562 92.613281 58.070312 L 92.613281 44.199219 L 92.300781 44.199219 C 92.296875 44.199219 92.292969 44.199219 92.289062 44.199219 C 92.0625 44.199219 91.835938 44.1875 91.609375 44.179688 C 91.550781 44.175781 91.488281 44.171875 91.429688 44.167969 C 91.21875 44.15625 91.011719 44.140625 90.804688 44.117188 C 90.78125 44.117188 90.761719 44.113281 90.738281 44.113281 C 90.507812 44.085938 90.273438 44.054688 90.042969 44.019531 C 90 44.011719 89.960938 44.003906 89.914062 44 C 89.699219 43.960938 89.484375 43.921875 89.269531 43.875 C 89.257812 43.871094 89.242188 43.867188 89.230469 43.867188 C 88.992188 43.8125 88.753906 43.753906 88.519531 43.691406 C 88.5 43.6875 88.484375 43.679688 88.464844 43.675781 C 85.785156 42.925781 83.355469 41.40625 81.496094 39.25 L 83.804688 24.972656 L 112.453125 24.972656 C 113.734375 24.972656 114.773438 23.929688 114.773438 22.652344 C 114.773438 21.714844 115.535156 20.957031 116.472656 20.957031 L 148.527344 20.957031 Z M 136.320312 96.574219 " fill-opacity="1" fill-rule="nonzero"/></g><g clip-path="url(#c1e407c144)"><path fill="#ed1c24" d="M 157.242188 98.175781 C 156.6875 99.480469 156.003906 100.738281 155.210938 101.917969 C 154.421875 103.082031 153.515625 104.179688 152.519531 105.175781 C 151.523438 106.175781 150.425781 107.078125 149.257812 107.867188 C 148.082031 108.664062 146.824219 109.347656 145.519531 109.898438 C 144.1875 110.460938 142.796875 110.890625 141.382812 111.179688 C 139.933594 111.476562 138.4375 111.628906 136.945312 111.628906 C 135.449219 111.628906 133.957031 111.476562 132.503906 111.179688 C 131.089844 110.890625 129.699219 110.460938 128.371094 109.898438 C 127.066406 109.347656 125.804688 108.664062 124.628906 107.867188 C 123.460938 107.078125 122.367188 106.175781 121.367188 105.175781 C 120.371094 104.179688 119.46875 103.082031 118.679688 101.917969 C 117.882812 100.738281 117.199219 99.480469 116.648438 98.175781 C 116.085938 96.847656 115.652344 95.457031 115.363281 94.042969 C 115.066406 92.589844 114.917969 91.097656 114.917969 89.601562 C 114.917969 88.105469 115.066406 86.613281 115.363281 85.164062 C 115.652344 83.746094 116.085938 82.355469 116.648438 81.027344 C 117.199219 79.722656 117.882812 78.464844 118.679688 77.285156 C 119.46875 76.121094 120.371094 75.023438 121.367188 74.027344 C 122.367188 73.03125 123.460938 72.125 124.628906 71.335938 C 125.804688 70.539062 127.066406 69.859375 128.371094 69.304688 C 129.699219 68.742188 131.089844 68.3125 132.503906 68.023438 C 133.957031 67.726562 135.449219 67.574219 136.945312 67.574219 C 138.4375 67.574219 139.933594 67.726562 141.382812 68.023438 C 142.796875 68.3125 144.1875 68.742188 145.519531 69.304688 C 146.824219 69.859375 148.082031 70.539062 149.257812 71.335938 C 150.425781 72.125 151.523438 73.03125 152.519531 74.027344 C 153.515625 75.023438 154.421875 76.121094 155.210938 77.285156 C 156.003906 78.464844 156.6875 79.722656 157.242188 81.027344 C 157.804688 82.355469 158.234375 83.746094 158.523438 85.164062 C 158.820312 86.613281 158.972656 88.105469 158.972656 89.601562 C 158.972656 91.097656 158.820312 92.589844 158.523438 94.042969 C 158.234375 95.457031 157.804688 96.847656 157.242188 98.175781 Z M 136.945312 67.203125 C 124.574219 67.203125 114.542969 77.230469 114.542969 89.601562 C 114.542969 101.972656 124.574219 112.003906 136.945312 112.003906 C 149.316406 112.003906 159.34375 101.972656 159.34375 89.601562 C 159.34375 77.230469 149.316406 67.203125 136.945312 67.203125 " fill-opacity="1" fill-rule="nonzero"/></g><path fill="#ed1c24" d="M 156.816406 93.691406 C 156.550781 94.992188 156.152344 96.273438 155.636719 97.496094 C 155.128906 98.699219 154.5 99.855469 153.765625 100.941406 C 153.039062 102.015625 152.207031 103.027344 151.289062 103.945312 C 150.367188 104.863281 149.359375 105.699219 148.285156 106.421875 C 147.199219 107.15625 146.039062 107.785156 144.839844 108.292969 C 143.617188 108.808594 142.335938 109.207031 141.035156 109.472656 C 139.699219 109.746094 138.320312 109.886719 136.945312 109.886719 C 135.566406 109.886719 134.191406 109.746094 132.855469 109.472656 C 131.550781 109.207031 130.273438 108.808594 129.050781 108.292969 C 127.847656 107.785156 126.6875 107.15625 125.605469 106.421875 C 124.53125 105.699219 123.519531 104.863281 122.601562 103.945312 C 121.683594 103.027344 120.847656 102.015625 120.121094 100.941406 C 119.390625 99.855469 118.761719 98.699219 118.253906 97.496094 C 117.734375 96.273438 117.339844 94.992188 117.070312 93.691406 C 116.796875 92.355469 116.660156 90.980469 116.660156 89.601562 C 116.660156 88.222656 116.796875 86.847656 117.070312 85.511719 C 117.339844 84.210938 117.734375 82.929688 118.253906 81.707031 C 118.761719 80.503906 119.390625 79.347656 120.121094 78.261719 C 120.847656 77.1875 121.683594 76.175781 122.601562 75.257812 C 123.519531 74.339844 124.53125 73.507812 125.605469 72.78125 C 126.6875 72.046875 127.847656 71.417969 129.050781 70.910156 C 130.273438 70.394531 131.550781 69.996094 132.855469 69.730469 C 134.191406 69.457031 135.566406 69.316406 136.945312 69.316406 C 138.320312 69.316406 139.699219 69.457031 141.035156 69.730469 C 142.335938 69.996094 143.617188 70.394531 144.839844 70.910156 C 146.039062 71.417969 147.199219 72.046875 148.285156 72.78125 C 149.359375 73.507812 150.371094 74.339844 151.289062 75.257812 C 152.207031 76.175781 153.039062 77.1875 153.765625 78.261719 C 154.5 79.347656 155.128906 80.503906 155.636719 81.707031 C 156.152344 82.929688 156.550781 84.210938 156.816406 85.511719 C 157.089844 86.847656 157.230469 88.222656 157.230469 89.601562 C 157.230469 90.980469 157.089844 92.355469 156.816406 93.691406 Z M 157.792969 85.3125 C 157.511719 83.945312 157.09375 82.601562 156.550781 81.320312 C 156.019531 80.058594 155.359375 78.84375 154.589844 77.703125 C 153.828125 76.578125 152.953125 75.515625 151.992188 74.554688 C 151.027344 73.589844 149.96875 72.714844 148.839844 71.953125 C 147.703125 71.1875 146.488281 70.527344 145.226562 69.992188 C 143.945312 69.449219 142.601562 69.03125 141.234375 68.753906 C 139.832031 68.46875 138.390625 68.320312 136.945312 68.320312 C 135.5 68.320312 134.054688 68.46875 132.65625 68.753906 C 131.289062 69.03125 129.945312 69.449219 128.660156 69.992188 C 127.402344 70.527344 126.183594 71.1875 125.046875 71.953125 C 123.921875 72.714844 122.859375 73.589844 121.898438 74.554688 C 120.933594 75.515625 120.058594 76.578125 119.296875 77.703125 C 118.527344 78.84375 117.871094 80.058594 117.335938 81.320312 C 116.792969 82.601562 116.375 83.945312 116.097656 85.3125 C 115.808594 86.714844 115.664062 88.15625 115.664062 89.601562 C 115.664062 91.046875 115.808594 92.488281 116.097656 93.890625 C 116.375 95.257812 116.792969 96.601562 117.335938 97.882812 C 117.871094 99.144531 118.527344 100.363281 119.296875 101.5 C 120.058594 102.625 120.933594 103.6875 121.898438 104.648438 C 122.859375 105.613281 123.921875 106.488281 125.046875 107.25 C 126.183594 108.015625 127.402344 108.675781 128.660156 109.210938 C 129.945312 109.753906 131.289062 110.171875 132.65625 110.449219 C 134.054688 110.738281 135.5 110.882812 136.945312 110.882812 C 138.390625 110.882812 139.832031 110.738281 141.234375 110.449219 C 142.601562 110.171875 143.945312 109.753906 145.226562 109.210938 C 146.488281 108.675781 147.703125 108.015625 148.839844 107.25 C 149.96875 106.488281 151.027344 105.613281 151.992188 104.648438 C 152.953125 103.6875 153.828125 102.625 154.589844 101.5 C 155.359375 100.363281 156.019531 99.144531 156.550781 97.882812 C 157.09375 96.601562 157.511719 95.257812 157.792969 93.890625 C 158.078125 92.488281 158.226562 91.046875 158.226562 89.601562 C 158.226562 88.15625 158.078125 86.714844 157.792969 85.3125 " fill-opacity="1" fill-rule="nonzero"/><path fill="#ed1c24" d="M 147.359375 91.753906 C 147.21875 92.433594 147.011719 93.097656 146.742188 93.738281 C 146.476562 94.363281 146.148438 94.96875 145.765625 95.539062 C 145.382812 96.101562 144.945312 96.632812 144.460938 97.117188 C 143.976562 97.601562 143.445312 98.039062 142.878906 98.421875 C 142.3125 98.804688 141.707031 99.132812 141.078125 99.398438 C 140.441406 99.667969 139.773438 99.875 139.097656 100.015625 C 138.394531 100.160156 137.671875 100.230469 136.945312 100.230469 C 136.21875 100.230469 135.492188 100.160156 134.792969 100.015625 C 134.113281 99.875 133.445312 99.667969 132.808594 99.398438 C 132.183594 99.132812 131.574219 98.804688 131.007812 98.421875 C 130.441406 98.039062 129.910156 97.601562 129.429688 97.117188 C 128.945312 96.632812 128.507812 96.101562 128.125 95.539062 C 127.742188 94.96875 127.410156 94.363281 127.144531 93.738281 C 126.875 93.097656 126.667969 92.433594 126.53125 91.753906 C 126.386719 91.054688 126.316406 90.328125 126.316406 89.601562 C 126.316406 88.875 126.386719 88.148438 126.53125 87.449219 C 126.667969 86.769531 126.875 86.105469 127.144531 85.46875 C 127.410156 84.839844 127.742188 84.234375 128.125 83.664062 C 128.507812 83.101562 128.945312 82.570312 129.429688 82.085938 C 129.910156 81.601562 130.441406 81.164062 131.007812 80.78125 C 131.574219 80.398438 132.183594 80.070312 132.808594 79.804688 C 133.445312 79.535156 134.113281 79.328125 134.792969 79.1875 C 135.492188 79.042969 136.21875 78.972656 136.945312 78.972656 C 137.671875 78.972656 138.394531 79.042969 139.097656 79.1875 C 139.773438 79.328125 140.441406 79.535156 141.078125 79.804688 C 141.707031 80.070312 142.3125 80.398438 142.878906 80.78125 C 143.445312 81.164062 143.976562 81.601562 144.460938 82.085938 C 144.945312 82.570312 145.382812 83.101562 145.765625 83.664062 C 146.148438 84.234375 146.476562 84.839844 146.742188 85.46875 C 147.011719 86.105469 147.21875 86.769531 147.359375 87.449219 C 147.5 88.148438 147.574219 88.875 147.574219 89.601562 C 147.574219 90.328125 147.5 91.054688 147.359375 91.753906 Z M 147.6875 87.382812 C 147.542969 86.683594 147.328125 85.996094 147.050781 85.335938 C 146.777344 84.6875 146.4375 84.0625 146.042969 83.476562 C 145.648438 82.894531 145.195312 82.347656 144.699219 81.847656 C 144.199219 81.351562 143.652344 80.898438 143.070312 80.503906 C 142.484375 80.109375 141.859375 79.769531 141.210938 79.496094 C 140.550781 79.214844 139.863281 79.003906 139.164062 78.859375 C 138.441406 78.710938 137.695312 78.636719 136.945312 78.636719 C 136.195312 78.636719 135.449219 78.710938 134.722656 78.859375 C 134.023438 79.003906 133.335938 79.214844 132.679688 79.496094 C 132.03125 79.769531 131.40625 80.109375 130.820312 80.503906 C 130.238281 80.898438 129.6875 81.351562 129.191406 81.847656 C 128.691406 82.347656 128.238281 82.894531 127.847656 83.476562 C 127.449219 84.0625 127.109375 84.6875 126.835938 85.335938 C 126.558594 85.996094 126.34375 86.683594 126.203125 87.382812 C 126.054688 88.105469 125.980469 88.851562 125.980469 89.601562 C 125.980469 90.351562 126.054688 91.097656 126.203125 91.820312 C 126.34375 92.519531 126.558594 93.210938 126.835938 93.867188 C 127.109375 94.515625 127.449219 95.140625 127.847656 95.726562 C 128.238281 96.308594 128.691406 96.855469 129.191406 97.355469 C 129.6875 97.855469 130.238281 98.304688 130.820312 98.699219 C 131.40625 99.09375 132.03125 99.433594 132.679688 99.710938 C 133.335938 99.988281 134.023438 100.199219 134.726562 100.34375 C 135.449219 100.492188 136.195312 100.566406 136.945312 100.566406 C 137.695312 100.566406 138.441406 100.492188 139.164062 100.34375 C 139.863281 100.199219 140.550781 99.988281 141.210938 99.710938 C 141.859375 99.433594 142.484375 99.09375 143.070312 98.699219 C 143.652344 98.304688 144.199219 97.855469 144.699219 97.355469 C 145.195312 96.855469 145.648438 96.308594 146.042969 95.726562 C 146.4375 95.140625 146.777344 94.515625 147.050781 93.867188 C 147.328125 93.210938 147.542969 92.519531 147.6875 91.820312 C 147.835938 91.097656 147.910156 90.351562 147.910156 89.601562 C 147.910156 88.851562 147.835938 88.105469 147.6875 87.382812 " fill-opacity="1" fill-rule="nonzero"/><path fill="#ed1c24" d="M 146.371094 91.550781 C 146.246094 92.164062 146.058594 92.769531 145.816406 93.34375 C 145.574219 93.910156 145.277344 94.460938 144.929688 94.972656 C 144.582031 95.484375 144.1875 95.96875 143.75 96.40625 C 143.308594 96.84375 142.828125 97.242188 142.316406 97.585938 C 141.804688 97.933594 141.253906 98.230469 140.6875 98.472656 C 140.109375 98.714844 139.507812 98.902344 138.894531 99.027344 C 138.261719 99.160156 137.605469 99.222656 136.945312 99.222656 C 136.285156 99.222656 135.628906 99.160156 134.992188 99.027344 C 134.382812 98.902344 133.777344 98.714844 133.203125 98.472656 C 132.632812 98.230469 132.085938 97.933594 131.570312 97.585938 C 131.058594 97.242188 130.578125 96.84375 130.140625 96.40625 C 129.703125 95.96875 129.304688 95.484375 128.960938 94.972656 C 128.613281 94.460938 128.3125 93.910156 128.074219 93.34375 C 127.832031 92.769531 127.644531 92.164062 127.519531 91.550781 C 127.386719 90.917969 127.320312 90.261719 127.320312 89.601562 C 127.320312 88.941406 127.386719 88.285156 127.519531 87.652344 C 127.644531 87.039062 127.832031 86.4375 128.074219 85.859375 C 128.3125 85.292969 128.613281 84.742188 128.960938 84.230469 C 129.304688 83.71875 129.703125 83.234375 130.140625 82.796875 C 130.578125 82.359375 131.058594 81.960938 131.570312 81.617188 C 132.085938 81.269531 132.632812 80.972656 133.203125 80.730469 C 133.777344 80.488281 134.382812 80.300781 134.992188 80.175781 C 135.628906 80.046875 136.285156 79.980469 136.945312 79.980469 C 137.605469 79.980469 138.261719 80.046875 138.894531 80.175781 C 139.507812 80.300781 140.109375 80.488281 140.6875 80.730469 C 141.253906 80.972656 141.804688 81.269531 142.316406 81.617188 C 142.828125 81.960938 143.308594 82.359375 143.75 82.796875 C 144.1875 83.234375 144.582031 83.71875 144.929688 84.230469 C 145.277344 84.742188 145.574219 85.292969 145.816406 85.859375 C 146.058594 86.4375 146.246094 87.039062 146.371094 87.652344 C 146.5 88.285156 146.566406 88.941406 146.566406 89.601562 C 146.566406 90.261719 146.5 90.917969 146.371094 91.550781 Z M 147.027344 87.515625 C 146.894531 86.859375 146.695312 86.214844 146.433594 85.597656 C 146.175781 84.988281 145.855469 84.402344 145.484375 83.851562 C 145.117188 83.304688 144.691406 82.792969 144.222656 82.324219 C 143.753906 81.855469 143.238281 81.429688 142.691406 81.058594 C 142.144531 80.6875 141.554688 80.371094 140.949219 80.113281 C 140.332031 79.851562 139.683594 79.652344 139.027344 79.515625 C 138.351562 79.378906 137.648438 79.308594 136.945312 79.308594 C 136.238281 79.308594 135.539062 79.378906 134.859375 79.515625 C 134.203125 79.652344 133.558594 79.851562 132.941406 80.113281 C 132.332031 80.371094 131.746094 80.6875 131.195312 81.058594 C 130.648438 81.429688 130.132812 81.855469 129.664062 82.324219 C 129.195312 82.792969 128.773438 83.304688 128.402344 83.851562 C 128.03125 84.402344 127.710938 84.988281 127.457031 85.597656 C 127.195312 86.214844 126.992188 86.859375 126.859375 87.515625 C 126.722656 88.195312 126.652344 88.898438 126.652344 89.601562 C 126.652344 90.308594 126.722656 91.007812 126.859375 91.6875 C 126.992188 92.34375 127.195312 92.988281 127.457031 93.605469 C 127.710938 94.214844 128.03125 94.800781 128.402344 95.351562 C 128.773438 95.898438 129.195312 96.414062 129.664062 96.878906 C 130.132812 97.347656 130.648438 97.773438 131.195312 98.144531 C 131.746094 98.515625 132.332031 98.832031 132.941406 99.089844 C 133.558594 99.351562 134.203125 99.550781 134.859375 99.6875 C 135.539062 99.824219 136.238281 99.894531 136.945312 99.894531 C 137.648438 99.894531 138.351562 99.824219 139.027344 99.6875 C 139.683594 99.550781 140.332031 99.351562 140.949219 99.089844 C 141.554688 98.832031 142.144531 98.515625 142.691406 98.144531 C 143.238281 97.773438 143.753906 97.347656 144.222656 96.878906 C 144.691406 96.414062 145.117188 95.898438 145.484375 95.351562 C 145.859375 94.800781 146.175781 94.214844 146.433594 93.605469 C 146.695312 92.988281 146.894531 92.34375 147.027344 91.6875 C 147.167969 91.007812 147.238281 90.308594 147.238281 89.601562 C 147.238281 88.898438 147.167969 88.195312 147.027344 87.515625 " fill-opacity="1" fill-rule="nonzero"/><path fill="#ed1c24" d="M 124.816406 81.691406 C 124.242188 81.414062 123.539062 81.058594 122.710938 80.625 C 123.539062 81.324219 124.152344 81.820312 124.550781 82.117188 Z M 122.183594 79.117188 L 127.363281 81.402344 L 126.570312 82.660156 L 125.679688 82.1875 L 125.398438 82.628906 L 126.207031 83.242188 L 125.402344 84.515625 L 121.0625 80.898438 L 122.183594 79.117188 " fill-opacity="1" fill-rule="nonzero"/><path fill="#ed1c24" d="M 125.527344 76.847656 L 126.476562 77.910156 C 126.507812 77.882812 126.535156 77.863281 126.558594 77.84375 C 126.660156 77.753906 126.707031 77.667969 126.703125 77.582031 C 126.695312 77.5 126.625 77.378906 126.488281 77.226562 L 126.179688 76.882812 C 126.054688 76.738281 125.949219 76.664062 125.863281 76.664062 C 125.78125 76.660156 125.667969 76.722656 125.527344 76.847656 Z M 123.804688 77.101562 L 124.898438 76.125 C 125.195312 75.859375 125.441406 75.679688 125.644531 75.585938 C 125.84375 75.492188 126.023438 75.449219 126.179688 75.46875 C 126.339844 75.484375 126.488281 75.542969 126.628906 75.640625 C 126.769531 75.738281 126.953125 75.921875 127.1875 76.183594 L 127.511719 76.546875 C 127.75 76.8125 127.898438 77.03125 127.949219 77.203125 C 128.003906 77.375 127.988281 77.558594 127.898438 77.753906 C 127.808594 77.953125 127.648438 78.15625 127.410156 78.367188 L 127.117188 78.628906 L 128.621094 80.3125 L 127.53125 81.28125 L 123.804688 77.101562 " fill-opacity="1" fill-rule="nonzero"/><path fill="#ed1c24" d="M 129.488281 74.191406 L 130.105469 75.472656 C 130.144531 75.457031 130.179688 75.441406 130.207031 75.429688 C 130.324219 75.371094 130.394531 75.300781 130.414062 75.21875 C 130.429688 75.136719 130.394531 75.003906 130.304688 74.816406 L 130.105469 74.402344 C 130.023438 74.230469 129.941406 74.132812 129.863281 74.105469 C 129.78125 74.078125 129.660156 74.109375 129.488281 74.191406 Z M 127.761719 73.960938 L 129.082031 73.324219 C 129.4375 73.148438 129.726562 73.046875 129.945312 73.007812 C 130.164062 72.972656 130.347656 72.984375 130.496094 73.042969 C 130.644531 73.101562 130.769531 73.199219 130.878906 73.332031 C 130.984375 73.46875 131.113281 73.691406 131.265625 74.007812 L 131.480469 74.445312 C 131.632812 74.769531 131.714844 75.019531 131.71875 75.199219 C 131.722656 75.378906 131.65625 75.550781 131.515625 75.714844 C 131.375 75.878906 131.164062 76.03125 130.878906 76.171875 L 130.523438 76.339844 L 131.503906 78.371094 L 130.191406 79.003906 L 127.761719 73.960938 " fill-opacity="1" fill-rule="nonzero"/><path fill="#ed1c24" d="M 134.082031 72.722656 L 134.277344 73.953125 C 134.441406 73.925781 134.550781 73.886719 134.609375 73.832031 C 134.667969 73.777344 134.675781 73.628906 134.636719 73.382812 L 134.589844 73.078125 C 134.5625 72.902344 134.511719 72.792969 134.441406 72.75 C 134.367188 72.703125 134.25 72.695312 134.082031 72.722656 Z M 132.496094 72.003906 L 133.511719 71.84375 C 134.191406 71.734375 134.65625 71.6875 134.90625 71.703125 C 135.152344 71.714844 135.371094 71.820312 135.554688 72.011719 C 135.742188 72.203125 135.871094 72.53125 135.945312 73.003906 C 136.015625 73.433594 136.007812 73.734375 135.921875 73.898438 C 135.839844 74.0625 135.644531 74.183594 135.335938 74.265625 C 135.628906 74.289062 135.835938 74.355469 135.953125 74.457031 C 136.070312 74.558594 136.148438 74.660156 136.1875 74.753906 C 136.226562 74.847656 136.28125 75.121094 136.351562 75.566406 L 136.585938 77.027344 L 135.25 77.238281 L 134.957031 75.398438 C 134.910156 75.101562 134.859375 74.925781 134.800781 74.859375 C 134.742188 74.796875 134.613281 74.78125 134.414062 74.8125 L 134.8125 77.308594 L 133.375 77.535156 L 132.496094 72.003906 " fill-opacity="1" fill-rule="nonzero"/><path fill="#ed1c24" d="M 139.539062 73.164062 C 139.578125 72.90625 139.585938 72.738281 139.566406 72.664062 C 139.550781 72.589844 139.496094 72.542969 139.40625 72.53125 C 139.332031 72.519531 139.269531 72.542969 139.222656 72.59375 C 139.171875 72.644531 139.128906 72.816406 139.085938 73.101562 L 138.71875 75.691406 C 138.671875 76.011719 138.65625 76.210938 138.671875 76.292969 C 138.6875 76.371094 138.742188 76.417969 138.839844 76.429688 C 138.9375 76.445312 139.007812 76.410156 139.046875 76.328125 C 139.085938 76.246094 139.128906 76.039062 139.175781 75.714844 Z M 140.722656 75.191406 C 140.640625 75.75 140.574219 76.144531 140.511719 76.371094 C 140.453125 76.597656 140.339844 76.796875 140.175781 76.96875 C 140.011719 77.144531 139.800781 77.261719 139.550781 77.332031 C 139.304688 77.402344 139.019531 77.414062 138.707031 77.371094 C 138.410156 77.328125 138.152344 77.242188 137.929688 77.109375 C 137.707031 76.980469 137.539062 76.804688 137.421875 76.589844 C 137.304688 76.378906 137.25 76.152344 137.253906 75.921875 C 137.261719 75.6875 137.304688 75.289062 137.386719 74.71875 L 137.519531 73.769531 C 137.601562 73.210938 137.671875 72.820312 137.730469 72.589844 C 137.789062 72.363281 137.902344 72.164062 138.066406 71.992188 C 138.230469 71.820312 138.441406 71.699219 138.691406 71.628906 C 138.941406 71.558594 139.222656 71.546875 139.535156 71.59375 C 139.832031 71.632812 140.089844 71.722656 140.3125 71.851562 C 140.535156 71.984375 140.703125 72.15625 140.820312 72.371094 C 140.9375 72.585938 140.992188 72.808594 140.988281 73.039062 C 140.980469 73.273438 140.9375 73.671875 140.855469 74.246094 L 140.722656 75.191406 " fill-opacity="1" fill-rule="nonzero"/><path fill="#ed1c24" d="M 146.386719 74.070312 L 143.320312 78.8125 L 141.320312 77.867188 L 142.957031 72.445312 L 144.34375 73.101562 C 143.84375 74.574219 143.402344 75.808594 143.015625 76.804688 C 143.542969 75.863281 144.027344 75.03125 144.460938 74.308594 L 144.996094 73.410156 L 146.386719 74.070312 " fill-opacity="1" fill-rule="nonzero"/><path fill="#ed1c24" d="M 147.726562 75.046875 L 149.582031 76.617188 L 148.855469 77.472656 L 148.113281 76.84375 L 147.425781 77.652344 L 148.121094 78.242188 L 147.433594 79.054688 L 146.738281 78.464844 L 145.941406 79.40625 L 146.757812 80.097656 L 146.03125 80.953125 L 144.105469 79.316406 L 147.726562 75.046875 " fill-opacity="1" fill-rule="nonzero"/><path fill="#ed1c24" d="M 150.964844 79.78125 L 147.925781 81.859375 C 148.042969 82.03125 148.152344 82.113281 148.246094 82.105469 C 148.34375 82.101562 148.546875 81.992188 148.855469 81.78125 L 150.652344 80.550781 C 150.863281 80.410156 150.992188 80.308594 151.042969 80.257812 C 151.089844 80.203125 151.113281 80.144531 151.109375 80.078125 C 151.105469 80.011719 151.054688 79.910156 150.964844 79.78125 Z M 150.9375 78.035156 L 151.550781 78.9375 C 151.949219 79.515625 152.1875 79.929688 152.277344 80.167969 C 152.363281 80.410156 152.382812 80.625 152.332031 80.816406 C 152.285156 81.003906 152.191406 81.164062 152.0625 81.292969 C 151.929688 81.421875 151.644531 81.636719 151.207031 81.9375 L 149.589844 83.042969 C 149.171875 83.328125 148.882812 83.496094 148.714844 83.554688 C 148.550781 83.609375 148.394531 83.617188 148.25 83.574219 C 148.101562 83.53125 147.964844 83.449219 147.835938 83.328125 C 147.707031 83.207031 147.542969 83 147.347656 82.714844 L 146.3125 81.195312 L 150.9375 78.035156 " fill-opacity="1" fill-rule="nonzero"/><path fill="#ed1c24" d="M 123.636719 98.632812 C 124.125 98.222656 124.738281 97.726562 125.480469 97.152344 C 124.5 97.617188 123.796875 97.972656 123.359375 98.210938 Z M 127.066406 97.296875 L 122.847656 101.070312 L 122.03125 99.828125 L 122.828125 99.210938 L 122.542969 98.773438 L 121.652344 99.253906 L 120.824219 97.996094 L 125.910156 95.539062 L 127.066406 97.296875 " fill-opacity="1" fill-rule="nonzero"/><path fill="#ed1c24" d="M 128.179688 99.785156 L 127.25 100.867188 C 127.28125 100.894531 127.304688 100.917969 127.328125 100.9375 C 127.429688 101.027344 127.523438 101.0625 127.605469 101.046875 C 127.6875 101.03125 127.796875 100.941406 127.929688 100.785156 L 128.230469 100.4375 C 128.355469 100.289062 128.414062 100.175781 128.40625 100.09375 C 128.398438 100.011719 128.320312 99.90625 128.179688 99.785156 Z M 127.695312 98.109375 L 128.808594 99.0625 C 129.109375 99.324219 129.320312 99.542969 129.445312 99.730469 C 129.566406 99.917969 129.628906 100.089844 129.632812 100.25 C 129.636719 100.40625 129.601562 100.5625 129.519531 100.714844 C 129.441406 100.867188 129.285156 101.074219 129.058594 101.339844 L 128.742188 101.710938 C 128.507812 101.984375 128.308594 102.15625 128.148438 102.234375 C 127.984375 102.308594 127.800781 102.316406 127.59375 102.253906 C 127.386719 102.191406 127.164062 102.058594 126.921875 101.851562 L 126.625 101.597656 L 125.15625 103.308594 L 124.050781 102.359375 L 127.695312 98.109375 " fill-opacity="1" fill-rule="nonzero"/><path fill="#ed1c24" d="M 131.328125 101.8125 L 130.734375 103.105469 C 130.769531 103.125 130.800781 103.144531 130.828125 103.15625 C 130.949219 103.210938 131.050781 103.21875 131.125 103.179688 C 131.199219 103.144531 131.277344 103.03125 131.363281 102.839844 L 131.558594 102.421875 C 131.636719 102.25 131.660156 102.125 131.628906 102.046875 C 131.601562 101.96875 131.5 101.890625 131.328125 101.8125 Z M 130.402344 100.332031 L 131.734375 100.945312 C 132.097656 101.109375 132.359375 101.265625 132.527344 101.410156 C 132.695312 101.554688 132.804688 101.703125 132.851562 101.855469 C 132.902344 102.007812 132.910156 102.167969 132.875 102.335938 C 132.839844 102.503906 132.746094 102.746094 132.601562 103.066406 L 132.398438 103.507812 C 132.25 103.832031 132.109375 104.054688 131.972656 104.171875 C 131.835938 104.292969 131.660156 104.347656 131.445312 104.347656 C 131.230469 104.34375 130.976562 104.277344 130.6875 104.144531 L 130.332031 103.980469 L 129.394531 106.03125 L 128.070312 105.425781 L 130.402344 100.332031 " fill-opacity="1" fill-rule="nonzero"/><path fill="#ed1c24" d="M 134.921875 102.886719 L 134.75 104.121094 C 134.914062 104.144531 135.03125 104.136719 135.101562 104.101562 C 135.171875 104.066406 135.226562 103.925781 135.257812 103.683594 L 135.300781 103.378906 C 135.328125 103.203125 135.3125 103.082031 135.253906 103.019531 C 135.199219 102.953125 135.089844 102.910156 134.921875 102.886719 Z M 133.613281 101.738281 L 134.632812 101.878906 C 135.3125 101.976562 135.769531 102.066406 136.003906 102.152344 C 136.238281 102.238281 136.414062 102.398438 136.539062 102.636719 C 136.660156 102.871094 136.6875 103.226562 136.621094 103.699219 C 136.5625 104.132812 136.46875 104.414062 136.339844 104.546875 C 136.214844 104.679688 135.988281 104.742188 135.671875 104.726562 C 135.945312 104.835938 136.125 104.960938 136.207031 105.089844 C 136.289062 105.222656 136.335938 105.339844 136.34375 105.445312 C 136.355469 105.546875 136.328125 105.820312 136.265625 106.269531 L 136.0625 107.734375 L 134.722656 107.546875 L 134.980469 105.703125 C 135.019531 105.40625 135.023438 105.21875 134.984375 105.140625 C 134.949219 105.066406 134.832031 105.011719 134.632812 104.984375 L 134.285156 107.488281 L 132.84375 107.285156 L 133.613281 101.738281 " fill-opacity="1" fill-rule="nonzero"/><path fill="#ed1c24" d="M 139.425781 103.300781 C 139.382812 103.042969 139.34375 102.882812 139.304688 102.8125 C 139.261719 102.746094 139.199219 102.71875 139.109375 102.734375 C 139.035156 102.746094 138.980469 102.785156 138.953125 102.851562 C 138.921875 102.914062 138.929688 103.089844 138.976562 103.375 L 139.394531 105.957031 C 139.449219 106.277344 139.492188 106.472656 139.53125 106.542969 C 139.570312 106.613281 139.636719 106.640625 139.734375 106.625 C 139.832031 106.609375 139.886719 106.554688 139.898438 106.464844 C 139.914062 106.375 139.894531 106.167969 139.839844 105.839844 Z M 141.160156 104.882812 C 141.25 105.4375 141.300781 105.832031 141.3125 106.070312 C 141.324219 106.304688 141.277344 106.527344 141.167969 106.742188 C 141.0625 106.957031 140.902344 107.132812 140.683594 107.273438 C 140.464844 107.414062 140.199219 107.511719 139.890625 107.5625 C 139.59375 107.609375 139.320312 107.605469 139.066406 107.546875 C 138.816406 107.488281 138.605469 107.371094 138.429688 107.203125 C 138.253906 107.03125 138.132812 106.835938 138.070312 106.613281 C 138.003906 106.390625 137.925781 105.992188 137.832031 105.425781 L 137.679688 104.480469 C 137.589844 103.921875 137.539062 103.527344 137.527344 103.292969 C 137.515625 103.058594 137.5625 102.832031 137.667969 102.621094 C 137.777344 102.40625 137.9375 102.226562 138.15625 102.085938 C 138.375 101.945312 138.636719 101.851562 138.949219 101.800781 C 139.246094 101.753906 139.519531 101.757812 139.769531 101.816406 C 140.023438 101.875 140.234375 101.988281 140.410156 102.160156 C 140.585938 102.328125 140.707031 102.523438 140.769531 102.75 C 140.832031 102.972656 140.914062 103.367188 141.003906 103.9375 L 141.160156 104.882812 " fill-opacity="1" fill-rule="nonzero"/><path fill="#ed1c24" d="M 144.195312 99.933594 L 146.027344 105.277344 L 144.046875 106.265625 L 140.796875 101.625 L 142.171875 100.941406 C 143.019531 102.242188 143.71875 103.355469 144.261719 104.277344 C 143.847656 103.277344 143.492188 102.382812 143.195312 101.597656 L 142.820312 100.617188 L 144.195312 99.933594 " fill-opacity="1" fill-rule="nonzero"/><path fill="#ed1c24" d="M 144.308594 99.746094 L 146.128906 98.136719 L 146.871094 98.976562 L 146.144531 99.621094 L 146.84375 100.417969 L 147.527344 99.816406 L 148.234375 100.613281 L 147.550781 101.214844 L 148.367188 102.140625 L 149.167969 101.433594 L 149.910156 102.273438 L 148.015625 103.945312 L 144.308594 99.746094 " fill-opacity="1" fill-rule="nonzero"/><path fill="#ed1c24" d="M 148.078125 97.128906 L 151.160156 99.148438 C 151.273438 98.972656 151.3125 98.839844 151.265625 98.753906 C 151.222656 98.667969 151.046875 98.519531 150.730469 98.316406 L 148.910156 97.125 C 148.699219 96.984375 148.558594 96.902344 148.492188 96.878906 C 148.421875 96.851562 148.359375 96.855469 148.296875 96.882812 C 148.238281 96.914062 148.164062 96.996094 148.078125 97.128906 Z M 146.480469 97.820312 L 147.074219 96.910156 C 147.460938 96.320312 147.75 95.941406 147.9375 95.769531 C 148.128906 95.597656 148.320312 95.496094 148.515625 95.472656 C 148.710938 95.445312 148.890625 95.464844 149.058594 95.539062 C 149.230469 95.609375 149.535156 95.792969 149.980469 96.082031 L 151.621094 97.15625 C 152.039062 97.433594 152.308594 97.636719 152.425781 97.769531 C 152.539062 97.902344 152.605469 98.042969 152.621094 98.195312 C 152.636719 98.34375 152.613281 98.503906 152.550781 98.667969 C 152.488281 98.832031 152.363281 99.0625 152.171875 99.355469 L 151.164062 100.890625 L 146.480469 97.820312 " fill-opacity="1" fill-rule="nonzero"/><path fill="#ed1c24" d="M 122.359375 88.6875 L 123.71875 88.792969 L 122.828125 89.792969 L 123.175781 91.105469 L 121.921875 90.558594 L 120.777344 91.261719 L 120.886719 89.921875 L 119.832031 89.046875 L 121.15625 88.765625 L 121.652344 87.523438 L 122.359375 88.6875 " fill-opacity="1" fill-rule="nonzero"/><path fill="#ed1c24" d="M 152.242188 88.574219 L 153.589844 88.765625 L 152.644531 89.710938 L 152.90625 91.039062 L 151.6875 90.414062 L 150.5 91.046875 L 150.695312 89.714844 L 149.699219 88.777344 L 151.039062 88.582031 L 151.605469 87.367188 L 152.242188 88.574219 " fill-opacity="1" fill-rule="nonzero"/><path fill="#ed1c24" d="M 130.171875 90.847656 L 131.960938 89.121094 L 134.964844 92.234375 L 141.992188 85.449219 L 143.714844 87.234375 L 134.902344 95.742188 L 130.171875 90.847656 " fill-opacity="1" fill-rule="nonzero"/><g fill="#ffffff" fill-opacity="1"><g transform="translate(228.847763, 66.504446)"><g><path d="M 1.75 0 L 1.75 -13.5 L 7.171875 -13.5 C 8.566406 -13.5 9.617188 -13.175781 10.328125 -12.53125 C 11.046875 -11.882812 11.40625 -11 11.40625 -9.875 C 11.40625 -9.050781 11.195312 -8.378906 10.78125 -7.859375 C 10.363281 -7.335938 9.742188 -6.9375 8.921875 -6.65625 L 8.921875 -6.46875 C 9.335938 -6.28125 9.675781 -6.003906 9.9375 -5.640625 C 10.207031 -5.273438 10.457031 -4.738281 10.6875 -4.03125 L 12.03125 0 L 9.296875 0 L 7.96875 -4.03125 C 7.832031 -4.4375 7.679688 -4.75 7.515625 -4.96875 C 7.347656 -5.195312 7.132812 -5.363281 6.875 -5.46875 C 6.613281 -5.570312 6.273438 -5.625 5.859375 -5.625 L 4.421875 -5.625 L 4.421875 0 Z M 6.84375 -7.734375 C 8.132812 -7.734375 8.78125 -8.335938 8.78125 -9.546875 C 8.78125 -10.765625 8.132812 -11.375 6.84375 -11.375 L 4.421875 -11.375 L 4.421875 -7.734375 Z M 6.84375 -7.734375 "/></g></g></g><g fill="#ffffff" fill-opacity="1"><g transform="translate(241.471185, 66.504446)"><g><path d="M 7.359375 0.1875 C 6.117188 0.1875 5.023438 -0.0625 4.078125 -0.5625 C 3.140625 -1.0625 2.398438 -1.832031 1.859375 -2.875 C 1.328125 -3.914062 1.0625 -5.207031 1.0625 -6.75 C 1.0625 -8.289062 1.328125 -9.578125 1.859375 -10.609375 C 2.398438 -11.648438 3.140625 -12.421875 4.078125 -12.921875 C 5.023438 -13.429688 6.117188 -13.6875 7.359375 -13.6875 C 8.597656 -13.6875 9.6875 -13.4375 10.625 -12.9375 C 11.5625 -12.4375 12.296875 -11.664062 12.828125 -10.625 C 13.367188 -9.582031 13.640625 -8.289062 13.640625 -6.75 C 13.640625 -5.207031 13.367188 -3.914062 12.828125 -2.875 C 12.296875 -1.832031 11.5625 -1.0625 10.625 -0.5625 C 9.6875 -0.0625 8.597656 0.1875 7.359375 0.1875 Z M 7.359375 -2.125 C 8.503906 -2.125 9.378906 -2.488281 9.984375 -3.21875 C 10.585938 -3.957031 10.890625 -5.132812 10.890625 -6.75 C 10.890625 -8.363281 10.585938 -9.535156 9.984375 -10.265625 C 9.378906 -11.003906 8.503906 -11.375 7.359375 -11.375 C 6.203125 -11.375 5.320312 -11.003906 4.71875 -10.265625 C 4.113281 -9.535156 3.8125 -8.363281 3.8125 -6.75 C 3.8125 -5.132812 4.113281 -3.957031 4.71875 -3.21875 C 5.320312 -2.488281 6.203125 -2.125 7.359375 -2.125 Z M 7.359375 -2.125 "/></g></g></g><g fill="#ffffff" fill-opacity="1"><g transform="translate(256.181581, 66.504446)"><g><path d="M 7.375 0.1875 C 6.132812 0.1875 5.039062 -0.0664062 4.09375 -0.578125 C 3.144531 -1.097656 2.398438 -1.875 1.859375 -2.90625 C 1.328125 -3.945312 1.0625 -5.226562 1.0625 -6.75 C 1.0625 -8.269531 1.328125 -9.546875 1.859375 -10.578125 C 2.398438 -11.617188 3.144531 -12.394531 4.09375 -12.90625 C 5.039062 -13.425781 6.132812 -13.6875 7.375 -13.6875 C 8.675781 -13.6875 9.78125 -13.429688 10.6875 -12.921875 C 11.59375 -12.421875 12.238281 -11.648438 12.625 -10.609375 L 10.6875 -9.421875 L 10.453125 -9.421875 C 10.160156 -10.128906 9.765625 -10.632812 9.265625 -10.9375 C 8.773438 -11.238281 8.144531 -11.390625 7.375 -11.390625 C 6.257812 -11.390625 5.382812 -11.019531 4.75 -10.28125 C 4.125 -9.539062 3.8125 -8.363281 3.8125 -6.75 C 3.8125 -5.144531 4.125 -3.96875 4.75 -3.21875 C 5.382812 -2.476562 6.257812 -2.109375 7.375 -2.109375 C 9.125 -2.109375 10.195312 -2.960938 10.59375 -4.671875 L 10.828125 -4.671875 L 12.796875 -3.640625 C 12.421875 -2.359375 11.785156 -1.398438 10.890625 -0.765625 C 10.003906 -0.128906 8.832031 0.1875 7.375 0.1875 Z M 7.375 0.1875 "/></g></g></g><g fill="#ffffff" fill-opacity="1"><g transform="translate(269.423702, 66.504446)"><g/></g></g><g fill="#ffffff" fill-opacity="1"><g transform="translate(273.88392, 66.504446)"><g><path d="M 10.3125 -13.5 L 10.3125 -11.265625 L 4.421875 -11.265625 L 4.421875 -7.6875 L 9.765625 -7.6875 L 9.765625 -5.484375 L 4.421875 -5.484375 L 4.421875 0 L 1.75 0 L 1.75 -13.5 Z M 10.3125 -13.5 "/></g></g></g><g fill="#ffffff" fill-opacity="1"><g transform="translate(284.798973, 66.504446)"><g><path d="M 4.421875 0 L 1.75 0 L 1.75 -13.5 L 4.421875 -13.5 Z M 4.421875 0 "/></g></g></g><g fill="#ffffff" fill-opacity="1"><g transform="translate(290.986017, 66.504446)"><g><path d="M 4.421875 -13.5 L 4.421875 -2.234375 L 10.484375 -2.234375 L 10.484375 0 L 1.75 0 L 1.75 -13.5 Z M 4.421875 -13.5 "/></g></g></g><g fill="#ffffff" fill-opacity="1"><g transform="translate(301.91954, 66.504446)"><g><path d="M 4.421875 0 L 1.75 0 L 1.75 -13.5 L 4.421875 -13.5 Z M 4.421875 0 "/></g></g></g><g fill="#ffffff" fill-opacity="1"><g transform="translate(308.106584, 66.504446)"><g><path d="M 4.34375 0 L 1.75 0 L 1.75 -13.5 L 4.8125 -13.5 L 10.234375 -4.796875 L 10.46875 -4.84375 L 10.46875 -13.5 L 13.03125 -13.5 L 13.03125 0 L 10.296875 0 L 4.5625 -9.28125 L 4.34375 -9.25 Z M 4.34375 0 "/></g></g></g><g fill="#ffffff" fill-opacity="1"><g transform="translate(322.909323, 66.504446)"><g><path d="M 6.546875 0.1875 C 5.421875 0.1875 4.445312 -0.0664062 3.625 -0.578125 C 2.8125 -1.085938 2.179688 -1.859375 1.734375 -2.890625 C 1.285156 -3.929688 1.0625 -5.21875 1.0625 -6.75 C 1.0625 -8.289062 1.328125 -9.578125 1.859375 -10.609375 C 2.398438 -11.648438 3.144531 -12.421875 4.09375 -12.921875 C 5.039062 -13.429688 6.144531 -13.6875 7.40625 -13.6875 C 8.695312 -13.6875 9.796875 -13.445312 10.703125 -12.96875 C 11.617188 -12.488281 12.257812 -11.773438 12.625 -10.828125 L 10.6875 -9.640625 L 10.453125 -9.65625 C 10.171875 -10.257812 9.78125 -10.695312 9.28125 -10.96875 C 8.78125 -11.25 8.15625 -11.390625 7.40625 -11.390625 C 6.238281 -11.390625 5.347656 -11.019531 4.734375 -10.28125 C 4.117188 -9.550781 3.8125 -8.375 3.8125 -6.75 C 3.8125 -5.113281 4.097656 -3.925781 4.671875 -3.1875 C 5.242188 -2.457031 6.097656 -2.09375 7.234375 -2.09375 C 8.203125 -2.09375 8.914062 -2.304688 9.375 -2.734375 C 9.84375 -3.171875 10.078125 -3.828125 10.078125 -4.703125 L 10.078125 -5.28125 L 6.875 -5.28125 L 6.875 -7.453125 L 12.71875 -7.453125 L 12.71875 0 L 10.171875 0 L 10.171875 -1.8125 L 9.984375 -1.84375 C 9.703125 -1.195312 9.28125 -0.695312 8.71875 -0.34375 C 8.15625 0.0078125 7.429688 0.1875 6.546875 0.1875 Z M 6.546875 0.1875 "/></g></g></g><g fill="#ffffff" fill-opacity="1"><g transform="translate(336.99178, 66.504446)"><g><path d="M 5.984375 0.1875 C 5.046875 0.1875 4.210938 0.0703125 3.484375 -0.15625 C 2.753906 -0.382812 2.144531 -0.6875 1.65625 -1.0625 C 1.175781 -1.4375 0.804688 -1.847656 0.546875 -2.296875 L 2.015625 -4.09375 L 2.25 -4.09375 C 2.65625 -3.488281 3.171875 -3.003906 3.796875 -2.640625 C 4.421875 -2.285156 5.148438 -2.109375 5.984375 -2.109375 C 6.691406 -2.109375 7.226562 -2.257812 7.59375 -2.5625 C 7.957031 -2.863281 8.140625 -3.28125 8.140625 -3.8125 C 8.140625 -4.132812 8.082031 -4.398438 7.96875 -4.609375 C 7.851562 -4.828125 7.660156 -5.015625 7.390625 -5.171875 C 7.117188 -5.328125 6.75 -5.457031 6.28125 -5.5625 L 4.546875 -5.96875 C 3.335938 -6.238281 2.4375 -6.695312 1.84375 -7.34375 C 1.25 -7.988281 0.953125 -8.820312 0.953125 -9.84375 C 0.953125 -10.613281 1.140625 -11.285156 1.515625 -11.859375 C 1.898438 -12.441406 2.457031 -12.890625 3.1875 -13.203125 C 3.914062 -13.523438 4.789062 -13.6875 5.8125 -13.6875 C 6.84375 -13.6875 7.726562 -13.550781 8.46875 -13.28125 C 9.21875 -13.007812 9.847656 -12.585938 10.359375 -12.015625 L 9.03125 -10.203125 L 8.8125 -10.203125 C 8.425781 -10.609375 7.984375 -10.910156 7.484375 -11.109375 C 6.992188 -11.304688 6.4375 -11.40625 5.8125 -11.40625 C 5.070312 -11.40625 4.507812 -11.273438 4.125 -11.015625 C 3.75 -10.765625 3.5625 -10.410156 3.5625 -9.953125 C 3.5625 -9.523438 3.691406 -9.1875 3.953125 -8.9375 C 4.222656 -8.6875 4.691406 -8.488281 5.359375 -8.34375 L 7.125 -7.96875 C 8.4375 -7.695312 9.382812 -7.226562 9.96875 -6.5625 C 10.5625 -5.90625 10.859375 -5.046875 10.859375 -3.984375 C 10.859375 -3.140625 10.675781 -2.40625 10.3125 -1.78125 C 9.957031 -1.15625 9.410156 -0.671875 8.671875 -0.328125 C 7.941406 0.015625 7.046875 0.1875 5.984375 0.1875 Z M 5.984375 0.1875 "/></g></g></g><g fill="#ffffff" fill-opacity="1"><g transform="translate(348.590179, 66.504446)"><g/></g></g><g fill="#ffffff" fill-opacity="1"><g transform="translate(353.050397, 66.504446)"><g><path d="M 12.953125 0 L 10.140625 0 L 9.125 -3.109375 L 3.953125 -3.109375 L 2.9375 0 L 0.203125 0 L 4.859375 -13.5 L 8.296875 -13.5 Z M 6.421875 -10.6875 L 4.6875 -5.359375 L 8.390625 -5.359375 L 6.640625 -10.6875 Z M 6.421875 -10.6875 "/></g></g></g><g fill="#ffffff" fill-opacity="1"><g transform="translate(366.209414, 66.504446)"><g><path d="M 4.34375 0 L 1.75 0 L 1.75 -13.5 L 4.8125 -13.5 L 10.234375 -4.796875 L 10.46875 -4.84375 L 10.46875 -13.5 L 13.03125 -13.5 L 13.03125 0 L 10.296875 0 L 4.5625 -9.28125 L 4.34375 -9.25 Z M 4.34375 0 "/></g></g></g><g fill="#ffffff" fill-opacity="1"><g transform="translate(381.012153, 66.504446)"><g><path d="M 6.609375 -13.5 C 8.796875 -13.5 10.46875 -12.929688 11.625 -11.796875 C 12.78125 -10.660156 13.359375 -8.976562 13.359375 -6.75 C 13.359375 -4.519531 12.78125 -2.835938 11.625 -1.703125 C 10.46875 -0.566406 8.796875 0 6.609375 0 L 1.75 0 L 1.75 -13.5 Z M 6.453125 -2.25 C 7.847656 -2.25 8.890625 -2.601562 9.578125 -3.3125 C 10.265625 -4.019531 10.609375 -5.164062 10.609375 -6.75 C 10.609375 -8.332031 10.265625 -9.476562 9.578125 -10.1875 C 8.890625 -10.894531 7.847656 -11.25 6.453125 -11.25 L 4.421875 -11.25 L 4.421875 -2.25 Z M 6.453125 -2.25 "/></g></g></g><g fill="#ffffff" fill-opacity="1"><g transform="translate(395.445517, 66.504446)"><g/></g></g><g fill="#ffffff" fill-opacity="1"><g transform="translate(399.905735, 66.504446)"><g><path d="M 7.375 0.1875 C 6.132812 0.1875 5.039062 -0.0664062 4.09375 -0.578125 C 3.144531 -1.097656 2.398438 -1.875 1.859375 -2.90625 C 1.328125 -3.945312 1.0625 -5.226562 1.0625 -6.75 C 1.0625 -8.269531 1.328125 -9.546875 1.859375 -10.578125 C 2.398438 -11.617188 3.144531 -12.394531 4.09375 -12.90625 C 5.039062 -13.425781 6.132812 -13.6875 7.375 -13.6875 C 8.675781 -13.6875 9.78125 -13.429688 10.6875 -12.921875 C 11.59375 -12.421875 12.238281 -11.648438 12.625 -10.609375 L 10.6875 -9.421875 L 10.453125 -9.421875 C 10.160156 -10.128906 9.765625 -10.632812 9.265625 -10.9375 C 8.773438 -11.238281 8.144531 -11.390625 7.375 -11.390625 C 6.257812 -11.390625 5.382812 -11.019531 4.75 -10.28125 C 4.125 -9.539062 3.8125 -8.363281 3.8125 -6.75 C 3.8125 -5.144531 4.125 -3.96875 4.75 -3.21875 C 5.382812 -2.476562 6.257812 -2.109375 7.375 -2.109375 C 9.125 -2.109375 10.195312 -2.960938 10.59375 -4.671875 L 10.828125 -4.671875 L 12.796875 -3.640625 C 12.421875 -2.359375 11.785156 -1.398438 10.890625 -0.765625 C 10.003906 -0.128906 8.832031 0.1875 7.375 0.1875 Z M 7.375 0.1875 "/></g></g></g><g fill="#ffffff" fill-opacity="1"><g transform="translate(413.147855, 66.504446)"><g><path d="M 7.359375 0.1875 C 6.117188 0.1875 5.023438 -0.0625 4.078125 -0.5625 C 3.140625 -1.0625 2.398438 -1.832031 1.859375 -2.875 C 1.328125 -3.914062 1.0625 -5.207031 1.0625 -6.75 C 1.0625 -8.289062 1.328125 -9.578125 1.859375 -10.609375 C 2.398438 -11.648438 3.140625 -12.421875 4.078125 -12.921875 C 5.023438 -13.429688 6.117188 -13.6875 7.359375 -13.6875 C 8.597656 -13.6875 9.6875 -13.4375 10.625 -12.9375 C 11.5625 -12.4375 12.296875 -11.664062 12.828125 -10.625 C 13.367188 -9.582031 13.640625 -8.289062 13.640625 -6.75 C 13.640625 -5.207031 13.367188 -3.914062 12.828125 -2.875 C 12.296875 -1.832031 11.5625 -1.0625 10.625 -0.5625 C 9.6875 -0.0625 8.597656 0.1875 7.359375 0.1875 Z M 7.359375 -2.125 C 8.503906 -2.125 9.378906 -2.488281 9.984375 -3.21875 C 10.585938 -3.957031 10.890625 -5.132812 10.890625 -6.75 C 10.890625 -8.363281 10.585938 -9.535156 9.984375 -10.265625 C 9.378906 -11.003906 8.503906 -11.375 7.359375 -11.375 C 6.203125 -11.375 5.320312 -11.003906 4.71875 -10.265625 C 4.113281 -9.535156 3.8125 -8.363281 3.8125 -6.75 C 3.8125 -5.132812 4.113281 -3.957031 4.71875 -3.21875 C 5.320312 -2.488281 6.203125 -2.125 7.359375 -2.125 Z M 7.359375 -2.125 "/></g></g></g><g fill="#ffffff" fill-opacity="1"><g transform="translate(427.858262, 66.504446)"><g><path d="M 4.203125 0 L 1.75 0 L 1.75 -13.5 L 5.25 -13.5 L 8.65625 -3.578125 L 8.859375 -3.578125 L 12.25 -13.5 L 15.65625 -13.5 L 15.65625 0 L 13.125 0 L 13.125 -8.921875 L 12.890625 -8.953125 L 9.78125 0 L 7.546875 0 L 4.4375 -8.953125 L 4.203125 -8.921875 Z M 4.203125 0 "/></g></g></g><g fill="#ffffff" fill-opacity="1"><g transform="translate(445.28357, 66.504446)"><g><path d="M 6.96875 -13.5 C 7.9375 -13.5 8.765625 -13.320312 9.453125 -12.96875 C 10.140625 -12.613281 10.65625 -12.117188 11 -11.484375 C 11.351562 -10.847656 11.53125 -10.109375 11.53125 -9.265625 C 11.53125 -8.421875 11.351562 -7.679688 11 -7.046875 C 10.65625 -6.410156 10.140625 -5.914062 9.453125 -5.5625 C 8.765625 -5.207031 7.9375 -5.03125 6.96875 -5.03125 L 4.421875 -5.03125 L 4.421875 0 L 1.75 0 L 1.75 -13.5 Z M 6.625 -7.140625 C 8.101562 -7.140625 8.84375 -7.847656 8.84375 -9.265625 C 8.84375 -10.671875 8.101562 -11.375 6.625 -11.375 L 4.421875 -11.375 L 4.421875 -7.140625 Z M 6.625 -7.140625 "/></g></g></g><g fill="#ffffff" fill-opacity="1"><g transform="translate(457.62072, 66.504446)"><g><path d="M 4.421875 -13.5 L 4.421875 -2.234375 L 10.484375 -2.234375 L 10.484375 0 L 1.75 0 L 1.75 -13.5 Z M 4.421875 -13.5 "/></g></g></g><g fill="#ffffff" fill-opacity="1"><g transform="translate(468.554243, 66.504446)"><g><path d="M 4.421875 0 L 1.75 0 L 1.75 -13.5 L 4.421875 -13.5 Z M 4.421875 0 "/></g></g></g><g fill="#ffffff" fill-opacity="1"><g transform="translate(474.741275, 66.504446)"><g><path d="M 12.953125 0 L 10.140625 0 L 9.125 -3.109375 L 3.953125 -3.109375 L 2.9375 0 L 0.203125 0 L 4.859375 -13.5 L 8.296875 -13.5 Z M 6.421875 -10.6875 L 4.6875 -5.359375 L 8.390625 -5.359375 L 6.640625 -10.6875 Z M 6.421875 -10.6875 "/></g></g></g><g fill="#ffffff" fill-opacity="1"><g transform="translate(487.900304, 66.504446)"><g><path d="M 4.34375 0 L 1.75 0 L 1.75 -13.5 L 4.8125 -13.5 L 10.234375 -4.796875 L 10.46875 -4.84375 L 10.46875 -13.5 L 13.03125 -13.5 L 13.03125 0 L 10.296875 0 L 4.5625 -9.28125 L 4.34375 -9.25 Z M 4.34375 0 "/></g></g></g><g fill="#ffffff" fill-opacity="1"><g transform="translate(502.703043, 66.504446)"><g><path d="M 7.375 0.1875 C 6.132812 0.1875 5.039062 -0.0664062 4.09375 -0.578125 C 3.144531 -1.097656 2.398438 -1.875 1.859375 -2.90625 C 1.328125 -3.945312 1.0625 -5.226562 1.0625 -6.75 C 1.0625 -8.269531 1.328125 -9.546875 1.859375 -10.578125 C 2.398438 -11.617188 3.144531 -12.394531 4.09375 -12.90625 C 5.039062 -13.425781 6.132812 -13.6875 7.375 -13.6875 C 8.675781 -13.6875 9.78125 -13.429688 10.6875 -12.921875 C 11.59375 -12.421875 12.238281 -11.648438 12.625 -10.609375 L 10.6875 -9.421875 L 10.453125 -9.421875 C 10.160156 -10.128906 9.765625 -10.632812 9.265625 -10.9375 C 8.773438 -11.238281 8.144531 -11.390625 7.375 -11.390625 C 6.257812 -11.390625 5.382812 -11.019531 4.75 -10.28125 C 4.125 -9.539062 3.8125 -8.363281 3.8125 -6.75 C 3.8125 -5.144531 4.125 -3.96875 4.75 -3.21875 C 5.382812 -2.476562 6.257812 -2.109375 7.375 -2.109375 C 9.125 -2.109375 10.195312 -2.960938 10.59375 -4.671875 L 10.828125 -4.671875 L 12.796875 -3.640625 C 12.421875 -2.359375 11.785156 -1.398438 10.890625 -0.765625 C 10.003906 -0.128906 8.832031 0.1875 7.375 0.1875 Z M 7.375 0.1875 "/></g></g></g><g fill="#ffffff" fill-opacity="1"><g transform="translate(515.945152, 66.504446)"><g><path d="M 4.421875 -5.921875 L 4.421875 -2.234375 L 10.859375 -2.234375 L 10.859375 0 L 1.75 0 L 1.75 -13.5 L 10.71875 -13.5 L 10.71875 -11.265625 L 4.421875 -11.265625 L 4.421875 -8.109375 L 9.921875 -8.109375 L 9.921875 -5.921875 Z M 4.421875 -5.921875 "/></g></g></g><g fill="#ffffff" fill-opacity="1"><g transform="translate(527.552803, 66.504446)"><g><path d="M 5.984375 0.1875 C 5.046875 0.1875 4.210938 0.0703125 3.484375 -0.15625 C 2.753906 -0.382812 2.144531 -0.6875 1.65625 -1.0625 C 1.175781 -1.4375 0.804688 -1.847656 0.546875 -2.296875 L 2.015625 -4.09375 L 2.25 -4.09375 C 2.65625 -3.488281 3.171875 -3.003906 3.796875 -2.640625 C 4.421875 -2.285156 5.148438 -2.109375 5.984375 -2.109375 C 6.691406 -2.109375 7.226562 -2.257812 7.59375 -2.5625 C 7.957031 -2.863281 8.140625 -3.28125 8.140625 -3.8125 C 8.140625 -4.132812 8.082031 -4.398438 7.96875 -4.609375 C 7.851562 -4.828125 7.660156 -5.015625 7.390625 -5.171875 C 7.117188 -5.328125 6.75 -5.457031 6.28125 -5.5625 L 4.546875 -5.96875 C 3.335938 -6.238281 2.4375 -6.695312 1.84375 -7.34375 C 1.25 -7.988281 0.953125 -8.820312 0.953125 -9.84375 C 0.953125 -10.613281 1.140625 -11.285156 1.515625 -11.859375 C 1.898438 -12.441406 2.457031 -12.890625 3.1875 -13.203125 C 3.914062 -13.523438 4.789062 -13.6875 5.8125 -13.6875 C 6.84375 -13.6875 7.726562 -13.550781 8.46875 -13.28125 C 9.21875 -13.007812 9.847656 -12.585938 10.359375 -12.015625 L 9.03125 -10.203125 L 8.8125 -10.203125 C 8.425781 -10.609375 7.984375 -10.910156 7.484375 -11.109375 C 6.992188 -11.304688 6.4375 -11.40625 5.8125 -11.40625 C 5.070312 -11.40625 4.507812 -11.273438 4.125 -11.015625 C 3.75 -10.765625 3.5625 -10.410156 3.5625 -9.953125 C 3.5625 -9.523438 3.691406 -9.1875 3.953125 -8.9375 C 4.222656 -8.6875 4.691406 -8.488281 5.359375 -8.34375 L 7.125 -7.96875 C 8.4375 -7.695312 9.382812 -7.226562 9.96875 -6.5625 C 10.5625 -5.90625 10.859375 -5.046875 10.859375 -3.984375 C 10.859375 -3.140625 10.675781 -2.40625 10.3125 -1.78125 C 9.957031 -1.15625 9.410156 -0.671875 8.671875 -0.328125 C 7.941406 0.015625 7.046875 0.1875 5.984375 0.1875 Z M 5.984375 0.1875 "/></g></g></g></svg>