<svg xmlns="http://www.w3.org/2000/svg" xmlns:xlink="http://www.w3.org/1999/xlink" width="1420" zoomAndPan="magnify" viewBox="0 0 1065 112.499997" height="150" preserveAspectRatio="xMidYMid meet" version="1.0"><defs><g/><clipPath id="294b815aa4"><path d="M 2.355469 0 L 1062.644531 0 L 1062.644531 112.003906 L 2.355469 112.003906 Z M 2.355469 0 " clip-rule="nonzero"/></clipPath><linearGradient x1="0" gradientTransform="matrix(0.746681, 0, 0, 0.746681, 2.35621, 0)" y1="0" x2="1419.999941" gradientUnits="userSpaceOnUse" y2="0" id="fd3312f717"><stop stop-opacity="1" stop-color="rgb(5.099487%, 0%, 44.699097%)" offset="0"/><stop stop-opacity="1" stop-color="rgb(5.233765%, 0.311279%, 45.045471%)" offset="0.00390625"/><stop stop-opacity="1" stop-color="rgb(5.369568%, 0.624084%, 45.391846%)" offset="0.0078125"/><stop stop-opacity="1" stop-color="rgb(5.503845%, 0.93689%, 45.736694%)" offset="0.0117188"/><stop stop-opacity="1" stop-color="rgb(5.639648%, 1.249695%, 46.083069%)" offset="0.015625"/><stop stop-opacity="1" stop-color="rgb(5.773926%, 1.560974%, 46.429443%)" offset="0.0195312"/><stop stop-opacity="1" stop-color="rgb(5.909729%, 1.873779%, 46.775818%)" offset="0.0234375"/><stop stop-opacity="1" stop-color="rgb(6.044006%, 2.186584%, 47.122192%)" offset="0.0273438"/><stop stop-opacity="1" stop-color="rgb(6.17981%, 2.49939%, 47.468567%)" offset="0.03125"/><stop stop-opacity="1" stop-color="rgb(6.315613%, 2.810669%, 47.813416%)" offset="0.0351562"/><stop stop-opacity="1" stop-color="rgb(6.451416%, 3.123474%, 48.15979%)" offset="0.0390625"/><stop stop-opacity="1" stop-color="rgb(6.585693%, 3.436279%, 48.506165%)" offset="0.0429688"/><stop stop-opacity="1" stop-color="rgb(6.721497%, 3.749084%, 48.852539%)" offset="0.046875"/><stop stop-opacity="1" stop-color="rgb(6.855774%, 4.06189%, 49.198914%)" offset="0.0507812"/><stop stop-opacity="1" stop-color="rgb(6.991577%, 4.374695%, 49.545288%)" offset="0.0546875"/><stop stop-opacity="1" stop-color="rgb(7.125854%, 4.685974%, 49.890137%)" offset="0.0585938"/><stop stop-opacity="1" stop-color="rgb(7.261658%, 4.998779%, 50.236511%)" offset="0.0625"/><stop stop-opacity="1" stop-color="rgb(7.395935%, 5.311584%, 50.582886%)" offset="0.0664062"/><stop stop-opacity="1" stop-color="rgb(7.531738%, 5.62439%, 50.92926%)" offset="0.0703125"/><stop stop-opacity="1" stop-color="rgb(7.666016%, 5.935669%, 51.274109%)" offset="0.0742188"/><stop stop-opacity="1" stop-color="rgb(7.801819%, 6.248474%, 51.620483%)" offset="0.078125"/><stop stop-opacity="1" stop-color="rgb(7.937622%, 6.561279%, 51.966858%)" offset="0.0820312"/><stop stop-opacity="1" stop-color="rgb(8.073425%, 6.874084%, 52.313232%)" offset="0.0859375"/><stop stop-opacity="1" stop-color="rgb(8.207703%, 7.18689%, 52.659607%)" offset="0.0898438"/><stop stop-opacity="1" stop-color="rgb(8.343506%, 7.499695%, 53.005981%)" offset="0.09375"/><stop stop-opacity="1" stop-color="rgb(8.477783%, 7.810974%, 53.35083%)" offset="0.0976562"/><stop stop-opacity="1" stop-color="rgb(8.613586%, 8.123779%, 53.697205%)" offset="0.101562"/><stop stop-opacity="1" stop-color="rgb(8.747864%, 8.436584%, 54.043579%)" offset="0.105469"/><stop stop-opacity="1" stop-color="rgb(8.883667%, 8.74939%, 54.389954%)" offset="0.109375"/><stop stop-opacity="1" stop-color="rgb(9.017944%, 9.060669%, 54.736328%)" offset="0.113281"/><stop stop-opacity="1" stop-color="rgb(9.153748%, 9.373474%, 55.082703%)" offset="0.117188"/><stop stop-opacity="1" stop-color="rgb(9.288025%, 9.686279%, 55.427551%)" offset="0.121094"/><stop stop-opacity="1" stop-color="rgb(9.423828%, 9.999084%, 55.773926%)" offset="0.125"/><stop stop-opacity="1" stop-color="rgb(9.558105%, 10.31189%, 56.1203%)" offset="0.128906"/><stop stop-opacity="1" stop-color="rgb(9.693909%, 10.624695%, 56.466675%)" offset="0.132812"/><stop stop-opacity="1" stop-color="rgb(9.829712%, 10.935974%, 56.811523%)" offset="0.136719"/><stop stop-opacity="1" stop-color="rgb(9.965515%, 11.248779%, 57.157898%)" offset="0.140625"/><stop stop-opacity="1" stop-color="rgb(10.099792%, 11.561584%, 57.504272%)" offset="0.144531"/><stop stop-opacity="1" stop-color="rgb(10.235596%, 11.87439%, 57.850647%)" offset="0.148438"/><stop stop-opacity="1" stop-color="rgb(10.369873%, 12.185669%, 58.197021%)" offset="0.152344"/><stop stop-opacity="1" stop-color="rgb(10.505676%, 12.498474%, 58.543396%)" offset="0.15625"/><stop stop-opacity="1" stop-color="rgb(10.639954%, 12.811279%, 58.888245%)" offset="0.160156"/><stop stop-opacity="1" stop-color="rgb(10.775757%, 13.124084%, 59.234619%)" offset="0.164062"/><stop stop-opacity="1" stop-color="rgb(10.910034%, 13.43689%, 59.580994%)" offset="0.167969"/><stop stop-opacity="1" stop-color="rgb(11.045837%, 13.749695%, 59.927368%)" offset="0.171875"/><stop stop-opacity="1" stop-color="rgb(11.180115%, 14.060974%, 60.273743%)" offset="0.175781"/><stop stop-opacity="1" stop-color="rgb(11.315918%, 14.373779%, 60.620117%)" offset="0.179688"/><stop stop-opacity="1" stop-color="rgb(11.450195%, 14.686584%, 60.964966%)" offset="0.183594"/><stop stop-opacity="1" stop-color="rgb(11.585999%, 14.99939%, 61.31134%)" offset="0.1875"/><stop stop-opacity="1" stop-color="rgb(11.721802%, 15.310669%, 61.657715%)" offset="0.191406"/><stop stop-opacity="1" stop-color="rgb(11.857605%, 15.623474%, 62.004089%)" offset="0.195312"/><stop stop-opacity="1" stop-color="rgb(11.991882%, 15.936279%, 62.350464%)" offset="0.199219"/><stop stop-opacity="1" stop-color="rgb(12.127686%, 16.249084%, 62.696838%)" offset="0.203125"/><stop stop-opacity="1" stop-color="rgb(12.261963%, 16.56189%, 63.041687%)" offset="0.207031"/><stop stop-opacity="1" stop-color="rgb(12.397766%, 16.874695%, 63.388062%)" offset="0.210938"/><stop stop-opacity="1" stop-color="rgb(12.532043%, 17.185974%, 63.734436%)" offset="0.214844"/><stop stop-opacity="1" stop-color="rgb(12.667847%, 17.498779%, 64.080811%)" offset="0.21875"/><stop stop-opacity="1" stop-color="rgb(12.802124%, 17.811584%, 64.425659%)" offset="0.222656"/><stop stop-opacity="1" stop-color="rgb(12.937927%, 18.12439%, 64.772034%)" offset="0.226562"/><stop stop-opacity="1" stop-color="rgb(13.072205%, 18.435669%, 65.118408%)" offset="0.230469"/><stop stop-opacity="1" stop-color="rgb(13.208008%, 18.748474%, 65.464783%)" offset="0.234375"/><stop stop-opacity="1" stop-color="rgb(13.343811%, 19.061279%, 65.811157%)" offset="0.238281"/><stop stop-opacity="1" stop-color="rgb(13.479614%, 19.374084%, 66.157532%)" offset="0.242188"/><stop stop-opacity="1" stop-color="rgb(13.613892%, 19.68689%, 66.50238%)" offset="0.246094"/><stop stop-opacity="1" stop-color="rgb(13.749695%, 19.999695%, 66.848755%)" offset="0.25"/><stop stop-opacity="1" stop-color="rgb(13.883972%, 20.310974%, 67.195129%)" offset="0.253906"/><stop stop-opacity="1" stop-color="rgb(14.019775%, 20.623779%, 67.541504%)" offset="0.257812"/><stop stop-opacity="1" stop-color="rgb(14.154053%, 20.936584%, 67.887878%)" offset="0.261719"/><stop stop-opacity="1" stop-color="rgb(14.289856%, 21.24939%, 68.234253%)" offset="0.265625"/><stop stop-opacity="1" stop-color="rgb(14.424133%, 21.560669%, 68.579102%)" offset="0.269531"/><stop stop-opacity="1" stop-color="rgb(14.559937%, 21.873474%, 68.925476%)" offset="0.273438"/><stop stop-opacity="1" stop-color="rgb(14.694214%, 22.186279%, 69.271851%)" offset="0.277344"/><stop stop-opacity="1" stop-color="rgb(14.830017%, 22.499084%, 69.618225%)" offset="0.28125"/><stop stop-opacity="1" stop-color="rgb(14.964294%, 22.81189%, 69.963074%)" offset="0.285156"/><stop stop-opacity="1" stop-color="rgb(15.100098%, 23.124695%, 70.309448%)" offset="0.289062"/><stop stop-opacity="1" stop-color="rgb(15.235901%, 23.435974%, 70.655823%)" offset="0.292969"/><stop stop-opacity="1" stop-color="rgb(15.371704%, 23.748779%, 71.002197%)" offset="0.296875"/><stop stop-opacity="1" stop-color="rgb(15.505981%, 24.061584%, 71.348572%)" offset="0.300781"/><stop stop-opacity="1" stop-color="rgb(15.641785%, 24.37439%, 71.694946%)" offset="0.304688"/><stop stop-opacity="1" stop-color="rgb(15.776062%, 24.685669%, 72.039795%)" offset="0.308594"/><stop stop-opacity="1" stop-color="rgb(15.911865%, 24.998474%, 72.386169%)" offset="0.3125"/><stop stop-opacity="1" stop-color="rgb(16.046143%, 25.311279%, 72.732544%)" offset="0.316406"/><stop stop-opacity="1" stop-color="rgb(16.181946%, 25.624084%, 73.078918%)" offset="0.320312"/><stop stop-opacity="1" stop-color="rgb(16.316223%, 25.93689%, 73.425293%)" offset="0.324219"/><stop stop-opacity="1" stop-color="rgb(16.452026%, 26.249695%, 73.771667%)" offset="0.328125"/><stop stop-opacity="1" stop-color="rgb(16.586304%, 26.560974%, 74.116516%)" offset="0.332031"/><stop stop-opacity="1" stop-color="rgb(16.722107%, 26.873779%, 74.462891%)" offset="0.335938"/><stop stop-opacity="1" stop-color="rgb(16.85791%, 27.186584%, 74.809265%)" offset="0.339844"/><stop stop-opacity="1" stop-color="rgb(16.993713%, 27.49939%, 75.15564%)" offset="0.34375"/><stop stop-opacity="1" stop-color="rgb(17.127991%, 27.810669%, 75.502014%)" offset="0.347656"/><stop stop-opacity="1" stop-color="rgb(17.263794%, 28.123474%, 75.848389%)" offset="0.351562"/><stop stop-opacity="1" stop-color="rgb(17.398071%, 28.436279%, 76.193237%)" offset="0.355469"/><stop stop-opacity="1" stop-color="rgb(17.533875%, 28.749084%, 76.539612%)" offset="0.359375"/><stop stop-opacity="1" stop-color="rgb(17.668152%, 29.06189%, 76.885986%)" offset="0.363281"/><stop stop-opacity="1" stop-color="rgb(17.803955%, 29.374695%, 77.232361%)" offset="0.367188"/><stop stop-opacity="1" stop-color="rgb(17.938232%, 29.685974%, 77.577209%)" offset="0.371094"/><stop stop-opacity="1" stop-color="rgb(18.074036%, 29.998779%, 77.923584%)" offset="0.375"/><stop stop-opacity="1" stop-color="rgb(18.208313%, 30.311584%, 78.269958%)" offset="0.378906"/><stop stop-opacity="1" stop-color="rgb(18.344116%, 30.62439%, 78.616333%)" offset="0.382812"/><stop stop-opacity="1" stop-color="rgb(18.478394%, 30.935669%, 78.962708%)" offset="0.386719"/><stop stop-opacity="1" stop-color="rgb(18.614197%, 31.248474%, 79.309082%)" offset="0.390625"/><stop stop-opacity="1" stop-color="rgb(18.75%, 31.561279%, 79.653931%)" offset="0.394531"/><stop stop-opacity="1" stop-color="rgb(18.885803%, 31.874084%, 80.000305%)" offset="0.398438"/><stop stop-opacity="1" stop-color="rgb(19.020081%, 32.18689%, 80.34668%)" offset="0.402344"/><stop stop-opacity="1" stop-color="rgb(19.155884%, 32.499695%, 80.693054%)" offset="0.40625"/><stop stop-opacity="1" stop-color="rgb(19.290161%, 32.810974%, 81.039429%)" offset="0.410156"/><stop stop-opacity="1" stop-color="rgb(19.425964%, 33.123779%, 81.385803%)" offset="0.414062"/><stop stop-opacity="1" stop-color="rgb(19.560242%, 33.436584%, 81.730652%)" offset="0.417969"/><stop stop-opacity="1" stop-color="rgb(19.696045%, 33.74939%, 82.077026%)" offset="0.421875"/><stop stop-opacity="1" stop-color="rgb(19.830322%, 34.060669%, 82.423401%)" offset="0.425781"/><stop stop-opacity="1" stop-color="rgb(19.966125%, 34.373474%, 82.769775%)" offset="0.429688"/><stop stop-opacity="1" stop-color="rgb(20.100403%, 34.686279%, 83.114624%)" offset="0.433594"/><stop stop-opacity="1" stop-color="rgb(20.236206%, 34.999084%, 83.460999%)" offset="0.4375"/><stop stop-opacity="1" stop-color="rgb(20.370483%, 35.31189%, 83.807373%)" offset="0.441406"/><stop stop-opacity="1" stop-color="rgb(20.506287%, 35.624695%, 84.153748%)" offset="0.445312"/><stop stop-opacity="1" stop-color="rgb(20.64209%, 35.935974%, 84.500122%)" offset="0.449219"/><stop stop-opacity="1" stop-color="rgb(20.777893%, 36.248779%, 84.846497%)" offset="0.453125"/><stop stop-opacity="1" stop-color="rgb(20.91217%, 36.561584%, 85.191345%)" offset="0.457031"/><stop stop-opacity="1" stop-color="rgb(21.047974%, 36.87439%, 85.53772%)" offset="0.460938"/><stop stop-opacity="1" stop-color="rgb(21.182251%, 37.185669%, 85.884094%)" offset="0.464844"/><stop stop-opacity="1" stop-color="rgb(21.318054%, 37.498474%, 86.230469%)" offset="0.46875"/><stop stop-opacity="1" stop-color="rgb(21.452332%, 37.811279%, 86.576843%)" offset="0.472656"/><stop stop-opacity="1" stop-color="rgb(21.588135%, 38.124084%, 86.923218%)" offset="0.476562"/><stop stop-opacity="1" stop-color="rgb(21.722412%, 38.43689%, 87.268066%)" offset="0.480469"/><stop stop-opacity="1" stop-color="rgb(21.858215%, 38.749695%, 87.614441%)" offset="0.484375"/><stop stop-opacity="1" stop-color="rgb(21.992493%, 39.060974%, 87.960815%)" offset="0.488281"/><stop stop-opacity="1" stop-color="rgb(22.128296%, 39.373779%, 88.30719%)" offset="0.492188"/><stop stop-opacity="1" stop-color="rgb(22.264099%, 39.686584%, 88.653564%)" offset="0.496094"/><stop stop-opacity="1" stop-color="rgb(22.399902%, 39.99939%, 88.999939%)" offset="0.5"/><stop stop-opacity="1" stop-color="rgb(22.579956%, 39.862061%, 88.999939%)" offset="0.507812"/><stop stop-opacity="1" stop-color="rgb(22.940063%, 39.585876%, 88.999939%)" offset="0.515625"/><stop stop-opacity="1" stop-color="rgb(23.301697%, 39.311218%, 88.999939%)" offset="0.523438"/><stop stop-opacity="1" stop-color="rgb(23.661804%, 39.03656%, 88.999939%)" offset="0.53125"/><stop stop-opacity="1" stop-color="rgb(24.023438%, 38.761902%, 88.999939%)" offset="0.539062"/><stop stop-opacity="1" stop-color="rgb(24.383545%, 38.487244%, 88.999939%)" offset="0.546875"/><stop stop-opacity="1" stop-color="rgb(24.745178%, 38.21106%, 88.999939%)" offset="0.554688"/><stop stop-opacity="1" stop-color="rgb(25.105286%, 37.936401%, 88.999939%)" offset="0.5625"/><stop stop-opacity="1" stop-color="rgb(25.466919%, 37.661743%, 88.999939%)" offset="0.570312"/><stop stop-opacity="1" stop-color="rgb(25.827026%, 37.387085%, 88.999939%)" offset="0.578125"/><stop stop-opacity="1" stop-color="rgb(26.18866%, 37.110901%, 88.999939%)" offset="0.585938"/><stop stop-opacity="1" stop-color="rgb(26.550293%, 36.836243%, 88.999939%)" offset="0.59375"/><stop stop-opacity="1" stop-color="rgb(26.9104%, 36.561584%, 88.999939%)" offset="0.601562"/><stop stop-opacity="1" stop-color="rgb(27.272034%, 36.286926%, 88.999939%)" offset="0.609375"/><stop stop-opacity="1" stop-color="rgb(27.632141%, 36.012268%, 88.999939%)" offset="0.617188"/><stop stop-opacity="1" stop-color="rgb(27.993774%, 35.736084%, 88.999939%)" offset="0.625"/><stop stop-opacity="1" stop-color="rgb(28.353882%, 35.461426%, 88.999939%)" offset="0.632812"/><stop stop-opacity="1" stop-color="rgb(28.715515%, 35.186768%, 88.999939%)" offset="0.640625"/><stop stop-opacity="1" stop-color="rgb(29.075623%, 34.912109%, 88.999939%)" offset="0.648438"/><stop stop-opacity="1" stop-color="rgb(29.437256%, 34.635925%, 88.999939%)" offset="0.65625"/><stop stop-opacity="1" stop-color="rgb(29.797363%, 34.361267%, 88.999939%)" offset="0.664062"/><stop stop-opacity="1" stop-color="rgb(30.158997%, 34.086609%, 88.999939%)" offset="0.671875"/><stop stop-opacity="1" stop-color="rgb(30.52063%, 33.811951%, 88.999939%)" offset="0.679688"/><stop stop-opacity="1" stop-color="rgb(30.880737%, 33.537292%, 88.999939%)" offset="0.6875"/><stop stop-opacity="1" stop-color="rgb(31.242371%, 33.261108%, 88.999939%)" offset="0.695312"/><stop stop-opacity="1" stop-color="rgb(31.602478%, 32.98645%, 88.999939%)" offset="0.703125"/><stop stop-opacity="1" stop-color="rgb(31.964111%, 32.711792%, 88.999939%)" offset="0.710938"/><stop stop-opacity="1" stop-color="rgb(32.324219%, 32.437134%, 88.999939%)" offset="0.71875"/><stop stop-opacity="1" stop-color="rgb(32.685852%, 32.16095%, 88.999939%)" offset="0.726562"/><stop stop-opacity="1" stop-color="rgb(33.045959%, 31.886292%, 88.999939%)" offset="0.734375"/><stop stop-opacity="1" stop-color="rgb(33.407593%, 31.611633%, 88.999939%)" offset="0.742188"/><stop stop-opacity="1" stop-color="rgb(33.7677%, 31.336975%, 88.999939%)" offset="0.75"/><stop stop-opacity="1" stop-color="rgb(34.129333%, 31.062317%, 88.999939%)" offset="0.757812"/><stop stop-opacity="1" stop-color="rgb(34.490967%, 30.786133%, 88.999939%)" offset="0.765625"/><stop stop-opacity="1" stop-color="rgb(34.851074%, 30.511475%, 88.999939%)" offset="0.773438"/><stop stop-opacity="1" stop-color="rgb(35.212708%, 30.236816%, 88.999939%)" offset="0.78125"/><stop stop-opacity="1" stop-color="rgb(35.572815%, 29.962158%, 88.999939%)" offset="0.789062"/><stop stop-opacity="1" stop-color="rgb(35.934448%, 29.685974%, 88.999939%)" offset="0.796875"/><stop stop-opacity="1" stop-color="rgb(36.294556%, 29.411316%, 88.999939%)" offset="0.804688"/><stop stop-opacity="1" stop-color="rgb(36.656189%, 29.136658%, 88.999939%)" offset="0.8125"/><stop stop-opacity="1" stop-color="rgb(37.016296%, 28.862%, 88.999939%)" offset="0.820312"/><stop stop-opacity="1" stop-color="rgb(37.37793%, 28.585815%, 88.999939%)" offset="0.828125"/><stop stop-opacity="1" stop-color="rgb(37.738037%, 28.311157%, 88.999939%)" offset="0.835938"/><stop stop-opacity="1" stop-color="rgb(38.09967%, 28.036499%, 88.999939%)" offset="0.84375"/><stop stop-opacity="1" stop-color="rgb(38.459778%, 27.761841%, 88.999939%)" offset="0.851562"/><stop stop-opacity="1" stop-color="rgb(38.821411%, 27.487183%, 88.999939%)" offset="0.859375"/><stop stop-opacity="1" stop-color="rgb(39.183044%, 27.210999%, 88.999939%)" offset="0.867188"/><stop stop-opacity="1" stop-color="rgb(39.543152%, 26.93634%, 88.999939%)" offset="0.875"/><stop stop-opacity="1" stop-color="rgb(39.904785%, 26.661682%, 88.999939%)" offset="0.882812"/><stop stop-opacity="1" stop-color="rgb(40.264893%, 26.387024%, 88.999939%)" offset="0.890625"/><stop stop-opacity="1" stop-color="rgb(40.626526%, 26.11084%, 88.999939%)" offset="0.898438"/><stop stop-opacity="1" stop-color="rgb(40.986633%, 25.836182%, 88.999939%)" offset="0.90625"/><stop stop-opacity="1" stop-color="rgb(41.348267%, 25.561523%, 88.999939%)" offset="0.914062"/><stop stop-opacity="1" stop-color="rgb(41.708374%, 25.286865%, 88.999939%)" offset="0.921875"/><stop stop-opacity="1" stop-color="rgb(42.070007%, 25.012207%, 88.999939%)" offset="0.929688"/><stop stop-opacity="1" stop-color="rgb(42.430115%, 24.736023%, 88.999939%)" offset="0.9375"/><stop stop-opacity="1" stop-color="rgb(42.791748%, 24.461365%, 88.999939%)" offset="0.945312"/><stop stop-opacity="1" stop-color="rgb(43.153381%, 24.186707%, 88.999939%)" offset="0.953125"/><stop stop-opacity="1" stop-color="rgb(43.513489%, 23.912048%, 88.999939%)" offset="0.960938"/><stop stop-opacity="1" stop-color="rgb(43.875122%, 23.635864%, 88.999939%)" offset="0.96875"/><stop stop-opacity="1" stop-color="rgb(44.235229%, 23.361206%, 88.999939%)" offset="0.976562"/><stop stop-opacity="1" stop-color="rgb(44.596863%, 23.086548%, 88.999939%)" offset="0.984375"/><stop stop-opacity="1" stop-color="rgb(44.95697%, 22.81189%, 88.999939%)" offset="0.992188"/><stop stop-opacity="1" stop-color="rgb(45.318604%, 22.537231%, 88.999939%)" offset="1"/></linearGradient><clipPath id="51072a186c"><path d="M 13.554688 83 L 165.878906 83 L 165.878906 107 L 13.554688 107 Z M 13.554688 83 " clip-rule="nonzero"/></clipPath><clipPath id="3b9e7a8a98"><path d="M 13.554688 80 L 165.878906 80 L 165.878906 104 L 13.554688 104 Z M 13.554688 80 " clip-rule="nonzero"/></clipPath><clipPath id="d9963c9905"><path d="M 13.554688 2.390625 L 165.878906 2.390625 L 165.878906 101 L 13.554688 101 Z M 13.554688 2.390625 " clip-rule="nonzero"/></clipPath><clipPath id="77a9f8dbaf"><path d="M 13.554688 87 L 165.878906 87 L 165.878906 110.660156 L 13.554688 110.660156 Z M 13.554688 87 " clip-rule="nonzero"/></clipPath></defs><g clip-path="url(#294b815aa4)"><path fill="#ffffff" d="M 2.355469 0 L 1062.644531 0 L 1062.644531 112.003906 L 2.355469 112.003906 Z M 2.355469 0 " fill-opacity="1" fill-rule="nonzero"/><path fill="url(#fd3312f717)" d="M 2.355469 0 L 2.355469 112.003906 L 1062.644531 112.003906 L 1062.644531 0 Z M 2.355469 0 " fill-rule="nonzero"/></g><path fill="#ffffff" d="M 162.394531 8.210938 C 161.332031 6.386719 159.363281 5.171875 157.390625 5.171875 L 22.042969 5.171875 C 18.859375 5.171875 16.285156 7.753906 16.285156 10.945312 L 16.285156 92.382812 C 16.285156 95.574219 18.859375 98.15625 21.890625 98.15625 L 157.238281 98.15625 C 160.421875 98.15625 163 95.574219 163 92.382812 L 163 10.945312 C 163 9.882812 162.847656 8.96875 162.394531 8.210938 Z M 74.183594 72.933594 C 74.183594 76.125 71.605469 78.707031 68.421875 78.707031 L 37.050781 78.707031 C 33.867188 78.707031 31.289062 76.125 31.289062 72.933594 L 31.289062 29.9375 C 31.289062 26.746094 33.867188 24.164062 37.050781 24.164062 L 68.421875 24.164062 C 71.605469 24.164062 74.183594 26.746094 74.183594 29.9375 Z M 145.113281 75.0625 C 145.113281 77.035156 143.449219 78.707031 141.476562 78.707031 L 90.097656 78.707031 C 88.125 78.707031 86.460938 77.035156 86.460938 75.0625 L 86.460938 73.996094 C 86.460938 72.023438 88.125 70.351562 90.097656 70.351562 L 141.476562 70.351562 C 143.449219 70.351562 145.113281 72.023438 145.113281 73.996094 Z M 145.113281 63.515625 C 145.113281 65.488281 143.449219 67.160156 141.476562 67.160156 L 90.097656 67.160156 C 88.125 67.160156 86.460938 65.488281 86.460938 63.515625 L 86.460938 62.449219 C 86.460938 60.476562 88.125 58.804688 90.097656 58.804688 L 141.476562 58.804688 C 143.449219 58.804688 145.113281 60.476562 145.113281 62.449219 Z M 145.113281 51.816406 C 145.113281 53.789062 143.449219 55.460938 141.476562 55.460938 L 90.097656 55.460938 C 88.125 55.460938 86.460938 53.789062 86.460938 51.816406 L 86.460938 50.753906 C 86.460938 48.777344 88.125 47.105469 90.097656 47.105469 L 141.476562 47.105469 C 143.449219 47.105469 145.113281 48.777344 145.113281 50.753906 Z M 145.113281 40.269531 C 145.113281 42.242188 143.449219 43.914062 141.476562 43.914062 L 90.097656 43.914062 C 88.125 43.914062 86.460938 42.242188 86.460938 40.269531 L 86.460938 39.203125 C 86.460938 37.230469 88.125 35.558594 90.097656 35.558594 L 141.476562 35.558594 C 143.449219 35.558594 145.113281 37.230469 145.113281 39.203125 Z M 145.113281 28.570312 C 145.113281 30.542969 143.449219 32.214844 141.476562 32.214844 L 90.097656 32.214844 C 88.125 32.214844 86.460938 30.542969 86.460938 28.570312 L 86.460938 27.507812 C 86.460938 25.53125 88.125 23.859375 90.097656 23.859375 L 141.476562 23.859375 C 143.449219 23.859375 145.113281 25.53125 145.113281 27.507812 Z M 145.113281 28.570312 " fill-opacity="1" fill-rule="nonzero"/><path fill="#cae5cc" d="M 163 10.945312 L 163 92.382812 C 163 95.574219 160.421875 98.15625 157.238281 98.15625 L 22.042969 98.15625 C 21.132812 98.15625 20.375 98.003906 19.46875 97.546875 C 19.011719 96.789062 18.859375 95.726562 18.859375 94.8125 L 18.859375 13.375 C 18.859375 10.183594 21.4375 7.601562 24.621094 7.601562 C 24.621094 7.601562 161.636719 7.753906 162.394531 8.210938 C 162.847656 8.96875 163 9.882812 163 10.945312 Z M 163 10.945312 " fill-opacity="1" fill-rule="nonzero"/><path fill="#ffffff" d="M 68.421875 26.898438 L 37.050781 26.898438 C 35.382812 26.898438 33.867188 28.265625 33.867188 29.9375 L 33.867188 72.78125 C 33.867188 74.300781 34.925781 75.515625 36.441406 75.820312 C 36.441406 75.0625 36.441406 74.453125 36.441406 73.847656 C 36.292969 69.441406 36.292969 66.855469 39.472656 64.882812 L 47.960938 59.714844 L 47.960938 57.4375 C 44.777344 55.308594 42.960938 51.664062 43.113281 47.867188 C 43.113281 41.789062 47.355469 36.773438 52.660156 36.773438 C 57.964844 36.773438 62.207031 41.789062 62.207031 47.867188 C 62.359375 51.664062 60.390625 55.308594 57.359375 57.4375 L 57.359375 59.714844 L 65.847656 64.882812 C 69.027344 66.855469 69.027344 69.441406 68.878906 73.847656 C 68.878906 74.453125 68.878906 75.214844 68.878906 75.820312 C 70.394531 75.515625 71.453125 74.300781 71.453125 72.78125 L 71.453125 29.9375 C 71.453125 28.265625 70.089844 26.898438 68.421875 26.898438 Z M 68.421875 26.898438 " fill-opacity="1" fill-rule="nonzero"/><path fill="#ffcf04" d="M 69.332031 27.808594 L 37.808594 27.808594 C 36.140625 27.808594 34.625 29.175781 34.625 30.847656 L 34.625 73.847656 C 34.625 75.367188 35.683594 76.582031 37.199219 76.886719 C 37.199219 76.125 66.753906 76.886719 69.636719 76.886719 C 71.152344 76.582031 72.210938 75.367188 72.210938 73.847656 L 72.210938 31 C 72.363281 29.175781 71 27.808594 69.332031 27.808594 Z M 69.332031 27.808594 " fill-opacity="1" fill-rule="nonzero"/><path fill="#ffffff" d="M 56.753906 61.386719 L 56.296875 61.082031 L 55.996094 60.933594 C 55.386719 61.386719 54.78125 61.691406 54.023438 61.996094 L 56.144531 64.121094 L 57.511719 61.84375 L 57.054688 61.539062 Z M 56.753906 61.386719 " fill-opacity="1" fill-rule="nonzero"/><path fill="#ffffff" d="M 49.324219 64.121094 L 51.449219 61.996094 C 50.691406 61.84375 49.933594 61.386719 49.324219 60.933594 L 48.871094 61.234375 L 48.417969 61.539062 L 48.113281 61.691406 L 47.660156 61.996094 Z M 49.324219 64.121094 " fill-opacity="1" fill-rule="nonzero"/><path fill="#ffffff" d="M 57.660156 62.90625 L 56.449219 64.730469 C 56.449219 64.882812 56.296875 64.882812 56.144531 64.882812 C 55.996094 64.882812 55.996094 64.882812 55.84375 64.730469 L 54.628906 63.667969 C 54.78125 63.96875 54.78125 64.425781 54.628906 64.882812 C 54.480469 65.335938 54.175781 65.640625 53.871094 65.792969 L 55.085938 69.742188 C 56.902344 67.769531 57.8125 65.335938 57.660156 62.90625 Z M 57.660156 62.90625 " fill-opacity="1" fill-rule="nonzero"/><path fill="#ffcf04" d="M 52.8125 71.566406 C 53.570312 71.261719 54.175781 70.808594 54.933594 70.199219 L 53.570312 65.945312 C 53.417969 65.945312 53.113281 65.945312 52.964844 65.945312 L 52.660156 65.945312 C 52.355469 65.945312 52.054688 65.945312 51.75 65.792969 L 50.539062 69.894531 C 51.144531 70.65625 51.902344 71.109375 52.8125 71.566406 Z M 52.8125 71.566406 " fill-opacity="1" fill-rule="nonzero"/><path fill="#ffffff" d="M 90.097656 72.175781 L 141.476562 72.175781 C 142.539062 72.175781 143.449219 73.085938 143.449219 74.148438 L 143.449219 75.214844 C 143.449219 76.277344 142.539062 77.1875 141.476562 77.1875 L 90.097656 77.1875 C 89.035156 77.1875 88.125 76.277344 88.125 75.214844 L 88.125 74.148438 C 88.125 73.085938 89.035156 72.175781 90.097656 72.175781 Z M 90.097656 72.175781 " fill-opacity="1" fill-rule="nonzero"/><path fill="#ffffff" d="M 49.933594 69.59375 L 51.144531 65.792969 C 50.839844 65.640625 50.691406 65.335938 50.539062 65.035156 C 50.386719 64.578125 50.386719 64.273438 50.539062 63.820312 L 49.324219 65.035156 C 49.324219 65.035156 49.175781 65.1875 49.175781 65.1875 C 49.023438 65.1875 49.023438 65.1875 48.871094 65.035156 L 47.660156 63.058594 C 47.507812 65.1875 48.417969 67.617188 49.933594 69.59375 Z M 49.933594 69.59375 " fill-opacity="1" fill-rule="nonzero"/><path fill="#ffffff" d="M 44.777344 47.867188 C 44.777344 53.03125 48.265625 57.132812 52.660156 57.132812 C 57.054688 57.132812 60.238281 53.183594 60.542969 48.320312 C 59.785156 48.472656 59.027344 48.472656 58.269531 48.472656 C 54.78125 48.320312 51.449219 46.953125 48.871094 44.371094 C 47.960938 45.890625 46.445312 46.953125 44.777344 47.5625 C 44.777344 47.714844 44.777344 47.714844 44.777344 47.867188 Z M 44.777344 47.867188 " fill-opacity="1" fill-rule="nonzero"/><path fill="#84c99a" d="M 64.9375 66.402344 L 58.269531 62.300781 C 58.875 66.402344 56.601562 70.503906 52.964844 72.328125 L 52.8125 72.328125 C 52.8125 72.328125 52.660156 72.328125 52.660156 72.328125 C 48.871094 70.503906 46.75 66.554688 47.050781 62.449219 C 45.082031 63.667969 42.203125 65.488281 40.535156 66.554688 C 38.109375 68.074219 38.109375 69.894531 38.261719 74.148438 C 38.261719 74.757812 38.261719 75.515625 38.261719 76.277344 L 67.210938 76.277344 C 67.210938 75.515625 67.210938 74.757812 67.210938 74.148438 C 67.363281 69.742188 67.363281 67.921875 64.9375 66.402344 Z M 64.9375 66.402344 " fill-opacity="1" fill-rule="nonzero"/><path fill="#f8a01d" d="M 48.566406 43.609375 C 48.566406 43.460938 48.71875 43.460938 48.871094 43.460938 C 49.023438 43.460938 49.023438 43.460938 49.175781 43.609375 C 49.175781 43.609375 53.871094 48.929688 60.542969 47.5625 C 60.390625 42.546875 56.902344 38.445312 52.660156 38.445312 C 48.417969 38.445312 45.234375 42.089844 44.777344 46.953125 C 46.445312 46.347656 47.808594 45.128906 48.566406 43.609375 Z M 48.566406 43.609375 " fill-opacity="1" fill-rule="nonzero"/><path fill="#ffcf04" d="M 51.144531 64.730469 C 51.296875 65.1875 51.597656 65.488281 52.660156 65.488281 L 52.964844 65.488281 C 54.023438 65.488281 54.175781 65.1875 54.480469 64.730469 C 54.480469 63.96875 54.328125 63.363281 53.871094 62.753906 L 53.265625 62.148438 L 52.355469 62.148438 L 51.902344 62.601562 C 51.449219 63.210938 51.144531 63.96875 51.144531 64.730469 Z M 51.144531 64.730469 " fill-opacity="1" fill-rule="nonzero"/><path fill="#ffffff" d="M 52.660156 61.386719 C 53.722656 61.386719 54.78125 61.082031 55.539062 60.324219 C 55.539062 60.171875 55.539062 60.019531 55.539062 59.867188 C 55.539062 59.867188 55.539062 58.957031 55.539062 58.195312 C 53.722656 58.957031 51.597656 58.957031 49.628906 58.195312 C 49.628906 58.957031 49.628906 59.867188 49.628906 59.867188 C 49.628906 60.019531 49.628906 60.171875 49.628906 60.324219 C 50.539062 61.082031 51.597656 61.386719 52.660156 61.386719 Z M 52.660156 61.386719 " fill-opacity="1" fill-rule="nonzero"/><path fill="#ffffff" d="M 90.097656 25.683594 L 141.476562 25.683594 C 142.539062 25.683594 143.449219 26.59375 143.449219 27.65625 L 143.449219 28.722656 C 143.449219 29.785156 142.539062 30.695312 141.476562 30.695312 L 90.097656 30.695312 C 89.035156 30.695312 88.125 29.785156 88.125 28.722656 L 88.125 27.65625 C 88.125 26.59375 89.035156 25.683594 90.097656 25.683594 Z M 90.097656 25.683594 " fill-opacity="1" fill-rule="nonzero"/><path fill="#ffffff" d="M 90.097656 48.929688 L 141.476562 48.929688 C 142.539062 48.929688 143.449219 49.839844 143.449219 50.902344 L 143.449219 51.96875 C 143.449219 53.03125 142.539062 53.941406 141.476562 53.941406 L 90.097656 53.941406 C 89.035156 53.941406 88.125 53.03125 88.125 51.96875 L 88.125 50.902344 C 88.125 49.839844 89.035156 48.929688 90.097656 48.929688 Z M 90.097656 48.929688 " fill-opacity="1" fill-rule="nonzero"/><path fill="#ffffff" d="M 90.097656 37.382812 L 141.476562 37.382812 C 142.539062 37.382812 143.449219 38.292969 143.449219 39.355469 L 143.449219 40.421875 C 143.449219 41.484375 142.539062 42.394531 141.476562 42.394531 L 90.097656 42.394531 C 89.035156 42.394531 88.125 41.484375 88.125 40.421875 L 88.125 39.355469 C 88.125 38.140625 89.035156 37.382812 90.097656 37.382812 Z M 90.097656 37.382812 " fill-opacity="1" fill-rule="nonzero"/><path fill="#ffffff" d="M 90.097656 60.628906 L 141.476562 60.628906 C 142.539062 60.628906 143.449219 61.539062 143.449219 62.601562 L 143.449219 63.667969 C 143.449219 64.730469 142.539062 65.640625 141.476562 65.640625 L 90.097656 65.640625 C 89.035156 65.640625 88.125 64.730469 88.125 63.667969 L 88.125 62.601562 C 88.125 61.386719 89.035156 60.628906 90.097656 60.628906 Z M 90.097656 60.628906 " fill-opacity="1" fill-rule="nonzero"/><path fill="#84c99a" d="M 141.476562 24.011719 L 90.097656 24.011719 C 88.125 24.011719 86.460938 25.683594 86.460938 27.65625 L 86.460938 28.722656 C 86.460938 30.695312 87.976562 32.367188 89.945312 32.367188 L 141.324219 32.367188 C 143.296875 32.367188 144.964844 30.695312 144.964844 28.722656 L 144.964844 27.65625 C 144.964844 25.683594 143.449219 24.011719 141.476562 24.011719 Z M 143.296875 28.570312 C 143.296875 29.632812 142.386719 30.542969 141.324219 30.542969 L 90.097656 30.542969 C 89.035156 30.542969 88.125 29.632812 88.125 28.570312 L 88.125 27.507812 C 88.125 26.441406 89.035156 25.53125 90.097656 25.53125 L 141.476562 25.53125 C 142.539062 25.53125 143.449219 26.441406 143.449219 27.507812 L 143.449219 28.570312 Z M 143.296875 28.570312 " fill-opacity="1" fill-rule="nonzero"/><path fill="#84c99a" d="M 141.476562 35.710938 L 90.097656 35.710938 C 88.125 35.710938 86.460938 37.382812 86.460938 39.355469 L 86.460938 40.421875 C 86.460938 42.394531 87.976562 44.066406 89.945312 44.066406 L 141.324219 44.066406 C 143.296875 44.066406 144.964844 42.394531 144.964844 40.421875 L 144.964844 39.355469 C 144.964844 37.230469 143.449219 35.710938 141.476562 35.710938 Z M 143.296875 40.269531 C 143.296875 41.332031 142.386719 42.242188 141.324219 42.242188 L 90.097656 42.242188 C 89.035156 42.242188 88.125 41.332031 88.125 40.269531 L 88.125 39.203125 C 88.125 38.140625 89.035156 37.382812 90.097656 37.382812 L 141.476562 37.382812 C 142.539062 37.382812 143.449219 38.292969 143.449219 39.355469 L 143.449219 40.269531 Z M 143.296875 40.269531 " fill-opacity="1" fill-rule="nonzero"/><path fill="#84c99a" d="M 141.476562 47.257812 L 90.097656 47.257812 C 88.125 47.257812 86.460938 48.777344 86.460938 50.753906 L 86.460938 51.816406 C 86.460938 53.789062 87.976562 55.460938 89.945312 55.460938 L 141.324219 55.460938 C 143.296875 55.460938 144.964844 53.789062 144.964844 51.816406 L 144.964844 50.753906 C 144.964844 48.929688 143.449219 47.257812 141.476562 47.257812 Z M 143.296875 51.816406 C 143.296875 52.878906 142.386719 53.789062 141.324219 53.789062 L 90.097656 53.789062 C 89.035156 53.789062 88.125 52.878906 88.125 51.816406 L 88.125 50.753906 C 88.125 49.6875 89.035156 48.777344 90.097656 48.777344 L 141.476562 48.777344 C 142.539062 48.777344 143.449219 49.6875 143.449219 50.753906 L 143.449219 51.816406 Z M 143.296875 51.816406 " fill-opacity="1" fill-rule="nonzero"/><path fill="#84c99a" d="M 141.476562 58.957031 L 90.097656 58.957031 C 88.125 58.957031 86.460938 60.628906 86.460938 62.601562 L 86.460938 63.667969 C 86.460938 65.640625 87.976562 67.3125 89.945312 67.3125 L 141.324219 67.3125 C 143.296875 67.3125 144.964844 65.640625 144.964844 63.667969 L 144.964844 62.601562 C 144.964844 60.476562 143.449219 58.957031 141.476562 58.957031 Z M 143.296875 63.515625 C 143.296875 64.578125 142.386719 65.488281 141.324219 65.488281 L 90.097656 65.488281 C 89.035156 65.488281 88.125 64.578125 88.125 63.515625 L 88.125 62.449219 C 88.125 61.386719 89.035156 60.476562 90.097656 60.476562 L 141.476562 60.476562 C 142.539062 60.476562 143.449219 61.386719 143.449219 62.449219 L 143.449219 63.515625 Z M 143.296875 63.515625 " fill-opacity="1" fill-rule="nonzero"/><path fill="#84c99a" d="M 141.476562 70.503906 L 90.097656 70.503906 C 88.125 70.503906 86.460938 72.175781 86.460938 74.148438 L 86.460938 75.214844 C 86.460938 77.1875 87.976562 78.859375 89.945312 78.859375 L 141.324219 78.859375 C 143.296875 78.859375 144.964844 77.1875 144.964844 75.214844 L 144.964844 74.148438 C 144.964844 72.175781 143.449219 70.503906 141.476562 70.503906 Z M 143.296875 75.0625 C 143.296875 76.125 142.386719 77.035156 141.324219 77.035156 L 90.097656 77.035156 C 89.035156 77.035156 88.125 76.125 88.125 75.0625 L 88.125 73.996094 C 88.125 72.933594 89.035156 72.023438 90.097656 72.023438 L 141.476562 72.023438 C 142.539062 72.023438 143.449219 72.933594 143.449219 73.996094 L 143.449219 75.0625 Z M 143.296875 75.0625 " fill-opacity="1" fill-rule="nonzero"/><path fill="#84c99a" d="M 163 34.34375 L 163 93.902344 C 163 96.179688 161.179688 98.15625 158.90625 98.15625 L 36.292969 98.15625 C 36.140625 97.699219 157.238281 96.484375 157.238281 96.484375 C 159.515625 96.484375 161.484375 94.660156 161.484375 92.230469 C 161.484375 92.230469 162.695312 29.328125 163.152344 29.480469 Z M 163 34.34375 " fill-opacity="1" fill-rule="nonzero"/><path fill="#84c99a" d="M 22.042969 107.878906 L 157.390625 107.878906 C 160.574219 107.878906 163.152344 105.296875 163.152344 102.105469 L 163.152344 98.460938 C 161.636719 99.980469 159.515625 100.738281 157.390625 100.738281 L 22.042969 100.738281 C 19.921875 100.738281 17.800781 99.980469 16.285156 98.460938 L 16.285156 102.105469 C 16.285156 105.296875 18.859375 107.878906 22.042969 107.878906 Z M 22.042969 107.878906 " fill-opacity="1" fill-rule="nonzero"/><g clip-path="url(#51072a186c)"><path fill="#005c30" d="M 165.726562 84.027344 L 165.726562 98.15625 C 165.726562 102.867188 161.9375 106.664062 157.238281 106.664062 L 22.042969 106.664062 C 17.34375 106.664062 13.554688 102.867188 13.554688 98.15625 L 13.554688 83.570312 L 14.464844 83.570312 L 14.464844 97.09375 C 14.464844 101.800781 18.101562 105.449219 22.800781 105.601562 L 156.480469 105.601562 C 161.179688 105.601562 164.820312 101.800781 164.820312 97.09375 L 164.820312 84.027344 Z M 165.726562 84.027344 " fill-opacity="1" fill-rule="nonzero"/></g><g clip-path="url(#3b9e7a8a98)"><path fill="#005c30" d="M 165.726562 81.140625 L 165.726562 95.269531 C 165.726562 99.980469 161.9375 103.777344 157.238281 103.777344 L 22.042969 103.777344 C 17.34375 103.777344 13.554688 99.980469 13.554688 95.269531 L 13.554688 80.683594 L 14.464844 80.683594 L 14.464844 94.207031 C 14.3125 98.914062 18.101562 102.714844 22.648438 102.714844 L 156.332031 102.714844 C 161.03125 102.714844 164.667969 98.914062 164.667969 94.207031 L 164.667969 81.140625 Z M 165.726562 81.140625 " fill-opacity="1" fill-rule="nonzero"/></g><g clip-path="url(#d9963c9905)"><path fill="#005c30" d="M 157.238281 2.4375 L 22.042969 2.4375 C 17.34375 2.4375 13.554688 6.234375 13.554688 10.945312 L 13.554688 92.382812 C 13.554688 97.09375 17.34375 100.890625 22.042969 100.890625 L 157.390625 100.890625 C 162.089844 100.890625 165.878906 97.09375 165.878906 92.382812 L 165.878906 10.945312 C 165.726562 6.234375 161.9375 2.4375 157.238281 2.4375 Z M 163 92.382812 C 163 95.574219 160.421875 98.15625 157.238281 98.15625 L 22.042969 98.15625 C 18.859375 98.15625 16.285156 95.574219 16.285156 92.382812 L 16.285156 10.945312 C 16.285156 7.753906 18.859375 5.171875 22.042969 5.171875 L 157.390625 5.171875 C 160.574219 5.171875 163.152344 7.753906 163.152344 10.945312 L 163.152344 92.382812 Z M 163 92.382812 " fill-opacity="1" fill-rule="nonzero"/></g><g clip-path="url(#77a9f8dbaf)"><path fill="#005c30" d="M 163 87.976562 L 163 102.105469 C 163 105.296875 160.421875 107.878906 157.238281 107.878906 L 22.042969 107.878906 C 18.859375 107.878906 16.285156 105.296875 16.285156 102.105469 L 16.285156 87.519531 L 13.554688 87.519531 L 13.554688 102.105469 C 13.554688 106.816406 17.34375 110.613281 22.042969 110.613281 L 157.390625 110.613281 C 162.089844 110.613281 165.878906 106.816406 165.878906 102.105469 L 165.878906 87.976562 Z M 163 87.976562 " fill-opacity="1" fill-rule="nonzero"/></g><path fill="#005c30" d="M 68.421875 24.164062 L 37.050781 24.164062 C 33.867188 24.164062 31.289062 26.746094 31.289062 29.9375 L 31.289062 72.78125 C 31.289062 75.972656 33.867188 78.554688 37.050781 78.554688 L 68.421875 78.554688 C 71.605469 78.554688 74.183594 75.972656 74.183594 72.78125 L 74.183594 29.9375 C 74.183594 26.746094 71.605469 24.164062 68.421875 24.164062 Z M 67.210938 73.847656 C 67.210938 74.453125 67.210938 75.214844 67.210938 75.972656 L 38.261719 75.972656 C 38.261719 75.214844 38.261719 74.453125 38.261719 73.847656 C 38.109375 69.742188 38.109375 67.769531 40.535156 66.25 C 42.203125 65.1875 45.082031 63.515625 47.050781 62.148438 C 46.597656 66.402344 48.871094 70.351562 52.660156 72.328125 C 52.660156 72.328125 52.8125 72.328125 52.8125 72.328125 L 52.964844 72.328125 C 56.753906 70.503906 58.875 66.554688 58.417969 62.449219 L 65.089844 66.554688 C 67.363281 67.921875 67.363281 69.742188 67.210938 73.847656 Z M 44.929688 47.5625 C 46.597656 46.953125 48.113281 45.890625 49.023438 44.371094 C 51.449219 46.953125 54.78125 48.320312 58.417969 48.472656 C 59.175781 48.472656 59.933594 48.472656 60.691406 48.320312 C 60.542969 53.183594 57.054688 57.132812 52.8125 57.132812 C 48.566406 57.132812 44.929688 52.878906 44.929688 47.867188 C 44.777344 47.714844 44.777344 47.714844 44.929688 47.5625 Z M 44.929688 46.953125 C 45.386719 42.242188 48.71875 38.445312 52.8125 38.445312 C 56.902344 38.445312 60.542969 42.546875 60.691406 47.5625 C 54.023438 48.929688 49.324219 43.609375 49.324219 43.609375 C 49.324219 43.460938 49.175781 43.460938 49.023438 43.460938 C 48.871094 43.460938 48.871094 43.460938 48.71875 43.609375 C 47.808594 45.128906 46.445312 46.347656 44.929688 46.953125 Z M 49.78125 58.347656 C 51.597656 59.109375 53.722656 59.109375 55.691406 58.347656 C 55.691406 59.109375 55.691406 60.019531 55.691406 60.019531 C 55.691406 60.171875 55.691406 60.324219 55.691406 60.476562 C 54.023438 61.84375 51.449219 61.84375 49.78125 60.476562 C 49.78125 60.324219 49.78125 60.171875 49.78125 60.019531 C 49.78125 59.867188 49.78125 59.109375 49.78125 58.347656 Z M 52.207031 62.148438 L 53.113281 62.148438 L 53.722656 62.753906 C 54.175781 63.363281 54.328125 64.121094 54.328125 64.882812 C 54.175781 65.335938 53.871094 65.640625 52.8125 65.640625 L 52.507812 65.640625 C 51.449219 65.640625 51.296875 65.335938 50.992188 64.882812 C 50.992188 64.121094 51.144531 63.515625 51.597656 62.90625 Z M 51.75 65.945312 C 52.054688 65.945312 52.355469 66.097656 52.660156 66.097656 L 52.964844 66.097656 C 53.113281 66.097656 53.417969 66.097656 53.570312 66.097656 L 54.933594 70.351562 C 54.328125 70.960938 53.570312 71.414062 52.8125 71.71875 C 52.054688 71.261719 51.144531 70.808594 50.539062 70.199219 Z M 54.175781 65.792969 C 54.480469 65.640625 54.78125 65.335938 54.933594 64.882812 C 55.085938 64.578125 55.085938 64.121094 54.933594 63.667969 L 56.144531 64.730469 C 56.144531 64.730469 56.296875 64.882812 56.449219 64.882812 C 56.601562 64.882812 56.601562 64.730469 56.753906 64.730469 L 57.964844 62.90625 C 58.117188 65.335938 57.207031 67.921875 55.539062 69.742188 Z M 56.144531 64.121094 L 54.023438 61.996094 C 54.78125 61.84375 55.386719 61.386719 55.996094 60.933594 L 56.449219 61.234375 L 56.902344 61.539062 L 57.207031 61.691406 L 57.660156 61.996094 Z M 48.566406 61.386719 L 49.023438 61.082031 L 49.476562 60.78125 C 50.082031 61.234375 50.839844 61.539062 51.597656 61.84375 L 49.476562 63.96875 L 48.113281 61.691406 Z M 48.871094 64.730469 C 48.871094 64.882812 49.023438 64.882812 49.175781 64.882812 C 49.324219 64.882812 49.324219 64.882812 49.324219 64.730469 L 50.539062 63.515625 C 50.386719 63.96875 50.386719 64.273438 50.539062 64.730469 C 50.691406 65.035156 50.839844 65.335938 51.144531 65.488281 L 49.933594 69.59375 C 48.417969 67.769531 47.507812 65.335938 47.660156 62.753906 Z M 71.453125 72.78125 C 71.453125 74.300781 70.394531 75.515625 68.878906 75.820312 C 68.878906 75.0625 68.878906 74.453125 68.878906 73.847656 C 69.027344 69.441406 69.027344 66.855469 65.847656 64.882812 L 57.359375 59.714844 L 57.359375 57.4375 C 60.542969 55.308594 62.359375 51.664062 62.207031 47.867188 C 62.207031 41.789062 57.964844 36.773438 52.660156 36.773438 C 47.355469 36.773438 43.113281 41.789062 43.113281 47.867188 C 42.960938 51.664062 44.777344 55.308594 47.960938 57.4375 L 47.960938 59.714844 L 39.472656 64.882812 C 36.292969 66.855469 36.292969 69.441406 36.441406 73.847656 C 36.441406 74.453125 36.441406 75.214844 36.441406 75.820312 C 34.925781 75.515625 33.867188 74.300781 33.867188 72.78125 L 33.867188 29.9375 C 33.867188 28.265625 35.230469 26.898438 37.050781 26.898438 L 68.421875 26.898438 C 70.089844 26.898438 71.453125 28.265625 71.453125 29.9375 Z M 71.453125 72.78125 " fill-opacity="1" fill-rule="nonzero"/><g fill="#ffffff" fill-opacity="1"><g transform="translate(330.429335, 65.14614)"><g><path d="M 4.421875 0 L 1.75 0 L 1.75 -13.5 L 4.421875 -13.5 Z M 4.421875 0 "/></g></g></g><g fill="#ffffff" fill-opacity="1"><g transform="translate(336.616379, 65.14614)"><g><path d="M 4.34375 0 L 1.75 0 L 1.75 -13.5 L 4.8125 -13.5 L 10.234375 -4.796875 L 10.46875 -4.84375 L 10.46875 -13.5 L 13.03125 -13.5 L 13.03125 0 L 10.296875 0 L 4.5625 -9.28125 L 4.34375 -9.25 Z M 4.34375 0 "/></g></g></g><g fill="#ffffff" fill-opacity="1"><g transform="translate(351.419118, 65.14614)"><g><path d="M 6.609375 -13.5 C 8.796875 -13.5 10.46875 -12.929688 11.625 -11.796875 C 12.78125 -10.660156 13.359375 -8.976562 13.359375 -6.75 C 13.359375 -4.519531 12.78125 -2.835938 11.625 -1.703125 C 10.46875 -0.566406 8.796875 0 6.609375 0 L 1.75 0 L 1.75 -13.5 Z M 6.453125 -2.25 C 7.847656 -2.25 8.890625 -2.601562 9.578125 -3.3125 C 10.265625 -4.019531 10.609375 -5.164062 10.609375 -6.75 C 10.609375 -8.332031 10.265625 -9.476562 9.578125 -10.1875 C 8.890625 -10.894531 7.847656 -11.25 6.453125 -11.25 L 4.421875 -11.25 L 4.421875 -2.25 Z M 6.453125 -2.25 "/></g></g></g><g fill="#ffffff" fill-opacity="1"><g transform="translate(365.852481, 65.14614)"><g><path d="M 4.421875 0 L 1.75 0 L 1.75 -13.5 L 4.421875 -13.5 Z M 4.421875 0 "/></g></g></g><g fill="#ffffff" fill-opacity="1"><g transform="translate(372.039525, 65.14614)"><g><path d="M 8.015625 0 L 4.796875 0 L 0.234375 -13.5 L 3.078125 -13.5 L 6.34375 -3.4375 L 6.578125 -3.4375 L 9.8125 -13.5 L 12.578125 -13.5 Z M 8.015625 0 "/></g></g></g><g fill="#ffffff" fill-opacity="1"><g transform="translate(384.856864, 65.14614)"><g><path d="M 4.421875 0 L 1.75 0 L 1.75 -13.5 L 4.421875 -13.5 Z M 4.421875 0 "/></g></g></g><g fill="#ffffff" fill-opacity="1"><g transform="translate(391.043908, 65.14614)"><g><path d="M 6.609375 -13.5 C 8.796875 -13.5 10.46875 -12.929688 11.625 -11.796875 C 12.78125 -10.660156 13.359375 -8.976562 13.359375 -6.75 C 13.359375 -4.519531 12.78125 -2.835938 11.625 -1.703125 C 10.46875 -0.566406 8.796875 0 6.609375 0 L 1.75 0 L 1.75 -13.5 Z M 6.453125 -2.25 C 7.847656 -2.25 8.890625 -2.601562 9.578125 -3.3125 C 10.265625 -4.019531 10.609375 -5.164062 10.609375 -6.75 C 10.609375 -8.332031 10.265625 -9.476562 9.578125 -10.1875 C 8.890625 -10.894531 7.847656 -11.25 6.453125 -11.25 L 4.421875 -11.25 L 4.421875 -2.25 Z M 6.453125 -2.25 "/></g></g></g><g fill="#ffffff" fill-opacity="1"><g transform="translate(405.477272, 65.14614)"><g><path d="M 7.15625 0.1875 C 5.289062 0.1875 3.910156 -0.25 3.015625 -1.125 C 2.117188 -2.007812 1.671875 -3.320312 1.671875 -5.0625 L 1.671875 -13.5 L 4.28125 -13.5 L 4.28125 -5.078125 C 4.28125 -4.085938 4.515625 -3.347656 4.984375 -2.859375 C 5.460938 -2.367188 6.1875 -2.125 7.15625 -2.125 C 9.070312 -2.125 10.03125 -3.109375 10.03125 -5.078125 L 10.03125 -13.5 L 12.640625 -13.5 L 12.640625 -5.0625 C 12.640625 -3.320312 12.1875 -2.007812 11.28125 -1.125 C 10.382812 -0.25 9.007812 0.1875 7.15625 0.1875 Z M 7.15625 0.1875 "/></g></g></g><g fill="#ffffff" fill-opacity="1"><g transform="translate(419.790582, 65.14614)"><g><path d="M 12.953125 0 L 10.140625 0 L 9.125 -3.109375 L 3.953125 -3.109375 L 2.9375 0 L 0.203125 0 L 4.859375 -13.5 L 8.296875 -13.5 Z M 6.421875 -10.6875 L 4.6875 -5.359375 L 8.390625 -5.359375 L 6.640625 -10.6875 Z M 6.421875 -10.6875 "/></g></g></g><g fill="#ffffff" fill-opacity="1"><g transform="translate(432.9496, 65.14614)"><g><path d="M 4.421875 -13.5 L 4.421875 -2.234375 L 10.484375 -2.234375 L 10.484375 0 L 1.75 0 L 1.75 -13.5 Z M 4.421875 -13.5 "/></g></g></g><g fill="#ffffff" fill-opacity="1"><g transform="translate(443.883122, 65.14614)"><g/></g></g><g fill="#ffffff" fill-opacity="1"><g transform="translate(448.34334, 65.14614)"><g><path d="M 5.984375 0.1875 C 5.046875 0.1875 4.210938 0.0703125 3.484375 -0.15625 C 2.753906 -0.382812 2.144531 -0.6875 1.65625 -1.0625 C 1.175781 -1.4375 0.804688 -1.847656 0.546875 -2.296875 L 2.015625 -4.09375 L 2.25 -4.09375 C 2.65625 -3.488281 3.171875 -3.003906 3.796875 -2.640625 C 4.421875 -2.285156 5.148438 -2.109375 5.984375 -2.109375 C 6.691406 -2.109375 7.226562 -2.257812 7.59375 -2.5625 C 7.957031 -2.863281 8.140625 -3.28125 8.140625 -3.8125 C 8.140625 -4.132812 8.082031 -4.398438 7.96875 -4.609375 C 7.851562 -4.828125 7.660156 -5.015625 7.390625 -5.171875 C 7.117188 -5.328125 6.75 -5.457031 6.28125 -5.5625 L 4.546875 -5.96875 C 3.335938 -6.238281 2.4375 -6.695312 1.84375 -7.34375 C 1.25 -7.988281 0.953125 -8.820312 0.953125 -9.84375 C 0.953125 -10.613281 1.140625 -11.285156 1.515625 -11.859375 C 1.898438 -12.441406 2.457031 -12.890625 3.1875 -13.203125 C 3.914062 -13.523438 4.789062 -13.6875 5.8125 -13.6875 C 6.84375 -13.6875 7.726562 -13.550781 8.46875 -13.28125 C 9.21875 -13.007812 9.847656 -12.585938 10.359375 -12.015625 L 9.03125 -10.203125 L 8.8125 -10.203125 C 8.425781 -10.609375 7.984375 -10.910156 7.484375 -11.109375 C 6.992188 -11.304688 6.4375 -11.40625 5.8125 -11.40625 C 5.070312 -11.40625 4.507812 -11.273438 4.125 -11.015625 C 3.75 -10.765625 3.5625 -10.410156 3.5625 -9.953125 C 3.5625 -9.523438 3.691406 -9.1875 3.953125 -8.9375 C 4.222656 -8.6875 4.691406 -8.488281 5.359375 -8.34375 L 7.125 -7.96875 C 8.4375 -7.695312 9.382812 -7.226562 9.96875 -6.5625 C 10.5625 -5.90625 10.859375 -5.046875 10.859375 -3.984375 C 10.859375 -3.140625 10.675781 -2.40625 10.3125 -1.78125 C 9.957031 -1.15625 9.410156 -0.671875 8.671875 -0.328125 C 7.941406 0.015625 7.046875 0.1875 5.984375 0.1875 Z M 5.984375 0.1875 "/></g></g></g><g fill="#ffffff" fill-opacity="1"><g transform="translate(459.941739, 65.14614)"><g><path d="M 4.421875 -5.921875 L 4.421875 -2.234375 L 10.859375 -2.234375 L 10.859375 0 L 1.75 0 L 1.75 -13.5 L 10.71875 -13.5 L 10.71875 -11.265625 L 4.421875 -11.265625 L 4.421875 -8.109375 L 9.921875 -8.109375 L 9.921875 -5.921875 Z M 4.421875 -5.921875 "/></g></g></g><g fill="#ffffff" fill-opacity="1"><g transform="translate(471.549378, 65.14614)"><g><path d="M 1.75 0 L 1.75 -13.5 L 7.171875 -13.5 C 8.566406 -13.5 9.617188 -13.175781 10.328125 -12.53125 C 11.046875 -11.882812 11.40625 -11 11.40625 -9.875 C 11.40625 -9.050781 11.195312 -8.378906 10.78125 -7.859375 C 10.363281 -7.335938 9.742188 -6.9375 8.921875 -6.65625 L 8.921875 -6.46875 C 9.335938 -6.28125 9.675781 -6.003906 9.9375 -5.640625 C 10.207031 -5.273438 10.457031 -4.738281 10.6875 -4.03125 L 12.03125 0 L 9.296875 0 L 7.96875 -4.03125 C 7.832031 -4.4375 7.679688 -4.75 7.515625 -4.96875 C 7.347656 -5.195312 7.132812 -5.363281 6.875 -5.46875 C 6.613281 -5.570312 6.273438 -5.625 5.859375 -5.625 L 4.421875 -5.625 L 4.421875 0 Z M 6.84375 -7.734375 C 8.132812 -7.734375 8.78125 -8.335938 8.78125 -9.546875 C 8.78125 -10.765625 8.132812 -11.375 6.84375 -11.375 L 4.421875 -11.375 L 4.421875 -7.734375 Z M 6.84375 -7.734375 "/></g></g></g><g fill="#ffffff" fill-opacity="1"><g transform="translate(484.1728, 65.14614)"><g><path d="M 8.015625 0 L 4.796875 0 L 0.234375 -13.5 L 3.078125 -13.5 L 6.34375 -3.4375 L 6.578125 -3.4375 L 9.8125 -13.5 L 12.578125 -13.5 Z M 8.015625 0 "/></g></g></g><g fill="#ffffff" fill-opacity="1"><g transform="translate(496.990139, 65.14614)"><g><path d="M 4.421875 0 L 1.75 0 L 1.75 -13.5 L 4.421875 -13.5 Z M 4.421875 0 "/></g></g></g><g fill="#ffffff" fill-opacity="1"><g transform="translate(503.177183, 65.14614)"><g><path d="M 7.375 0.1875 C 6.132812 0.1875 5.039062 -0.0664062 4.09375 -0.578125 C 3.144531 -1.097656 2.398438 -1.875 1.859375 -2.90625 C 1.328125 -3.945312 1.0625 -5.226562 1.0625 -6.75 C 1.0625 -8.269531 1.328125 -9.546875 1.859375 -10.578125 C 2.398438 -11.617188 3.144531 -12.394531 4.09375 -12.90625 C 5.039062 -13.425781 6.132812 -13.6875 7.375 -13.6875 C 8.675781 -13.6875 9.78125 -13.429688 10.6875 -12.921875 C 11.59375 -12.421875 12.238281 -11.648438 12.625 -10.609375 L 10.6875 -9.421875 L 10.453125 -9.421875 C 10.160156 -10.128906 9.765625 -10.632812 9.265625 -10.9375 C 8.773438 -11.238281 8.144531 -11.390625 7.375 -11.390625 C 6.257812 -11.390625 5.382812 -11.019531 4.75 -10.28125 C 4.125 -9.539062 3.8125 -8.363281 3.8125 -6.75 C 3.8125 -5.144531 4.125 -3.96875 4.75 -3.21875 C 5.382812 -2.476562 6.257812 -2.109375 7.375 -2.109375 C 9.125 -2.109375 10.195312 -2.960938 10.59375 -4.671875 L 10.828125 -4.671875 L 12.796875 -3.640625 C 12.421875 -2.359375 11.785156 -1.398438 10.890625 -0.765625 C 10.003906 -0.128906 8.832031 0.1875 7.375 0.1875 Z M 7.375 0.1875 "/></g></g></g><g fill="#ffffff" fill-opacity="1"><g transform="translate(516.419303, 65.14614)"><g><path d="M 4.421875 -5.921875 L 4.421875 -2.234375 L 10.859375 -2.234375 L 10.859375 0 L 1.75 0 L 1.75 -13.5 L 10.71875 -13.5 L 10.71875 -11.265625 L 4.421875 -11.265625 L 4.421875 -8.109375 L 9.921875 -8.109375 L 9.921875 -5.921875 Z M 4.421875 -5.921875 "/></g></g></g><g fill="#ffffff" fill-opacity="1"><g transform="translate(528.026954, 65.14614)"><g><path d="M 5.984375 0.1875 C 5.046875 0.1875 4.210938 0.0703125 3.484375 -0.15625 C 2.753906 -0.382812 2.144531 -0.6875 1.65625 -1.0625 C 1.175781 -1.4375 0.804688 -1.847656 0.546875 -2.296875 L 2.015625 -4.09375 L 2.25 -4.09375 C 2.65625 -3.488281 3.171875 -3.003906 3.796875 -2.640625 C 4.421875 -2.285156 5.148438 -2.109375 5.984375 -2.109375 C 6.691406 -2.109375 7.226562 -2.257812 7.59375 -2.5625 C 7.957031 -2.863281 8.140625 -3.28125 8.140625 -3.8125 C 8.140625 -4.132812 8.082031 -4.398438 7.96875 -4.609375 C 7.851562 -4.828125 7.660156 -5.015625 7.390625 -5.171875 C 7.117188 -5.328125 6.75 -5.457031 6.28125 -5.5625 L 4.546875 -5.96875 C 3.335938 -6.238281 2.4375 -6.695312 1.84375 -7.34375 C 1.25 -7.988281 0.953125 -8.820312 0.953125 -9.84375 C 0.953125 -10.613281 1.140625 -11.285156 1.515625 -11.859375 C 1.898438 -12.441406 2.457031 -12.890625 3.1875 -13.203125 C 3.914062 -13.523438 4.789062 -13.6875 5.8125 -13.6875 C 6.84375 -13.6875 7.726562 -13.550781 8.46875 -13.28125 C 9.21875 -13.007812 9.847656 -12.585938 10.359375 -12.015625 L 9.03125 -10.203125 L 8.8125 -10.203125 C 8.425781 -10.609375 7.984375 -10.910156 7.484375 -11.109375 C 6.992188 -11.304688 6.4375 -11.40625 5.8125 -11.40625 C 5.070312 -11.40625 4.507812 -11.273438 4.125 -11.015625 C 3.75 -10.765625 3.5625 -10.410156 3.5625 -9.953125 C 3.5625 -9.523438 3.691406 -9.1875 3.953125 -8.9375 C 4.222656 -8.6875 4.691406 -8.488281 5.359375 -8.34375 L 7.125 -7.96875 C 8.4375 -7.695312 9.382812 -7.226562 9.96875 -6.5625 C 10.5625 -5.90625 10.859375 -5.046875 10.859375 -3.984375 C 10.859375 -3.140625 10.675781 -2.40625 10.3125 -1.78125 C 9.957031 -1.15625 9.410156 -0.671875 8.671875 -0.328125 C 7.941406 0.015625 7.046875 0.1875 5.984375 0.1875 Z M 5.984375 0.1875 "/></g></g></g><g fill="#ffffff" fill-opacity="1"><g transform="translate(539.625353, 65.14614)"><g/></g></g><g fill="#ffffff" fill-opacity="1"><g transform="translate(544.085571, 65.14614)"><g><path d="M 1.75 0 L 1.75 -13.5 L 7.171875 -13.5 C 8.566406 -13.5 9.617188 -13.175781 10.328125 -12.53125 C 11.046875 -11.882812 11.40625 -11 11.40625 -9.875 C 11.40625 -9.050781 11.195312 -8.378906 10.78125 -7.859375 C 10.363281 -7.335938 9.742188 -6.9375 8.921875 -6.65625 L 8.921875 -6.46875 C 9.335938 -6.28125 9.675781 -6.003906 9.9375 -5.640625 C 10.207031 -5.273438 10.457031 -4.738281 10.6875 -4.03125 L 12.03125 0 L 9.296875 0 L 7.96875 -4.03125 C 7.832031 -4.4375 7.679688 -4.75 7.515625 -4.96875 C 7.347656 -5.195312 7.132812 -5.363281 6.875 -5.46875 C 6.613281 -5.570312 6.273438 -5.625 5.859375 -5.625 L 4.421875 -5.625 L 4.421875 0 Z M 6.84375 -7.734375 C 8.132812 -7.734375 8.78125 -8.335938 8.78125 -9.546875 C 8.78125 -10.765625 8.132812 -11.375 6.84375 -11.375 L 4.421875 -11.375 L 4.421875 -7.734375 Z M 6.84375 -7.734375 "/></g></g></g><g fill="#ffffff" fill-opacity="1"><g transform="translate(556.708993, 65.14614)"><g><path d="M 4.421875 -5.921875 L 4.421875 -2.234375 L 10.859375 -2.234375 L 10.859375 0 L 1.75 0 L 1.75 -13.5 L 10.71875 -13.5 L 10.71875 -11.265625 L 4.421875 -11.265625 L 4.421875 -8.109375 L 9.921875 -8.109375 L 9.921875 -5.921875 Z M 4.421875 -5.921875 "/></g></g></g><g fill="#ffffff" fill-opacity="1"><g transform="translate(568.31662, 65.14614)"><g><path d="M 6.546875 0.1875 C 5.421875 0.1875 4.445312 -0.0664062 3.625 -0.578125 C 2.8125 -1.085938 2.179688 -1.859375 1.734375 -2.890625 C 1.285156 -3.929688 1.0625 -5.21875 1.0625 -6.75 C 1.0625 -8.289062 1.328125 -9.578125 1.859375 -10.609375 C 2.398438 -11.648438 3.144531 -12.421875 4.09375 -12.921875 C 5.039062 -13.429688 6.144531 -13.6875 7.40625 -13.6875 C 8.695312 -13.6875 9.796875 -13.445312 10.703125 -12.96875 C 11.617188 -12.488281 12.257812 -11.773438 12.625 -10.828125 L 10.6875 -9.640625 L 10.453125 -9.65625 C 10.171875 -10.257812 9.78125 -10.695312 9.28125 -10.96875 C 8.78125 -11.25 8.15625 -11.390625 7.40625 -11.390625 C 6.238281 -11.390625 5.347656 -11.019531 4.734375 -10.28125 C 4.117188 -9.550781 3.8125 -8.375 3.8125 -6.75 C 3.8125 -5.113281 4.097656 -3.925781 4.671875 -3.1875 C 5.242188 -2.457031 6.097656 -2.09375 7.234375 -2.09375 C 8.203125 -2.09375 8.914062 -2.304688 9.375 -2.734375 C 9.84375 -3.171875 10.078125 -3.828125 10.078125 -4.703125 L 10.078125 -5.28125 L 6.875 -5.28125 L 6.875 -7.453125 L 12.71875 -7.453125 L 12.71875 0 L 10.171875 0 L 10.171875 -1.8125 L 9.984375 -1.84375 C 9.703125 -1.195312 9.28125 -0.695312 8.71875 -0.34375 C 8.15625 0.0078125 7.429688 0.1875 6.546875 0.1875 Z M 6.546875 0.1875 "/></g></g></g><g fill="#ffffff" fill-opacity="1"><g transform="translate(582.399065, 65.14614)"><g><path d="M 4.421875 0 L 1.75 0 L 1.75 -13.5 L 4.421875 -13.5 Z M 4.421875 0 "/></g></g></g><g fill="#ffffff" fill-opacity="1"><g transform="translate(588.58612, 65.14614)"><g><path d="M 5.984375 0.1875 C 5.046875 0.1875 4.210938 0.0703125 3.484375 -0.15625 C 2.753906 -0.382812 2.144531 -0.6875 1.65625 -1.0625 C 1.175781 -1.4375 0.804688 -1.847656 0.546875 -2.296875 L 2.015625 -4.09375 L 2.25 -4.09375 C 2.65625 -3.488281 3.171875 -3.003906 3.796875 -2.640625 C 4.421875 -2.285156 5.148438 -2.109375 5.984375 -2.109375 C 6.691406 -2.109375 7.226562 -2.257812 7.59375 -2.5625 C 7.957031 -2.863281 8.140625 -3.28125 8.140625 -3.8125 C 8.140625 -4.132812 8.082031 -4.398438 7.96875 -4.609375 C 7.851562 -4.828125 7.660156 -5.015625 7.390625 -5.171875 C 7.117188 -5.328125 6.75 -5.457031 6.28125 -5.5625 L 4.546875 -5.96875 C 3.335938 -6.238281 2.4375 -6.695312 1.84375 -7.34375 C 1.25 -7.988281 0.953125 -8.820312 0.953125 -9.84375 C 0.953125 -10.613281 1.140625 -11.285156 1.515625 -11.859375 C 1.898438 -12.441406 2.457031 -12.890625 3.1875 -13.203125 C 3.914062 -13.523438 4.789062 -13.6875 5.8125 -13.6875 C 6.84375 -13.6875 7.726562 -13.550781 8.46875 -13.28125 C 9.21875 -13.007812 9.847656 -12.585938 10.359375 -12.015625 L 9.03125 -10.203125 L 8.8125 -10.203125 C 8.425781 -10.609375 7.984375 -10.910156 7.484375 -11.109375 C 6.992188 -11.304688 6.4375 -11.40625 5.8125 -11.40625 C 5.070312 -11.40625 4.507812 -11.273438 4.125 -11.015625 C 3.75 -10.765625 3.5625 -10.410156 3.5625 -9.953125 C 3.5625 -9.523438 3.691406 -9.1875 3.953125 -8.9375 C 4.222656 -8.6875 4.691406 -8.488281 5.359375 -8.34375 L 7.125 -7.96875 C 8.4375 -7.695312 9.382812 -7.226562 9.96875 -6.5625 C 10.5625 -5.90625 10.859375 -5.046875 10.859375 -3.984375 C 10.859375 -3.140625 10.675781 -2.40625 10.3125 -1.78125 C 9.957031 -1.15625 9.410156 -0.671875 8.671875 -0.328125 C 7.941406 0.015625 7.046875 0.1875 5.984375 0.1875 Z M 5.984375 0.1875 "/></g></g></g><g fill="#ffffff" fill-opacity="1"><g transform="translate(600.184519, 65.14614)"><g><path d="M 10.8125 -13.5 L 10.8125 -11.25 L 6.921875 -11.25 L 6.921875 0 L 4.265625 0 L 4.265625 -11.25 L 0.375 -11.25 L 0.375 -13.5 Z M 10.8125 -13.5 "/></g></g></g><g fill="#ffffff" fill-opacity="1"><g transform="translate(611.376605, 65.14614)"><g><path d="M 1.75 0 L 1.75 -13.5 L 7.171875 -13.5 C 8.566406 -13.5 9.617188 -13.175781 10.328125 -12.53125 C 11.046875 -11.882812 11.40625 -11 11.40625 -9.875 C 11.40625 -9.050781 11.195312 -8.378906 10.78125 -7.859375 C 10.363281 -7.335938 9.742188 -6.9375 8.921875 -6.65625 L 8.921875 -6.46875 C 9.335938 -6.28125 9.675781 -6.003906 9.9375 -5.640625 C 10.207031 -5.273438 10.457031 -4.738281 10.6875 -4.03125 L 12.03125 0 L 9.296875 0 L 7.96875 -4.03125 C 7.832031 -4.4375 7.679688 -4.75 7.515625 -4.96875 C 7.347656 -5.195312 7.132812 -5.363281 6.875 -5.46875 C 6.613281 -5.570312 6.273438 -5.625 5.859375 -5.625 L 4.421875 -5.625 L 4.421875 0 Z M 6.84375 -7.734375 C 8.132812 -7.734375 8.78125 -8.335938 8.78125 -9.546875 C 8.78125 -10.765625 8.132812 -11.375 6.84375 -11.375 L 4.421875 -11.375 L 4.421875 -7.734375 Z M 6.84375 -7.734375 "/></g></g></g><g fill="#ffffff" fill-opacity="1"><g transform="translate(624.000027, 65.14614)"><g><path d="M 12.953125 0 L 10.140625 0 L 9.125 -3.109375 L 3.953125 -3.109375 L 2.9375 0 L 0.203125 0 L 4.859375 -13.5 L 8.296875 -13.5 Z M 6.421875 -10.6875 L 4.6875 -5.359375 L 8.390625 -5.359375 L 6.640625 -10.6875 Z M 6.421875 -10.6875 "/></g></g></g><g fill="#ffffff" fill-opacity="1"><g transform="translate(637.159055, 65.14614)"><g><path d="M 10.8125 -13.5 L 10.8125 -11.25 L 6.921875 -11.25 L 6.921875 0 L 4.265625 0 L 4.265625 -11.25 L 0.375 -11.25 L 0.375 -13.5 Z M 10.8125 -13.5 "/></g></g></g><g fill="#ffffff" fill-opacity="1"><g transform="translate(648.351141, 65.14614)"><g><path d="M 4.421875 0 L 1.75 0 L 1.75 -13.5 L 4.421875 -13.5 Z M 4.421875 0 "/></g></g></g><g fill="#ffffff" fill-opacity="1"><g transform="translate(654.538173, 65.14614)"><g><path d="M 7.359375 0.1875 C 6.117188 0.1875 5.023438 -0.0625 4.078125 -0.5625 C 3.140625 -1.0625 2.398438 -1.832031 1.859375 -2.875 C 1.328125 -3.914062 1.0625 -5.207031 1.0625 -6.75 C 1.0625 -8.289062 1.328125 -9.578125 1.859375 -10.609375 C 2.398438 -11.648438 3.140625 -12.421875 4.078125 -12.921875 C 5.023438 -13.429688 6.117188 -13.6875 7.359375 -13.6875 C 8.597656 -13.6875 9.6875 -13.4375 10.625 -12.9375 C 11.5625 -12.4375 12.296875 -11.664062 12.828125 -10.625 C 13.367188 -9.582031 13.640625 -8.289062 13.640625 -6.75 C 13.640625 -5.207031 13.367188 -3.914062 12.828125 -2.875 C 12.296875 -1.832031 11.5625 -1.0625 10.625 -0.5625 C 9.6875 -0.0625 8.597656 0.1875 7.359375 0.1875 Z M 7.359375 -2.125 C 8.503906 -2.125 9.378906 -2.488281 9.984375 -3.21875 C 10.585938 -3.957031 10.890625 -5.132812 10.890625 -6.75 C 10.890625 -8.363281 10.585938 -9.535156 9.984375 -10.265625 C 9.378906 -11.003906 8.503906 -11.375 7.359375 -11.375 C 6.203125 -11.375 5.320312 -11.003906 4.71875 -10.265625 C 4.113281 -9.535156 3.8125 -8.363281 3.8125 -6.75 C 3.8125 -5.132812 4.113281 -3.957031 4.71875 -3.21875 C 5.320312 -2.488281 6.203125 -2.125 7.359375 -2.125 Z M 7.359375 -2.125 "/></g></g></g><g fill="#ffffff" fill-opacity="1"><g transform="translate(669.24858, 65.14614)"><g><path d="M 4.34375 0 L 1.75 0 L 1.75 -13.5 L 4.8125 -13.5 L 10.234375 -4.796875 L 10.46875 -4.84375 L 10.46875 -13.5 L 13.03125 -13.5 L 13.03125 0 L 10.296875 0 L 4.5625 -9.28125 L 4.34375 -9.25 Z M 4.34375 0 "/></g></g></g><g fill="#ffffff" fill-opacity="1"><g transform="translate(684.05132, 65.14614)"><g/></g></g><g fill="#ffffff" fill-opacity="1"><g transform="translate(688.511538, 65.14614)"><g><path d="M 10.3125 -13.5 L 10.3125 -11.265625 L 4.421875 -11.265625 L 4.421875 -7.6875 L 9.765625 -7.6875 L 9.765625 -5.484375 L 4.421875 -5.484375 L 4.421875 0 L 1.75 0 L 1.75 -13.5 Z M 10.3125 -13.5 "/></g></g></g><g fill="#ffffff" fill-opacity="1"><g transform="translate(699.426603, 65.14614)"><g><path d="M 7.359375 0.1875 C 6.117188 0.1875 5.023438 -0.0625 4.078125 -0.5625 C 3.140625 -1.0625 2.398438 -1.832031 1.859375 -2.875 C 1.328125 -3.914062 1.0625 -5.207031 1.0625 -6.75 C 1.0625 -8.289062 1.328125 -9.578125 1.859375 -10.609375 C 2.398438 -11.648438 3.140625 -12.421875 4.078125 -12.921875 C 5.023438 -13.429688 6.117188 -13.6875 7.359375 -13.6875 C 8.597656 -13.6875 9.6875 -13.4375 10.625 -12.9375 C 11.5625 -12.4375 12.296875 -11.664062 12.828125 -10.625 C 13.367188 -9.582031 13.640625 -8.289062 13.640625 -6.75 C 13.640625 -5.207031 13.367188 -3.914062 12.828125 -2.875 C 12.296875 -1.832031 11.5625 -1.0625 10.625 -0.5625 C 9.6875 -0.0625 8.597656 0.1875 7.359375 0.1875 Z M 7.359375 -2.125 C 8.503906 -2.125 9.378906 -2.488281 9.984375 -3.21875 C 10.585938 -3.957031 10.890625 -5.132812 10.890625 -6.75 C 10.890625 -8.363281 10.585938 -9.535156 9.984375 -10.265625 C 9.378906 -11.003906 8.503906 -11.375 7.359375 -11.375 C 6.203125 -11.375 5.320312 -11.003906 4.71875 -10.265625 C 4.113281 -9.535156 3.8125 -8.363281 3.8125 -6.75 C 3.8125 -5.132812 4.113281 -3.957031 4.71875 -3.21875 C 5.320312 -2.488281 6.203125 -2.125 7.359375 -2.125 Z M 7.359375 -2.125 "/></g></g></g><g fill="#ffffff" fill-opacity="1"><g transform="translate(714.137009, 65.14614)"><g><path d="M 1.75 0 L 1.75 -13.5 L 7.171875 -13.5 C 8.566406 -13.5 9.617188 -13.175781 10.328125 -12.53125 C 11.046875 -11.882812 11.40625 -11 11.40625 -9.875 C 11.40625 -9.050781 11.195312 -8.378906 10.78125 -7.859375 C 10.363281 -7.335938 9.742188 -6.9375 8.921875 -6.65625 L 8.921875 -6.46875 C 9.335938 -6.28125 9.675781 -6.003906 9.9375 -5.640625 C 10.207031 -5.273438 10.457031 -4.738281 10.6875 -4.03125 L 12.03125 0 L 9.296875 0 L 7.96875 -4.03125 C 7.832031 -4.4375 7.679688 -4.75 7.515625 -4.96875 C 7.347656 -5.195312 7.132812 -5.363281 6.875 -5.46875 C 6.613281 -5.570312 6.273438 -5.625 5.859375 -5.625 L 4.421875 -5.625 L 4.421875 0 Z M 6.84375 -7.734375 C 8.132812 -7.734375 8.78125 -8.335938 8.78125 -9.546875 C 8.78125 -10.765625 8.132812 -11.375 6.84375 -11.375 L 4.421875 -11.375 L 4.421875 -7.734375 Z M 6.84375 -7.734375 "/></g></g></g><g fill="#ffffff" fill-opacity="1"><g transform="translate(726.760455, 65.14614)"><g><path d="M 4.203125 0 L 1.75 0 L 1.75 -13.5 L 5.25 -13.5 L 8.65625 -3.578125 L 8.859375 -3.578125 L 12.25 -13.5 L 15.65625 -13.5 L 15.65625 0 L 13.125 0 L 13.125 -8.921875 L 12.890625 -8.953125 L 9.78125 0 L 7.546875 0 L 4.4375 -8.953125 L 4.203125 -8.921875 Z M 4.203125 0 "/></g></g></g></svg>