<svg xmlns="http://www.w3.org/2000/svg" xmlns:xlink="http://www.w3.org/1999/xlink" width="1024" zoomAndPan="magnify" viewBox="0 0 768 112.499997" height="150" preserveAspectRatio="xMidYMid meet" version="1.0"><defs><g/><clipPath id="ccba65331f"><path d="M 1.699219 0 L 766.300781 0 L 766.300781 112.003906 L 1.699219 112.003906 Z M 1.699219 0 " clip-rule="nonzero"/></clipPath><linearGradient x1="0" gradientTransform="matrix(0.746681, 0, 0, 0.746681, 1.699126, 0)" y1="0" x2="1023.999957" gradientUnits="userSpaceOnUse" y2="0" id="57776929fc"><stop stop-opacity="1" stop-color="rgb(5.099487%, 0%, 44.699097%)" offset="0"/><stop stop-opacity="1" stop-color="rgb(5.166626%, 0.15564%, 44.871521%)" offset="0.0078125"/><stop stop-opacity="1" stop-color="rgb(5.300903%, 0.466919%, 45.217896%)" offset="0.015625"/><stop stop-opacity="1" stop-color="rgb(5.436707%, 0.779724%, 45.56427%)" offset="0.0234375"/><stop stop-opacity="1" stop-color="rgb(5.57251%, 1.092529%, 45.910645%)" offset="0.03125"/><stop stop-opacity="1" stop-color="rgb(5.706787%, 1.405334%, 46.255493%)" offset="0.0390625"/><stop stop-opacity="1" stop-color="rgb(5.84259%, 1.716614%, 46.601868%)" offset="0.046875"/><stop stop-opacity="1" stop-color="rgb(5.976868%, 2.029419%, 46.948242%)" offset="0.0546875"/><stop stop-opacity="1" stop-color="rgb(6.112671%, 2.342224%, 47.294617%)" offset="0.0625"/><stop stop-opacity="1" stop-color="rgb(6.246948%, 2.655029%, 47.640991%)" offset="0.0703125"/><stop stop-opacity="1" stop-color="rgb(6.382751%, 2.967834%, 47.98584%)" offset="0.078125"/><stop stop-opacity="1" stop-color="rgb(6.518555%, 3.279114%, 48.332214%)" offset="0.0859375"/><stop stop-opacity="1" stop-color="rgb(6.652832%, 3.591919%, 48.678589%)" offset="0.09375"/><stop stop-opacity="1" stop-color="rgb(6.788635%, 3.904724%, 49.024963%)" offset="0.101562"/><stop stop-opacity="1" stop-color="rgb(6.922913%, 4.217529%, 49.371338%)" offset="0.109375"/><stop stop-opacity="1" stop-color="rgb(7.058716%, 4.530334%, 49.717712%)" offset="0.117188"/><stop stop-opacity="1" stop-color="rgb(7.192993%, 4.841614%, 50.062561%)" offset="0.125"/><stop stop-opacity="1" stop-color="rgb(7.328796%, 5.154419%, 50.408936%)" offset="0.132812"/><stop stop-opacity="1" stop-color="rgb(7.4646%, 5.467224%, 50.75531%)" offset="0.140625"/><stop stop-opacity="1" stop-color="rgb(7.598877%, 5.780029%, 51.101685%)" offset="0.148438"/><stop stop-opacity="1" stop-color="rgb(7.73468%, 6.092834%, 51.448059%)" offset="0.15625"/><stop stop-opacity="1" stop-color="rgb(7.868958%, 6.404114%, 51.792908%)" offset="0.164062"/><stop stop-opacity="1" stop-color="rgb(8.004761%, 6.716919%, 52.139282%)" offset="0.171875"/><stop stop-opacity="1" stop-color="rgb(8.140564%, 7.029724%, 52.485657%)" offset="0.179688"/><stop stop-opacity="1" stop-color="rgb(8.274841%, 7.342529%, 52.832031%)" offset="0.1875"/><stop stop-opacity="1" stop-color="rgb(8.410645%, 7.655334%, 53.178406%)" offset="0.195312"/><stop stop-opacity="1" stop-color="rgb(8.544922%, 7.966614%, 53.523254%)" offset="0.203125"/><stop stop-opacity="1" stop-color="rgb(8.680725%, 8.279419%, 53.869629%)" offset="0.210938"/><stop stop-opacity="1" stop-color="rgb(8.815002%, 8.592224%, 54.216003%)" offset="0.21875"/><stop stop-opacity="1" stop-color="rgb(8.950806%, 8.905029%, 54.562378%)" offset="0.226562"/><stop stop-opacity="1" stop-color="rgb(9.086609%, 9.217834%, 54.908752%)" offset="0.234375"/><stop stop-opacity="1" stop-color="rgb(9.220886%, 9.529114%, 55.255127%)" offset="0.242188"/><stop stop-opacity="1" stop-color="rgb(9.356689%, 9.841919%, 55.599976%)" offset="0.25"/><stop stop-opacity="1" stop-color="rgb(9.490967%, 10.154724%, 55.94635%)" offset="0.257812"/><stop stop-opacity="1" stop-color="rgb(9.62677%, 10.467529%, 56.292725%)" offset="0.265625"/><stop stop-opacity="1" stop-color="rgb(9.761047%, 10.780334%, 56.639099%)" offset="0.273438"/><stop stop-opacity="1" stop-color="rgb(9.896851%, 11.091614%, 56.985474%)" offset="0.28125"/><stop stop-opacity="1" stop-color="rgb(10.032654%, 11.404419%, 57.330322%)" offset="0.289062"/><stop stop-opacity="1" stop-color="rgb(10.166931%, 11.717224%, 57.676697%)" offset="0.296875"/><stop stop-opacity="1" stop-color="rgb(10.302734%, 12.030029%, 58.023071%)" offset="0.304688"/><stop stop-opacity="1" stop-color="rgb(10.437012%, 12.342834%, 58.369446%)" offset="0.3125"/><stop stop-opacity="1" stop-color="rgb(10.572815%, 12.654114%, 58.71582%)" offset="0.320312"/><stop stop-opacity="1" stop-color="rgb(10.707092%, 12.966919%, 59.062195%)" offset="0.328125"/><stop stop-opacity="1" stop-color="rgb(10.842896%, 13.279724%, 59.407043%)" offset="0.335938"/><stop stop-opacity="1" stop-color="rgb(10.978699%, 13.592529%, 59.753418%)" offset="0.34375"/><stop stop-opacity="1" stop-color="rgb(11.112976%, 13.905334%, 60.099792%)" offset="0.351562"/><stop stop-opacity="1" stop-color="rgb(11.248779%, 14.216614%, 60.446167%)" offset="0.359375"/><stop stop-opacity="1" stop-color="rgb(11.383057%, 14.529419%, 60.792542%)" offset="0.367188"/><stop stop-opacity="1" stop-color="rgb(11.51886%, 14.842224%, 61.13739%)" offset="0.375"/><stop stop-opacity="1" stop-color="rgb(11.653137%, 15.155029%, 61.483765%)" offset="0.382812"/><stop stop-opacity="1" stop-color="rgb(11.78894%, 15.467834%, 61.830139%)" offset="0.390625"/><stop stop-opacity="1" stop-color="rgb(11.924744%, 15.779114%, 62.176514%)" offset="0.398438"/><stop stop-opacity="1" stop-color="rgb(12.059021%, 16.091919%, 62.522888%)" offset="0.40625"/><stop stop-opacity="1" stop-color="rgb(12.194824%, 16.404724%, 62.869263%)" offset="0.414062"/><stop stop-opacity="1" stop-color="rgb(12.329102%, 16.717529%, 63.214111%)" offset="0.421875"/><stop stop-opacity="1" stop-color="rgb(12.464905%, 17.030334%, 63.560486%)" offset="0.429688"/><stop stop-opacity="1" stop-color="rgb(12.600708%, 17.341614%, 63.90686%)" offset="0.4375"/><stop stop-opacity="1" stop-color="rgb(12.734985%, 17.654419%, 64.253235%)" offset="0.445312"/><stop stop-opacity="1" stop-color="rgb(12.870789%, 17.967224%, 64.599609%)" offset="0.453125"/><stop stop-opacity="1" stop-color="rgb(13.005066%, 18.280029%, 64.944458%)" offset="0.460938"/><stop stop-opacity="1" stop-color="rgb(13.140869%, 18.592834%, 65.290833%)" offset="0.46875"/><stop stop-opacity="1" stop-color="rgb(13.275146%, 18.904114%, 65.637207%)" offset="0.476562"/><stop stop-opacity="1" stop-color="rgb(13.41095%, 19.216919%, 65.983582%)" offset="0.484375"/><stop stop-opacity="1" stop-color="rgb(13.546753%, 19.529724%, 66.329956%)" offset="0.492188"/><stop stop-opacity="1" stop-color="rgb(13.68103%, 19.842529%, 66.674805%)" offset="0.5"/><stop stop-opacity="1" stop-color="rgb(13.816833%, 20.155334%, 67.021179%)" offset="0.507812"/><stop stop-opacity="1" stop-color="rgb(13.951111%, 20.466614%, 67.367554%)" offset="0.515625"/><stop stop-opacity="1" stop-color="rgb(14.086914%, 20.779419%, 67.713928%)" offset="0.523438"/><stop stop-opacity="1" stop-color="rgb(14.221191%, 21.092224%, 68.060303%)" offset="0.53125"/><stop stop-opacity="1" stop-color="rgb(14.356995%, 21.405029%, 68.406677%)" offset="0.539062"/><stop stop-opacity="1" stop-color="rgb(14.492798%, 21.717834%, 68.751526%)" offset="0.546875"/><stop stop-opacity="1" stop-color="rgb(14.627075%, 22.029114%, 69.0979%)" offset="0.554688"/><stop stop-opacity="1" stop-color="rgb(14.762878%, 22.341919%, 69.444275%)" offset="0.5625"/><stop stop-opacity="1" stop-color="rgb(14.897156%, 22.654724%, 69.790649%)" offset="0.570312"/><stop stop-opacity="1" stop-color="rgb(15.032959%, 22.967529%, 70.137024%)" offset="0.578125"/><stop stop-opacity="1" stop-color="rgb(15.167236%, 23.280334%, 70.481873%)" offset="0.585938"/><stop stop-opacity="1" stop-color="rgb(15.30304%, 23.591614%, 70.828247%)" offset="0.59375"/><stop stop-opacity="1" stop-color="rgb(15.438843%, 23.904419%, 71.174622%)" offset="0.601562"/><stop stop-opacity="1" stop-color="rgb(15.57312%, 24.217224%, 71.520996%)" offset="0.609375"/><stop stop-opacity="1" stop-color="rgb(15.708923%, 24.530029%, 71.867371%)" offset="0.617188"/><stop stop-opacity="1" stop-color="rgb(15.843201%, 24.842834%, 72.213745%)" offset="0.625"/><stop stop-opacity="1" stop-color="rgb(15.979004%, 25.154114%, 72.558594%)" offset="0.632812"/><stop stop-opacity="1" stop-color="rgb(16.113281%, 25.466919%, 72.904968%)" offset="0.640625"/><stop stop-opacity="1" stop-color="rgb(16.249084%, 25.779724%, 73.251343%)" offset="0.648438"/><stop stop-opacity="1" stop-color="rgb(16.384888%, 26.092529%, 73.597717%)" offset="0.65625"/><stop stop-opacity="1" stop-color="rgb(16.519165%, 26.405334%, 73.944092%)" offset="0.664062"/><stop stop-opacity="1" stop-color="rgb(16.654968%, 26.716614%, 74.28894%)" offset="0.671875"/><stop stop-opacity="1" stop-color="rgb(16.789246%, 27.029419%, 74.635315%)" offset="0.679688"/><stop stop-opacity="1" stop-color="rgb(16.925049%, 27.342224%, 74.981689%)" offset="0.6875"/><stop stop-opacity="1" stop-color="rgb(17.060852%, 27.655029%, 75.328064%)" offset="0.695312"/><stop stop-opacity="1" stop-color="rgb(17.195129%, 27.967834%, 75.674438%)" offset="0.703125"/><stop stop-opacity="1" stop-color="rgb(17.330933%, 28.279114%, 76.020813%)" offset="0.710938"/><stop stop-opacity="1" stop-color="rgb(17.46521%, 28.591919%, 76.365662%)" offset="0.71875"/><stop stop-opacity="1" stop-color="rgb(17.601013%, 28.904724%, 76.712036%)" offset="0.726562"/><stop stop-opacity="1" stop-color="rgb(17.735291%, 29.217529%, 77.058411%)" offset="0.734375"/><stop stop-opacity="1" stop-color="rgb(17.871094%, 29.530334%, 77.404785%)" offset="0.742188"/><stop stop-opacity="1" stop-color="rgb(18.006897%, 29.841614%, 77.75116%)" offset="0.75"/><stop stop-opacity="1" stop-color="rgb(18.141174%, 30.154419%, 78.096008%)" offset="0.757812"/><stop stop-opacity="1" stop-color="rgb(18.276978%, 30.467224%, 78.442383%)" offset="0.765625"/><stop stop-opacity="1" stop-color="rgb(18.411255%, 30.780029%, 78.788757%)" offset="0.773438"/><stop stop-opacity="1" stop-color="rgb(18.547058%, 31.092834%, 79.135132%)" offset="0.78125"/><stop stop-opacity="1" stop-color="rgb(18.681335%, 31.404114%, 79.481506%)" offset="0.789062"/><stop stop-opacity="1" stop-color="rgb(18.817139%, 31.716919%, 79.827881%)" offset="0.796875"/><stop stop-opacity="1" stop-color="rgb(18.952942%, 32.029724%, 80.172729%)" offset="0.804688"/><stop stop-opacity="1" stop-color="rgb(19.087219%, 32.342529%, 80.519104%)" offset="0.8125"/><stop stop-opacity="1" stop-color="rgb(19.223022%, 32.655334%, 80.865479%)" offset="0.820312"/><stop stop-opacity="1" stop-color="rgb(19.3573%, 32.966614%, 81.211853%)" offset="0.828125"/><stop stop-opacity="1" stop-color="rgb(19.493103%, 33.279419%, 81.558228%)" offset="0.835938"/><stop stop-opacity="1" stop-color="rgb(19.62738%, 33.592224%, 81.903076%)" offset="0.84375"/><stop stop-opacity="1" stop-color="rgb(19.763184%, 33.905029%, 82.249451%)" offset="0.851562"/><stop stop-opacity="1" stop-color="rgb(19.898987%, 34.217834%, 82.595825%)" offset="0.859375"/><stop stop-opacity="1" stop-color="rgb(20.033264%, 34.529114%, 82.9422%)" offset="0.867188"/><stop stop-opacity="1" stop-color="rgb(20.169067%, 34.841919%, 83.288574%)" offset="0.875"/><stop stop-opacity="1" stop-color="rgb(20.303345%, 35.154724%, 83.633423%)" offset="0.882812"/><stop stop-opacity="1" stop-color="rgb(20.439148%, 35.467529%, 83.979797%)" offset="0.890625"/><stop stop-opacity="1" stop-color="rgb(20.573425%, 35.780334%, 84.326172%)" offset="0.898438"/><stop stop-opacity="1" stop-color="rgb(20.709229%, 36.091614%, 84.672546%)" offset="0.90625"/><stop stop-opacity="1" stop-color="rgb(20.845032%, 36.404419%, 85.018921%)" offset="0.914062"/><stop stop-opacity="1" stop-color="rgb(20.979309%, 36.717224%, 85.365295%)" offset="0.921875"/><stop stop-opacity="1" stop-color="rgb(21.115112%, 37.030029%, 85.710144%)" offset="0.929688"/><stop stop-opacity="1" stop-color="rgb(21.24939%, 37.342834%, 86.056519%)" offset="0.9375"/><stop stop-opacity="1" stop-color="rgb(21.385193%, 37.654114%, 86.402893%)" offset="0.945312"/><stop stop-opacity="1" stop-color="rgb(21.520996%, 37.966919%, 86.749268%)" offset="0.953125"/><stop stop-opacity="1" stop-color="rgb(21.655273%, 38.279724%, 87.095642%)" offset="0.960938"/><stop stop-opacity="1" stop-color="rgb(21.791077%, 38.592529%, 87.440491%)" offset="0.96875"/><stop stop-opacity="1" stop-color="rgb(21.925354%, 38.905334%, 87.786865%)" offset="0.976562"/><stop stop-opacity="1" stop-color="rgb(22.061157%, 39.216614%, 88.13324%)" offset="0.984375"/><stop stop-opacity="1" stop-color="rgb(22.195435%, 39.529419%, 88.479614%)" offset="0.992188"/><stop stop-opacity="1" stop-color="rgb(22.331238%, 39.842224%, 88.825989%)" offset="1"/></linearGradient><clipPath id="e134c57a1b"><path d="M 141.328125 28.5625 L 156.027344 28.5625 L 156.027344 61.601562 L 141.328125 61.601562 Z M 141.328125 28.5625 " clip-rule="nonzero"/></clipPath><clipPath id="87b172692d"><path d="M 141.328125 32 L 156.027344 32 L 156.027344 65 L 141.328125 65 Z M 141.328125 32 " clip-rule="nonzero"/></clipPath><clipPath id="b83b45bb3d"><path d="M 61 11.199219 L 91 11.199219 L 91 40 L 61 40 Z M 61 11.199219 " clip-rule="nonzero"/></clipPath><clipPath id="e9828d0698"><path d="M 56 90 L 124 90 L 124 100.800781 L 56 100.800781 Z M 56 90 " clip-rule="nonzero"/></clipPath><clipPath id="ca61eb7f57"><path d="M 44.039062 83 L 151 83 L 151 95 L 44.039062 95 Z M 44.039062 83 " clip-rule="nonzero"/></clipPath><clipPath id="efef0e4f75"><path d="M 44.039062 85 L 151 85 L 151 96 L 44.039062 96 Z M 44.039062 85 " clip-rule="nonzero"/></clipPath></defs><g clip-path="url(#ccba65331f)"><path fill="#ffffff" d="M 1.699219 0 L 766.300781 0 L 766.300781 112.003906 L 1.699219 112.003906 Z M 1.699219 0 " fill-opacity="1" fill-rule="nonzero"/><path fill="url(#57776929fc)" d="M 1.699219 0 L 1.699219 112.003906 L 766.300781 112.003906 L 766.300781 0 Z M 1.699219 0 " fill-rule="nonzero"/></g><path fill="#7f7e7c" d="M 139.117188 54.269531 L 141.683594 54.269531 L 141.683594 38.382812 L 139.117188 38.382812 L 139.117188 54.269531 " fill-opacity="1" fill-rule="nonzero"/><path fill="#1d1811" d="M 138.675781 40.769531 L 142.125 40.769531 L 142.125 39.410156 L 138.675781 39.410156 L 138.675781 40.769531 " fill-opacity="1" fill-rule="nonzero"/><path fill="#ffb413" d="M 138.171875 39.773438 L 142.628906 39.773438 C 142.675781 39.773438 142.710938 39.738281 142.710938 39.695312 L 142.710938 38.417969 L 138.089844 38.417969 L 138.089844 39.695312 C 138.089844 39.738281 138.128906 39.773438 138.171875 39.773438 " fill-opacity="1" fill-rule="nonzero"/><path fill="#ffb413" d="M 137.183594 38.417969 L 143.617188 38.417969 L 143.617188 21.6875 L 137.183594 21.6875 L 137.183594 38.417969 " fill-opacity="1" fill-rule="nonzero"/><path fill="#ba7000" d="M 138.089844 38.417969 L 142.710938 38.417969 L 142.710938 38.917969 L 138.089844 38.917969 L 138.089844 38.417969 " fill-opacity="1" fill-rule="nonzero"/><path fill="#1d1811" d="M 142.125 52.117188 L 138.675781 52.117188 L 138.675781 53.472656 L 142.125 53.472656 L 142.125 52.117188 " fill-opacity="1" fill-rule="nonzero"/><path fill="#ffb413" d="M 142.628906 53.109375 L 138.171875 53.109375 C 138.128906 53.109375 138.089844 53.148438 138.089844 53.191406 L 138.089844 54.464844 L 142.710938 54.464844 L 142.710938 53.191406 C 142.710938 53.148438 142.675781 53.109375 142.628906 53.109375 " fill-opacity="1" fill-rule="nonzero"/><path fill="#ffb413" d="M 143.617188 54.464844 L 137.183594 54.464844 L 137.183594 71.199219 L 143.617188 71.199219 L 143.617188 54.464844 " fill-opacity="1" fill-rule="nonzero"/><path fill="#ba7000" d="M 142.710938 54.464844 L 138.089844 54.464844 L 138.089844 53.96875 L 142.710938 53.96875 L 142.710938 54.464844 " fill-opacity="1" fill-rule="nonzero"/><g clip-path="url(#e134c57a1b)"><path fill="#11a4ee" d="M 141.695312 61.558594 L 141.414062 60.851562 C 142.242188 60.523438 143.027344 60.222656 143.78125 59.933594 C 150.160156 57.488281 153.675781 56.140625 155.144531 48.167969 C 156.011719 43.488281 151.261719 37.46875 147.445312 32.636719 C 146.421875 31.34375 145.460938 30.121094 144.683594 29.027344 L 145.300781 28.585938 C 146.066406 29.664062 147.023438 30.878906 148.039062 32.160156 C 151.953125 37.117188 156.820312 43.285156 155.890625 48.308594 C 154.34375 56.699219 150.46875 58.183594 144.050781 60.644531 C 143.300781 60.929688 142.519531 61.230469 141.695312 61.558594 " fill-opacity="1" fill-rule="nonzero"/></g><g clip-path="url(#87b172692d)"><path fill="#cb3124" d="M 141.71875 64.984375 L 141.4375 64.277344 C 142.261719 63.945312 143.050781 63.644531 143.800781 63.355469 C 150.179688 60.910156 153.695312 59.566406 155.167969 51.59375 C 156.03125 46.910156 151.28125 40.890625 147.464844 36.058594 C 146.441406 34.765625 145.480469 33.546875 144.703125 32.453125 L 145.324219 32.011719 C 146.085938 33.089844 147.042969 34.300781 148.058594 35.585938 C 151.972656 40.539062 156.84375 46.707031 155.914062 51.730469 C 154.363281 60.125 150.488281 61.609375 144.074219 64.066406 C 143.324219 64.355469 142.539062 64.65625 141.71875 64.984375 " fill-opacity="1" fill-rule="nonzero"/></g><path fill="#cb3124" d="M 57.386719 43.289062 C 57.308594 42.269531 57.160156 41.085938 57 39.828125 C 56.386719 34.960938 55.621094 28.898438 58.269531 25.914062 C 62.675781 20.945312 65.851562 21.519531 71.113281 22.472656 C 71.722656 22.582031 72.363281 22.699219 73.039062 22.8125 L 72.914062 23.5625 C 72.234375 23.449219 71.589844 23.332031 70.976562 23.222656 C 65.808594 22.285156 62.960938 21.769531 58.835938 26.421875 C 56.421875 29.144531 57.160156 35.015625 57.757812 39.734375 C 57.917969 41 58.066406 42.195312 58.144531 43.234375 L 57.386719 43.289062 " fill-opacity="1" fill-rule="nonzero"/><path fill="#11a4ee" d="M 61.335938 38.113281 C 61.261719 37.09375 61.109375 35.910156 60.953125 34.65625 C 60.335938 29.78125 59.570312 23.71875 62.21875 20.738281 C 66.625 15.765625 69.800781 16.339844 75.066406 17.292969 C 75.675781 17.40625 76.316406 17.519531 76.988281 17.636719 L 76.863281 18.386719 C 76.1875 18.273438 75.542969 18.15625 74.929688 18.046875 C 69.761719 17.109375 66.914062 16.59375 62.785156 21.242188 C 60.371094 23.96875 61.113281 29.839844 61.707031 34.558594 C 61.867188 35.824219 62.015625 37.019531 62.09375 38.054688 L 61.335938 38.113281 " fill-opacity="1" fill-rule="nonzero"/><path fill="#cb3124" d="M 84.519531 38.324219 C 82.691406 38.324219 80.800781 37.773438 78.503906 37.109375 C 77.910156 36.9375 77.285156 36.753906 76.625 36.574219 L 76.828125 35.835938 C 77.492188 36.019531 78.117188 36.203125 78.714844 36.375 C 83.761719 37.839844 86.546875 38.644531 91.121094 34.441406 C 93.800781 31.976562 93.664062 26.0625 93.554688 21.308594 C 93.523438 20.035156 93.496094 18.828125 93.523438 17.785156 L 94.285156 17.808594 C 94.257812 18.828125 94.285156 20.027344 94.3125 21.292969 C 94.429688 26.199219 94.570312 32.304688 91.636719 35.003906 C 88.929688 37.484375 86.773438 38.324219 84.519531 38.324219 " fill-opacity="1" fill-rule="nonzero"/><path fill="#cb3124" d="M 55.808594 61.644531 L 55.066406 61.484375 C 55.210938 60.808594 55.355469 60.171875 55.492188 59.5625 C 56.664062 54.425781 57.308594 51.597656 52.867188 47.25 L 53.398438 46.703125 C 58.148438 51.347656 57.425781 54.503906 56.234375 59.730469 C 56.097656 60.335938 55.953125 60.972656 55.808594 61.644531 " fill-opacity="1" fill-rule="nonzero"/><path fill="#11a4ee" d="M 50.320312 63.601562 C 46.375 58.253906 47.585938 55.253906 49.59375 50.285156 C 49.828125 49.710938 50.070312 49.105469 50.320312 48.464844 L 51.027344 48.742188 C 50.777344 49.386719 50.535156 49.992188 50.300781 50.570312 C 48.328125 55.457031 47.238281 58.144531 50.933594 63.144531 L 50.320312 63.601562 " fill-opacity="1" fill-rule="nonzero"/><path fill="#494642" d="M 56.679688 69.265625 L 62.96875 71.804688 L 62.761719 72.324219 C 62.601562 72.726562 62.195312 72.976562 61.761719 72.941406 L 57.796875 72.058594 C 56.726562 71.96875 56.042969 70.863281 56.441406 69.863281 L 56.679688 69.265625 " fill-opacity="1" fill-rule="nonzero"/><path fill="#1d1811" d="M 55.929688 61.429688 L 56.734375 70.902344 L 55.671875 70.992188 C 54.84375 71.0625 54.0625 70.582031 53.75 69.808594 L 52.117188 65.761719 C 51.339844 63.839844 52.640625 61.710938 54.703125 61.535156 L 55.929688 61.429688 " fill-opacity="1" fill-rule="nonzero"/><path fill="#1d1811" d="M 56.492188 69.726562 L 62.777344 72.265625 L 62.570312 72.785156 C 62.410156 73.1875 62.003906 73.441406 61.574219 73.40625 L 57.609375 72.519531 C 56.535156 72.433594 55.851562 71.328125 56.253906 70.324219 L 56.492188 69.726562 " fill-opacity="1" fill-rule="nonzero"/><path fill="#ffb413" d="M 54.003906 70.835938 C 53.84375 69.675781 54.652344 68.605469 55.808594 68.441406 C 56.964844 68.28125 58.035156 69.09375 58.195312 70.253906 C 58.355469 71.414062 57.546875 72.484375 56.390625 72.644531 C 55.234375 72.804688 54.164062 71.996094 54.003906 70.835938 " fill-opacity="1" fill-rule="nonzero"/><path fill="#1d1811" d="M 55.316406 70.652344 C 55.257812 70.21875 55.558594 69.820312 55.992188 69.757812 C 56.421875 69.699219 56.824219 70 56.882812 70.433594 C 56.941406 70.867188 56.640625 71.269531 56.207031 71.328125 C 55.777344 71.390625 55.378906 71.085938 55.316406 70.652344 " fill-opacity="1" fill-rule="nonzero"/><path fill="#1d1811" d="M 53.289062 64.785156 L 62.730469 63.976562 L 62.640625 62.90625 C 62.570312 62.070312 61.964844 61.375 61.152344 61.199219 L 56.898438 60.261719 C 54.875 59.820312 53.007812 61.472656 53.183594 63.550781 L 53.289062 64.785156 " fill-opacity="1" fill-rule="nonzero"/><path fill="#494642" d="M 61.125 64.199219 L 64.691406 70.007812 L 65.164062 69.714844 C 65.53125 69.488281 65.710938 69.042969 65.601562 68.621094 L 64.058594 64.832031 C 63.792969 63.78125 62.589844 63.292969 61.671875 63.859375 L 61.125 64.199219 " fill-opacity="1" fill-rule="nonzero"/><path fill="#1d1811" d="M 61.535156 63.933594 L 65.101562 69.746094 L 65.574219 69.453125 C 65.941406 69.222656 66.121094 68.777344 66.011719 68.355469 L 64.46875 64.570312 C 64.203125 63.519531 63 63.027344 62.082031 63.597656 L 61.535156 63.933594 " fill-opacity="1" fill-rule="nonzero"/><path fill="#ffb413" d="M 62.203125 61.277344 C 61.035156 61.3125 60.121094 62.296875 60.15625 63.476562 C 60.195312 64.652344 61.175781 65.574219 62.339844 65.535156 C 63.507812 65.5 64.425781 64.515625 64.386719 63.335938 C 64.347656 62.160156 63.371094 61.238281 62.203125 61.277344 " fill-opacity="1" fill-rule="nonzero"/><path fill="#1d1811" d="M 62.246094 62.609375 C 61.808594 62.625 61.46875 62.992188 61.480469 63.433594 C 61.496094 63.871094 61.863281 64.214844 62.296875 64.203125 C 62.734375 64.1875 63.078125 63.820312 63.0625 63.378906 C 63.046875 62.941406 62.683594 62.597656 62.246094 62.609375 " fill-opacity="1" fill-rule="nonzero"/><path fill="#1d1811" d="M 49.582031 58.261719 L 50.601562 51.121094 C 50.828125 49.53125 52.296875 48.425781 53.882812 48.652344 C 55.472656 48.878906 56.574219 50.351562 56.347656 51.945312 L 55.332031 59.085938 C 55.105469 60.675781 53.632812 61.785156 52.046875 61.554688 C 50.460938 61.328125 49.359375 59.855469 49.582031 58.261719 " fill-opacity="1" fill-rule="nonzero"/><path fill="#ffa000" d="M 71.917969 35.125 L 56.734375 54.242188 C 55.214844 56.152344 52.441406 56.46875 50.539062 54.945312 C 48.632812 53.425781 48.320312 50.644531 49.835938 48.734375 L 65.023438 29.617188 C 66.539062 27.707031 69.3125 27.394531 71.21875 28.914062 C 73.121094 30.4375 73.4375 33.21875 71.917969 35.125 " fill-opacity="1" fill-rule="nonzero"/><path fill="#ffd375" d="M 67.417969 31 L 55.128906 46.46875 C 54.796875 46.890625 54.183594 46.960938 53.761719 46.625 C 53.34375 46.289062 53.273438 45.675781 53.609375 45.253906 L 65.898438 29.785156 C 66.234375 29.363281 66.84375 29.292969 67.265625 29.628906 C 67.683594 29.964844 67.753906 30.578125 67.417969 31 " fill-opacity="1" fill-rule="nonzero"/><path fill="#1d1811" d="M 51.160156 54.167969 C 49.675781 52.980469 49.429688 50.8125 50.613281 49.324219 C 51.792969 47.835938 53.957031 47.59375 55.4375 48.777344 C 56.921875 49.964844 57.167969 52.132812 55.984375 53.621094 C 54.804688 55.109375 52.640625 55.351562 51.160156 54.167969 " fill-opacity="1" fill-rule="nonzero"/><path fill="#ffa000" d="M 53.316406 55.71875 C 52.367188 55.71875 51.453125 55.402344 50.703125 54.800781 C 49.824219 54.097656 49.269531 53.09375 49.140625 51.96875 C 49.015625 50.847656 49.332031 49.742188 50.03125 48.863281 C 50.121094 48.75 50.285156 48.730469 50.398438 48.820312 C 50.507812 48.910156 50.527344 49.074219 50.4375 49.1875 C 49.824219 49.960938 49.546875 50.929688 49.65625 51.914062 C 49.769531 52.898438 50.253906 53.777344 51.023438 54.394531 C 52.617188 55.667969 54.945312 55.402344 56.214844 53.804688 C 56.304688 53.691406 56.46875 53.671875 56.582031 53.761719 C 56.691406 53.851562 56.710938 54.015625 56.621094 54.128906 C 55.921875 55.007812 54.921875 55.566406 53.800781 55.691406 C 53.640625 55.710938 53.476562 55.71875 53.316406 55.71875 " fill-opacity="1" fill-rule="nonzero"/><path fill="#ffb413" d="M 48.082031 60.851562 C 48.363281 58.472656 50.515625 56.769531 52.890625 57.050781 C 55.265625 57.332031 56.960938 59.492188 56.679688 61.871094 C 56.398438 64.253906 54.246094 65.957031 51.871094 65.675781 C 49.5 65.394531 47.800781 63.234375 48.082031 60.851562 " fill-opacity="1" fill-rule="nonzero"/><path fill="#1d1811" d="M 50.773438 61.171875 C 50.878906 60.28125 51.683594 59.644531 52.570312 59.75 C 53.457031 59.855469 54.09375 60.664062 53.988281 61.550781 C 53.882812 62.441406 53.078125 63.078125 52.191406 62.972656 C 51.304688 62.867188 50.667969 62.0625 50.773438 61.171875 " fill-opacity="1" fill-rule="nonzero"/><path fill="#1d1811" d="M 66.667969 38.570312 C 66.796875 38.671875 66.820312 38.863281 66.714844 38.996094 C 66.613281 39.125 66.421875 39.148438 66.292969 39.046875 C 66.160156 38.941406 66.140625 38.75 66.242188 38.621094 C 66.347656 38.488281 66.535156 38.464844 66.667969 38.570312 " fill-opacity="1" fill-rule="nonzero"/><path fill="#1d1811" d="M 66.09375 39.296875 C 66.222656 39.402344 66.246094 39.59375 66.140625 39.722656 C 66.039062 39.855469 65.847656 39.878906 65.71875 39.773438 C 65.585938 39.667969 65.566406 39.480469 65.667969 39.347656 C 65.773438 39.21875 65.960938 39.195312 66.09375 39.296875 " fill-opacity="1" fill-rule="nonzero"/><path fill="#1d1811" d="M 65.519531 40.027344 C 65.648438 40.128906 65.671875 40.320312 65.570312 40.453125 C 65.464844 40.582031 65.273438 40.605469 65.144531 40.5 C 65.015625 40.398438 64.992188 40.207031 65.09375 40.078125 C 65.199219 39.945312 65.386719 39.921875 65.519531 40.027344 " fill-opacity="1" fill-rule="nonzero"/><path fill="#1d1811" d="M 64.945312 40.753906 C 65.074219 40.859375 65.097656 41.050781 64.996094 41.179688 C 64.890625 41.3125 64.703125 41.335938 64.570312 41.230469 C 64.441406 41.125 64.417969 40.9375 64.519531 40.804688 C 64.625 40.675781 64.8125 40.652344 64.945312 40.753906 " fill-opacity="1" fill-rule="nonzero"/><path fill="#1d1811" d="M 64.371094 41.484375 C 64.5 41.585938 64.523438 41.777344 64.421875 41.910156 C 64.316406 42.039062 64.128906 42.0625 63.996094 41.957031 C 63.867188 41.855469 63.84375 41.664062 63.945312 41.535156 C 64.050781 41.402344 64.238281 41.378906 64.371094 41.484375 " fill-opacity="1" fill-rule="nonzero"/><path fill="#1d1811" d="M 63.796875 42.210938 C 63.929688 42.316406 63.949219 42.507812 63.847656 42.636719 C 63.742188 42.769531 63.554688 42.789062 63.421875 42.6875 C 63.292969 42.582031 63.269531 42.394531 63.375 42.261719 C 63.476562 42.128906 63.667969 42.109375 63.796875 42.210938 " fill-opacity="1" fill-rule="nonzero"/><path fill="#1d1811" d="M 66.019531 38.058594 C 66.148438 38.160156 66.171875 38.351562 66.070312 38.480469 C 65.964844 38.613281 65.777344 38.636719 65.644531 38.53125 C 65.515625 38.429688 65.492188 38.238281 65.59375 38.105469 C 65.699219 37.976562 65.886719 37.953125 66.019531 38.058594 " fill-opacity="1" fill-rule="nonzero"/><path fill="#1d1811" d="M 65.445312 38.785156 C 65.578125 38.890625 65.597656 39.078125 65.496094 39.210938 C 65.390625 39.339844 65.203125 39.363281 65.070312 39.261719 C 64.941406 39.15625 64.917969 38.964844 65.023438 38.835938 C 65.125 38.703125 65.316406 38.679688 65.445312 38.785156 " fill-opacity="1" fill-rule="nonzero"/><path fill="#1d1811" d="M 64.871094 39.515625 C 65.003906 39.617188 65.023438 39.808594 64.921875 39.9375 C 64.816406 40.070312 64.628906 40.09375 64.496094 39.988281 C 64.367188 39.886719 64.34375 39.695312 64.449219 39.5625 C 64.550781 39.433594 64.742188 39.410156 64.871094 39.515625 " fill-opacity="1" fill-rule="nonzero"/><path fill="#1d1811" d="M 64.296875 40.242188 C 64.429688 40.347656 64.449219 40.535156 64.347656 40.667969 C 64.242188 40.796875 64.054688 40.820312 63.921875 40.71875 C 63.792969 40.613281 63.769531 40.421875 63.875 40.292969 C 63.976562 40.160156 64.167969 40.140625 64.296875 40.242188 " fill-opacity="1" fill-rule="nonzero"/><path fill="#1d1811" d="M 63.722656 40.972656 C 63.855469 41.074219 63.875 41.265625 63.773438 41.394531 C 63.671875 41.527344 63.480469 41.550781 63.347656 41.445312 C 63.21875 41.34375 63.195312 41.152344 63.300781 41.019531 C 63.402344 40.890625 63.59375 40.867188 63.722656 40.972656 " fill-opacity="1" fill-rule="nonzero"/><path fill="#1d1811" d="M 63.148438 41.699219 C 63.28125 41.804688 63.300781 41.992188 63.199219 42.125 C 63.097656 42.253906 62.90625 42.277344 62.777344 42.175781 C 62.644531 42.070312 62.621094 41.878906 62.726562 41.75 C 62.828125 41.617188 63.019531 41.59375 63.148438 41.699219 " fill-opacity="1" fill-rule="nonzero"/><path fill="#1d1811" d="M 65.371094 37.542969 C 65.503906 37.648438 65.523438 37.839844 65.421875 37.96875 C 65.316406 38.101562 65.128906 38.121094 64.996094 38.019531 C 64.867188 37.914062 64.84375 37.726562 64.949219 37.59375 C 65.050781 37.460938 65.242188 37.441406 65.371094 37.542969 " fill-opacity="1" fill-rule="nonzero"/><path fill="#1d1811" d="M 64.796875 38.273438 C 64.929688 38.375 64.949219 38.566406 64.847656 38.699219 C 64.746094 38.828125 64.554688 38.851562 64.425781 38.746094 C 64.292969 38.644531 64.269531 38.453125 64.375 38.320312 C 64.476562 38.191406 64.667969 38.167969 64.796875 38.273438 " fill-opacity="1" fill-rule="nonzero"/><path fill="#1d1811" d="M 64.222656 39 C 64.355469 39.105469 64.378906 39.292969 64.273438 39.425781 C 64.171875 39.558594 63.980469 39.578125 63.851562 39.476562 C 63.71875 39.371094 63.695312 39.183594 63.800781 39.050781 C 63.902344 38.917969 64.09375 38.898438 64.222656 39 " fill-opacity="1" fill-rule="nonzero"/><path fill="#1d1811" d="M 63.652344 39.730469 C 63.78125 39.832031 63.804688 40.023438 63.699219 40.15625 C 63.597656 40.285156 63.40625 40.308594 63.277344 40.203125 C 63.144531 40.101562 63.121094 39.910156 63.226562 39.777344 C 63.328125 39.648438 63.519531 39.625 63.652344 39.730469 " fill-opacity="1" fill-rule="nonzero"/><path fill="#1d1811" d="M 63.078125 40.457031 C 63.207031 40.5625 63.230469 40.75 63.125 40.882812 C 63.023438 41.015625 62.832031 41.035156 62.703125 40.933594 C 62.570312 40.828125 62.550781 40.640625 62.652344 40.507812 C 62.753906 40.375 62.945312 40.355469 63.078125 40.457031 " fill-opacity="1" fill-rule="nonzero"/><path fill="#1d1811" d="M 62.503906 41.1875 C 62.632812 41.289062 62.65625 41.480469 62.550781 41.613281 C 62.449219 41.742188 62.257812 41.765625 62.128906 41.660156 C 61.996094 41.558594 61.976562 41.367188 62.078125 41.234375 C 62.183594 41.105469 62.371094 41.082031 62.503906 41.1875 " fill-opacity="1" fill-rule="nonzero"/><path fill="#1d1811" d="M 64.722656 37.03125 C 64.855469 37.132812 64.878906 37.324219 64.773438 37.457031 C 64.671875 37.585938 64.480469 37.609375 64.351562 37.507812 C 64.21875 37.402344 64.195312 37.210938 64.300781 37.082031 C 64.402344 36.949219 64.59375 36.925781 64.722656 37.03125 " fill-opacity="1" fill-rule="nonzero"/><path fill="#1d1811" d="M 64.152344 37.757812 C 64.28125 37.863281 64.304688 38.054688 64.199219 38.183594 C 64.097656 38.316406 63.90625 38.339844 63.777344 38.234375 C 63.644531 38.128906 63.625 37.941406 63.726562 37.808594 C 63.832031 37.679688 64.019531 37.65625 64.152344 37.757812 " fill-opacity="1" fill-rule="nonzero"/><path fill="#1d1811" d="M 63.578125 38.488281 C 63.707031 38.589844 63.730469 38.78125 63.625 38.914062 C 63.523438 39.042969 63.332031 39.066406 63.203125 38.960938 C 63.070312 38.859375 63.050781 38.667969 63.152344 38.539062 C 63.257812 38.40625 63.445312 38.382812 63.578125 38.488281 " fill-opacity="1" fill-rule="nonzero"/><path fill="#1d1811" d="M 63.003906 39.214844 C 63.132812 39.320312 63.15625 39.511719 63.050781 39.640625 C 62.949219 39.773438 62.757812 39.792969 62.628906 39.691406 C 62.496094 39.585938 62.476562 39.398438 62.578125 39.265625 C 62.683594 39.132812 62.871094 39.113281 63.003906 39.214844 " fill-opacity="1" fill-rule="nonzero"/><path fill="#1d1811" d="M 62.429688 39.945312 C 62.558594 40.046875 62.582031 40.238281 62.480469 40.371094 C 62.375 40.5 62.183594 40.523438 62.054688 40.421875 C 61.921875 40.316406 61.902344 40.125 62.003906 39.996094 C 62.109375 39.863281 62.296875 39.839844 62.429688 39.945312 " fill-opacity="1" fill-rule="nonzero"/><path fill="#1d1811" d="M 61.855469 40.671875 C 61.984375 40.777344 62.007812 40.96875 61.90625 41.097656 C 61.800781 41.230469 61.613281 41.25 61.480469 41.148438 C 61.351562 41.042969 61.328125 40.855469 61.429688 40.722656 C 61.535156 40.59375 61.722656 40.570312 61.855469 40.671875 " fill-opacity="1" fill-rule="nonzero"/><path fill="#cb3124" d="M 96.789062 59.707031 C 96.460938 59.105469 96.140625 58.539062 95.832031 58 C 93.195312 53.335938 91.605469 50.519531 94.796875 44.707031 L 95.460938 45.074219 C 92.472656 50.515625 93.902344 53.039062 96.492188 57.621094 C 96.800781 58.167969 97.125 58.734375 97.457031 59.339844 L 96.789062 59.707031 " fill-opacity="1" fill-rule="nonzero"/><path fill="#11a4ee" d="M 102.585938 60 L 101.871094 59.742188 C 103.953125 53.890625 102.144531 51.625 98.859375 47.519531 C 98.472656 47.03125 98.0625 46.519531 97.640625 45.976562 L 98.238281 45.507812 C 98.660156 46.050781 99.066406 46.554688 99.453125 47.042969 C 102.792969 51.222656 104.8125 53.746094 102.585938 60 " fill-opacity="1" fill-rule="nonzero"/><path fill="#494642" d="M 100.351562 67.4375 L 96.285156 72.839844 L 96.726562 73.175781 C 97.070312 73.441406 97.542969 73.449219 97.894531 73.199219 L 100.828125 70.40625 C 101.699219 69.78125 101.71875 68.480469 100.859375 67.828125 L 100.351562 67.4375 " fill-opacity="1" fill-rule="nonzero"/><path fill="#1d1811" d="M 96.980469 60.328125 L 101.144531 68.867188 L 102.097656 68.402344 C 102.84375 68.035156 103.261719 67.226562 103.132812 66.402344 L 102.457031 62.089844 C 102.132812 60.042969 99.933594 58.886719 98.082031 59.789062 L 96.980469 60.328125 " fill-opacity="1" fill-rule="nonzero"/><path fill="#1d1811" d="M 100.75 67.738281 L 96.683594 73.140625 L 97.125 73.476562 C 97.46875 73.742188 97.941406 73.75 98.292969 73.496094 L 101.226562 70.703125 C 102.097656 70.078125 102.113281 68.78125 101.257812 68.125 L 100.75 67.738281 " fill-opacity="1" fill-rule="nonzero"/><path fill="#ffb413" d="M 103.441406 67.410156 C 102.984375 66.332031 101.746094 65.828125 100.675781 66.285156 C 99.605469 66.738281 99.109375 67.980469 99.566406 69.058594 C 100.023438 70.136719 101.261719 70.644531 102.332031 70.1875 C 103.402344 69.734375 103.898438 68.488281 103.441406 67.410156 " fill-opacity="1" fill-rule="nonzero"/><path fill="#1d1811" d="M 102.226562 67.929688 C 102.058594 67.527344 101.59375 67.335938 101.195312 67.507812 C 100.792969 67.675781 100.609375 68.140625 100.78125 68.542969 C 100.949219 68.945312 101.414062 69.136719 101.8125 68.964844 C 102.210938 68.796875 102.398438 68.332031 102.226562 67.929688 " fill-opacity="1" fill-rule="nonzero"/><path fill="#1d1811" d="M 100.953125 61.851562 L 92.476562 66 L 92.007812 65.035156 C 91.640625 64.28125 91.800781 63.378906 92.402344 62.808594 L 95.558594 59.824219 C 97.054688 58.40625 99.5 58.867188 100.410156 60.738281 L 100.953125 61.851562 " fill-opacity="1" fill-rule="nonzero"/><path fill="#494642" d="M 93.960938 65.367188 L 93.894531 72.183594 L 93.339844 72.171875 C 92.90625 72.167969 92.527344 71.875 92.402344 71.457031 L 91.78125 67.417969 C 91.472656 66.378906 92.246094 65.34375 93.320312 65.359375 L 93.960938 65.367188 " fill-opacity="1" fill-rule="nonzero"/><path fill="#1d1811" d="M 93.476562 65.351562 L 93.40625 72.164062 L 92.855469 72.15625 C 92.421875 72.148438 92.042969 71.859375 91.917969 71.441406 L 91.296875 67.402344 C 90.984375 66.363281 91.761719 65.324219 92.835938 65.34375 L 93.476562 65.351562 " fill-opacity="1" fill-rule="nonzero"/><path fill="#ffb413" d="M 91.546875 63.414062 C 92.5625 62.847656 93.847656 63.222656 94.417969 64.25 C 94.988281 65.28125 94.625 66.574219 93.609375 67.140625 C 92.589844 67.707031 91.304688 67.332031 90.734375 66.300781 C 90.167969 65.273438 90.527344 63.980469 91.546875 63.414062 " fill-opacity="1" fill-rule="nonzero"/><path fill="#1d1811" d="M 92.191406 64.582031 C 92.570312 64.371094 93.050781 64.507812 93.265625 64.894531 C 93.476562 65.277344 93.339844 65.761719 92.960938 65.972656 C 92.582031 66.183594 92.101562 66.042969 91.890625 65.660156 C 91.675781 65.277344 91.8125 64.792969 92.191406 64.582031 " fill-opacity="1" fill-rule="nonzero"/><path fill="#1d1811" d="M 101.753906 54.679688 L 98.734375 48.132812 C 98.058594 46.675781 96.339844 46.039062 94.894531 46.710938 C 93.445312 47.386719 92.820312 49.113281 93.492188 50.574219 L 96.511719 57.121094 C 97.183594 58.578125 98.902344 59.214844 100.351562 58.539062 C 101.796875 57.867188 102.425781 56.136719 101.753906 54.679688 " fill-opacity="1" fill-rule="nonzero"/><path fill="#ffa000" d="M 76.496094 34.417969 L 93.074219 52.277344 C 94.730469 54.0625 97.503906 54.15625 99.273438 52.488281 C 101.042969 50.824219 101.136719 48.027344 99.480469 46.242188 L 82.90625 28.382812 C 81.25 26.597656 78.472656 26.503906 76.703125 28.171875 C 74.933594 29.839844 74.839844 32.636719 76.496094 34.417969 " fill-opacity="1" fill-rule="nonzero"/><path fill="#ffd375" d="M 80.636719 29.949219 L 94.050781 44.402344 C 94.414062 44.796875 95.027344 44.816406 95.417969 44.449219 C 95.808594 44.082031 95.828125 43.464844 95.464844 43.070312 L 82.050781 28.621094 C 81.6875 28.226562 81.074219 28.203125 80.683594 28.574219 C 80.292969 28.941406 80.273438 29.558594 80.636719 29.949219 " fill-opacity="1" fill-rule="nonzero"/><path fill="#1d1811" d="M 98.597656 51.761719 C 99.976562 50.464844 100.050781 48.28125 98.757812 46.894531 C 97.46875 45.503906 95.304688 45.429688 93.925781 46.726562 C 92.546875 48.027344 92.476562 50.207031 93.765625 51.597656 C 95.054688 52.988281 97.21875 53.0625 98.597656 51.761719 " fill-opacity="1" fill-rule="nonzero"/><path fill="#ffa000" d="M 96.242188 53.492188 C 96.195312 53.492188 96.148438 53.492188 96.097656 53.488281 C 94.976562 53.453125 93.9375 52.976562 93.171875 52.152344 C 93.074219 52.046875 93.078125 51.882812 93.183594 51.785156 C 93.289062 51.691406 93.453125 51.695312 93.550781 51.800781 C 94.222656 52.523438 95.132812 52.9375 96.117188 52.972656 C 97.09375 53.023438 98.03125 52.652344 98.75 51.976562 C 100.230469 50.582031 100.304688 48.230469 98.921875 46.738281 C 98.824219 46.632812 98.828125 46.46875 98.933594 46.371094 C 99.035156 46.273438 99.199219 46.277344 99.296875 46.386719 C 100.878906 48.085938 100.789062 50.765625 99.101562 52.355469 C 98.320312 53.089844 97.308594 53.492188 96.242188 53.492188 " fill-opacity="1" fill-rule="nonzero"/><path fill="#ffb413" d="M 103.386719 55.808594 C 101.929688 53.910156 99.21875 53.554688 97.335938 55.011719 C 95.449219 56.472656 95.105469 59.195312 96.566406 61.09375 C 98.023438 62.992188 100.734375 63.351562 102.621094 61.890625 C 104.503906 60.433594 104.847656 57.710938 103.386719 55.808594 " fill-opacity="1" fill-rule="nonzero"/><path fill="#1d1811" d="M 101.25 57.464844 C 100.707031 56.753906 99.695312 56.621094 98.988281 57.167969 C 98.285156 57.710938 98.15625 58.730469 98.703125 59.4375 C 99.25 60.148438 100.261719 60.28125 100.964844 59.738281 C 101.667969 59.191406 101.796875 58.175781 101.25 57.464844 " fill-opacity="1" fill-rule="nonzero"/><path fill="#1d1811" d="M 84.449219 40.285156 C 84.328125 40.398438 84.320312 40.589844 84.433594 40.714844 C 84.546875 40.835938 84.738281 40.84375 84.859375 40.730469 C 84.980469 40.617188 84.988281 40.425781 84.875 40.300781 C 84.761719 40.179688 84.570312 40.171875 84.449219 40.285156 " fill-opacity="1" fill-rule="nonzero"/><path fill="#1d1811" d="M 85.078125 40.96875 C 84.957031 41.082031 84.949219 41.273438 85.0625 41.394531 C 85.175781 41.515625 85.363281 41.523438 85.484375 41.410156 C 85.609375 41.296875 85.613281 41.105469 85.5 40.984375 C 85.390625 40.859375 85.199219 40.851562 85.078125 40.96875 " fill-opacity="1" fill-rule="nonzero"/><path fill="#1d1811" d="M 85.703125 41.648438 C 85.582031 41.761719 85.574219 41.953125 85.6875 42.074219 C 85.800781 42.199219 85.992188 42.207031 86.113281 42.09375 C 86.234375 41.976562 86.242188 41.785156 86.128906 41.664062 C 86.015625 41.542969 85.824219 41.535156 85.703125 41.648438 " fill-opacity="1" fill-rule="nonzero"/><path fill="#1d1811" d="M 86.332031 42.328125 C 86.210938 42.441406 86.203125 42.632812 86.316406 42.757812 C 86.429688 42.878906 86.617188 42.886719 86.738281 42.773438 C 86.859375 42.660156 86.867188 42.46875 86.753906 42.34375 C 86.644531 42.222656 86.453125 42.214844 86.332031 42.328125 " fill-opacity="1" fill-rule="nonzero"/><path fill="#1d1811" d="M 86.957031 43.007812 C 86.835938 43.121094 86.828125 43.316406 86.941406 43.4375 C 87.054688 43.558594 87.246094 43.566406 87.367188 43.453125 C 87.488281 43.339844 87.496094 43.148438 87.382812 43.027344 C 87.269531 42.902344 87.078125 42.894531 86.957031 43.007812 " fill-opacity="1" fill-rule="nonzero"/><path fill="#1d1811" d="M 87.585938 43.691406 C 87.464844 43.804688 87.457031 43.996094 87.570312 44.117188 C 87.683594 44.242188 87.871094 44.246094 87.992188 44.132812 C 88.117188 44.019531 88.121094 43.828125 88.007812 43.707031 C 87.894531 43.585938 87.707031 43.578125 87.585938 43.691406 " fill-opacity="1" fill-rule="nonzero"/><path fill="#1d1811" d="M 85.050781 39.722656 C 84.929688 39.835938 84.921875 40.027344 85.035156 40.152344 C 85.148438 40.273438 85.339844 40.28125 85.460938 40.167969 C 85.582031 40.054688 85.589844 39.863281 85.476562 39.738281 C 85.363281 39.617188 85.175781 39.609375 85.050781 39.722656 " fill-opacity="1" fill-rule="nonzero"/><path fill="#1d1811" d="M 85.679688 40.40625 C 85.558594 40.519531 85.550781 40.710938 85.664062 40.832031 C 85.777344 40.953125 85.964844 40.960938 86.089844 40.847656 C 86.210938 40.734375 86.21875 40.542969 86.105469 40.421875 C 85.992188 40.296875 85.800781 40.289062 85.679688 40.40625 " fill-opacity="1" fill-rule="nonzero"/><path fill="#1d1811" d="M 86.304688 41.085938 C 86.183594 41.199219 86.175781 41.390625 86.289062 41.511719 C 86.402344 41.636719 86.59375 41.644531 86.714844 41.527344 C 86.835938 41.414062 86.84375 41.222656 86.730469 41.101562 C 86.617188 40.980469 86.425781 40.972656 86.304688 41.085938 " fill-opacity="1" fill-rule="nonzero"/><path fill="#1d1811" d="M 86.933594 41.765625 C 86.8125 41.878906 86.804688 42.070312 86.917969 42.195312 C 87.03125 42.316406 87.21875 42.324219 87.339844 42.210938 C 87.464844 42.097656 87.46875 41.90625 87.359375 41.78125 C 87.246094 41.660156 87.054688 41.652344 86.933594 41.765625 " fill-opacity="1" fill-rule="nonzero"/><path fill="#1d1811" d="M 87.558594 42.445312 C 87.4375 42.5625 87.429688 42.753906 87.542969 42.875 C 87.65625 42.996094 87.847656 43.003906 87.96875 42.890625 C 88.089844 42.777344 88.097656 42.585938 87.984375 42.464844 C 87.871094 42.339844 87.679688 42.332031 87.558594 42.445312 " fill-opacity="1" fill-rule="nonzero"/><path fill="#1d1811" d="M 88.1875 43.128906 C 88.066406 43.242188 88.058594 43.433594 88.171875 43.554688 C 88.285156 43.679688 88.472656 43.6875 88.597656 43.570312 C 88.71875 43.457031 88.722656 43.265625 88.613281 43.144531 C 88.5 43.023438 88.308594 43.015625 88.1875 43.128906 " fill-opacity="1" fill-rule="nonzero"/><path fill="#1d1811" d="M 85.65625 39.160156 C 85.53125 39.273438 85.527344 39.464844 85.636719 39.589844 C 85.75 39.710938 85.941406 39.71875 86.0625 39.605469 C 86.183594 39.492188 86.191406 39.300781 86.078125 39.175781 C 85.964844 39.054688 85.777344 39.046875 85.65625 39.160156 " fill-opacity="1" fill-rule="nonzero"/><path fill="#1d1811" d="M 86.28125 39.839844 C 86.160156 39.957031 86.152344 40.148438 86.265625 40.269531 C 86.378906 40.390625 86.570312 40.398438 86.691406 40.285156 C 86.8125 40.171875 86.820312 39.980469 86.707031 39.859375 C 86.59375 39.734375 86.402344 39.726562 86.28125 39.839844 " fill-opacity="1" fill-rule="nonzero"/><path fill="#1d1811" d="M 86.90625 40.523438 C 86.785156 40.636719 86.777344 40.828125 86.890625 40.949219 C 87.003906 41.074219 87.195312 41.082031 87.316406 40.96875 C 87.4375 40.851562 87.445312 40.660156 87.332031 40.539062 C 87.21875 40.417969 87.03125 40.410156 86.90625 40.523438 " fill-opacity="1" fill-rule="nonzero"/><path fill="#1d1811" d="M 87.535156 41.203125 C 87.414062 41.316406 87.40625 41.507812 87.519531 41.632812 C 87.632812 41.753906 87.820312 41.761719 87.945312 41.648438 C 88.066406 41.535156 88.070312 41.34375 87.960938 41.21875 C 87.847656 41.097656 87.65625 41.089844 87.535156 41.203125 " fill-opacity="1" fill-rule="nonzero"/><path fill="#1d1811" d="M 88.160156 41.882812 C 88.039062 42 88.03125 42.191406 88.144531 42.3125 C 88.257812 42.433594 88.449219 42.441406 88.570312 42.328125 C 88.691406 42.214844 88.699219 42.023438 88.585938 41.902344 C 88.472656 41.777344 88.285156 41.769531 88.160156 41.882812 " fill-opacity="1" fill-rule="nonzero"/><path fill="#1d1811" d="M 88.789062 42.566406 C 88.667969 42.679688 88.660156 42.871094 88.773438 42.992188 C 88.886719 43.117188 89.074219 43.121094 89.199219 43.007812 C 89.320312 42.894531 89.328125 42.703125 89.214844 42.582031 C 89.101562 42.457031 88.910156 42.453125 88.789062 42.566406 " fill-opacity="1" fill-rule="nonzero"/><path fill="#1d1811" d="M 86.257812 38.597656 C 86.132812 38.710938 86.128906 38.902344 86.242188 39.027344 C 86.351562 39.148438 86.542969 39.15625 86.664062 39.042969 C 86.785156 38.929688 86.792969 38.738281 86.679688 38.613281 C 86.566406 38.492188 86.378906 38.484375 86.257812 38.597656 " fill-opacity="1" fill-rule="nonzero"/><path fill="#1d1811" d="M 86.882812 39.28125 C 86.761719 39.394531 86.753906 39.585938 86.867188 39.707031 C 86.980469 39.828125 87.171875 39.835938 87.292969 39.722656 C 87.414062 39.609375 87.421875 39.417969 87.308594 39.296875 C 87.195312 39.171875 87.003906 39.164062 86.882812 39.28125 " fill-opacity="1" fill-rule="nonzero"/><path fill="#1d1811" d="M 87.511719 39.960938 C 87.386719 40.074219 87.382812 40.265625 87.496094 40.386719 C 87.605469 40.511719 87.796875 40.519531 87.917969 40.40625 C 88.039062 40.289062 88.046875 40.097656 87.933594 39.976562 C 87.820312 39.855469 87.632812 39.847656 87.511719 39.960938 " fill-opacity="1" fill-rule="nonzero"/><path fill="#1d1811" d="M 88.136719 40.640625 C 88.015625 40.753906 88.007812 40.945312 88.121094 41.070312 C 88.234375 41.191406 88.425781 41.199219 88.546875 41.085938 C 88.667969 40.972656 88.675781 40.78125 88.5625 40.65625 C 88.449219 40.535156 88.257812 40.527344 88.136719 40.640625 " fill-opacity="1" fill-rule="nonzero"/><path fill="#1d1811" d="M 88.761719 41.320312 C 88.640625 41.4375 88.636719 41.628906 88.746094 41.75 C 88.859375 41.871094 89.050781 41.878906 89.171875 41.765625 C 89.292969 41.652344 89.300781 41.460938 89.1875 41.339844 C 89.074219 41.214844 88.886719 41.207031 88.761719 41.320312 " fill-opacity="1" fill-rule="nonzero"/><path fill="#1d1811" d="M 89.390625 42.003906 C 89.269531 42.117188 89.261719 42.308594 89.375 42.429688 C 89.488281 42.554688 89.679688 42.5625 89.800781 42.445312 C 89.921875 42.332031 89.929688 42.140625 89.816406 42.019531 C 89.703125 41.898438 89.511719 41.890625 89.390625 42.003906 " fill-opacity="1" fill-rule="nonzero"/><path fill="#1d1811" d="M 131.710938 84.28125 L 121.117188 84.28125 L 121.117188 29.136719 L 131.710938 29.136719 L 131.710938 84.28125 " fill-opacity="1" fill-rule="nonzero"/><path fill="#7f7e7c" d="M 132.15625 33.902344 L 121.4375 36.941406 C 120.632812 37.167969 119.835938 36.5625 119.835938 35.726562 L 119.835938 34.484375 C 119.835938 33.921875 120.210938 33.425781 120.75 33.273438 L 131.472656 30.234375 C 132.277344 30.007812 133.074219 30.613281 133.074219 31.449219 L 133.074219 32.6875 C 133.074219 33.253906 132.699219 33.75 132.15625 33.902344 " fill-opacity="1" fill-rule="nonzero"/><path fill="#7f7e7c" d="M 132.15625 40.703125 L 121.4375 43.742188 C 120.632812 43.96875 119.835938 43.363281 119.835938 42.527344 L 119.835938 41.289062 C 119.835938 40.722656 120.210938 40.226562 120.75 40.074219 L 131.472656 37.035156 C 132.277344 36.808594 133.074219 37.414062 133.074219 38.25 L 133.074219 39.488281 C 133.074219 40.054688 132.699219 40.550781 132.15625 40.703125 " fill-opacity="1" fill-rule="nonzero"/><path fill="#7f7e7c" d="M 132.15625 47.503906 L 121.4375 50.542969 C 120.632812 50.769531 119.835938 50.167969 119.835938 49.328125 L 119.835938 48.089844 C 119.835938 47.527344 120.210938 47.03125 120.75 46.875 L 131.472656 43.839844 C 132.277344 43.609375 133.074219 44.214844 133.074219 45.050781 L 133.074219 46.292969 C 133.074219 46.855469 132.699219 47.351562 132.15625 47.503906 " fill-opacity="1" fill-rule="nonzero"/><path fill="#7f7e7c" d="M 132.15625 54.308594 L 121.4375 57.34375 C 120.632812 57.574219 119.835938 56.96875 119.835938 56.132812 L 119.835938 54.890625 C 119.835938 54.328125 120.210938 53.832031 120.75 53.679688 L 131.472656 50.640625 C 132.277344 50.414062 133.074219 51.019531 133.074219 51.855469 L 133.074219 53.09375 C 133.074219 53.660156 132.699219 54.15625 132.15625 54.308594 " fill-opacity="1" fill-rule="nonzero"/><path fill="#7f7e7c" d="M 132.15625 61.109375 L 121.4375 64.148438 C 120.632812 64.375 119.835938 63.769531 119.835938 62.933594 L 119.835938 61.695312 C 119.835938 61.128906 120.210938 60.632812 120.75 60.480469 L 131.472656 57.441406 C 132.277344 57.214844 133.074219 57.820312 133.074219 58.65625 L 133.074219 59.894531 C 133.074219 60.460938 132.699219 60.957031 132.15625 61.109375 " fill-opacity="1" fill-rule="nonzero"/><path fill="#7f7e7c" d="M 132.15625 67.910156 L 121.4375 70.949219 C 120.632812 71.175781 119.835938 70.574219 119.835938 69.734375 L 119.835938 68.496094 C 119.835938 67.929688 120.210938 67.4375 120.75 67.28125 L 131.472656 64.246094 C 132.277344 64.015625 133.074219 64.621094 133.074219 65.457031 L 133.074219 66.699219 C 133.074219 67.261719 132.699219 67.757812 132.15625 67.910156 " fill-opacity="1" fill-rule="nonzero"/><path fill="#7f7e7c" d="M 132.15625 74.714844 L 121.4375 77.75 C 120.632812 77.980469 119.835938 77.375 119.835938 76.539062 L 119.835938 75.296875 C 119.835938 74.734375 120.210938 74.238281 120.75 74.085938 L 131.472656 71.046875 C 132.277344 70.820312 133.074219 71.421875 133.074219 72.261719 L 133.074219 73.5 C 133.074219 74.0625 132.699219 74.558594 132.15625 74.714844 " fill-opacity="1" fill-rule="nonzero"/><path fill="#7f7e7c" d="M 132.15625 81.515625 L 121.4375 84.554688 C 120.632812 84.78125 119.835938 84.175781 119.835938 83.339844 L 119.835938 82.101562 C 119.835938 81.535156 120.210938 81.039062 120.75 80.886719 L 131.472656 77.847656 C 132.277344 77.621094 133.074219 78.226562 133.074219 79.0625 L 133.074219 80.300781 C 133.074219 80.867188 132.699219 81.363281 132.15625 81.515625 " fill-opacity="1" fill-rule="nonzero"/><path fill="#ba7000" d="M 149.554688 15.855469 L 149.554688 24.824219 L 64.832031 24.824219 L 64.832031 15.855469 C 64.832031 15.453125 65.160156 15.125 65.5625 15.125 L 148.824219 15.125 C 149.226562 15.125 149.554688 15.453125 149.554688 15.855469 " fill-opacity="1" fill-rule="nonzero"/><path fill="#ffb413" d="M 149.554688 17.769531 L 149.554688 32.894531 C 149.554688 33.101562 149.382812 33.273438 149.175781 33.273438 L 64.832031 33.273438 L 64.832031 17.769531 C 64.832031 17.367188 65.160156 17.039062 65.5625 17.039062 L 148.824219 17.039062 C 149.226562 17.039062 149.554688 17.367188 149.554688 17.769531 " fill-opacity="1" fill-rule="nonzero"/><path fill="#1d1811" d="M 114.367188 18.082031 L 146.28125 18.082031 C 146.46875 18.082031 146.617188 18.230469 146.617188 18.417969 L 146.617188 30.992188 C 146.617188 31.179688 146.46875 31.328125 146.28125 31.328125 L 114.367188 31.328125 C 114.183594 31.328125 114.03125 31.179688 114.03125 30.992188 L 114.03125 18.417969 C 114.03125 18.230469 114.183594 18.082031 114.367188 18.082031 " fill-opacity="1" fill-rule="nonzero"/><path fill="#ba7000" d="M 72.679688 24.527344 L 78.246094 18.945312 C 78.523438 18.667969 78.972656 18.667969 79.25 18.945312 C 79.527344 19.222656 79.527344 19.675781 79.25 19.953125 L 73.683594 25.535156 C 73.40625 25.8125 72.957031 25.8125 72.679688 25.535156 C 72.402344 25.257812 72.402344 24.804688 72.679688 24.527344 " fill-opacity="1" fill-rule="nonzero"/><path fill="#ba7000" d="M 76.171875 24.527344 L 81.738281 18.945312 C 82.015625 18.667969 82.464844 18.667969 82.742188 18.945312 C 83.019531 19.222656 83.019531 19.675781 82.742188 19.953125 L 77.175781 25.535156 C 76.898438 25.8125 76.449219 25.8125 76.171875 25.535156 C 75.894531 25.257812 75.894531 24.804688 76.171875 24.527344 " fill-opacity="1" fill-rule="nonzero"/><path fill="#ba7000" d="M 79.664062 24.527344 L 85.230469 18.945312 C 85.507812 18.667969 85.957031 18.667969 86.234375 18.945312 C 86.511719 19.222656 86.511719 19.675781 86.234375 19.953125 L 80.667969 25.535156 C 80.390625 25.8125 79.941406 25.8125 79.664062 25.535156 C 79.386719 25.257812 79.386719 24.804688 79.664062 24.527344 " fill-opacity="1" fill-rule="nonzero"/><path fill="#ba7000" d="M 83.15625 24.527344 L 88.722656 18.945312 C 89 18.667969 89.449219 18.667969 89.726562 18.945312 C 90.003906 19.222656 90.003906 19.675781 89.726562 19.953125 L 84.160156 25.535156 C 83.882812 25.8125 83.433594 25.8125 83.15625 25.535156 C 82.878906 25.257812 82.878906 24.804688 83.15625 24.527344 " fill-opacity="1" fill-rule="nonzero"/><path fill="#ba7000" d="M 86.648438 24.527344 L 92.214844 18.945312 C 92.492188 18.667969 92.941406 18.667969 93.21875 18.945312 C 93.496094 19.222656 93.496094 19.675781 93.21875 19.953125 L 87.652344 25.535156 C 87.375 25.8125 86.925781 25.8125 86.648438 25.535156 C 86.375 25.257812 86.375 24.804688 86.648438 24.527344 " fill-opacity="1" fill-rule="nonzero"/><path fill="#ba7000" d="M 90.144531 24.527344 L 95.710938 18.945312 C 95.988281 18.667969 96.4375 18.667969 96.714844 18.945312 C 96.988281 19.222656 96.988281 19.675781 96.714844 19.953125 L 91.148438 25.535156 C 90.871094 25.8125 90.421875 25.8125 90.144531 25.535156 C 89.867188 25.257812 89.867188 24.804688 90.144531 24.527344 " fill-opacity="1" fill-rule="nonzero"/><path fill="#ba7000" d="M 93.636719 24.527344 L 99.203125 18.945312 C 99.480469 18.667969 99.929688 18.667969 100.207031 18.945312 C 100.484375 19.222656 100.484375 19.675781 100.207031 19.953125 L 94.640625 25.535156 C 94.363281 25.8125 93.914062 25.8125 93.636719 25.535156 C 93.359375 25.257812 93.359375 24.804688 93.636719 24.527344 " fill-opacity="1" fill-rule="nonzero"/><path fill="#ba7000" d="M 97.128906 24.527344 L 102.695312 18.945312 C 102.972656 18.667969 103.421875 18.667969 103.699219 18.945312 C 103.976562 19.222656 103.976562 19.675781 103.699219 19.953125 L 98.132812 25.535156 C 97.855469 25.8125 97.40625 25.8125 97.128906 25.535156 C 96.851562 25.257812 96.851562 24.804688 97.128906 24.527344 " fill-opacity="1" fill-rule="nonzero"/><path fill="#ba7000" d="M 100.621094 24.527344 L 106.1875 18.945312 C 106.464844 18.667969 106.914062 18.667969 107.191406 18.945312 C 107.46875 19.222656 107.46875 19.675781 107.191406 19.953125 L 101.625 25.535156 C 101.347656 25.8125 100.898438 25.8125 100.621094 25.535156 C 100.34375 25.257812 100.34375 24.804688 100.621094 24.527344 " fill-opacity="1" fill-rule="nonzero"/><path fill="#ba7000" d="M 69.28125 20.804688 L 71.132812 18.945312 C 71.410156 18.667969 71.859375 18.667969 72.136719 18.945312 C 72.414062 19.222656 72.414062 19.675781 72.136719 19.953125 L 70.285156 21.8125 C 70.007812 22.089844 69.558594 22.089844 69.28125 21.8125 C 69.003906 21.535156 69.003906 21.082031 69.28125 20.804688 " fill-opacity="1" fill-rule="nonzero"/><path fill="#ba7000" d="M 69.058594 24.527344 L 74.625 18.945312 C 74.902344 18.667969 75.351562 18.667969 75.628906 18.945312 C 75.90625 19.222656 75.90625 19.675781 75.628906 19.953125 L 70.0625 25.535156 C 69.785156 25.8125 69.335938 25.8125 69.058594 25.535156 C 68.78125 25.257812 68.78125 24.804688 69.058594 24.527344 " fill-opacity="1" fill-rule="nonzero"/><path fill="#ba7000" d="M 104.316406 24.527344 L 109.882812 18.945312 C 110.160156 18.667969 110.609375 18.667969 110.886719 18.945312 C 111.164062 19.222656 111.164062 19.675781 110.886719 19.953125 L 105.320312 25.535156 C 105.042969 25.8125 104.59375 25.8125 104.316406 25.535156 C 104.039062 25.257812 104.039062 24.804688 104.316406 24.527344 " fill-opacity="1" fill-rule="nonzero"/><path fill="#ba7000" d="M 108.058594 24.527344 L 109.964844 22.613281 C 110.242188 22.335938 110.691406 22.335938 110.96875 22.613281 C 111.246094 22.894531 111.246094 23.34375 110.96875 23.621094 L 109.0625 25.535156 C 108.785156 25.8125 108.335938 25.8125 108.058594 25.535156 C 107.78125 25.257812 107.78125 24.804688 108.058594 24.527344 " fill-opacity="1" fill-rule="nonzero"/><g clip-path="url(#b83b45bb3d)"><path fill="#ba7000" d="M 76.171875 39.871094 C 68.292969 39.871094 61.878906 33.4375 61.878906 25.535156 C 61.878906 17.628906 68.292969 11.199219 76.171875 11.199219 C 84.054688 11.199219 90.464844 17.628906 90.464844 25.535156 C 90.464844 33.4375 84.054688 39.871094 76.171875 39.871094 " fill-opacity="1" fill-rule="nonzero"/></g><path fill="#ffb413" d="M 63.402344 25.535156 C 63.402344 18.460938 69.117188 12.726562 76.171875 12.726562 C 83.226562 12.726562 88.941406 18.460938 88.941406 25.535156 C 88.941406 32.609375 83.226562 38.34375 76.171875 38.34375 C 69.117188 38.34375 63.402344 32.609375 63.402344 25.535156 " fill-opacity="1" fill-rule="nonzero"/><path fill="#1d1811" d="M 71.0625 25.535156 C 71.0625 22.707031 73.351562 20.410156 76.171875 20.410156 C 78.992188 20.410156 81.28125 22.707031 81.28125 25.535156 C 81.28125 28.363281 78.992188 30.65625 76.171875 30.65625 C 73.351562 30.65625 71.0625 28.363281 71.0625 25.535156 " fill-opacity="1" fill-rule="nonzero"/><path fill="#ffb413" d="M 72.710938 25.535156 C 72.710938 23.617188 74.261719 22.0625 76.171875 22.0625 C 78.082031 22.0625 79.632812 23.617188 79.632812 25.535156 C 79.632812 27.453125 78.082031 29.003906 76.171875 29.003906 C 74.261719 29.003906 72.710938 27.453125 72.710938 25.535156 " fill-opacity="1" fill-rule="nonzero"/><path fill="#1d1811" d="M 67.941406 32.242188 C 67.941406 31.75 68.339844 31.351562 68.832031 31.351562 C 69.320312 31.351562 69.71875 31.75 69.71875 32.242188 C 69.71875 32.734375 69.320312 33.132812 68.832031 33.132812 C 68.339844 33.132812 67.941406 32.734375 67.941406 32.242188 " fill-opacity="1" fill-rule="nonzero"/><path fill="#1d1811" d="M 72.652344 35.140625 C 72.652344 34.648438 73.046875 34.25 73.539062 34.25 C 74.03125 34.25 74.425781 34.648438 74.425781 35.140625 C 74.425781 35.632812 74.03125 36.03125 73.539062 36.03125 C 73.046875 36.03125 72.652344 35.632812 72.652344 35.140625 " fill-opacity="1" fill-rule="nonzero"/><path fill="#1d1811" d="M 78.386719 35 C 78.386719 34.507812 78.785156 34.109375 79.277344 34.109375 C 79.765625 34.109375 80.164062 34.507812 80.164062 35 C 80.164062 35.492188 79.765625 35.890625 79.277344 35.890625 C 78.785156 35.890625 78.386719 35.492188 78.386719 35 " fill-opacity="1" fill-rule="nonzero"/><path fill="#1d1811" d="M 82.933594 31.882812 C 82.933594 31.390625 83.332031 30.992188 83.824219 30.992188 C 84.3125 30.992188 84.710938 31.390625 84.710938 31.882812 C 84.710938 32.375 84.3125 32.773438 83.824219 32.773438 C 83.332031 32.773438 82.933594 32.375 82.933594 31.882812 " fill-opacity="1" fill-rule="nonzero"/><path fill="#1d1811" d="M 85.140625 26.753906 C 85.140625 26.261719 85.539062 25.863281 86.03125 25.863281 C 86.519531 25.863281 86.917969 26.261719 86.917969 26.753906 C 86.917969 27.246094 86.519531 27.644531 86.03125 27.644531 C 85.539062 27.644531 85.140625 27.246094 85.140625 26.753906 " fill-opacity="1" fill-rule="nonzero"/><path fill="#1d1811" d="M 84.1875 21.113281 C 84.1875 20.621094 84.582031 20.222656 85.074219 20.222656 C 85.5625 20.222656 85.960938 20.621094 85.960938 21.113281 C 85.960938 21.605469 85.5625 22.003906 85.074219 22.003906 C 84.582031 22.003906 84.1875 21.605469 84.1875 21.113281 " fill-opacity="1" fill-rule="nonzero"/><path fill="#1d1811" d="M 80.484375 17.050781 C 80.484375 16.558594 80.882812 16.15625 81.375 16.15625 C 81.863281 16.15625 82.261719 16.558594 82.261719 17.050781 C 82.261719 17.539062 81.863281 17.941406 81.375 17.941406 C 80.882812 17.941406 80.484375 17.539062 80.484375 17.050781 " fill-opacity="1" fill-rule="nonzero"/><path fill="#1d1811" d="M 75.023438 15.578125 C 75.023438 15.085938 75.421875 14.6875 75.910156 14.6875 C 76.402344 14.6875 76.800781 15.085938 76.800781 15.578125 C 76.800781 16.070312 76.402344 16.46875 75.910156 16.46875 C 75.421875 16.46875 75.023438 16.070312 75.023438 15.578125 " fill-opacity="1" fill-rule="nonzero"/><path fill="#1d1811" d="M 69.675781 17.3125 C 69.675781 16.824219 70.070312 16.421875 70.5625 16.421875 C 71.050781 16.421875 71.449219 16.824219 71.449219 17.3125 C 71.449219 17.804688 71.050781 18.207031 70.5625 18.207031 C 70.070312 18.207031 69.675781 17.804688 69.675781 17.3125 " fill-opacity="1" fill-rule="nonzero"/><path fill="#1d1811" d="M 66.175781 21.558594 C 66.175781 21.066406 66.574219 20.667969 67.0625 20.667969 C 67.554688 20.667969 67.949219 21.066406 67.949219 21.558594 C 67.949219 22.050781 67.554688 22.449219 67.0625 22.449219 C 66.574219 22.449219 66.175781 22.050781 66.175781 21.558594 " fill-opacity="1" fill-rule="nonzero"/><path fill="#1d1811" d="M 65.5 27.253906 C 65.5 26.761719 65.898438 26.363281 66.386719 26.363281 C 66.878906 26.363281 67.277344 26.761719 67.277344 27.253906 C 67.277344 27.746094 66.878906 28.144531 66.386719 28.144531 C 65.898438 28.144531 65.5 27.746094 65.5 27.253906 " fill-opacity="1" fill-rule="nonzero"/><path fill="#1d1811" d="M 67.941406 32.242188 C 67.941406 31.75 68.339844 31.351562 68.832031 31.351562 C 69.320312 31.351562 69.71875 31.75 69.71875 32.242188 C 69.71875 32.734375 69.320312 33.132812 68.832031 33.132812 C 68.339844 33.132812 67.941406 32.734375 67.941406 32.242188 " fill-opacity="1" fill-rule="nonzero"/><g clip-path="url(#e9828d0698)"><path fill="#ffb413" d="M 123.804688 100.285156 L 123.804688 90.5 L 56.507812 90.5 L 56.507812 100.285156 C 56.507812 100.570312 56.742188 100.800781 57.027344 100.800781 L 123.289062 100.800781 C 123.574219 100.800781 123.804688 100.570312 123.804688 100.285156 " fill-opacity="1" fill-rule="nonzero"/></g><g clip-path="url(#ca61eb7f57)"><path fill="#ffb413" d="M 150.097656 86.699219 C 150.097656 85.0625 148.785156 83.75 147.167969 83.75 L 46.984375 83.75 C 45.371094 83.75 44.058594 85.0625 44.058594 86.683594 C 44.058594 90.757812 47.339844 94.050781 51.390625 94.050781 L 142.765625 94.050781 C 146.816406 94.050781 150.097656 90.757812 150.097656 86.699219 " fill-opacity="1" fill-rule="nonzero"/></g><g clip-path="url(#efef0e4f75)"><path fill="#1d1811" d="M 150.097656 88.296875 C 150.097656 86.664062 148.785156 85.347656 147.167969 85.347656 L 46.984375 85.347656 C 45.371094 85.347656 44.058594 86.664062 44.058594 88.285156 C 44.058594 92.359375 47.339844 95.652344 51.390625 95.652344 L 142.765625 95.652344 C 146.816406 95.652344 150.097656 92.359375 150.097656 88.296875 " fill-opacity="1" fill-rule="nonzero"/></g><path fill="#ffb413" d="M 54.816406 92.183594 L 138.128906 92.183594 C 139.054688 92.183594 139.808594 91.429688 139.808594 90.5 C 139.808594 89.566406 139.054688 88.8125 138.128906 88.8125 L 54.816406 88.8125 C 53.886719 88.8125 53.136719 89.566406 53.136719 90.496094 C 53.136719 91.429688 53.886719 92.183594 54.816406 92.183594 " fill-opacity="1" fill-rule="nonzero"/><path fill="#ffb413" d="M 111.71875 84.453125 L 148.203125 84.453125 L 148.203125 60.164062 C 148.203125 60.007812 148.074219 59.878906 147.917969 59.878906 L 113.15625 59.878906 C 112.363281 59.878906 111.71875 60.523438 111.71875 61.320312 L 111.71875 84.453125 " fill-opacity="1" fill-rule="nonzero"/><path fill="#ffd375" d="M 118.855469 65.070312 L 136.132812 65.070312 C 136.835938 65.070312 137.40625 64.5 137.40625 63.792969 C 137.40625 63.085938 136.835938 62.511719 136.132812 62.511719 L 118.855469 62.511719 C 118.152344 62.511719 117.582031 63.085938 117.582031 63.792969 C 117.582031 64.5 118.152344 65.070312 118.855469 65.070312 " fill-opacity="1" fill-rule="nonzero"/><path fill="#ba7000" d="M 121.019531 67.402344 L 126.28125 72.679688 C 126.542969 72.941406 126.964844 72.941406 127.230469 72.679688 C 127.492188 72.417969 127.492188 71.992188 127.230469 71.726562 L 121.96875 66.453125 C 121.707031 66.1875 121.28125 66.1875 121.019531 66.453125 C 120.757812 66.714844 120.757812 67.140625 121.019531 67.402344 " fill-opacity="1" fill-rule="nonzero"/><path fill="#ba7000" d="M 124.320312 67.402344 L 129.582031 72.679688 C 129.84375 72.941406 130.269531 72.941406 130.53125 72.679688 C 130.792969 72.417969 130.792969 71.992188 130.53125 71.726562 L 125.269531 66.453125 C 125.007812 66.1875 124.582031 66.1875 124.320312 66.453125 C 124.058594 66.714844 124.058594 67.140625 124.320312 67.402344 " fill-opacity="1" fill-rule="nonzero"/><path fill="#ba7000" d="M 127.621094 67.402344 L 132.882812 72.679688 C 133.144531 72.941406 133.570312 72.941406 133.832031 72.679688 C 134.09375 72.417969 134.09375 71.992188 133.832031 71.726562 L 128.570312 66.453125 C 128.308594 66.1875 127.882812 66.1875 127.621094 66.453125 C 127.359375 66.714844 127.359375 67.140625 127.621094 67.402344 " fill-opacity="1" fill-rule="nonzero"/><path fill="#ba7000" d="M 117.808594 70.921875 L 119.558594 72.679688 C 119.820312 72.941406 120.246094 72.941406 120.507812 72.679688 C 120.769531 72.417969 120.769531 71.992188 120.507812 71.726562 L 118.753906 69.972656 C 118.492188 69.707031 118.070312 69.707031 117.808594 69.972656 C 117.546875 70.234375 117.546875 70.660156 117.808594 70.921875 " fill-opacity="1" fill-rule="nonzero"/><path fill="#ba7000" d="M 117.597656 67.402344 L 122.859375 72.679688 C 123.121094 72.941406 123.546875 72.941406 123.808594 72.679688 C 124.070312 72.417969 124.070312 71.992188 123.808594 71.726562 L 118.546875 66.453125 C 118.285156 66.1875 117.859375 66.1875 117.597656 66.453125 C 117.335938 66.714844 117.335938 67.140625 117.597656 67.402344 " fill-opacity="1" fill-rule="nonzero"/><path fill="#ba7000" d="M 130.921875 67.402344 L 136.183594 72.679688 C 136.445312 72.941406 136.871094 72.941406 137.132812 72.679688 C 137.394531 72.417969 137.394531 71.992188 137.132812 71.726562 L 131.871094 66.453125 C 131.609375 66.1875 131.183594 66.1875 130.921875 66.453125 C 130.660156 66.714844 130.660156 67.140625 130.921875 67.402344 " fill-opacity="1" fill-rule="nonzero"/><path fill="#ba7000" d="M 134.460938 67.402344 L 136.261719 69.210938 C 136.523438 69.476562 136.949219 69.476562 137.210938 69.210938 C 137.472656 68.949219 137.472656 68.523438 137.210938 68.261719 L 135.410156 66.453125 C 135.144531 66.1875 134.722656 66.1875 134.460938 66.453125 C 134.199219 66.714844 134.199219 67.140625 134.460938 67.402344 " fill-opacity="1" fill-rule="nonzero"/><path fill="#1d1811" d="M 128.308594 75.566406 C 128.308594 75.257812 128.058594 75.011719 127.753906 75.011719 C 127.445312 75.011719 127.199219 75.257812 127.199219 75.566406 C 127.199219 75.875 127.445312 76.121094 127.753906 76.121094 C 128.058594 76.121094 128.308594 75.875 128.308594 75.566406 " fill-opacity="1" fill-rule="nonzero"/><path fill="#1d1811" d="M 126.605469 75.566406 C 126.605469 75.257812 126.359375 75.011719 126.050781 75.011719 C 125.746094 75.011719 125.496094 75.257812 125.496094 75.566406 C 125.496094 75.875 125.746094 76.121094 126.050781 76.121094 C 126.359375 76.121094 126.605469 75.875 126.605469 75.566406 " fill-opacity="1" fill-rule="nonzero"/><path fill="#1d1811" d="M 124.90625 75.566406 C 124.90625 75.257812 124.65625 75.011719 124.351562 75.011719 C 124.042969 75.011719 123.796875 75.257812 123.796875 75.566406 C 123.796875 75.875 124.042969 76.121094 124.351562 76.121094 C 124.65625 76.121094 124.90625 75.875 124.90625 75.566406 " fill-opacity="1" fill-rule="nonzero"/><path fill="#1d1811" d="M 123.203125 75.566406 C 123.203125 75.257812 122.953125 75.011719 122.648438 75.011719 C 122.34375 75.011719 122.09375 75.257812 122.09375 75.566406 C 122.09375 75.875 122.34375 76.121094 122.648438 76.121094 C 122.953125 76.121094 123.203125 75.875 123.203125 75.566406 " fill-opacity="1" fill-rule="nonzero"/><path fill="#1d1811" d="M 121.503906 75.566406 C 121.503906 75.257812 121.253906 75.011719 120.949219 75.011719 C 120.640625 75.011719 120.390625 75.257812 120.390625 75.566406 C 120.390625 75.875 120.640625 76.121094 120.949219 76.121094 C 121.253906 76.121094 121.503906 75.875 121.503906 75.566406 " fill-opacity="1" fill-rule="nonzero"/><path fill="#1d1811" d="M 119.800781 75.566406 C 119.800781 75.257812 119.550781 75.011719 119.246094 75.011719 C 118.9375 75.011719 118.691406 75.257812 118.691406 75.566406 C 118.691406 75.875 118.9375 76.121094 119.246094 76.121094 C 119.550781 76.121094 119.800781 75.875 119.800781 75.566406 " fill-opacity="1" fill-rule="nonzero"/><path fill="#1d1811" d="M 128.308594 77.085938 C 128.308594 76.78125 128.058594 76.53125 127.753906 76.53125 C 127.445312 76.53125 127.199219 76.78125 127.199219 77.085938 C 127.199219 77.394531 127.445312 77.644531 127.753906 77.644531 C 128.058594 77.644531 128.308594 77.394531 128.308594 77.085938 " fill-opacity="1" fill-rule="nonzero"/><path fill="#1d1811" d="M 126.605469 77.085938 C 126.605469 76.78125 126.359375 76.53125 126.050781 76.53125 C 125.746094 76.53125 125.496094 76.78125 125.496094 77.085938 C 125.496094 77.394531 125.746094 77.644531 126.050781 77.644531 C 126.359375 77.644531 126.605469 77.394531 126.605469 77.085938 " fill-opacity="1" fill-rule="nonzero"/><path fill="#1d1811" d="M 124.90625 77.085938 C 124.90625 76.78125 124.65625 76.53125 124.351562 76.53125 C 124.042969 76.53125 123.796875 76.78125 123.796875 77.085938 C 123.796875 77.394531 124.042969 77.644531 124.351562 77.644531 C 124.65625 77.644531 124.90625 77.394531 124.90625 77.085938 " fill-opacity="1" fill-rule="nonzero"/><path fill="#1d1811" d="M 123.203125 77.085938 C 123.203125 76.78125 122.953125 76.53125 122.648438 76.53125 C 122.34375 76.53125 122.09375 76.78125 122.09375 77.085938 C 122.09375 77.394531 122.34375 77.644531 122.648438 77.644531 C 122.953125 77.644531 123.203125 77.394531 123.203125 77.085938 " fill-opacity="1" fill-rule="nonzero"/><path fill="#1d1811" d="M 121.503906 77.085938 C 121.503906 76.78125 121.253906 76.53125 120.949219 76.53125 C 120.640625 76.53125 120.390625 76.78125 120.390625 77.085938 C 120.390625 77.394531 120.640625 77.644531 120.949219 77.644531 C 121.253906 77.644531 121.503906 77.394531 121.503906 77.085938 " fill-opacity="1" fill-rule="nonzero"/><path fill="#1d1811" d="M 119.800781 77.085938 C 119.800781 76.78125 119.550781 76.53125 119.246094 76.53125 C 118.9375 76.53125 118.691406 76.78125 118.691406 77.085938 C 118.691406 77.394531 118.9375 77.644531 119.246094 77.644531 C 119.550781 77.644531 119.800781 77.394531 119.800781 77.085938 " fill-opacity="1" fill-rule="nonzero"/><path fill="#1d1811" d="M 128.308594 78.609375 C 128.308594 78.300781 128.058594 78.050781 127.753906 78.050781 C 127.445312 78.050781 127.199219 78.300781 127.199219 78.609375 C 127.199219 78.914062 127.445312 79.164062 127.753906 79.164062 C 128.058594 79.164062 128.308594 78.914062 128.308594 78.609375 " fill-opacity="1" fill-rule="nonzero"/><path fill="#1d1811" d="M 126.605469 78.609375 C 126.605469 78.300781 126.359375 78.050781 126.050781 78.050781 C 125.746094 78.050781 125.496094 78.300781 125.496094 78.609375 C 125.496094 78.914062 125.746094 79.164062 126.050781 79.164062 C 126.359375 79.164062 126.605469 78.914062 126.605469 78.609375 " fill-opacity="1" fill-rule="nonzero"/><path fill="#1d1811" d="M 124.90625 78.609375 C 124.90625 78.300781 124.65625 78.050781 124.351562 78.050781 C 124.042969 78.050781 123.796875 78.300781 123.796875 78.609375 C 123.796875 78.914062 124.042969 79.164062 124.351562 79.164062 C 124.65625 79.164062 124.90625 78.914062 124.90625 78.609375 " fill-opacity="1" fill-rule="nonzero"/><path fill="#1d1811" d="M 123.203125 78.609375 C 123.203125 78.300781 122.953125 78.050781 122.648438 78.050781 C 122.34375 78.050781 122.09375 78.300781 122.09375 78.609375 C 122.09375 78.914062 122.34375 79.164062 122.648438 79.164062 C 122.953125 79.164062 123.203125 78.914062 123.203125 78.609375 " fill-opacity="1" fill-rule="nonzero"/><path fill="#1d1811" d="M 121.503906 78.609375 C 121.503906 78.300781 121.253906 78.050781 120.949219 78.050781 C 120.640625 78.050781 120.390625 78.300781 120.390625 78.609375 C 120.390625 78.914062 120.640625 79.164062 120.949219 79.164062 C 121.253906 79.164062 121.503906 78.914062 121.503906 78.609375 " fill-opacity="1" fill-rule="nonzero"/><path fill="#1d1811" d="M 119.800781 78.609375 C 119.800781 78.300781 119.550781 78.050781 119.246094 78.050781 C 118.9375 78.050781 118.691406 78.300781 118.691406 78.609375 C 118.691406 78.914062 118.9375 79.164062 119.246094 79.164062 C 119.550781 79.164062 119.800781 78.914062 119.800781 78.609375 " fill-opacity="1" fill-rule="nonzero"/><path fill="#1d1811" d="M 128.308594 80.128906 C 128.308594 79.820312 128.058594 79.574219 127.753906 79.574219 C 127.445312 79.574219 127.199219 79.820312 127.199219 80.128906 C 127.199219 80.4375 127.445312 80.683594 127.753906 80.683594 C 128.058594 80.683594 128.308594 80.4375 128.308594 80.128906 " fill-opacity="1" fill-rule="nonzero"/><path fill="#1d1811" d="M 126.605469 80.128906 C 126.605469 79.820312 126.359375 79.574219 126.050781 79.574219 C 125.746094 79.574219 125.496094 79.820312 125.496094 80.128906 C 125.496094 80.4375 125.746094 80.683594 126.050781 80.683594 C 126.359375 80.683594 126.605469 80.4375 126.605469 80.128906 " fill-opacity="1" fill-rule="nonzero"/><path fill="#1d1811" d="M 124.90625 80.128906 C 124.90625 79.820312 124.65625 79.574219 124.351562 79.574219 C 124.042969 79.574219 123.796875 79.820312 123.796875 80.128906 C 123.796875 80.4375 124.042969 80.683594 124.351562 80.683594 C 124.65625 80.683594 124.90625 80.4375 124.90625 80.128906 " fill-opacity="1" fill-rule="nonzero"/><path fill="#1d1811" d="M 123.203125 80.128906 C 123.203125 79.820312 122.953125 79.574219 122.648438 79.574219 C 122.34375 79.574219 122.09375 79.820312 122.09375 80.128906 C 122.09375 80.4375 122.34375 80.683594 122.648438 80.683594 C 122.953125 80.683594 123.203125 80.4375 123.203125 80.128906 " fill-opacity="1" fill-rule="nonzero"/><path fill="#1d1811" d="M 121.503906 80.128906 C 121.503906 79.820312 121.253906 79.574219 120.949219 79.574219 C 120.640625 79.574219 120.390625 79.820312 120.390625 80.128906 C 120.390625 80.4375 120.640625 80.683594 120.949219 80.683594 C 121.253906 80.683594 121.503906 80.4375 121.503906 80.128906 " fill-opacity="1" fill-rule="nonzero"/><path fill="#1d1811" d="M 119.800781 80.128906 C 119.800781 79.820312 119.550781 79.574219 119.246094 79.574219 C 118.9375 79.574219 118.691406 79.820312 118.691406 80.128906 C 118.691406 80.4375 118.9375 80.683594 119.246094 80.683594 C 119.550781 80.683594 119.800781 80.4375 119.800781 80.128906 " fill-opacity="1" fill-rule="nonzero"/><path fill="#ba7000" d="M 118.867188 73.929688 C 118.28125 73.929688 117.804688 74.410156 117.804688 75 L 117.804688 80.601562 C 117.804688 81.1875 118.28125 81.667969 118.867188 81.667969 L 128.425781 81.667969 C 129.015625 81.667969 129.492188 81.1875 129.492188 80.601562 L 129.492188 75 C 129.492188 74.410156 129.015625 73.929688 128.425781 73.929688 Z M 128.425781 82.113281 L 118.867188 82.113281 C 118.035156 82.113281 117.359375 81.433594 117.359375 80.601562 L 117.359375 75 C 117.359375 74.164062 118.035156 73.484375 118.867188 73.484375 L 128.425781 73.484375 C 129.257812 73.484375 129.933594 74.164062 129.933594 75 L 129.933594 80.601562 C 129.933594 81.433594 129.257812 82.113281 128.425781 82.113281 " fill-opacity="1" fill-rule="nonzero"/><path fill="#ba7000" d="M 132.167969 73.929688 C 131.789062 73.929688 131.480469 74.242188 131.480469 74.621094 L 131.480469 80.976562 C 131.480469 81.359375 131.789062 81.667969 132.167969 81.667969 L 136.414062 81.667969 C 136.796875 81.667969 137.105469 81.359375 137.105469 80.976562 L 137.105469 74.621094 C 137.105469 74.242188 136.796875 73.929688 136.414062 73.929688 Z M 136.414062 82.113281 L 132.167969 82.113281 C 131.542969 82.113281 131.039062 81.605469 131.039062 80.976562 L 131.039062 74.621094 C 131.039062 73.996094 131.542969 73.484375 132.167969 73.484375 L 136.414062 73.484375 C 137.039062 73.484375 137.546875 73.996094 137.546875 74.621094 L 137.546875 80.976562 C 137.546875 81.605469 137.039062 82.113281 136.414062 82.113281 " fill-opacity="1" fill-rule="nonzero"/><path fill="#ba7000" d="M 143.617188 59.15625 L 137.183594 59.15625 L 137.183594 59.878906 L 143.617188 59.878906 L 143.617188 59.15625 " fill-opacity="1" fill-rule="nonzero"/><path fill="#ba7000" d="M 143.617188 33.226562 L 137.183594 33.226562 L 137.183594 33.949219 L 143.617188 33.949219 L 143.617188 33.226562 " fill-opacity="1" fill-rule="nonzero"/><path fill="#ba7000" d="M 123.804688 96.730469 L 56.507812 96.730469 L 56.507812 95.652344 L 123.804688 95.652344 L 123.804688 96.730469 " fill-opacity="1" fill-rule="nonzero"/><path fill="#ba7000" d="M 148.203125 82.710938 L 111.71875 82.710938 L 111.71875 83.75 L 148.203125 83.75 L 148.203125 82.710938 " fill-opacity="1" fill-rule="nonzero"/><g fill="#ffffff" fill-opacity="1"><g transform="translate(184.65356, 51.172546)"><g><path d="M 4.203125 0 L 1.75 0 L 1.75 -13.5 L 5.25 -13.5 L 8.65625 -3.578125 L 8.859375 -3.578125 L 12.25 -13.5 L 15.65625 -13.5 L 15.65625 0 L 13.125 0 L 13.125 -8.921875 L 12.890625 -8.953125 L 9.78125 0 L 7.546875 0 L 4.4375 -8.953125 L 4.203125 -8.921875 Z M 4.203125 0 "/></g></g></g><g fill="#ffffff" fill-opacity="1"><g transform="translate(202.078867, 51.172546)"><g><path d="M 5.984375 0.1875 C 5.046875 0.1875 4.210938 0.0703125 3.484375 -0.15625 C 2.753906 -0.382812 2.144531 -0.6875 1.65625 -1.0625 C 1.175781 -1.4375 0.804688 -1.847656 0.546875 -2.296875 L 2.015625 -4.09375 L 2.25 -4.09375 C 2.65625 -3.488281 3.171875 -3.003906 3.796875 -2.640625 C 4.421875 -2.285156 5.148438 -2.109375 5.984375 -2.109375 C 6.691406 -2.109375 7.226562 -2.257812 7.59375 -2.5625 C 7.957031 -2.863281 8.140625 -3.28125 8.140625 -3.8125 C 8.140625 -4.132812 8.082031 -4.398438 7.96875 -4.609375 C 7.851562 -4.828125 7.660156 -5.015625 7.390625 -5.171875 C 7.117188 -5.328125 6.75 -5.457031 6.28125 -5.5625 L 4.546875 -5.96875 C 3.335938 -6.238281 2.4375 -6.695312 1.84375 -7.34375 C 1.25 -7.988281 0.953125 -8.820312 0.953125 -9.84375 C 0.953125 -10.613281 1.140625 -11.285156 1.515625 -11.859375 C 1.898438 -12.441406 2.457031 -12.890625 3.1875 -13.203125 C 3.914062 -13.523438 4.789062 -13.6875 5.8125 -13.6875 C 6.84375 -13.6875 7.726562 -13.550781 8.46875 -13.28125 C 9.21875 -13.007812 9.847656 -12.585938 10.359375 -12.015625 L 9.03125 -10.203125 L 8.8125 -10.203125 C 8.425781 -10.609375 7.984375 -10.910156 7.484375 -11.109375 C 6.992188 -11.304688 6.4375 -11.40625 5.8125 -11.40625 C 5.070312 -11.40625 4.507812 -11.273438 4.125 -11.015625 C 3.75 -10.765625 3.5625 -10.410156 3.5625 -9.953125 C 3.5625 -9.523438 3.691406 -9.1875 3.953125 -8.9375 C 4.222656 -8.6875 4.691406 -8.488281 5.359375 -8.34375 L 7.125 -7.96875 C 8.4375 -7.695312 9.382812 -7.226562 9.96875 -6.5625 C 10.5625 -5.90625 10.859375 -5.046875 10.859375 -3.984375 C 10.859375 -3.140625 10.675781 -2.40625 10.3125 -1.78125 C 9.957031 -1.15625 9.410156 -0.671875 8.671875 -0.328125 C 7.941406 0.015625 7.046875 0.1875 5.984375 0.1875 Z M 5.984375 0.1875 "/></g></g></g><g fill="#ffffff" fill-opacity="1"><g transform="translate(213.677266, 51.172546)"><g><path d="M 4.203125 0 L 1.75 0 L 1.75 -13.5 L 5.25 -13.5 L 8.65625 -3.578125 L 8.859375 -3.578125 L 12.25 -13.5 L 15.65625 -13.5 L 15.65625 0 L 13.125 0 L 13.125 -8.921875 L 12.890625 -8.953125 L 9.78125 0 L 7.546875 0 L 4.4375 -8.953125 L 4.203125 -8.921875 Z M 4.203125 0 "/></g></g></g><g fill="#ffffff" fill-opacity="1"><g transform="translate(231.102573, 51.172546)"><g><path d="M 4.421875 -5.921875 L 4.421875 -2.234375 L 10.859375 -2.234375 L 10.859375 0 L 1.75 0 L 1.75 -13.5 L 10.71875 -13.5 L 10.71875 -11.265625 L 4.421875 -11.265625 L 4.421875 -8.109375 L 9.921875 -8.109375 L 9.921875 -5.921875 Z M 4.421875 -5.921875 "/></g></g></g><g fill="#ffffff" fill-opacity="1"><g transform="translate(242.710212, 51.172546)"><g/></g></g><g fill="#ffffff" fill-opacity="1"><g transform="translate(247.17043, 51.172546)"><g><path d="M 0.375 2.71875 C 0.914062 2.382812 1.398438 1.976562 1.828125 1.5 C 2.253906 1.03125 2.484375 0.554688 2.515625 0.078125 C 2.035156 0.078125 1.65625 -0.0625 1.375 -0.34375 C 1.101562 -0.632812 0.96875 -1.007812 0.96875 -1.46875 C 0.96875 -1.757812 1.03125 -2.019531 1.15625 -2.25 C 1.289062 -2.488281 1.484375 -2.675781 1.734375 -2.8125 C 1.984375 -2.945312 2.265625 -3.015625 2.578125 -3.015625 C 3.097656 -3.015625 3.507812 -2.84375 3.8125 -2.5 C 4.125 -2.164062 4.28125 -1.679688 4.28125 -1.046875 C 4.28125 0.046875 4 1 3.4375 1.8125 C 2.882812 2.625 2.144531 3.3125 1.21875 3.875 Z M 0.375 2.71875 "/></g></g></g><g fill="#ffffff" fill-opacity="1"><g transform="translate(252.424806, 51.172546)"><g/></g></g><g fill="#ffffff" fill-opacity="1"><g transform="translate(256.885024, 51.172546)"><g><path d="M 10.8125 -13.5 L 10.8125 -11.25 L 6.921875 -11.25 L 6.921875 0 L 4.265625 0 L 4.265625 -11.25 L 0.375 -11.25 L 0.375 -13.5 Z M 10.8125 -13.5 "/></g></g></g><g fill="#ffffff" fill-opacity="1"><g transform="translate(268.07711, 51.172546)"><g><path d="M 1.75 0 L 1.75 -13.5 L 7.171875 -13.5 C 8.566406 -13.5 9.617188 -13.175781 10.328125 -12.53125 C 11.046875 -11.882812 11.40625 -11 11.40625 -9.875 C 11.40625 -9.050781 11.195312 -8.378906 10.78125 -7.859375 C 10.363281 -7.335938 9.742188 -6.9375 8.921875 -6.65625 L 8.921875 -6.46875 C 9.335938 -6.28125 9.675781 -6.003906 9.9375 -5.640625 C 10.207031 -5.273438 10.457031 -4.738281 10.6875 -4.03125 L 12.03125 0 L 9.296875 0 L 7.96875 -4.03125 C 7.832031 -4.4375 7.679688 -4.75 7.515625 -4.96875 C 7.347656 -5.195312 7.132812 -5.363281 6.875 -5.46875 C 6.613281 -5.570312 6.273438 -5.625 5.859375 -5.625 L 4.421875 -5.625 L 4.421875 0 Z M 6.84375 -7.734375 C 8.132812 -7.734375 8.78125 -8.335938 8.78125 -9.546875 C 8.78125 -10.765625 8.132812 -11.375 6.84375 -11.375 L 4.421875 -11.375 L 4.421875 -7.734375 Z M 6.84375 -7.734375 "/></g></g></g><g fill="#ffffff" fill-opacity="1"><g transform="translate(280.700532, 51.172546)"><g><path d="M 12.953125 0 L 10.140625 0 L 9.125 -3.109375 L 3.953125 -3.109375 L 2.9375 0 L 0.203125 0 L 4.859375 -13.5 L 8.296875 -13.5 Z M 6.421875 -10.6875 L 4.6875 -5.359375 L 8.390625 -5.359375 L 6.640625 -10.6875 Z M 6.421875 -10.6875 "/></g></g></g><g fill="#ffffff" fill-opacity="1"><g transform="translate(293.859549, 51.172546)"><g><path d="M 6.609375 -13.5 C 8.796875 -13.5 10.46875 -12.929688 11.625 -11.796875 C 12.78125 -10.660156 13.359375 -8.976562 13.359375 -6.75 C 13.359375 -4.519531 12.78125 -2.835938 11.625 -1.703125 C 10.46875 -0.566406 8.796875 0 6.609375 0 L 1.75 0 L 1.75 -13.5 Z M 6.453125 -2.25 C 7.847656 -2.25 8.890625 -2.601562 9.578125 -3.3125 C 10.265625 -4.019531 10.609375 -5.164062 10.609375 -6.75 C 10.609375 -8.332031 10.265625 -9.476562 9.578125 -10.1875 C 8.890625 -10.894531 7.847656 -11.25 6.453125 -11.25 L 4.421875 -11.25 L 4.421875 -2.25 Z M 6.453125 -2.25 "/></g></g></g><g fill="#ffffff" fill-opacity="1"><g transform="translate(308.292912, 51.172546)"><g><path d="M 4.421875 -5.921875 L 4.421875 -2.234375 L 10.859375 -2.234375 L 10.859375 0 L 1.75 0 L 1.75 -13.5 L 10.71875 -13.5 L 10.71875 -11.265625 L 4.421875 -11.265625 L 4.421875 -8.109375 L 9.921875 -8.109375 L 9.921875 -5.921875 Z M 4.421875 -5.921875 "/></g></g></g><g fill="#ffffff" fill-opacity="1"><g transform="translate(319.900551, 51.172546)"><g><path d="M 4.203125 0 L 1.75 0 L 1.75 -13.5 L 5.25 -13.5 L 8.65625 -3.578125 L 8.859375 -3.578125 L 12.25 -13.5 L 15.65625 -13.5 L 15.65625 0 L 13.125 0 L 13.125 -8.921875 L 12.890625 -8.953125 L 9.78125 0 L 7.546875 0 L 4.4375 -8.953125 L 4.203125 -8.921875 Z M 4.203125 0 "/></g></g></g><g fill="#ffffff" fill-opacity="1"><g transform="translate(337.325859, 51.172546)"><g><path d="M 12.953125 0 L 10.140625 0 L 9.125 -3.109375 L 3.953125 -3.109375 L 2.9375 0 L 0.203125 0 L 4.859375 -13.5 L 8.296875 -13.5 Z M 6.421875 -10.6875 L 4.6875 -5.359375 L 8.390625 -5.359375 L 6.640625 -10.6875 Z M 6.421875 -10.6875 "/></g></g></g><g fill="#ffffff" fill-opacity="1"><g transform="translate(350.484876, 51.172546)"><g><path d="M 1.75 0 L 1.75 -13.5 L 7.171875 -13.5 C 8.566406 -13.5 9.617188 -13.175781 10.328125 -12.53125 C 11.046875 -11.882812 11.40625 -11 11.40625 -9.875 C 11.40625 -9.050781 11.195312 -8.378906 10.78125 -7.859375 C 10.363281 -7.335938 9.742188 -6.9375 8.921875 -6.65625 L 8.921875 -6.46875 C 9.335938 -6.28125 9.675781 -6.003906 9.9375 -5.640625 C 10.207031 -5.273438 10.457031 -4.738281 10.6875 -4.03125 L 12.03125 0 L 9.296875 0 L 7.96875 -4.03125 C 7.832031 -4.4375 7.679688 -4.75 7.515625 -4.96875 C 7.347656 -5.195312 7.132812 -5.363281 6.875 -5.46875 C 6.613281 -5.570312 6.273438 -5.625 5.859375 -5.625 L 4.421875 -5.625 L 4.421875 0 Z M 6.84375 -7.734375 C 8.132812 -7.734375 8.78125 -8.335938 8.78125 -9.546875 C 8.78125 -10.765625 8.132812 -11.375 6.84375 -11.375 L 4.421875 -11.375 L 4.421875 -7.734375 Z M 6.84375 -7.734375 "/></g></g></g><g fill="#ffffff" fill-opacity="1"><g transform="translate(363.108298, 51.172546)"><g><path d="M 1.75 0 L 1.75 -13.5 L 4.421875 -13.5 L 4.421875 -7.984375 L 4.71875 -7.984375 L 9.21875 -13.5 L 11.953125 -13.5 L 11.953125 -13.265625 L 6.984375 -7.125 L 12.46875 -0.234375 L 12.46875 0 L 9.453125 0 L 4.71875 -5.828125 L 4.421875 -5.828125 L 4.421875 0 Z M 1.75 0 "/></g></g></g><g fill="#ffffff" fill-opacity="1"><g transform="translate(375.58397, 51.172546)"><g/></g></g><g fill="#ffffff" fill-opacity="1"><g transform="translate(380.044177, 51.172546)"><g><path d="M 0.375 2.71875 C 0.914062 2.382812 1.398438 1.976562 1.828125 1.5 C 2.253906 1.03125 2.484375 0.554688 2.515625 0.078125 C 2.035156 0.078125 1.65625 -0.0625 1.375 -0.34375 C 1.101562 -0.632812 0.96875 -1.007812 0.96875 -1.46875 C 0.96875 -1.757812 1.03125 -2.019531 1.15625 -2.25 C 1.289062 -2.488281 1.484375 -2.675781 1.734375 -2.8125 C 1.984375 -2.945312 2.265625 -3.015625 2.578125 -3.015625 C 3.097656 -3.015625 3.507812 -2.84375 3.8125 -2.5 C 4.125 -2.164062 4.28125 -1.679688 4.28125 -1.046875 C 4.28125 0.046875 4 1 3.4375 1.8125 C 2.882812 2.625 2.144531 3.3125 1.21875 3.875 Z M 0.375 2.71875 "/></g></g></g><g fill="#ffffff" fill-opacity="1"><g transform="translate(385.298564, 51.172546)"><g/></g></g><g fill="#ffffff" fill-opacity="1"><g transform="translate(389.758782, 51.172546)"><g><path d="M 6.96875 -13.5 C 7.9375 -13.5 8.765625 -13.320312 9.453125 -12.96875 C 10.140625 -12.613281 10.65625 -12.117188 11 -11.484375 C 11.351562 -10.847656 11.53125 -10.109375 11.53125 -9.265625 C 11.53125 -8.421875 11.351562 -7.679688 11 -7.046875 C 10.65625 -6.410156 10.140625 -5.914062 9.453125 -5.5625 C 8.765625 -5.207031 7.9375 -5.03125 6.96875 -5.03125 L 4.421875 -5.03125 L 4.421875 0 L 1.75 0 L 1.75 -13.5 Z M 6.625 -7.140625 C 8.101562 -7.140625 8.84375 -7.847656 8.84375 -9.265625 C 8.84375 -10.671875 8.101562 -11.375 6.625 -11.375 L 4.421875 -11.375 L 4.421875 -7.140625 Z M 6.625 -7.140625 "/></g></g></g><g fill="#ffffff" fill-opacity="1"><g transform="translate(402.095932, 51.172546)"><g><path d="M 12.953125 0 L 10.140625 0 L 9.125 -3.109375 L 3.953125 -3.109375 L 2.9375 0 L 0.203125 0 L 4.859375 -13.5 L 8.296875 -13.5 Z M 6.421875 -10.6875 L 4.6875 -5.359375 L 8.390625 -5.359375 L 6.640625 -10.6875 Z M 6.421875 -10.6875 "/></g></g></g><g fill="#ffffff" fill-opacity="1"><g transform="translate(415.254961, 51.172546)"><g><path d="M 10.8125 -13.5 L 10.8125 -11.25 L 6.921875 -11.25 L 6.921875 0 L 4.265625 0 L 4.265625 -11.25 L 0.375 -11.25 L 0.375 -13.5 Z M 10.8125 -13.5 "/></g></g></g><g fill="#ffffff" fill-opacity="1"><g transform="translate(426.447046, 51.172546)"><g><path d="M 4.421875 -5.921875 L 4.421875 -2.234375 L 10.859375 -2.234375 L 10.859375 0 L 1.75 0 L 1.75 -13.5 L 10.71875 -13.5 L 10.71875 -11.265625 L 4.421875 -11.265625 L 4.421875 -8.109375 L 9.921875 -8.109375 L 9.921875 -5.921875 Z M 4.421875 -5.921875 "/></g></g></g><g fill="#ffffff" fill-opacity="1"><g transform="translate(438.054674, 51.172546)"><g><path d="M 4.34375 0 L 1.75 0 L 1.75 -13.5 L 4.8125 -13.5 L 10.234375 -4.796875 L 10.46875 -4.84375 L 10.46875 -13.5 L 13.03125 -13.5 L 13.03125 0 L 10.296875 0 L 4.5625 -9.28125 L 4.34375 -9.25 Z M 4.34375 0 "/></g></g></g><g fill="#ffffff" fill-opacity="1"><g transform="translate(452.857413, 51.172546)"><g><path d="M 10.8125 -13.5 L 10.8125 -11.25 L 6.921875 -11.25 L 6.921875 0 L 4.265625 0 L 4.265625 -11.25 L 0.375 -11.25 L 0.375 -13.5 Z M 10.8125 -13.5 "/></g></g></g><g fill="#ffffff" fill-opacity="1"><g transform="translate(464.049498, 51.172546)"><g><path d="M 5.984375 0.1875 C 5.046875 0.1875 4.210938 0.0703125 3.484375 -0.15625 C 2.753906 -0.382812 2.144531 -0.6875 1.65625 -1.0625 C 1.175781 -1.4375 0.804688 -1.847656 0.546875 -2.296875 L 2.015625 -4.09375 L 2.25 -4.09375 C 2.65625 -3.488281 3.171875 -3.003906 3.796875 -2.640625 C 4.421875 -2.285156 5.148438 -2.109375 5.984375 -2.109375 C 6.691406 -2.109375 7.226562 -2.257812 7.59375 -2.5625 C 7.957031 -2.863281 8.140625 -3.28125 8.140625 -3.8125 C 8.140625 -4.132812 8.082031 -4.398438 7.96875 -4.609375 C 7.851562 -4.828125 7.660156 -5.015625 7.390625 -5.171875 C 7.117188 -5.328125 6.75 -5.457031 6.28125 -5.5625 L 4.546875 -5.96875 C 3.335938 -6.238281 2.4375 -6.695312 1.84375 -7.34375 C 1.25 -7.988281 0.953125 -8.820312 0.953125 -9.84375 C 0.953125 -10.613281 1.140625 -11.285156 1.515625 -11.859375 C 1.898438 -12.441406 2.457031 -12.890625 3.1875 -13.203125 C 3.914062 -13.523438 4.789062 -13.6875 5.8125 -13.6875 C 6.84375 -13.6875 7.726562 -13.550781 8.46875 -13.28125 C 9.21875 -13.007812 9.847656 -12.585938 10.359375 -12.015625 L 9.03125 -10.203125 L 8.8125 -10.203125 C 8.425781 -10.609375 7.984375 -10.910156 7.484375 -11.109375 C 6.992188 -11.304688 6.4375 -11.40625 5.8125 -11.40625 C 5.070312 -11.40625 4.507812 -11.273438 4.125 -11.015625 C 3.75 -10.765625 3.5625 -10.410156 3.5625 -9.953125 C 3.5625 -9.523438 3.691406 -9.1875 3.953125 -8.9375 C 4.222656 -8.6875 4.691406 -8.488281 5.359375 -8.34375 L 7.125 -7.96875 C 8.4375 -7.695312 9.382812 -7.226562 9.96875 -6.5625 C 10.5625 -5.90625 10.859375 -5.046875 10.859375 -3.984375 C 10.859375 -3.140625 10.675781 -2.40625 10.3125 -1.78125 C 9.957031 -1.15625 9.410156 -0.671875 8.671875 -0.328125 C 7.941406 0.015625 7.046875 0.1875 5.984375 0.1875 Z M 5.984375 0.1875 "/></g></g></g><g fill="#ffffff" fill-opacity="1"><g transform="translate(475.647897, 51.172546)"><g/></g></g><g fill="#ffffff" fill-opacity="1"><g transform="translate(480.108115, 51.172546)"><g><path d="M 12.953125 0 L 10.140625 0 L 9.125 -3.109375 L 3.953125 -3.109375 L 2.9375 0 L 0.203125 0 L 4.859375 -13.5 L 8.296875 -13.5 Z M 6.421875 -10.6875 L 4.6875 -5.359375 L 8.390625 -5.359375 L 6.640625 -10.6875 Z M 6.421875 -10.6875 "/></g></g></g><g fill="#ffffff" fill-opacity="1"><g transform="translate(493.267121, 51.172546)"><g><path d="M 4.34375 0 L 1.75 0 L 1.75 -13.5 L 4.8125 -13.5 L 10.234375 -4.796875 L 10.46875 -4.84375 L 10.46875 -13.5 L 13.03125 -13.5 L 13.03125 0 L 10.296875 0 L 4.5625 -9.28125 L 4.34375 -9.25 Z M 4.34375 0 "/></g></g></g><g fill="#ffffff" fill-opacity="1"><g transform="translate(508.069861, 51.172546)"><g><path d="M 6.609375 -13.5 C 8.796875 -13.5 10.46875 -12.929688 11.625 -11.796875 C 12.78125 -10.660156 13.359375 -8.976562 13.359375 -6.75 C 13.359375 -4.519531 12.78125 -2.835938 11.625 -1.703125 C 10.46875 -0.566406 8.796875 0 6.609375 0 L 1.75 0 L 1.75 -13.5 Z M 6.453125 -2.25 C 7.847656 -2.25 8.890625 -2.601562 9.578125 -3.3125 C 10.265625 -4.019531 10.609375 -5.164062 10.609375 -6.75 C 10.609375 -8.332031 10.265625 -9.476562 9.578125 -10.1875 C 8.890625 -10.894531 7.847656 -11.25 6.453125 -11.25 L 4.421875 -11.25 L 4.421875 -2.25 Z M 6.453125 -2.25 "/></g></g></g><g fill="#ffffff" fill-opacity="1"><g transform="translate(522.503224, 51.172546)"><g/></g></g><g fill="#ffffff" fill-opacity="1"><g transform="translate(526.963442, 51.172546)"><g><path d="M 4.203125 0 L 1.75 0 L 1.75 -13.5 L 5.25 -13.5 L 8.65625 -3.578125 L 8.859375 -3.578125 L 12.25 -13.5 L 15.65625 -13.5 L 15.65625 0 L 13.125 0 L 13.125 -8.921875 L 12.890625 -8.953125 L 9.78125 0 L 7.546875 0 L 4.4375 -8.953125 L 4.203125 -8.921875 Z M 4.203125 0 "/></g></g></g><g fill="#ffffff" fill-opacity="1"><g transform="translate(544.38875, 51.172546)"><g><path d="M 7.359375 0.1875 C 6.117188 0.1875 5.023438 -0.0625 4.078125 -0.5625 C 3.140625 -1.0625 2.398438 -1.832031 1.859375 -2.875 C 1.328125 -3.914062 1.0625 -5.207031 1.0625 -6.75 C 1.0625 -8.289062 1.328125 -9.578125 1.859375 -10.609375 C 2.398438 -11.648438 3.140625 -12.421875 4.078125 -12.921875 C 5.023438 -13.429688 6.117188 -13.6875 7.359375 -13.6875 C 8.597656 -13.6875 9.6875 -13.4375 10.625 -12.9375 C 11.5625 -12.4375 12.296875 -11.664062 12.828125 -10.625 C 13.367188 -9.582031 13.640625 -8.289062 13.640625 -6.75 C 13.640625 -5.207031 13.367188 -3.914062 12.828125 -2.875 C 12.296875 -1.832031 11.5625 -1.0625 10.625 -0.5625 C 9.6875 -0.0625 8.597656 0.1875 7.359375 0.1875 Z M 7.359375 -2.125 C 8.503906 -2.125 9.378906 -2.488281 9.984375 -3.21875 C 10.585938 -3.957031 10.890625 -5.132812 10.890625 -6.75 C 10.890625 -8.363281 10.585938 -9.535156 9.984375 -10.265625 C 9.378906 -11.003906 8.503906 -11.375 7.359375 -11.375 C 6.203125 -11.375 5.320312 -11.003906 4.71875 -10.265625 C 4.113281 -9.535156 3.8125 -8.363281 3.8125 -6.75 C 3.8125 -5.132812 4.113281 -3.957031 4.71875 -3.21875 C 5.320312 -2.488281 6.203125 -2.125 7.359375 -2.125 Z M 7.359375 -2.125 "/></g></g></g><g fill="#ffffff" fill-opacity="1"><g transform="translate(559.099133, 51.172546)"><g><path d="M 1.75 0 L 1.75 -13.5 L 7.171875 -13.5 C 8.566406 -13.5 9.617188 -13.175781 10.328125 -12.53125 C 11.046875 -11.882812 11.40625 -11 11.40625 -9.875 C 11.40625 -9.050781 11.195312 -8.378906 10.78125 -7.859375 C 10.363281 -7.335938 9.742188 -6.9375 8.921875 -6.65625 L 8.921875 -6.46875 C 9.335938 -6.28125 9.675781 -6.003906 9.9375 -5.640625 C 10.207031 -5.273438 10.457031 -4.738281 10.6875 -4.03125 L 12.03125 0 L 9.296875 0 L 7.96875 -4.03125 C 7.832031 -4.4375 7.679688 -4.75 7.515625 -4.96875 C 7.347656 -5.195312 7.132812 -5.363281 6.875 -5.46875 C 6.613281 -5.570312 6.273438 -5.625 5.859375 -5.625 L 4.421875 -5.625 L 4.421875 0 Z M 6.84375 -7.734375 C 8.132812 -7.734375 8.78125 -8.335938 8.78125 -9.546875 C 8.78125 -10.765625 8.132812 -11.375 6.84375 -11.375 L 4.421875 -11.375 L 4.421875 -7.734375 Z M 6.84375 -7.734375 "/></g></g></g><g fill="#ffffff" fill-opacity="1"><g transform="translate(571.722533, 51.172546)"><g><path d="M 4.421875 -5.921875 L 4.421875 -2.234375 L 10.859375 -2.234375 L 10.859375 0 L 1.75 0 L 1.75 -13.5 L 10.71875 -13.5 L 10.71875 -11.265625 L 4.421875 -11.265625 L 4.421875 -8.109375 L 9.921875 -8.109375 L 9.921875 -5.921875 Z M 4.421875 -5.921875 "/></g></g></g></svg>