<svg xmlns="http://www.w3.org/2000/svg" xmlns:xlink="http://www.w3.org/1999/xlink" width="1420" zoomAndPan="magnify" viewBox="0 0 1065 112.499997" height="150" preserveAspectRatio="xMidYMid meet" version="1.0"><defs><g/><clipPath id="9a8f283571"><path d="M 2.355469 0 L 1062.644531 0 L 1062.644531 112.003906 L 2.355469 112.003906 Z M 2.355469 0 " clip-rule="nonzero"/></clipPath><linearGradient x1="0" gradientTransform="matrix(0.746681, 0, 0, 0.746681, 2.35621, 0)" y1="0" x2="1419.999941" gradientUnits="userSpaceOnUse" y2="0" id="6c7e71450a"><stop stop-opacity="1" stop-color="rgb(5.099487%, 0%, 44.699097%)" offset="0"/><stop stop-opacity="1" stop-color="rgb(5.233765%, 0.311279%, 45.045471%)" offset="0.00390625"/><stop stop-opacity="1" stop-color="rgb(5.369568%, 0.624084%, 45.391846%)" offset="0.0078125"/><stop stop-opacity="1" stop-color="rgb(5.503845%, 0.93689%, 45.736694%)" offset="0.0117188"/><stop stop-opacity="1" stop-color="rgb(5.639648%, 1.249695%, 46.083069%)" offset="0.015625"/><stop stop-opacity="1" stop-color="rgb(5.773926%, 1.560974%, 46.429443%)" offset="0.0195312"/><stop stop-opacity="1" stop-color="rgb(5.909729%, 1.873779%, 46.775818%)" offset="0.0234375"/><stop stop-opacity="1" stop-color="rgb(6.044006%, 2.186584%, 47.122192%)" offset="0.0273438"/><stop stop-opacity="1" stop-color="rgb(6.17981%, 2.49939%, 47.468567%)" offset="0.03125"/><stop stop-opacity="1" stop-color="rgb(6.315613%, 2.810669%, 47.813416%)" offset="0.0351562"/><stop stop-opacity="1" stop-color="rgb(6.451416%, 3.123474%, 48.15979%)" offset="0.0390625"/><stop stop-opacity="1" stop-color="rgb(6.585693%, 3.436279%, 48.506165%)" offset="0.0429688"/><stop stop-opacity="1" stop-color="rgb(6.721497%, 3.749084%, 48.852539%)" offset="0.046875"/><stop stop-opacity="1" stop-color="rgb(6.855774%, 4.06189%, 49.198914%)" offset="0.0507812"/><stop stop-opacity="1" stop-color="rgb(6.991577%, 4.374695%, 49.545288%)" offset="0.0546875"/><stop stop-opacity="1" stop-color="rgb(7.125854%, 4.685974%, 49.890137%)" offset="0.0585938"/><stop stop-opacity="1" stop-color="rgb(7.261658%, 4.998779%, 50.236511%)" offset="0.0625"/><stop stop-opacity="1" stop-color="rgb(7.395935%, 5.311584%, 50.582886%)" offset="0.0664062"/><stop stop-opacity="1" stop-color="rgb(7.531738%, 5.62439%, 50.92926%)" offset="0.0703125"/><stop stop-opacity="1" stop-color="rgb(7.666016%, 5.935669%, 51.274109%)" offset="0.0742188"/><stop stop-opacity="1" stop-color="rgb(7.801819%, 6.248474%, 51.620483%)" offset="0.078125"/><stop stop-opacity="1" stop-color="rgb(7.937622%, 6.561279%, 51.966858%)" offset="0.0820312"/><stop stop-opacity="1" stop-color="rgb(8.073425%, 6.874084%, 52.313232%)" offset="0.0859375"/><stop stop-opacity="1" stop-color="rgb(8.207703%, 7.18689%, 52.659607%)" offset="0.0898438"/><stop stop-opacity="1" stop-color="rgb(8.343506%, 7.499695%, 53.005981%)" offset="0.09375"/><stop stop-opacity="1" stop-color="rgb(8.477783%, 7.810974%, 53.35083%)" offset="0.0976562"/><stop stop-opacity="1" stop-color="rgb(8.613586%, 8.123779%, 53.697205%)" offset="0.101562"/><stop stop-opacity="1" stop-color="rgb(8.747864%, 8.436584%, 54.043579%)" offset="0.105469"/><stop stop-opacity="1" stop-color="rgb(8.883667%, 8.74939%, 54.389954%)" offset="0.109375"/><stop stop-opacity="1" stop-color="rgb(9.017944%, 9.060669%, 54.736328%)" offset="0.113281"/><stop stop-opacity="1" stop-color="rgb(9.153748%, 9.373474%, 55.082703%)" offset="0.117188"/><stop stop-opacity="1" stop-color="rgb(9.288025%, 9.686279%, 55.427551%)" offset="0.121094"/><stop stop-opacity="1" stop-color="rgb(9.423828%, 9.999084%, 55.773926%)" offset="0.125"/><stop stop-opacity="1" stop-color="rgb(9.558105%, 10.31189%, 56.1203%)" offset="0.128906"/><stop stop-opacity="1" stop-color="rgb(9.693909%, 10.624695%, 56.466675%)" offset="0.132812"/><stop stop-opacity="1" stop-color="rgb(9.829712%, 10.935974%, 56.811523%)" offset="0.136719"/><stop stop-opacity="1" stop-color="rgb(9.965515%, 11.248779%, 57.157898%)" offset="0.140625"/><stop stop-opacity="1" stop-color="rgb(10.099792%, 11.561584%, 57.504272%)" offset="0.144531"/><stop stop-opacity="1" stop-color="rgb(10.235596%, 11.87439%, 57.850647%)" offset="0.148438"/><stop stop-opacity="1" stop-color="rgb(10.369873%, 12.185669%, 58.197021%)" offset="0.152344"/><stop stop-opacity="1" stop-color="rgb(10.505676%, 12.498474%, 58.543396%)" offset="0.15625"/><stop stop-opacity="1" stop-color="rgb(10.639954%, 12.811279%, 58.888245%)" offset="0.160156"/><stop stop-opacity="1" stop-color="rgb(10.775757%, 13.124084%, 59.234619%)" offset="0.164062"/><stop stop-opacity="1" stop-color="rgb(10.910034%, 13.43689%, 59.580994%)" offset="0.167969"/><stop stop-opacity="1" stop-color="rgb(11.045837%, 13.749695%, 59.927368%)" offset="0.171875"/><stop stop-opacity="1" stop-color="rgb(11.180115%, 14.060974%, 60.273743%)" offset="0.175781"/><stop stop-opacity="1" stop-color="rgb(11.315918%, 14.373779%, 60.620117%)" offset="0.179688"/><stop stop-opacity="1" stop-color="rgb(11.450195%, 14.686584%, 60.964966%)" offset="0.183594"/><stop stop-opacity="1" stop-color="rgb(11.585999%, 14.99939%, 61.31134%)" offset="0.1875"/><stop stop-opacity="1" stop-color="rgb(11.721802%, 15.310669%, 61.657715%)" offset="0.191406"/><stop stop-opacity="1" stop-color="rgb(11.857605%, 15.623474%, 62.004089%)" offset="0.195312"/><stop stop-opacity="1" stop-color="rgb(11.991882%, 15.936279%, 62.350464%)" offset="0.199219"/><stop stop-opacity="1" stop-color="rgb(12.127686%, 16.249084%, 62.696838%)" offset="0.203125"/><stop stop-opacity="1" stop-color="rgb(12.261963%, 16.56189%, 63.041687%)" offset="0.207031"/><stop stop-opacity="1" stop-color="rgb(12.397766%, 16.874695%, 63.388062%)" offset="0.210938"/><stop stop-opacity="1" stop-color="rgb(12.532043%, 17.185974%, 63.734436%)" offset="0.214844"/><stop stop-opacity="1" stop-color="rgb(12.667847%, 17.498779%, 64.080811%)" offset="0.21875"/><stop stop-opacity="1" stop-color="rgb(12.802124%, 17.811584%, 64.425659%)" offset="0.222656"/><stop stop-opacity="1" stop-color="rgb(12.937927%, 18.12439%, 64.772034%)" offset="0.226562"/><stop stop-opacity="1" stop-color="rgb(13.072205%, 18.435669%, 65.118408%)" offset="0.230469"/><stop stop-opacity="1" stop-color="rgb(13.208008%, 18.748474%, 65.464783%)" offset="0.234375"/><stop stop-opacity="1" stop-color="rgb(13.343811%, 19.061279%, 65.811157%)" offset="0.238281"/><stop stop-opacity="1" stop-color="rgb(13.479614%, 19.374084%, 66.157532%)" offset="0.242188"/><stop stop-opacity="1" stop-color="rgb(13.613892%, 19.68689%, 66.50238%)" offset="0.246094"/><stop stop-opacity="1" stop-color="rgb(13.749695%, 19.999695%, 66.848755%)" offset="0.25"/><stop stop-opacity="1" stop-color="rgb(13.883972%, 20.310974%, 67.195129%)" offset="0.253906"/><stop stop-opacity="1" stop-color="rgb(14.019775%, 20.623779%, 67.541504%)" offset="0.257812"/><stop stop-opacity="1" stop-color="rgb(14.154053%, 20.936584%, 67.887878%)" offset="0.261719"/><stop stop-opacity="1" stop-color="rgb(14.289856%, 21.24939%, 68.234253%)" offset="0.265625"/><stop stop-opacity="1" stop-color="rgb(14.424133%, 21.560669%, 68.579102%)" offset="0.269531"/><stop stop-opacity="1" stop-color="rgb(14.559937%, 21.873474%, 68.925476%)" offset="0.273438"/><stop stop-opacity="1" stop-color="rgb(14.694214%, 22.186279%, 69.271851%)" offset="0.277344"/><stop stop-opacity="1" stop-color="rgb(14.830017%, 22.499084%, 69.618225%)" offset="0.28125"/><stop stop-opacity="1" stop-color="rgb(14.964294%, 22.81189%, 69.963074%)" offset="0.285156"/><stop stop-opacity="1" stop-color="rgb(15.100098%, 23.124695%, 70.309448%)" offset="0.289062"/><stop stop-opacity="1" stop-color="rgb(15.235901%, 23.435974%, 70.655823%)" offset="0.292969"/><stop stop-opacity="1" stop-color="rgb(15.371704%, 23.748779%, 71.002197%)" offset="0.296875"/><stop stop-opacity="1" stop-color="rgb(15.505981%, 24.061584%, 71.348572%)" offset="0.300781"/><stop stop-opacity="1" stop-color="rgb(15.641785%, 24.37439%, 71.694946%)" offset="0.304688"/><stop stop-opacity="1" stop-color="rgb(15.776062%, 24.685669%, 72.039795%)" offset="0.308594"/><stop stop-opacity="1" stop-color="rgb(15.911865%, 24.998474%, 72.386169%)" offset="0.3125"/><stop stop-opacity="1" stop-color="rgb(16.046143%, 25.311279%, 72.732544%)" offset="0.316406"/><stop stop-opacity="1" stop-color="rgb(16.181946%, 25.624084%, 73.078918%)" offset="0.320312"/><stop stop-opacity="1" stop-color="rgb(16.316223%, 25.93689%, 73.425293%)" offset="0.324219"/><stop stop-opacity="1" stop-color="rgb(16.452026%, 26.249695%, 73.771667%)" offset="0.328125"/><stop stop-opacity="1" stop-color="rgb(16.586304%, 26.560974%, 74.116516%)" offset="0.332031"/><stop stop-opacity="1" stop-color="rgb(16.722107%, 26.873779%, 74.462891%)" offset="0.335938"/><stop stop-opacity="1" stop-color="rgb(16.85791%, 27.186584%, 74.809265%)" offset="0.339844"/><stop stop-opacity="1" stop-color="rgb(16.993713%, 27.49939%, 75.15564%)" offset="0.34375"/><stop stop-opacity="1" stop-color="rgb(17.127991%, 27.810669%, 75.502014%)" offset="0.347656"/><stop stop-opacity="1" stop-color="rgb(17.263794%, 28.123474%, 75.848389%)" offset="0.351562"/><stop stop-opacity="1" stop-color="rgb(17.398071%, 28.436279%, 76.193237%)" offset="0.355469"/><stop stop-opacity="1" stop-color="rgb(17.533875%, 28.749084%, 76.539612%)" offset="0.359375"/><stop stop-opacity="1" stop-color="rgb(17.668152%, 29.06189%, 76.885986%)" offset="0.363281"/><stop stop-opacity="1" stop-color="rgb(17.803955%, 29.374695%, 77.232361%)" offset="0.367188"/><stop stop-opacity="1" stop-color="rgb(17.938232%, 29.685974%, 77.577209%)" offset="0.371094"/><stop stop-opacity="1" stop-color="rgb(18.074036%, 29.998779%, 77.923584%)" offset="0.375"/><stop stop-opacity="1" stop-color="rgb(18.208313%, 30.311584%, 78.269958%)" offset="0.378906"/><stop stop-opacity="1" stop-color="rgb(18.344116%, 30.62439%, 78.616333%)" offset="0.382812"/><stop stop-opacity="1" stop-color="rgb(18.478394%, 30.935669%, 78.962708%)" offset="0.386719"/><stop stop-opacity="1" stop-color="rgb(18.614197%, 31.248474%, 79.309082%)" offset="0.390625"/><stop stop-opacity="1" stop-color="rgb(18.75%, 31.561279%, 79.653931%)" offset="0.394531"/><stop stop-opacity="1" stop-color="rgb(18.885803%, 31.874084%, 80.000305%)" offset="0.398438"/><stop stop-opacity="1" stop-color="rgb(19.020081%, 32.18689%, 80.34668%)" offset="0.402344"/><stop stop-opacity="1" stop-color="rgb(19.155884%, 32.499695%, 80.693054%)" offset="0.40625"/><stop stop-opacity="1" stop-color="rgb(19.290161%, 32.810974%, 81.039429%)" offset="0.410156"/><stop stop-opacity="1" stop-color="rgb(19.425964%, 33.123779%, 81.385803%)" offset="0.414062"/><stop stop-opacity="1" stop-color="rgb(19.560242%, 33.436584%, 81.730652%)" offset="0.417969"/><stop stop-opacity="1" stop-color="rgb(19.696045%, 33.74939%, 82.077026%)" offset="0.421875"/><stop stop-opacity="1" stop-color="rgb(19.830322%, 34.060669%, 82.423401%)" offset="0.425781"/><stop stop-opacity="1" stop-color="rgb(19.966125%, 34.373474%, 82.769775%)" offset="0.429688"/><stop stop-opacity="1" stop-color="rgb(20.100403%, 34.686279%, 83.114624%)" offset="0.433594"/><stop stop-opacity="1" stop-color="rgb(20.236206%, 34.999084%, 83.460999%)" offset="0.4375"/><stop stop-opacity="1" stop-color="rgb(20.370483%, 35.31189%, 83.807373%)" offset="0.441406"/><stop stop-opacity="1" stop-color="rgb(20.506287%, 35.624695%, 84.153748%)" offset="0.445312"/><stop stop-opacity="1" stop-color="rgb(20.64209%, 35.935974%, 84.500122%)" offset="0.449219"/><stop stop-opacity="1" stop-color="rgb(20.777893%, 36.248779%, 84.846497%)" offset="0.453125"/><stop stop-opacity="1" stop-color="rgb(20.91217%, 36.561584%, 85.191345%)" offset="0.457031"/><stop stop-opacity="1" stop-color="rgb(21.047974%, 36.87439%, 85.53772%)" offset="0.460938"/><stop stop-opacity="1" stop-color="rgb(21.182251%, 37.185669%, 85.884094%)" offset="0.464844"/><stop stop-opacity="1" stop-color="rgb(21.318054%, 37.498474%, 86.230469%)" offset="0.46875"/><stop stop-opacity="1" stop-color="rgb(21.452332%, 37.811279%, 86.576843%)" offset="0.472656"/><stop stop-opacity="1" stop-color="rgb(21.588135%, 38.124084%, 86.923218%)" offset="0.476562"/><stop stop-opacity="1" stop-color="rgb(21.722412%, 38.43689%, 87.268066%)" offset="0.480469"/><stop stop-opacity="1" stop-color="rgb(21.858215%, 38.749695%, 87.614441%)" offset="0.484375"/><stop stop-opacity="1" stop-color="rgb(21.992493%, 39.060974%, 87.960815%)" offset="0.488281"/><stop stop-opacity="1" stop-color="rgb(22.128296%, 39.373779%, 88.30719%)" offset="0.492188"/><stop stop-opacity="1" stop-color="rgb(22.264099%, 39.686584%, 88.653564%)" offset="0.496094"/><stop stop-opacity="1" stop-color="rgb(22.399902%, 39.99939%, 88.999939%)" offset="0.5"/><stop stop-opacity="1" stop-color="rgb(22.579956%, 39.862061%, 88.999939%)" offset="0.507812"/><stop stop-opacity="1" stop-color="rgb(22.940063%, 39.585876%, 88.999939%)" offset="0.515625"/><stop stop-opacity="1" stop-color="rgb(23.301697%, 39.311218%, 88.999939%)" offset="0.523438"/><stop stop-opacity="1" stop-color="rgb(23.661804%, 39.03656%, 88.999939%)" offset="0.53125"/><stop stop-opacity="1" stop-color="rgb(24.023438%, 38.761902%, 88.999939%)" offset="0.539062"/><stop stop-opacity="1" stop-color="rgb(24.383545%, 38.487244%, 88.999939%)" offset="0.546875"/><stop stop-opacity="1" stop-color="rgb(24.745178%, 38.21106%, 88.999939%)" offset="0.554688"/><stop stop-opacity="1" stop-color="rgb(25.105286%, 37.936401%, 88.999939%)" offset="0.5625"/><stop stop-opacity="1" stop-color="rgb(25.466919%, 37.661743%, 88.999939%)" offset="0.570312"/><stop stop-opacity="1" stop-color="rgb(25.827026%, 37.387085%, 88.999939%)" offset="0.578125"/><stop stop-opacity="1" stop-color="rgb(26.18866%, 37.110901%, 88.999939%)" offset="0.585938"/><stop stop-opacity="1" stop-color="rgb(26.550293%, 36.836243%, 88.999939%)" offset="0.59375"/><stop stop-opacity="1" stop-color="rgb(26.9104%, 36.561584%, 88.999939%)" offset="0.601562"/><stop stop-opacity="1" stop-color="rgb(27.272034%, 36.286926%, 88.999939%)" offset="0.609375"/><stop stop-opacity="1" stop-color="rgb(27.632141%, 36.012268%, 88.999939%)" offset="0.617188"/><stop stop-opacity="1" stop-color="rgb(27.993774%, 35.736084%, 88.999939%)" offset="0.625"/><stop stop-opacity="1" stop-color="rgb(28.353882%, 35.461426%, 88.999939%)" offset="0.632812"/><stop stop-opacity="1" stop-color="rgb(28.715515%, 35.186768%, 88.999939%)" offset="0.640625"/><stop stop-opacity="1" stop-color="rgb(29.075623%, 34.912109%, 88.999939%)" offset="0.648438"/><stop stop-opacity="1" stop-color="rgb(29.437256%, 34.635925%, 88.999939%)" offset="0.65625"/><stop stop-opacity="1" stop-color="rgb(29.797363%, 34.361267%, 88.999939%)" offset="0.664062"/><stop stop-opacity="1" stop-color="rgb(30.158997%, 34.086609%, 88.999939%)" offset="0.671875"/><stop stop-opacity="1" stop-color="rgb(30.52063%, 33.811951%, 88.999939%)" offset="0.679688"/><stop stop-opacity="1" stop-color="rgb(30.880737%, 33.537292%, 88.999939%)" offset="0.6875"/><stop stop-opacity="1" stop-color="rgb(31.242371%, 33.261108%, 88.999939%)" offset="0.695312"/><stop stop-opacity="1" stop-color="rgb(31.602478%, 32.98645%, 88.999939%)" offset="0.703125"/><stop stop-opacity="1" stop-color="rgb(31.964111%, 32.711792%, 88.999939%)" offset="0.710938"/><stop stop-opacity="1" stop-color="rgb(32.324219%, 32.437134%, 88.999939%)" offset="0.71875"/><stop stop-opacity="1" stop-color="rgb(32.685852%, 32.16095%, 88.999939%)" offset="0.726562"/><stop stop-opacity="1" stop-color="rgb(33.045959%, 31.886292%, 88.999939%)" offset="0.734375"/><stop stop-opacity="1" stop-color="rgb(33.407593%, 31.611633%, 88.999939%)" offset="0.742188"/><stop stop-opacity="1" stop-color="rgb(33.7677%, 31.336975%, 88.999939%)" offset="0.75"/><stop stop-opacity="1" stop-color="rgb(34.129333%, 31.062317%, 88.999939%)" offset="0.757812"/><stop stop-opacity="1" stop-color="rgb(34.490967%, 30.786133%, 88.999939%)" offset="0.765625"/><stop stop-opacity="1" stop-color="rgb(34.851074%, 30.511475%, 88.999939%)" offset="0.773438"/><stop stop-opacity="1" stop-color="rgb(35.212708%, 30.236816%, 88.999939%)" offset="0.78125"/><stop stop-opacity="1" stop-color="rgb(35.572815%, 29.962158%, 88.999939%)" offset="0.789062"/><stop stop-opacity="1" stop-color="rgb(35.934448%, 29.685974%, 88.999939%)" offset="0.796875"/><stop stop-opacity="1" stop-color="rgb(36.294556%, 29.411316%, 88.999939%)" offset="0.804688"/><stop stop-opacity="1" stop-color="rgb(36.656189%, 29.136658%, 88.999939%)" offset="0.8125"/><stop stop-opacity="1" stop-color="rgb(37.016296%, 28.862%, 88.999939%)" offset="0.820312"/><stop stop-opacity="1" stop-color="rgb(37.37793%, 28.585815%, 88.999939%)" offset="0.828125"/><stop stop-opacity="1" stop-color="rgb(37.738037%, 28.311157%, 88.999939%)" offset="0.835938"/><stop stop-opacity="1" stop-color="rgb(38.09967%, 28.036499%, 88.999939%)" offset="0.84375"/><stop stop-opacity="1" stop-color="rgb(38.459778%, 27.761841%, 88.999939%)" offset="0.851562"/><stop stop-opacity="1" stop-color="rgb(38.821411%, 27.487183%, 88.999939%)" offset="0.859375"/><stop stop-opacity="1" stop-color="rgb(39.183044%, 27.210999%, 88.999939%)" offset="0.867188"/><stop stop-opacity="1" stop-color="rgb(39.543152%, 26.93634%, 88.999939%)" offset="0.875"/><stop stop-opacity="1" stop-color="rgb(39.904785%, 26.661682%, 88.999939%)" offset="0.882812"/><stop stop-opacity="1" stop-color="rgb(40.264893%, 26.387024%, 88.999939%)" offset="0.890625"/><stop stop-opacity="1" stop-color="rgb(40.626526%, 26.11084%, 88.999939%)" offset="0.898438"/><stop stop-opacity="1" stop-color="rgb(40.986633%, 25.836182%, 88.999939%)" offset="0.90625"/><stop stop-opacity="1" stop-color="rgb(41.348267%, 25.561523%, 88.999939%)" offset="0.914062"/><stop stop-opacity="1" stop-color="rgb(41.708374%, 25.286865%, 88.999939%)" offset="0.921875"/><stop stop-opacity="1" stop-color="rgb(42.070007%, 25.012207%, 88.999939%)" offset="0.929688"/><stop stop-opacity="1" stop-color="rgb(42.430115%, 24.736023%, 88.999939%)" offset="0.9375"/><stop stop-opacity="1" stop-color="rgb(42.791748%, 24.461365%, 88.999939%)" offset="0.945312"/><stop stop-opacity="1" stop-color="rgb(43.153381%, 24.186707%, 88.999939%)" offset="0.953125"/><stop stop-opacity="1" stop-color="rgb(43.513489%, 23.912048%, 88.999939%)" offset="0.960938"/><stop stop-opacity="1" stop-color="rgb(43.875122%, 23.635864%, 88.999939%)" offset="0.96875"/><stop stop-opacity="1" stop-color="rgb(44.235229%, 23.361206%, 88.999939%)" offset="0.976562"/><stop stop-opacity="1" stop-color="rgb(44.596863%, 23.086548%, 88.999939%)" offset="0.984375"/><stop stop-opacity="1" stop-color="rgb(44.95697%, 22.81189%, 88.999939%)" offset="0.992188"/><stop stop-opacity="1" stop-color="rgb(45.318604%, 22.537231%, 88.999939%)" offset="1"/></linearGradient><clipPath id="bd5363ea64"><path d="M 258.535156 8 L 345 8 L 345 101 L 258.535156 101 Z M 258.535156 8 " clip-rule="nonzero"/></clipPath></defs><g clip-path="url(#9a8f283571)"><path fill="#ffffff" d="M 2.355469 0 L 1062.644531 0 L 1062.644531 112.003906 L 2.355469 112.003906 Z M 2.355469 0 " fill-opacity="1" fill-rule="nonzero"/><path fill="url(#6c7e71450a)" d="M 2.355469 0 L 2.355469 112.003906 L 1062.644531 112.003906 L 1062.644531 0 Z M 2.355469 0 " fill-rule="nonzero"/></g><g clip-path="url(#bd5363ea64)"><path fill="#000000" d="M 259.433594 8.097656 C 258.90625 8.097656 258.480469 8.527344 258.480469 9.058594 L 258.480469 99.570312 C 258.480469 100.101562 258.90625 100.535156 259.433594 100.535156 L 324.757812 100.535156 C 325.289062 100.535156 325.71875 100.101562 325.71875 99.570312 L 325.71875 75.003906 L 340.214844 60.441406 C 340.570312 61.316406 340.390625 62.34375 339.671875 63.058594 L 330.3125 72.460938 C 329.9375 72.839844 329.9375 73.449219 330.3125 73.828125 C 330.683594 74.203125 331.296875 74.203125 331.667969 73.824219 L 341.027344 64.425781 C 342.714844 62.730469 342.714844 59.953125 341.027344 58.261719 L 340.113281 57.339844 L 343.738281 53.695312 C 345 52.429688 345.046875 50.351562 343.789062 49.085938 C 343.164062 48.453125 342.328125 48.148438 341.496094 48.164062 C 340.664062 48.175781 339.832031 48.503906 339.199219 49.136719 L 335.574219 52.78125 L 334.65625 51.859375 C 334.476562 51.675781 334.226562 51.574219 333.964844 51.578125 C 333.71875 51.582031 333.476562 51.683594 333.300781 51.859375 L 325.71875 59.476562 L 325.71875 17.519531 C 325.71875 17.488281 325.71875 17.453125 325.714844 17.425781 C 325.703125 17.183594 325.601562 16.964844 325.433594 16.792969 L 317.023438 8.378906 L 317.023438 8.375 C 317.003906 8.355469 316.980469 8.332031 316.957031 8.3125 C 316.933594 8.292969 316.902344 8.273438 316.878906 8.257812 C 316.878906 8.253906 316.875 8.253906 316.875 8.253906 C 316.847656 8.238281 316.820312 8.21875 316.796875 8.207031 C 316.765625 8.195312 316.734375 8.179688 316.707031 8.164062 C 316.695312 8.164062 316.691406 8.160156 316.683594 8.160156 C 316.664062 8.148438 316.636719 8.140625 316.613281 8.136719 C 316.585938 8.125 316.554688 8.121094 316.527344 8.109375 L 316.519531 8.109375 C 316.511719 8.109375 316.5 8.109375 316.492188 8.109375 C 316.472656 8.105469 316.449219 8.101562 316.429688 8.101562 C 316.398438 8.097656 316.375 8.097656 316.351562 8.097656 Z M 259.433594 8.097656 " fill-opacity="1" fill-rule="nonzero"/></g><path fill="#f5f5f5" d="M 260.390625 10.023438 L 260.390625 98.609375 L 323.800781 98.609375 L 323.800781 76.929688 L 313.972656 86.804688 C 313.964844 86.8125 313.953125 86.824219 313.945312 86.828125 L 310.917969 89.867188 C 310.757812 90.136719 310.476562 90.3125 310.164062 90.332031 L 300.835938 93.453125 C 300.832031 93.460938 300.828125 93.460938 300.820312 93.460938 C 300.792969 93.46875 300.761719 93.480469 300.734375 93.484375 C 300.730469 93.484375 300.730469 93.484375 300.730469 93.484375 C 300.664062 93.5 300.597656 93.503906 300.53125 93.503906 L 277.738281 93.503906 C 276.457031 93.503906 276.457031 91.578125 277.738281 91.578125 L 299.839844 91.578125 L 302.757812 82.792969 C 302.796875 82.539062 302.933594 82.3125 303.140625 82.160156 L 306.125 79.160156 C 306.191406 79.070312 306.261719 78.996094 306.347656 78.9375 L 323.800781 61.402344 L 323.800781 18.460938 L 316.351562 18.460938 C 315.820312 18.460938 315.390625 18.03125 315.390625 17.5 L 315.390625 10.023438 Z M 265.066406 16.535156 L 285.34375 16.535156 C 285.871094 16.535156 286.300781 16.96875 286.300781 17.5 L 286.300781 42.390625 C 286.300781 42.921875 285.871094 43.355469 285.34375 43.355469 L 265.066406 43.355469 C 264.539062 43.355469 264.109375 42.921875 264.109375 42.390625 L 264.109375 17.5 C 264.109375 16.96875 264.539062 16.535156 265.066406 16.535156 Z M 292.097656 18.800781 L 307.867188 18.800781 C 308.398438 18.796875 308.832031 19.226562 308.832031 19.761719 C 308.832031 20.300781 308.398438 20.730469 307.867188 20.726562 L 292.097656 20.726562 C 291.566406 20.730469 291.132812 20.300781 291.132812 19.761719 C 291.132812 19.226562 291.566406 18.796875 292.097656 18.800781 Z M 292.097656 25.585938 L 316.878906 25.585938 C 317.410156 25.582031 317.847656 26.011719 317.847656 26.546875 C 317.847656 27.089844 317.410156 27.519531 316.878906 27.511719 L 292.097656 27.511719 C 291.566406 27.519531 291.132812 27.089844 291.132812 26.546875 C 291.132812 26.011719 291.566406 25.582031 292.097656 25.585938 Z M 292.097656 32.375 L 316.878906 32.375 C 317.40625 32.375 317.835938 32.808594 317.835938 33.335938 C 317.835938 33.871094 317.40625 34.300781 316.878906 34.300781 L 292.097656 34.300781 C 290.824219 34.300781 290.824219 32.378906 292.097656 32.375 Z M 316.878906 39.164062 C 317.414062 39.152344 317.859375 39.585938 317.859375 40.125 C 317.855469 40.671875 317.414062 41.105469 316.878906 41.089844 L 292.097656 41.089844 C 291.554688 41.105469 291.113281 40.671875 291.113281 40.125 C 291.113281 39.582031 291.554688 39.148438 292.097656 39.164062 Z M 265.066406 47.082031 L 316.878906 47.082031 C 317.40625 47.082031 317.832031 47.515625 317.832031 48.046875 L 317.832031 54.835938 C 317.832031 55.367188 317.40625 55.796875 316.878906 55.796875 L 265.066406 55.796875 C 264.539062 55.796875 264.109375 55.367188 264.109375 54.835938 L 264.109375 48.046875 C 264.109375 47.515625 264.539062 47.082031 265.066406 47.082031 Z M 265.066406 60.664062 L 313.269531 60.664062 C 314.535156 60.671875 314.535156 62.574219 313.269531 62.589844 L 265.066406 62.589844 C 263.800781 62.574219 263.800781 60.671875 265.066406 60.664062 Z M 265.066406 66.691406 L 313.269531 66.691406 C 314.546875 66.691406 314.546875 68.609375 313.269531 68.617188 L 265.066406 68.617188 C 264.539062 68.617188 264.109375 68.183594 264.109375 67.652344 C 264.109375 67.117188 264.539062 66.691406 265.066406 66.691406 Z M 265.066406 72.34375 L 271.828125 72.34375 C 272.355469 72.34375 272.785156 72.777344 272.78125 73.308594 L 272.78125 80.097656 C 272.78125 80.628906 272.355469 81.058594 271.828125 81.058594 L 265.066406 81.058594 C 264.539062 81.058594 264.109375 80.628906 264.109375 80.097656 L 264.109375 73.308594 C 264.109375 72.777344 264.539062 72.34375 265.066406 72.34375 Z M 292.109375 74.609375 C 292.648438 74.601562 293.085938 75.035156 293.085938 75.578125 C 293.082031 76.117188 292.636719 76.550781 292.097656 76.535156 L 277.738281 76.535156 C 277.195312 76.550781 276.75 76.113281 276.75 75.574219 C 276.75 75.027344 277.195312 74.589844 277.738281 74.609375 L 292.097656 74.609375 C 292.105469 74.609375 292.105469 74.609375 292.109375 74.609375 Z M 300.542969 79.132812 C 301.082031 79.125 301.519531 79.5625 301.515625 80.101562 C 301.515625 80.640625 301.070312 81.074219 300.53125 81.058594 L 277.738281 81.058594 C 277.195312 81.078125 276.75 80.640625 276.75 80.097656 C 276.75 79.550781 277.195312 79.121094 277.738281 79.132812 L 300.53125 79.132812 C 300.53125 79.132812 300.539062 79.132812 300.542969 79.132812 Z M 265.066406 84.792969 L 271.828125 84.792969 C 272.355469 84.792969 272.78125 85.222656 272.78125 85.757812 L 272.78125 92.539062 C 272.785156 93.078125 272.355469 93.503906 271.828125 93.503906 L 265.066406 93.503906 C 264.539062 93.503906 264.109375 93.078125 264.109375 92.539062 L 264.109375 85.757812 C 264.109375 85.222656 264.539062 84.792969 265.066406 84.792969 Z M 277.738281 87.054688 L 292.097656 87.054688 C 293.367188 87.0625 293.367188 88.96875 292.097656 88.980469 L 277.738281 88.980469 C 276.472656 88.96875 276.472656 87.0625 277.738281 87.054688 Z M 277.738281 87.054688 " fill-opacity="1" fill-rule="nonzero"/><path fill="#9e9e9e" d="M 317.308594 11.382812 L 322.441406 16.535156 L 317.308594 16.535156 Z M 317.308594 11.382812 " fill-opacity="1" fill-rule="nonzero"/><path fill="#00a8cc" d="M 266.023438 18.460938 L 266.023438 37.601562 C 268.023438 34.652344 271.394531 32.71875 275.203125 32.71875 C 279.015625 32.71875 282.382812 34.652344 284.382812 37.601562 L 284.382812 18.460938 Z M 275.203125 22.023438 C 277.585938 22.023438 279.539062 23.988281 279.539062 26.382812 C 279.539062 28.777344 277.585938 30.738281 275.203125 30.738281 C 272.820312 30.738281 270.863281 28.777344 270.863281 26.382812 C 270.863281 23.988281 272.820312 22.023438 275.203125 22.023438 Z M 266.023438 53.871094 L 315.914062 53.871094 L 315.914062 49.007812 L 266.023438 49.007812 Z M 304.296875 84.238281 L 302.050781 91.019531 L 308.796875 88.757812 C 308.371094 87.921875 307.71875 87.015625 306.878906 86.167969 C 306.039062 85.324219 305.128906 84.671875 304.296875 84.238281 Z M 266.023438 91.578125 L 270.863281 91.578125 L 270.863281 86.71875 L 266.023438 86.71875 Z M 266.023438 91.578125 " fill-opacity="1" fill-rule="nonzero"/><path fill="#ffccbc" d="M 275.203125 23.949219 C 276.550781 23.949219 277.625 25.03125 277.625 26.382812 C 277.625 27.738281 276.550781 28.8125 275.203125 28.8125 C 273.855469 28.8125 272.78125 27.738281 272.78125 26.382812 C 272.78125 25.03125 273.855469 23.949219 275.203125 23.949219 Z M 275.203125 23.949219 " fill-opacity="1" fill-rule="nonzero"/><path fill="#ffa41b" d="M 275.203125 34.640625 C 270.960938 34.640625 267.414062 37.519531 266.351562 41.429688 L 284.054688 41.429688 C 282.996094 37.519531 279.445312 34.640625 275.203125 34.640625 Z M 333.980469 53.902344 L 325.566406 62.351562 C 325.492188 62.46875 325.390625 62.574219 325.273438 62.652344 L 308.585938 79.414062 C 309.308594 79.808594 310.03125 80.316406 310.738281 80.925781 C 311.847656 79.816406 313.171875 78.480469 314.15625 77.492188 C 314.332031 77.3125 314.566406 77.207031 314.816406 77.203125 C 315.691406 77.175781 316.140625 78.246094 315.515625 78.855469 C 314.53125 79.839844 313.203125 81.179688 312.089844 82.292969 C 312.703125 82.996094 313.207031 83.722656 313.601562 84.449219 L 323.953125 74.054688 C 324.027344 73.9375 324.125 73.839844 324.242188 73.757812 L 338.992188 58.941406 Z M 318.929688 73.066406 C 319.808594 73.042969 320.257812 74.109375 319.628906 74.71875 L 318.457031 75.898438 C 317.554688 76.800781 316.203125 75.441406 317.101562 74.535156 L 318.273438 73.355469 C 318.449219 73.179688 318.683594 73.070312 318.929688 73.066406 Z M 266.023438 79.132812 L 270.863281 79.132812 L 270.863281 74.269531 L 266.023438 74.269531 Z M 266.023438 79.132812 " fill-opacity="1" fill-rule="nonzero"/><path fill="#005082" d="M 341.511719 50.074219 C 341.179688 50.082031 340.835938 50.21875 340.558594 50.496094 L 336.929688 54.144531 L 338.757812 55.980469 L 342.386719 52.335938 C 342.941406 51.773438 342.941406 50.960938 342.433594 50.449219 C 342.179688 50.191406 341.847656 50.066406 341.511719 50.074219 Z M 307.152344 80.855469 L 305.378906 82.636719 C 306.351562 83.164062 307.324219 83.894531 308.234375 84.808594 C 309.144531 85.71875 309.867188 86.695312 310.394531 87.671875 L 312.167969 85.890625 C 311.753906 84.964844 311.046875 83.914062 310.082031 82.945312 C 309.125 81.980469 308.078125 81.265625 307.152344 80.855469 Z M 307.152344 80.855469 " fill-opacity="1" fill-rule="nonzero"/><g fill="#ffffff" fill-opacity="1"><g transform="translate(382.396549, 63.841257)"><g><path d="M 2.03125 0 L 2.03125 -15.640625 L 8.3125 -15.640625 C 9.925781 -15.640625 11.144531 -15.265625 11.96875 -14.515625 C 12.789062 -13.773438 13.203125 -12.75 13.203125 -11.4375 C 13.203125 -10.488281 12.960938 -9.707031 12.484375 -9.09375 C 12.003906 -8.488281 11.285156 -8.03125 10.328125 -7.71875 L 10.328125 -7.484375 C 10.828125 -7.273438 11.226562 -6.957031 11.53125 -6.53125 C 11.832031 -6.113281 12.117188 -5.488281 12.390625 -4.65625 L 13.953125 0 L 10.765625 0 L 9.234375 -4.671875 C 9.078125 -5.140625 8.898438 -5.503906 8.703125 -5.765625 C 8.515625 -6.023438 8.269531 -6.210938 7.96875 -6.328125 C 7.664062 -6.453125 7.269531 -6.515625 6.78125 -6.515625 L 5.125 -6.515625 L 5.125 0 Z M 7.9375 -8.96875 C 9.4375 -8.96875 10.1875 -9.664062 10.1875 -11.0625 C 10.1875 -12.476562 9.4375 -13.1875 7.9375 -13.1875 L 5.125 -13.1875 L 5.125 -8.96875 Z M 7.9375 -8.96875 "/></g></g></g><g fill="#ffffff" fill-opacity="1"><g transform="translate(397.013552, 63.841257)"><g><path d="M 5.125 -6.859375 L 5.125 -2.59375 L 12.59375 -2.59375 L 12.59375 0 L 2.03125 0 L 2.03125 -15.640625 L 12.421875 -15.640625 L 12.421875 -13.046875 L 5.125 -13.046875 L 5.125 -9.390625 L 11.5 -9.390625 L 11.5 -6.859375 Z M 5.125 -6.859375 "/></g></g></g><g fill="#ffffff" fill-opacity="1"><g transform="translate(410.454352, 63.841257)"><g><path d="M 7.59375 0.21875 C 6.289062 0.21875 5.160156 -0.078125 4.203125 -0.671875 C 3.253906 -1.265625 2.519531 -2.160156 2 -3.359375 C 1.488281 -4.566406 1.234375 -6.050781 1.234375 -7.8125 C 1.234375 -9.601562 1.539062 -11.097656 2.15625 -12.296875 C 2.78125 -13.492188 3.640625 -14.382812 4.734375 -14.96875 C 5.835938 -15.5625 7.117188 -15.859375 8.578125 -15.859375 C 10.078125 -15.859375 11.351562 -15.578125 12.40625 -15.015625 C 13.457031 -14.460938 14.195312 -13.640625 14.625 -12.546875 L 12.375 -11.171875 L 12.109375 -11.1875 C 11.785156 -11.882812 11.332031 -12.394531 10.75 -12.71875 C 10.175781 -13.039062 9.453125 -13.203125 8.578125 -13.203125 C 7.234375 -13.203125 6.203125 -12.773438 5.484375 -11.921875 C 4.773438 -11.066406 4.421875 -9.695312 4.421875 -7.8125 C 4.421875 -5.925781 4.753906 -4.554688 5.421875 -3.703125 C 6.085938 -2.847656 7.070312 -2.421875 8.375 -2.421875 C 9.5 -2.421875 10.328125 -2.671875 10.859375 -3.171875 C 11.398438 -3.679688 11.671875 -4.4375 11.671875 -5.4375 L 11.671875 -6.125 L 7.96875 -6.125 L 7.96875 -8.625 L 14.734375 -8.625 L 14.734375 0 L 11.78125 0 L 11.78125 -2.09375 L 11.5625 -2.125 C 11.238281 -1.375 10.75 -0.796875 10.09375 -0.390625 C 9.445312 0.015625 8.613281 0.21875 7.59375 0.21875 Z M 7.59375 0.21875 "/></g></g></g><g fill="#ffffff" fill-opacity="1"><g transform="translate(426.760811, 63.841257)"><g><path d="M 5.125 0 L 2.03125 0 L 2.03125 -15.640625 L 5.125 -15.640625 Z M 5.125 0 "/></g></g></g><g fill="#ffffff" fill-opacity="1"><g transform="translate(433.924957, 63.841257)"><g><path d="M 6.9375 0.21875 C 5.851562 0.21875 4.882812 0.0859375 4.03125 -0.171875 C 3.1875 -0.441406 2.484375 -0.789062 1.921875 -1.21875 C 1.359375 -1.65625 0.925781 -2.132812 0.625 -2.65625 L 2.328125 -4.734375 L 2.59375 -4.734375 C 3.070312 -4.035156 3.671875 -3.476562 4.390625 -3.0625 C 5.117188 -2.65625 5.96875 -2.453125 6.9375 -2.453125 C 7.757812 -2.453125 8.378906 -2.625 8.796875 -2.96875 C 9.222656 -3.320312 9.4375 -3.804688 9.4375 -4.421875 C 9.4375 -4.785156 9.367188 -5.09375 9.234375 -5.34375 C 9.097656 -5.59375 8.875 -5.804688 8.5625 -5.984375 C 8.25 -6.160156 7.820312 -6.316406 7.28125 -6.453125 L 5.265625 -6.90625 C 3.867188 -7.226562 2.828125 -7.757812 2.140625 -8.5 C 1.453125 -9.25 1.109375 -10.21875 1.109375 -11.40625 C 1.109375 -12.289062 1.328125 -13.066406 1.765625 -13.734375 C 2.203125 -14.410156 2.84375 -14.929688 3.6875 -15.296875 C 4.539062 -15.671875 5.554688 -15.859375 6.734375 -15.859375 C 7.929688 -15.859375 8.957031 -15.695312 9.8125 -15.375 C 10.675781 -15.0625 11.40625 -14.578125 12 -13.921875 L 10.46875 -11.828125 L 10.203125 -11.828125 C 9.765625 -12.296875 9.257812 -12.644531 8.6875 -12.875 C 8.113281 -13.101562 7.460938 -13.21875 6.734375 -13.21875 C 5.878906 -13.21875 5.226562 -13.066406 4.78125 -12.765625 C 4.34375 -12.472656 4.125 -12.0625 4.125 -11.53125 C 4.125 -11.039062 4.28125 -10.648438 4.59375 -10.359375 C 4.90625 -10.066406 5.441406 -9.835938 6.203125 -9.671875 L 8.25 -9.234375 C 9.769531 -8.921875 10.875 -8.378906 11.5625 -7.609375 C 12.25 -6.835938 12.59375 -5.835938 12.59375 -4.609375 C 12.59375 -3.628906 12.378906 -2.773438 11.953125 -2.046875 C 11.535156 -1.328125 10.898438 -0.769531 10.046875 -0.375 C 9.203125 0.0195312 8.164062 0.21875 6.9375 0.21875 Z M 6.9375 0.21875 "/></g></g></g><g fill="#ffffff" fill-opacity="1"><g transform="translate(447.355059, 63.841257)"><g><path d="M 12.53125 -15.640625 L 12.53125 -13.03125 L 8.015625 -13.03125 L 8.015625 0 L 4.9375 0 L 4.9375 -13.03125 L 0.421875 -13.03125 L 0.421875 -15.640625 Z M 12.53125 -15.640625 "/></g></g></g><g fill="#ffffff" fill-opacity="1"><g transform="translate(460.314679, 63.841257)"><g><path d="M 2.03125 0 L 2.03125 -15.640625 L 8.3125 -15.640625 C 9.925781 -15.640625 11.144531 -15.265625 11.96875 -14.515625 C 12.789062 -13.773438 13.203125 -12.75 13.203125 -11.4375 C 13.203125 -10.488281 12.960938 -9.707031 12.484375 -9.09375 C 12.003906 -8.488281 11.285156 -8.03125 10.328125 -7.71875 L 10.328125 -7.484375 C 10.828125 -7.273438 11.226562 -6.957031 11.53125 -6.53125 C 11.832031 -6.113281 12.117188 -5.488281 12.390625 -4.65625 L 13.953125 0 L 10.765625 0 L 9.234375 -4.671875 C 9.078125 -5.140625 8.898438 -5.503906 8.703125 -5.765625 C 8.515625 -6.023438 8.269531 -6.210938 7.96875 -6.328125 C 7.664062 -6.453125 7.269531 -6.515625 6.78125 -6.515625 L 5.125 -6.515625 L 5.125 0 Z M 7.9375 -8.96875 C 9.4375 -8.96875 10.1875 -9.664062 10.1875 -11.0625 C 10.1875 -12.476562 9.4375 -13.1875 7.9375 -13.1875 L 5.125 -13.1875 L 5.125 -8.96875 Z M 7.9375 -8.96875 "/></g></g></g><g fill="#ffffff" fill-opacity="1"><g transform="translate(474.931682, 63.841257)"><g><path d="M 15 0 L 11.75 0 L 10.578125 -3.609375 L 4.59375 -3.609375 L 3.40625 0 L 0.234375 0 L 5.640625 -15.640625 L 9.609375 -15.640625 Z M 7.4375 -12.375 L 5.421875 -6.203125 L 9.71875 -6.203125 L 7.703125 -12.375 Z M 7.4375 -12.375 "/></g></g></g><g fill="#ffffff" fill-opacity="1"><g transform="translate(490.168865, 63.841257)"><g><path d="M 12.53125 -15.640625 L 12.53125 -13.03125 L 8.015625 -13.03125 L 8.015625 0 L 4.9375 0 L 4.9375 -13.03125 L 0.421875 -13.03125 L 0.421875 -15.640625 Z M 12.53125 -15.640625 "/></g></g></g><g fill="#ffffff" fill-opacity="1"><g transform="translate(503.128486, 63.841257)"><g><path d="M 5.125 0 L 2.03125 0 L 2.03125 -15.640625 L 5.125 -15.640625 Z M 5.125 0 "/></g></g></g><g fill="#ffffff" fill-opacity="1"><g transform="translate(510.292632, 63.841257)"><g><path d="M 8.53125 0.21875 C 7.09375 0.21875 5.828125 -0.0703125 4.734375 -0.65625 C 3.640625 -1.238281 2.78125 -2.128906 2.15625 -3.328125 C 1.539062 -4.535156 1.234375 -6.03125 1.234375 -7.8125 C 1.234375 -9.601562 1.539062 -11.097656 2.15625 -12.296875 C 2.78125 -13.503906 3.640625 -14.398438 4.734375 -14.984375 C 5.828125 -15.566406 7.09375 -15.859375 8.53125 -15.859375 C 9.957031 -15.859375 11.21875 -15.566406 12.3125 -14.984375 C 13.40625 -14.410156 14.257812 -13.519531 14.875 -12.3125 C 15.488281 -11.101562 15.796875 -9.601562 15.796875 -7.8125 C 15.796875 -6.03125 15.488281 -4.535156 14.875 -3.328125 C 14.257812 -2.117188 13.40625 -1.222656 12.3125 -0.640625 C 11.21875 -0.0664062 9.957031 0.21875 8.53125 0.21875 Z M 8.53125 -2.453125 C 9.851562 -2.453125 10.863281 -2.878906 11.5625 -3.734375 C 12.257812 -4.585938 12.609375 -5.945312 12.609375 -7.8125 C 12.609375 -9.6875 12.257812 -11.050781 11.5625 -11.90625 C 10.863281 -12.757812 9.851562 -13.1875 8.53125 -13.1875 C 7.195312 -13.1875 6.175781 -12.757812 5.46875 -11.90625 C 4.769531 -11.050781 4.421875 -9.6875 4.421875 -7.8125 C 4.421875 -5.945312 4.769531 -4.585938 5.46875 -3.734375 C 6.175781 -2.878906 7.195312 -2.453125 8.53125 -2.453125 Z M 8.53125 -2.453125 "/></g></g></g><g fill="#ffffff" fill-opacity="1"><g transform="translate(527.326199, 63.841257)"><g><path d="M 5.03125 0 L 2.03125 0 L 2.03125 -15.640625 L 5.578125 -15.640625 L 11.859375 -5.5625 L 12.125 -5.609375 L 12.125 -15.640625 L 15.109375 -15.640625 L 15.109375 0 L 11.9375 0 L 5.296875 -10.765625 L 5.03125 -10.71875 Z M 5.03125 0 "/></g></g></g><g fill="#ffffff" fill-opacity="1"><g transform="translate(544.466692, 63.841257)"><g/></g></g><g fill="#ffffff" fill-opacity="1"><g transform="translate(549.631299, 63.841257)"><g><path d="M 11.953125 -15.640625 L 11.953125 -13.046875 L 5.125 -13.046875 L 5.125 -8.90625 L 11.3125 -8.90625 L 11.3125 -6.359375 L 5.125 -6.359375 L 5.125 0 L 2.03125 0 L 2.03125 -15.640625 Z M 11.953125 -15.640625 "/></g></g></g><g fill="#ffffff" fill-opacity="1"><g transform="translate(562.270137, 63.841257)"><g><path d="M 8.53125 0.21875 C 7.09375 0.21875 5.828125 -0.0703125 4.734375 -0.65625 C 3.640625 -1.238281 2.78125 -2.128906 2.15625 -3.328125 C 1.539062 -4.535156 1.234375 -6.03125 1.234375 -7.8125 C 1.234375 -9.601562 1.539062 -11.097656 2.15625 -12.296875 C 2.78125 -13.503906 3.640625 -14.398438 4.734375 -14.984375 C 5.828125 -15.566406 7.09375 -15.859375 8.53125 -15.859375 C 9.957031 -15.859375 11.21875 -15.566406 12.3125 -14.984375 C 13.40625 -14.410156 14.257812 -13.519531 14.875 -12.3125 C 15.488281 -11.101562 15.796875 -9.601562 15.796875 -7.8125 C 15.796875 -6.03125 15.488281 -4.535156 14.875 -3.328125 C 14.257812 -2.117188 13.40625 -1.222656 12.3125 -0.640625 C 11.21875 -0.0664062 9.957031 0.21875 8.53125 0.21875 Z M 8.53125 -2.453125 C 9.851562 -2.453125 10.863281 -2.878906 11.5625 -3.734375 C 12.257812 -4.585938 12.609375 -5.945312 12.609375 -7.8125 C 12.609375 -9.6875 12.257812 -11.050781 11.5625 -11.90625 C 10.863281 -12.757812 9.851562 -13.1875 8.53125 -13.1875 C 7.195312 -13.1875 6.175781 -12.757812 5.46875 -11.90625 C 4.769531 -11.050781 4.421875 -9.6875 4.421875 -7.8125 C 4.421875 -5.945312 4.769531 -4.585938 5.46875 -3.734375 C 6.175781 -2.878906 7.195312 -2.453125 8.53125 -2.453125 Z M 8.53125 -2.453125 "/></g></g></g><g fill="#ffffff" fill-opacity="1"><g transform="translate(579.303703, 63.841257)"><g><path d="M 2.03125 0 L 2.03125 -15.640625 L 8.3125 -15.640625 C 9.925781 -15.640625 11.144531 -15.265625 11.96875 -14.515625 C 12.789062 -13.773438 13.203125 -12.75 13.203125 -11.4375 C 13.203125 -10.488281 12.960938 -9.707031 12.484375 -9.09375 C 12.003906 -8.488281 11.285156 -8.03125 10.328125 -7.71875 L 10.328125 -7.484375 C 10.828125 -7.273438 11.226562 -6.957031 11.53125 -6.53125 C 11.832031 -6.113281 12.117188 -5.488281 12.390625 -4.65625 L 13.953125 0 L 10.765625 0 L 9.234375 -4.671875 C 9.078125 -5.140625 8.898438 -5.503906 8.703125 -5.765625 C 8.515625 -6.023438 8.269531 -6.210938 7.96875 -6.328125 C 7.664062 -6.453125 7.269531 -6.515625 6.78125 -6.515625 L 5.125 -6.515625 L 5.125 0 Z M 7.9375 -8.96875 C 9.4375 -8.96875 10.1875 -9.664062 10.1875 -11.0625 C 10.1875 -12.476562 9.4375 -13.1875 7.9375 -13.1875 L 5.125 -13.1875 L 5.125 -8.96875 Z M 7.9375 -8.96875 "/></g></g></g><g fill="#ffffff" fill-opacity="1"><g transform="translate(593.920706, 63.841257)"><g><path d="M 4.859375 0 L 2.03125 0 L 2.03125 -15.640625 L 6.078125 -15.640625 L 10.03125 -4.140625 L 10.265625 -4.140625 L 14.1875 -15.640625 L 18.140625 -15.640625 L 18.140625 0 L 15.203125 0 L 15.203125 -10.328125 L 14.9375 -10.375 L 11.328125 0 L 8.75 0 L 5.140625 -10.375 L 4.859375 -10.328125 Z M 4.859375 0 "/></g></g></g></svg>